<svg width="221" height="300" viewBox="0 0 221 300" fill="none" xmlns="http://www.w3.org/2000/svg">
<path d="M214.633 299.612H5.5C2.46667 299.612 0 297.267 0 294.384V5.22772C0 2.34455 2.46667 0 5.5 0H214.633C217.667 0 220.133 2.34455 220.133 5.22772V294.4C220.133 297.283 217.667 299.628 214.633 299.628V299.612ZM5.5 1.58416C3.38333 1.58416 1.66667 3.21584 1.66667 5.22772V294.4C1.66667 296.412 3.38333 298.044 5.5 298.044H214.633C216.75 298.044 218.467 296.412 218.467 294.4V5.22772C218.467 3.21584 216.75 1.58416 214.633 1.58416H5.5Z" fill="#DCEBFB"/>
<path d="M215.949 294.384V5.22777C215.949 4.52785 215.352 3.96045 214.615 3.96045H5.4985C4.76212 3.96045 4.16516 4.52785 4.16516 5.22777V294.384C4.16516 295.084 4.76212 295.652 5.4985 295.652H214.615C215.352 295.652 215.949 295.084 215.949 294.384Z" fill="#DCEBFB"/>
<path d="M205.949 286.147V13.4653H14.1652V286.147H205.949Z" fill="white"/>
<path d="M202.615 283.2V16.8557H17.4985V283.2H202.615Z" fill="#DCEBFB"/>
<path d="M44.7002 35.1523H36.5835V42.9622H44.7002V35.1523Z" fill="white"/>
<path d="M63.7836 57.3462H59.7336V61.2432H63.7836V57.3462Z" fill="white"/>
<path d="M21.55 16.8713H17.5V20.7684H21.55V16.8713Z" fill="white"/>
<path d="M21.55 57.3462H17.5V61.2432H21.55V57.3462Z" fill="white"/>
<path d="M63.7833 16.8713H59.7336V20.7684H63.7836L63.7833 16.8713Z" fill="white"/>
<path d="M40.433 57.8853C38.4663 57.8853 36.883 59.3902 36.883 61.2595H43.983C43.983 59.3902 42.3997 57.8853 40.433 57.8853Z" fill="white"/>
<path d="M40.433 20.2456C42.3997 20.2456 43.983 18.7406 43.983 16.8713H36.883C36.883 18.7406 38.4663 20.2456 40.433 20.2456Z" fill="white"/>
<path d="M17.5 35.6753V42.4238C19.4667 42.4238 21.05 40.9189 21.05 39.0495C21.05 37.1802 19.4667 35.6753 17.5 35.6753Z" fill="white"/>
<path d="M60.2324 39.0649C60.2324 40.9342 61.8157 42.4392 63.7824 42.4392V35.6907C61.8157 35.6907 60.2324 37.1956 60.2324 39.0649Z" fill="white"/>
<path d="M90.9833 35.1523H82.8666V42.9622H90.9833V35.1523Z" fill="white"/>
<path d="M110.066 57.3462H106.016V61.2432H110.066V57.3462Z" fill="white"/>
<path d="M67.8321 16.8713H63.7821V20.7684H67.8321V16.8713Z" fill="white"/>
<path d="M67.8321 57.3462H63.7821V61.2432H67.8321V57.3462Z" fill="white"/>
<path d="M110.065 16.8713H106.016V20.7684H110.066L110.065 16.8713Z" fill="white"/>
<path d="M86.7161 57.8853C84.7494 57.8853 83.1661 59.3902 83.1661 61.2595H90.2661C90.2661 59.3902 88.6827 57.8853 86.7161 57.8853Z" fill="white"/>
<path d="M86.7161 20.2456C88.6827 20.2456 90.2661 18.7406 90.2661 16.8713H83.1661C83.1661 18.7406 84.7494 20.2456 86.7161 20.2456Z" fill="white"/>
<path d="M63.7821 35.6753V42.4238C65.7487 42.4238 67.3321 40.9189 67.3321 39.0495C67.3321 37.1802 65.7487 35.6753 63.7821 35.6753Z" fill="white"/>
<path d="M106.515 39.0649C106.515 40.9342 108.099 42.4392 110.065 42.4392V35.6907C108.099 35.6907 106.515 37.1956 106.515 39.0649Z" fill="white"/>
<path d="M137.267 35.1523H129.151V42.9622H137.267V35.1523Z" fill="white"/>
<path d="M156.334 57.3462H152.284V61.2432H156.334V57.3462Z" fill="white"/>
<path d="M114.117 16.8713H110.067V20.7684H114.117V16.8713Z" fill="white"/>
<path d="M114.117 57.3462H110.067V61.2432H114.117V57.3462Z" fill="white"/>
<path d="M156.334 16.8713H152.284V20.7684H156.334V16.8713Z" fill="white"/>
<path d="M132.983 57.8853C131.016 57.8853 129.433 59.3902 129.433 61.2595H136.533C136.533 59.3902 134.95 57.8853 132.983 57.8853Z" fill="white"/>
<path d="M132.983 20.2456C134.95 20.2456 136.533 18.7406 136.533 16.8713H129.433C129.433 18.7406 131.016 20.2456 132.983 20.2456Z" fill="white"/>
<path d="M110.067 35.6753V42.4238C112.034 42.4238 113.617 40.9189 113.617 39.0495C113.617 37.1802 112.034 35.6753 110.067 35.6753Z" fill="white"/>
<path d="M152.783 39.0649C152.783 40.9342 154.367 42.4392 156.333 42.4392V35.6907C154.367 35.6907 152.783 37.1956 152.783 39.0649Z" fill="white"/>
<path d="M183.549 35.1523H175.433V42.9622H183.549V35.1523Z" fill="white"/>
<path d="M202.616 57.3462H198.566V61.2432H202.616V57.3462Z" fill="white"/>
<path d="M160.399 16.8713H156.349V20.7684H160.399V16.8713Z" fill="white"/>
<path d="M160.399 57.3462H156.349V61.2432H160.399V57.3462Z" fill="white"/>
<path d="M202.616 16.8713H198.566V20.7684H202.616V16.8713Z" fill="white"/>
<path d="M179.266 57.8853C177.299 57.8853 175.716 59.3902 175.716 61.2595H182.816C182.816 59.3902 181.233 57.8853 179.266 57.8853Z" fill="white"/>
<path d="M179.266 20.2456C181.233 20.2456 182.816 18.7406 182.816 16.8713H175.716C175.716 18.7406 177.299 20.2456 179.266 20.2456Z" fill="white"/>
<path d="M156.349 35.6753V42.4238C158.316 42.4238 159.899 40.9189 159.899 39.0495C159.899 37.1802 158.316 35.6753 156.349 35.6753Z" fill="white"/>
<path d="M199.066 39.0649C199.066 40.9342 200.649 42.4392 202.616 42.4392V35.6907C200.649 35.6907 199.066 37.1956 199.066 39.0649Z" fill="white"/>
<path d="M44.7002 79.5408H36.5835V87.3507H44.7002V79.5408Z" fill="white"/>
<path d="M63.7836 101.75H59.7336V105.648L63.7833 105.647L63.7836 101.75Z" fill="white"/>
<path d="M21.55 61.2593L17.5 61.2595V65.1563H21.55V61.2593Z" fill="white"/>
<path d="M21.55 101.75H17.5V105.647L21.55 105.648V101.75Z" fill="white"/>
<path d="M63.7833 61.2595L59.7336 61.2593V65.1563H63.7836L63.7833 61.2595Z" fill="white"/>
<path d="M40.433 102.273C38.4663 102.273 36.883 103.778 36.883 105.648H43.983C43.983 103.778 42.3997 102.273 40.433 102.273Z" fill="white"/>
<path d="M40.433 64.6335C42.3997 64.6335 43.983 63.1288 43.983 61.2595H36.883C36.883 63.1288 38.4663 64.6335 40.433 64.6335Z" fill="white"/>
<path d="M17.5 80.0791V86.8276C19.4667 86.8276 21.05 85.3227 21.05 83.4534C21.05 81.5841 19.4667 80.0791 17.5 80.0791Z" fill="white"/>
<path d="M60.2324 83.4534C60.2324 85.3227 61.8157 86.8276 63.7824 86.8276V80.0791C61.8157 80.0791 60.2324 81.5841 60.2324 83.4534Z" fill="white"/>
<path d="M90.9833 79.5408H82.8666V87.3507H90.9833V79.5408Z" fill="white"/>
<path d="M110.066 101.75H106.016V105.648L110.065 105.647L110.066 101.75Z" fill="white"/>
<path d="M67.8321 61.2593L63.7821 61.2595V65.1563H67.8321V61.2593Z" fill="white"/>
<path d="M67.8321 101.75H63.7821V105.647L67.8321 105.648V101.75Z" fill="white"/>
<path d="M110.065 61.2595L106.016 61.2593V65.1563H110.066L110.065 61.2595Z" fill="white"/>
<path d="M86.7161 102.273C84.7494 102.273 83.1661 103.778 83.1661 105.648H90.2661C90.2661 103.778 88.6827 102.273 86.7161 102.273Z" fill="white"/>
<path d="M86.7161 64.6335C88.6827 64.6335 90.2661 63.1288 90.2661 61.2595H83.1661C83.1661 63.1288 84.7494 64.6335 86.7161 64.6335Z" fill="white"/>
<path d="M63.7824 80.0791V86.8276C65.749 86.8276 67.3321 85.3227 67.3321 83.4534C67.3321 81.5841 65.749 80.0791 63.7824 80.0791Z" fill="white"/>
<path d="M106.515 83.4534C106.515 85.3227 108.099 86.8276 110.065 86.8276V80.0791C108.099 80.0791 106.515 81.5841 106.515 83.4534Z" fill="white"/>
<path d="M137.267 79.5408H129.151V87.3507H137.267V79.5408Z" fill="white"/>
<path d="M156.334 101.75H152.284V105.648H156.334V101.75Z" fill="white"/>
<path d="M114.117 61.2593L110.067 61.2595V65.1563H114.117V61.2593Z" fill="white"/>
<path d="M114.117 101.75H110.067V105.647L114.117 105.648V101.75Z" fill="white"/>
<path d="M156.334 61.2593H152.284V65.1563H156.334V61.2593Z" fill="white"/>
<path d="M132.983 102.273C131.016 102.273 129.433 103.778 129.433 105.648H136.533C136.533 103.778 134.95 102.273 132.983 102.273Z" fill="white"/>
<path d="M132.983 64.6335C134.95 64.6335 136.533 63.1288 136.533 61.2595H129.433C129.433 63.1288 131.016 64.6335 132.983 64.6335Z" fill="white"/>
<path d="M110.067 80.0791V86.8276C112.034 86.8276 113.617 85.3227 113.617 83.4534C113.617 81.5841 112.034 80.0791 110.067 80.0791Z" fill="white"/>
<path d="M152.783 83.4534C152.783 85.3227 154.367 86.8276 156.333 86.8276V80.0791C154.367 80.0791 152.783 81.5841 152.783 83.4534Z" fill="white"/>
<path d="M183.549 79.5408H175.433V87.3507H183.549V79.5408Z" fill="white"/>
<path d="M202.616 101.75H198.566V105.648H202.616V101.75Z" fill="white"/>
<path d="M160.399 61.2593L156.349 61.2595V65.1563H160.399V61.2593Z" fill="white"/>
<path d="M160.399 101.75H156.349V105.647L160.399 105.648V101.75Z" fill="white"/>
<path d="M202.616 61.2593H198.566V65.1563H202.616V61.2593Z" fill="white"/>
<path d="M179.266 102.273C177.299 102.273 175.716 103.778 175.716 105.648H182.816C182.816 103.778 181.233 102.273 179.266 102.273Z" fill="white"/>
<path d="M179.266 64.6335C181.233 64.6335 182.816 63.1288 182.816 61.2595H175.716C175.716 63.1288 177.299 64.6335 179.266 64.6335Z" fill="white"/>
<path d="M156.349 80.0791V86.8276C158.316 86.8276 159.899 85.3227 159.899 83.4534C159.899 81.5841 158.316 80.0791 156.349 80.0791Z" fill="white"/>
<path d="M199.066 83.4534C199.066 85.3227 200.649 86.8276 202.616 86.8276V80.0791C200.649 80.0791 199.066 81.5841 199.066 83.4534Z" fill="white"/>
<path d="M44.7002 123.944H36.5835V131.754H44.7002V123.944Z" fill="white"/>
<path d="M63.7836 146.139H59.7336V150.036L63.7833 150.036L63.7836 146.139Z" fill="white"/>
<path d="M21.55 105.648L17.5 105.647V109.544H21.55V105.648Z" fill="white"/>
<path d="M21.55 146.139H17.5V150.036L21.55 150.036V146.139Z" fill="white"/>
<path d="M63.7833 105.647L59.7336 105.648V109.544H63.7836L63.7833 105.647Z" fill="white"/>
<path d="M40.433 146.662C38.4663 146.662 36.883 148.167 36.883 150.036H43.983C43.983 148.167 42.3997 146.662 40.433 146.662Z" fill="white"/>
<path d="M40.433 109.022C42.3997 109.022 43.983 107.517 43.983 105.648H36.883C36.883 107.517 38.4663 109.022 40.433 109.022Z" fill="white"/>
<path d="M17.5 124.467V131.216C19.4667 131.216 21.05 129.711 21.05 127.842C21.05 125.972 19.4667 124.467 17.5 124.467Z" fill="white"/>
<path d="M60.2324 127.842C60.2324 129.711 61.8157 131.216 63.7824 131.216V124.467C61.8157 124.467 60.2324 125.972 60.2324 127.842Z" fill="white"/>
<path d="M90.9833 123.944H82.8666V131.754H90.9833V123.944Z" fill="white"/>
<path d="M110.066 146.139H106.016V150.036L110.065 150.036L110.066 146.139Z" fill="white"/>
<path d="M67.8321 105.648L63.7821 105.647V109.544H67.8321V105.648Z" fill="white"/>
<path d="M67.8321 146.139H63.7821V150.036L67.8321 150.036V146.139Z" fill="white"/>
<path d="M110.065 105.647L106.016 105.648V109.544H110.066L110.065 105.647Z" fill="white"/>
<path d="M86.7161 146.662C84.7494 146.662 83.1661 148.167 83.1661 150.036H90.2661C90.2661 148.167 88.6827 146.662 86.7161 146.662Z" fill="white"/>
<path d="M86.7161 109.022C88.6827 109.022 90.2661 107.517 90.2661 105.648H83.1661C83.1661 107.517 84.7494 109.022 86.7161 109.022Z" fill="white"/>
<path d="M63.7824 124.467V131.216C65.749 131.216 67.3321 129.711 67.3321 127.842C67.3321 125.972 65.749 124.467 63.7824 124.467Z" fill="white"/>
<path d="M106.515 127.842C106.515 129.711 108.099 131.216 110.065 131.216V124.467C108.099 124.467 106.515 125.972 106.515 127.842Z" fill="white"/>
<path d="M137.267 123.944H129.151V131.754H137.267V123.944Z" fill="white"/>
<path d="M156.334 146.139H152.284V150.036H156.334V146.139Z" fill="white"/>
<path d="M114.117 105.648L110.067 105.647V109.544H114.117V105.648Z" fill="white"/>
<path d="M114.117 146.139H110.067V150.036L114.117 150.036V146.139Z" fill="white"/>
<path d="M156.334 105.648H152.284V109.544H156.334V105.648Z" fill="white"/>
<path d="M132.983 146.662C131.016 146.662 129.433 148.167 129.433 150.036H136.533C136.533 148.167 134.95 146.662 132.983 146.662Z" fill="white"/>
<path d="M132.983 109.022C134.95 109.022 136.533 107.517 136.533 105.648H129.433C129.433 107.517 131.016 109.022 132.983 109.022Z" fill="white"/>
<path d="M110.067 124.467V131.216C112.034 131.216 113.617 129.711 113.617 127.842C113.617 125.972 112.034 124.467 110.067 124.467Z" fill="white"/>
<path d="M152.783 127.842C152.783 129.711 154.367 131.216 156.333 131.216V124.467C154.367 124.467 152.783 125.972 152.783 127.842Z" fill="white"/>
<path d="M183.549 123.944H175.433V131.754H183.549V123.944Z" fill="white"/>
<path d="M202.616 146.139H198.566V150.036H202.616V146.139Z" fill="white"/>
<path d="M160.399 105.648L156.349 105.647V109.544H160.399V105.648Z" fill="white"/>
<path d="M160.399 146.139H156.349V150.036L160.399 150.036V146.139Z" fill="white"/>
<path d="M202.616 105.648H198.566V109.544H202.616V105.648Z" fill="white"/>
<path d="M179.266 146.662C177.299 146.662 175.716 148.167 175.716 150.036H182.816C182.816 148.167 181.233 146.662 179.266 146.662Z" fill="white"/>
<path d="M179.266 109.022C181.233 109.022 182.816 107.517 182.816 105.648H175.716C175.716 107.517 177.299 109.022 179.266 109.022Z" fill="white"/>
<path d="M156.349 124.467V131.216C158.316 131.216 159.899 129.711 159.899 127.842C159.899 125.972 158.316 124.467 156.349 124.467Z" fill="white"/>
<path d="M199.066 127.842C199.066 129.711 200.649 131.216 202.616 131.216V124.467C200.649 124.467 199.066 125.972 199.066 127.842Z" fill="white"/>
<path d="M44.7002 168.332H36.5835V176.142H44.7002V168.332Z" fill="white"/>
<path d="M63.7836 190.527H59.7336V194.424L63.7833 194.424L63.7836 190.527Z" fill="white"/>
<path d="M21.55 150.036L17.5 150.036V153.933H21.55V150.036Z" fill="white"/>
<path d="M21.55 190.527H17.5V194.424L21.55 194.424V190.527Z" fill="white"/>
<path d="M63.7833 150.036L59.7336 150.036V153.933H63.7836L63.7833 150.036Z" fill="white"/>
<path d="M40.433 191.05C38.4663 191.05 36.883 192.555 36.883 194.424H43.983C43.983 192.555 42.3997 191.05 40.433 191.05Z" fill="white"/>
<path d="M40.433 153.41C42.3997 153.41 43.983 151.905 43.983 150.036H36.883C36.883 151.905 38.4663 153.41 40.433 153.41Z" fill="white"/>
<path d="M17.5 168.855V175.604C19.4667 175.604 21.05 174.099 21.05 172.229C21.05 170.36 19.4667 168.855 17.5 168.855Z" fill="white"/>
<path d="M60.2324 172.229C60.2324 174.099 61.8157 175.604 63.7824 175.604V168.855C61.8157 168.855 60.2324 170.36 60.2324 172.229Z" fill="white"/>
<path d="M90.9833 168.332H82.8666V176.142H90.9833V168.332Z" fill="white"/>
<path d="M110.066 190.527H106.016V194.424L110.065 194.424L110.066 190.527Z" fill="white"/>
<path d="M67.8321 150.036L63.7821 150.036V153.933H67.8321V150.036Z" fill="white"/>
<path d="M67.8321 190.527H63.7821V194.424L67.8321 194.424V190.527Z" fill="white"/>
<path d="M110.065 150.036L106.016 150.036V153.933H110.066L110.065 150.036Z" fill="white"/>
<path d="M86.7161 191.05C84.7494 191.05 83.1661 192.555 83.1661 194.424H90.2661C90.2661 192.555 88.6827 191.05 86.7161 191.05Z" fill="white"/>
<path d="M86.7161 153.41C88.6827 153.41 90.2661 151.905 90.2661 150.036H83.1661C83.1661 151.905 84.7494 153.41 86.7161 153.41Z" fill="white"/>
<path d="M63.7824 168.855V175.604C65.749 175.604 67.3321 174.099 67.3321 172.229C67.3321 170.36 65.749 168.855 63.7824 168.855Z" fill="white"/>
<path d="M106.515 172.229C106.515 174.099 108.099 175.604 110.065 175.604V168.855C108.099 168.855 106.515 170.36 106.515 172.229Z" fill="white"/>
<path d="M137.267 168.332H129.151V176.142H137.267V168.332Z" fill="white"/>
<path d="M156.334 190.527H152.284V194.424H156.334V190.527Z" fill="white"/>
<path d="M114.117 150.036L110.067 150.036V153.933H114.117V150.036Z" fill="white"/>
<path d="M114.117 190.527H110.067V194.424L114.117 194.424V190.527Z" fill="white"/>
<path d="M156.334 150.036H152.284V153.933H156.334V150.036Z" fill="white"/>
<path d="M132.983 191.05C131.016 191.05 129.433 192.555 129.433 194.424H136.533C136.533 192.555 134.95 191.05 132.983 191.05Z" fill="white"/>
<path d="M132.983 153.41C134.95 153.41 136.533 151.905 136.533 150.036H129.433C129.433 151.905 131.016 153.41 132.983 153.41Z" fill="white"/>
<path d="M110.067 168.855V175.604C112.034 175.604 113.617 174.099 113.617 172.229C113.617 170.36 112.034 168.855 110.067 168.855Z" fill="white"/>
<path d="M152.783 172.229C152.783 174.099 154.367 175.604 156.333 175.604V168.855C154.367 168.855 152.783 170.36 152.783 172.229Z" fill="white"/>
<path d="M183.549 168.332H175.433V176.142H183.549V168.332Z" fill="white"/>
<path d="M202.616 190.527H198.566V194.424H202.616V190.527Z" fill="white"/>
<path d="M160.399 150.036L156.349 150.036V153.933H160.399V150.036Z" fill="white"/>
<path d="M160.399 190.527H156.349V194.424L160.399 194.424V190.527Z" fill="white"/>
<path d="M202.616 150.036H198.566V153.933H202.616V150.036Z" fill="white"/>
<path d="M179.266 191.05C177.299 191.05 175.716 192.555 175.716 194.424H182.816C182.816 192.555 181.233 191.05 179.266 191.05Z" fill="white"/>
<path d="M179.266 153.41C181.233 153.41 182.816 151.905 182.816 150.036H175.716C175.716 151.905 177.299 153.41 179.266 153.41Z" fill="white"/>
<path d="M156.349 168.855V175.604C158.316 175.604 159.899 174.099 159.899 172.229C159.899 170.36 158.316 168.855 156.349 168.855Z" fill="white"/>
<path d="M199.066 172.229C199.066 174.099 200.649 175.604 202.616 175.604V168.855C200.649 168.855 199.066 170.36 199.066 172.229Z" fill="white"/>
<path d="M44.7002 212.72H36.5835V220.53H44.7002V212.72Z" fill="white"/>
<path d="M63.7836 234.915H59.7336V238.812L63.7833 238.812L63.7836 234.915Z" fill="white"/>
<path d="M21.55 194.424L17.5 194.424V198.321H21.55V194.424Z" fill="white"/>
<path d="M21.55 234.915H17.5V238.812L21.55 238.812V234.915Z" fill="white"/>
<path d="M63.7833 194.424L59.7336 194.424V198.321H63.7836L63.7833 194.424Z" fill="white"/>
<path d="M40.433 235.438C38.4663 235.438 36.883 236.943 36.883 238.812H43.983C43.983 236.943 42.3997 235.438 40.433 235.438Z" fill="white"/>
<path d="M40.433 197.798C42.3997 197.798 43.983 196.293 43.983 194.424H36.883C36.883 196.293 38.4663 197.798 40.433 197.798Z" fill="white"/>
<path d="M17.5 213.243V219.992C19.4667 219.992 21.05 218.487 21.05 216.618C21.05 214.748 19.4667 213.243 17.5 213.243Z" fill="white"/>
<path d="M60.2324 216.618C60.2324 218.487 61.8157 219.992 63.7824 219.992V213.243C61.8157 213.243 60.2324 214.748 60.2324 216.618Z" fill="white"/>
<path d="M90.9833 212.72H82.8666V220.53H90.9833V212.72Z" fill="white"/>
<path d="M110.066 234.915H106.016V238.812L110.065 238.812L110.066 234.915Z" fill="white"/>
<path d="M67.8321 194.424L63.7821 194.424V198.321H67.8321V194.424Z" fill="white"/>
<path d="M67.8321 234.915H63.7821V238.812L67.8321 238.812V234.915Z" fill="white"/>
<path d="M110.065 194.424L106.016 194.424V198.321H110.066L110.065 194.424Z" fill="white"/>
<path d="M86.7161 235.438C84.7494 235.438 83.1661 236.943 83.1661 238.812H90.2661C90.2661 236.943 88.6827 235.438 86.7161 235.438Z" fill="white"/>
<path d="M86.7161 197.798C88.6827 197.798 90.2661 196.293 90.2661 194.424H83.1661C83.1661 196.293 84.7494 197.798 86.7161 197.798Z" fill="white"/>
<path d="M63.7824 213.243V219.992C65.749 219.992 67.3321 218.487 67.3321 216.618C67.3321 214.748 65.749 213.243 63.7824 213.243Z" fill="white"/>
<path d="M106.515 216.618C106.515 218.487 108.099 219.992 110.065 219.992V213.243C108.099 213.243 106.515 214.748 106.515 216.618Z" fill="white"/>
<path d="M137.267 212.72H129.151V220.53H137.267V212.72Z" fill="white"/>
<path d="M156.334 234.915H152.284V238.812H156.334V234.915Z" fill="white"/>
<path d="M114.117 194.424L110.067 194.424V198.321H114.117V194.424Z" fill="white"/>
<path d="M114.117 234.915H110.067V238.812L114.117 238.812V234.915Z" fill="white"/>
<path d="M156.334 194.424H152.284V198.321H156.334V194.424Z" fill="white"/>
<path d="M132.983 235.438C131.016 235.438 129.433 236.943 129.433 238.812H136.533C136.533 236.943 134.95 235.438 132.983 235.438Z" fill="white"/>
<path d="M132.983 197.798C134.95 197.798 136.533 196.293 136.533 194.424H129.433C129.433 196.293 131.016 197.798 132.983 197.798Z" fill="white"/>
<path d="M110.067 213.243V219.992C112.034 219.992 113.617 218.487 113.617 216.618C113.617 214.748 112.034 213.243 110.067 213.243Z" fill="white"/>
<path d="M152.783 216.618C152.783 218.487 154.367 219.992 156.333 219.992V213.243C154.367 213.243 152.783 214.748 152.783 216.618Z" fill="white"/>
<path d="M183.549 212.72H175.433V220.53H183.549V212.72Z" fill="white"/>
<path d="M202.616 234.915H198.566V238.812H202.616V234.915Z" fill="white"/>
<path d="M160.399 194.424L156.349 194.424V198.321H160.399V194.424Z" fill="white"/>
<path d="M160.399 234.915H156.349V238.812L160.399 238.812V234.915Z" fill="white"/>
<path d="M202.616 194.424H198.566V198.321H202.616V194.424Z" fill="white"/>
<path d="M179.266 235.438C177.299 235.438 175.716 236.943 175.716 238.812H182.816C182.816 236.943 181.233 235.438 179.266 235.438Z" fill="white"/>
<path d="M179.266 197.798C181.233 197.798 182.816 196.293 182.816 194.424H175.716C175.716 196.293 177.299 197.798 179.266 197.798Z" fill="white"/>
<path d="M156.349 213.243V219.992C158.316 219.992 159.899 218.487 159.899 216.618C159.899 214.748 158.316 213.243 156.349 213.243Z" fill="white"/>
<path d="M199.066 216.618C199.066 218.487 200.649 219.992 202.616 219.992V213.243C200.649 213.243 199.066 214.748 199.066 216.618Z" fill="white"/>
<path d="M44.7002 257.109H36.5835V264.919H44.7002V257.109Z" fill="white"/>
<path d="M63.7836 279.302H59.7336V283.199H63.7836V279.302Z" fill="white"/>
<path d="M21.55 238.827H17.5V242.724H21.55V238.827Z" fill="white"/>
<path d="M21.55 279.302H17.5V283.199H21.55V279.302Z" fill="white"/>
<path d="M63.7833 238.827H59.7336V242.724H63.7836L63.7833 238.827Z" fill="white"/>
<path d="M40.433 279.842C38.4663 279.842 36.883 281.347 36.883 283.216H43.983C43.983 281.347 42.3997 279.842 40.433 279.842Z" fill="white"/>
<path d="M40.433 242.202C42.3997 242.202 43.983 240.697 43.983 238.827H36.883C36.883 240.697 38.4663 242.202 40.433 242.202Z" fill="white"/>
<path d="M17.5 257.647V264.396C19.4667 264.396 21.05 262.891 21.05 261.021C21.05 259.152 19.4667 257.647 17.5 257.647Z" fill="white"/>
<path d="M60.2324 261.021C60.2324 262.891 61.8157 264.396 63.7824 264.396V257.647C61.8157 257.647 60.2324 259.152 60.2324 261.021Z" fill="white"/>
<path d="M90.9833 257.109H82.8666V264.919H90.9833V257.109Z" fill="white"/>
<path d="M110.066 279.302H106.016V283.199H110.066V279.302Z" fill="white"/>
<path d="M67.8321 238.827H63.7821V242.724H67.8321V238.827Z" fill="white"/>
<path d="M67.8321 279.302H63.7821V283.199H67.8321V279.302Z" fill="white"/>
<path d="M110.065 238.827H106.016V242.724H110.066L110.065 238.827Z" fill="white"/>
<path d="M86.7161 279.842C84.7494 279.842 83.1661 281.347 83.1661 283.216H90.2661C90.2661 281.347 88.6827 279.842 86.7161 279.842Z" fill="white"/>
<path d="M86.7161 242.202C88.6827 242.202 90.2661 240.697 90.2661 238.827H83.1661C83.1661 240.697 84.7494 242.202 86.7161 242.202Z" fill="white"/>
<path d="M63.7824 257.647V264.396C65.749 264.396 67.3321 262.891 67.3321 261.021C67.3321 259.152 65.749 257.647 63.7824 257.647Z" fill="white"/>
<path d="M106.515 261.021C106.515 262.891 108.099 264.396 110.065 264.396V257.647C108.099 257.647 106.515 259.152 106.515 261.021Z" fill="white"/>
<path d="M137.267 257.109H129.151V264.919H137.267V257.109Z" fill="white"/>
<path d="M156.334 279.302H152.284V283.199H156.334V279.302Z" fill="white"/>
<path d="M114.117 238.827H110.067V242.724H114.117V238.827Z" fill="white"/>
<path d="M114.117 279.302H110.067V283.199H114.117V279.302Z" fill="white"/>
<path d="M156.334 238.827H152.284V242.724H156.334V238.827Z" fill="white"/>
<path d="M132.983 279.842C131.016 279.842 129.433 281.347 129.433 283.216H136.533C136.533 281.347 134.95 279.842 132.983 279.842Z" fill="white"/>
<path d="M132.983 242.202C134.95 242.202 136.533 240.697 136.533 238.827H129.433C129.433 240.697 131.016 242.202 132.983 242.202Z" fill="white"/>
<path d="M110.067 257.647V264.396C112.034 264.396 113.617 262.891 113.617 261.021C113.617 259.152 112.034 257.647 110.067 257.647Z" fill="white"/>
<path d="M152.783 261.021C152.783 262.891 154.367 264.396 156.333 264.396V257.647C154.367 257.647 152.783 259.152 152.783 261.021Z" fill="white"/>
<path d="M183.549 257.109H175.433V264.919H183.549V257.109Z" fill="white"/>
<path d="M202.616 279.302H198.566V283.199H202.616V279.302Z" fill="white"/>
<path d="M160.399 238.827H156.349V242.724H160.399V238.827Z" fill="white"/>
<path d="M160.399 279.302H156.349V283.199H160.399V279.302Z" fill="white"/>
<path d="M202.616 238.827H198.566V242.724H202.616V238.827Z" fill="white"/>
<path d="M179.266 279.842C177.299 279.842 175.716 281.347 175.716 283.216H182.816C182.816 281.347 181.233 279.842 179.266 279.842Z" fill="white"/>
<path d="M179.266 242.202C181.233 242.202 182.816 240.697 182.816 238.827H175.716C175.716 240.697 177.299 242.202 179.266 242.202Z" fill="white"/>
<path d="M156.349 257.647V264.396C158.316 264.396 159.899 262.891 159.899 261.021C159.899 259.152 158.316 257.647 156.349 257.647Z" fill="white"/>
<path d="M199.066 261.021C199.066 262.891 200.649 264.396 202.616 264.396V257.647C200.649 257.647 199.066 259.152 199.066 261.021Z" fill="white"/>
<path d="M8.09896 8.76038C8.09896 8.03167 8.73229 7.42969 9.49896 7.42969C10.2656 7.42969 10.899 8.03167 10.899 8.76038C10.899 9.48909 10.2656 10.0911 9.49896 10.0911C8.73229 10.0911 8.09896 9.48909 8.09896 8.76038Z" fill="white"/>
<path d="M18.149 8.76038C18.149 8.03167 18.7824 7.42969 19.549 7.42969C20.3157 7.42969 20.949 8.03167 20.949 8.76038C20.949 9.48909 20.3157 10.0911 19.549 10.0911C18.7824 10.0911 18.149 9.48909 18.149 8.76038Z" fill="white"/>
<path d="M28.2161 8.76038C28.2161 8.03167 28.8495 7.42969 29.6161 7.42969C30.3828 7.42969 31.0161 8.03167 31.0161 8.76038C31.0161 9.48909 30.3828 10.0911 29.6161 10.0911C28.8495 10.0911 28.2161 9.48909 28.2161 8.76038Z" fill="white"/>
<path d="M38.2652 8.76038C38.2652 8.03167 38.8986 7.42969 39.6652 7.42969C40.4319 7.42969 41.0652 8.03167 41.0652 8.76038C41.0652 9.48909 40.4319 10.0911 39.6652 10.0911C38.8986 10.0911 38.2652 9.48909 38.2652 8.76038Z" fill="white"/>
<path d="M48.3153 8.76038C48.3153 8.03167 48.9486 7.42969 49.7153 7.42969C50.482 7.42969 51.1153 8.03167 51.1153 8.76038C51.1153 9.48909 50.482 10.0911 49.7153 10.0911C48.9486 10.0911 48.3153 9.48909 48.3153 8.76038Z" fill="white"/>
<path d="M58.3824 8.76038C58.3824 8.03167 59.0157 7.42969 59.7824 7.42969C60.5491 7.42969 61.1824 8.03167 61.1824 8.76038C61.1824 9.48909 60.5491 10.0911 59.7824 10.0911C59.0157 10.0911 58.3824 9.48909 58.3824 8.76038Z" fill="white"/>
<path d="M68.4325 8.76038C68.4325 8.03167 69.0658 7.42969 69.8325 7.42969C70.5992 7.42969 71.2325 8.03167 71.2325 8.76038C71.2325 9.48909 70.5992 10.0911 69.8325 10.0911C69.0658 10.0911 68.4325 9.48909 68.4325 8.76038Z" fill="white"/>
<path d="M78.4996 8.76038C78.4996 8.03167 79.1329 7.42969 79.8996 7.42969C80.6663 7.42969 81.2996 8.03167 81.2996 8.76038C81.2996 9.48909 80.6663 10.0911 79.8996 10.0911C79.1329 10.0911 78.4996 9.48909 78.4996 8.76038Z" fill="white"/>
<path d="M88.5497 8.76038C88.5497 8.03167 89.183 7.42969 89.9497 7.42969C90.7164 7.42969 91.3497 8.03167 91.3497 8.76038C91.3497 9.48909 90.7164 10.0911 89.9497 10.0911C89.183 10.0911 88.5497 9.48909 88.5497 8.76038Z" fill="white"/>
<path d="M98.6148 8.76038C98.6148 8.03167 99.2481 7.42969 100.015 7.42969C100.781 7.42969 101.415 8.03167 101.415 8.76038C101.415 9.48909 100.781 10.0911 100.015 10.0911C99.2481 10.0911 98.6148 9.48909 98.6148 8.76038Z" fill="white"/>
<path d="M108.666 8.76038C108.666 8.03167 109.299 7.42969 110.066 7.42969C110.833 7.42969 111.466 8.03167 111.466 8.76038C111.466 9.48909 110.833 10.0911 110.066 10.0911C109.299 10.0911 108.666 9.48909 108.666 8.76038Z" fill="white"/>
<path d="M118.716 8.76038C118.716 8.03167 119.349 7.42969 120.116 7.42969C120.883 7.42969 121.516 8.03167 121.516 8.76038C121.516 9.48909 120.883 10.0911 120.116 10.0911C119.349 10.0911 118.716 9.48909 118.716 8.76038Z" fill="white"/>
<path d="M128.782 8.76038C128.782 8.03167 129.415 7.42969 130.182 7.42969C130.949 7.42969 131.582 8.03167 131.582 8.76038C131.582 9.48909 130.949 10.0911 130.182 10.0911C129.415 10.0911 128.782 9.48909 128.782 8.76038Z" fill="white"/>
<path d="M138.833 8.76038C138.833 8.03167 139.466 7.42969 140.233 7.42969C141 7.42969 141.633 8.03167 141.633 8.76038C141.633 9.48909 141 10.0911 140.233 10.0911C139.466 10.0911 138.833 9.48909 138.833 8.76038Z" fill="white"/>
<path d="M148.9 8.76038C148.9 8.03167 149.534 7.42969 150.3 7.42969C151.067 7.42969 151.7 8.03167 151.7 8.76038C151.7 9.48909 151.067 10.0911 150.3 10.0911C149.534 10.0911 148.9 9.48909 148.9 8.76038Z" fill="white"/>
<path d="M158.948 8.76038C158.948 8.03167 159.582 7.42969 160.348 7.42969C161.115 7.42969 161.748 8.03167 161.748 8.76038C161.748 9.48909 161.115 10.0911 160.348 10.0911C159.582 10.0911 158.948 9.48909 158.948 8.76038Z" fill="white"/>
<path d="M169.015 8.76038C169.015 8.03167 169.649 7.42969 170.415 7.42969C171.182 7.42969 171.815 8.03167 171.815 8.76038C171.815 9.48909 171.182 10.0911 170.415 10.0911C169.649 10.0911 169.015 9.48909 169.015 8.76038Z" fill="white"/>
<path d="M179.066 8.76038C179.066 8.03167 179.699 7.42969 180.466 7.42969C181.232 7.42969 181.866 8.03167 181.866 8.76038C181.866 9.48909 181.232 10.0911 180.466 10.0911C179.699 10.0911 179.066 9.48909 179.066 8.76038Z" fill="white"/>
<path d="M189.117 8.76038C189.117 8.03167 189.75 7.42969 190.517 7.42969C191.283 7.42969 191.917 8.03167 191.917 8.76038C191.917 9.48909 191.283 10.0911 190.517 10.0911C189.75 10.0911 189.117 9.48909 189.117 8.76038Z" fill="white"/>
<path d="M199.183 8.76038C199.183 8.03167 199.816 7.42969 200.583 7.42969C201.349 7.42969 201.983 8.03167 201.983 8.76038C201.983 9.48909 201.349 10.0911 200.583 10.0911C199.816 10.0911 199.183 9.48909 199.183 8.76038Z" fill="white"/>
<path d="M209.234 8.76038C209.234 8.03167 209.867 7.42969 210.634 7.42969C211.4 7.42969 212.034 8.03167 212.034 8.76038C212.034 9.48909 211.4 10.0911 210.634 10.0911C209.867 10.0911 209.234 9.48909 209.234 8.76038Z" fill="white"/>
<path d="M8.09896 291.041C8.09896 290.313 8.73229 289.711 9.49896 289.711C10.2656 289.711 10.899 290.313 10.899 291.041C10.899 291.77 10.2656 292.372 9.49896 292.372C8.73229 292.372 8.09896 291.77 8.09896 291.041Z" fill="white"/>
<path d="M18.149 291.041C18.149 290.313 18.7824 289.711 19.549 289.711C20.3157 289.711 20.949 290.313 20.949 291.041C20.949 291.77 20.3157 292.372 19.549 292.372C18.7824 292.372 18.149 291.77 18.149 291.041Z" fill="white"/>
<path d="M28.2141 291.041C28.2141 290.313 28.8475 289.711 29.6141 289.711C30.3808 289.711 31.0141 290.313 31.0141 291.041C31.0141 291.77 30.3808 292.372 29.6141 292.372C28.8475 292.372 28.2141 291.77 28.2141 291.041Z" fill="white"/>
<path d="M38.2652 291.041C38.2652 290.313 38.8986 289.711 39.6652 289.711C40.4319 289.711 41.0652 290.313 41.0652 291.041C41.0652 291.77 40.4319 292.372 39.6652 292.372C38.8986 292.372 38.2652 291.77 38.2652 291.041Z" fill="white"/>
<path d="M48.3153 291.041C48.3153 290.313 48.9486 289.711 49.7153 289.711C50.482 289.711 51.1153 290.313 51.1153 291.041C51.1153 291.77 50.482 292.372 49.7153 292.372C48.9486 292.372 48.3153 291.77 48.3153 291.041Z" fill="white"/>
<path d="M58.3824 291.041C58.3824 290.313 59.0157 289.711 59.7824 289.711C60.5491 289.711 61.1824 290.313 61.1824 291.041C61.1824 291.77 60.5491 292.372 59.7824 292.372C59.0157 292.372 58.3824 291.77 58.3824 291.041Z" fill="white"/>
<path d="M68.4325 291.041C68.4325 290.313 69.0658 289.711 69.8325 289.711C70.5992 289.711 71.2325 290.313 71.2325 291.041C71.2325 291.77 70.5992 292.372 69.8325 292.372C69.0658 292.372 68.4325 291.77 68.4325 291.041Z" fill="white"/>
<path d="M78.4996 291.041C78.4996 290.313 79.1329 289.711 79.8996 289.711C80.6663 289.711 81.2996 290.313 81.2996 291.041C81.2996 291.77 80.6663 292.372 79.8996 292.372C79.1329 292.372 78.4996 291.77 78.4996 291.041Z" fill="white"/>
<path d="M88.5477 291.041C88.5477 290.313 89.181 289.711 89.9477 289.711C90.7143 289.711 91.3477 290.313 91.3477 291.041C91.3477 291.77 90.7143 292.372 89.9477 292.372C89.181 292.372 88.5477 291.77 88.5477 291.041Z" fill="white"/>
<path d="M99.9988 292.372C100.772 292.372 101.399 291.776 101.399 291.041C101.399 290.306 100.772 289.711 99.9988 289.711C99.2256 289.711 98.5988 290.306 98.5988 291.041C98.5988 291.776 99.2256 292.372 99.9988 292.372Z" fill="white"/>
<path d="M108.666 291.041C108.666 290.313 109.299 289.711 110.066 289.711C110.833 289.711 111.466 290.313 111.466 291.041C111.466 291.77 110.833 292.372 110.066 292.372C109.299 292.372 108.666 291.77 108.666 291.041Z" fill="white"/>
<path d="M118.716 291.041C118.716 290.313 119.349 289.711 120.116 289.711C120.883 289.711 121.516 290.313 121.516 291.041C121.516 291.77 120.883 292.372 120.116 292.372C119.349 292.372 118.716 291.77 118.716 291.041Z" fill="white"/>
<path d="M128.782 291.041C128.782 290.313 129.415 289.711 130.182 289.711C130.949 289.711 131.582 290.313 131.582 291.041C131.582 291.77 130.949 292.372 130.182 292.372C129.415 292.372 128.782 291.77 128.782 291.041Z" fill="white"/>
<path d="M140.233 292.372C141.006 292.372 141.633 291.776 141.633 291.041C141.633 290.306 141.006 289.711 140.233 289.711C139.46 289.711 138.833 290.306 138.833 291.041C138.833 291.776 139.46 292.372 140.233 292.372Z" fill="white"/>
<path d="M148.898 291.041C148.898 290.313 149.532 289.711 150.298 289.711C151.065 289.711 151.698 290.313 151.698 291.041C151.698 291.77 151.065 292.372 150.298 292.372C149.532 292.372 148.898 291.77 148.898 291.041Z" fill="white"/>
<path d="M158.948 291.041C158.948 290.313 159.582 289.711 160.348 289.711C161.115 289.711 161.748 290.313 161.748 291.041C161.748 291.77 161.115 292.372 160.348 292.372C159.582 292.372 158.948 291.77 158.948 291.041Z" fill="white"/>
<path d="M169.015 291.041C169.015 290.313 169.649 289.711 170.415 289.711C171.182 289.711 171.815 290.313 171.815 291.041C171.815 291.77 171.182 292.372 170.415 292.372C169.649 292.372 169.015 291.77 169.015 291.041Z" fill="white"/>
<path d="M179.066 291.041C179.066 290.313 179.699 289.711 180.466 289.711C181.232 289.711 181.866 290.313 181.866 291.041C181.866 291.77 181.232 292.372 180.466 292.372C179.699 292.372 179.066 291.77 179.066 291.041Z" fill="white"/>
<path d="M189.117 291.041C189.117 290.313 189.75 289.711 190.517 289.711C191.283 289.711 191.917 290.313 191.917 291.041C191.917 291.77 191.283 292.372 190.517 292.372C189.75 292.372 189.117 291.77 189.117 291.041Z" fill="white"/>
<path d="M199.182 291.041C199.182 290.313 199.815 289.711 200.582 289.711C201.348 289.711 201.982 290.313 201.982 291.041C201.982 291.77 201.348 292.372 200.582 292.372C199.815 292.372 199.182 291.77 199.182 291.041Z" fill="white"/>
<path d="M209.232 291.041C209.232 290.313 209.865 289.711 210.632 289.711C211.398 289.711 212.032 290.313 212.032 291.041C212.032 291.77 211.398 292.372 210.632 292.372C209.865 292.372 209.232 291.77 209.232 291.041Z" fill="white"/>
<path d="M9.49896 86.0198C10.2656 86.0198 10.899 86.6218 10.899 87.3663C10.899 88.1109 10.2656 88.7128 9.49896 88.7128C8.73229 88.7128 8.09896 88.1109 8.09896 87.3663C8.09896 86.6218 8.73229 86.0198 9.49896 86.0198Z" fill="white"/>
<path d="M9.49896 95.7148C10.2656 95.7148 10.899 96.3168 10.899 97.0614C10.899 97.8059 10.2656 98.4079 9.49896 98.4079C8.73229 98.4079 8.09896 97.8059 8.09896 97.0614C8.09896 96.3168 8.73229 95.7148 9.49896 95.7148Z" fill="white"/>
<path d="M9.49896 105.426C10.2656 105.426 10.899 106.028 10.899 106.772C10.899 107.517 10.2656 108.119 9.49896 108.119C8.73229 108.119 8.09896 107.517 8.09896 106.772C8.09896 106.028 8.73229 105.426 9.49896 105.426Z" fill="white"/>
<path d="M9.49896 115.121C10.2656 115.121 10.899 115.723 10.899 116.467C10.899 117.212 10.2656 117.814 9.49896 117.814C8.73229 117.814 8.09896 117.212 8.09896 116.467C8.09896 115.723 8.73229 115.121 9.49896 115.121Z" fill="white"/>
<path d="M9.49896 124.832C10.2656 124.832 10.899 125.434 10.899 126.178C10.899 126.923 10.2656 127.525 9.49896 127.525C8.73229 127.525 8.09896 126.923 8.09896 126.178C8.09896 125.434 8.73229 124.832 9.49896 124.832Z" fill="white"/>
<path d="M9.49896 134.542C10.2656 134.542 10.899 135.144 10.899 135.889C10.899 136.633 10.2656 137.235 9.49896 137.235C8.73229 137.235 8.09896 136.633 8.09896 135.889C8.09896 135.144 8.73229 134.542 9.49896 134.542Z" fill="white"/>
<path d="M9.49896 144.238C10.2656 144.238 10.899 144.84 10.899 145.584C10.899 146.329 10.2656 146.931 9.49896 146.931C8.73229 146.931 8.09896 146.329 8.09896 145.584C8.09896 144.84 8.73229 144.238 9.49896 144.238Z" fill="white"/>
<path d="M9.49896 153.948C10.2656 153.948 10.899 154.55 10.899 155.295C10.899 156.039 10.2656 156.641 9.49896 156.641C8.73229 156.641 8.09896 156.039 8.09896 155.295C8.09896 154.55 8.73229 153.948 9.49896 153.948Z" fill="white"/>
<path d="M9.49896 163.644C10.2656 163.644 10.899 164.246 10.899 164.99C10.899 165.735 10.2656 166.337 9.49896 166.337C8.73229 166.337 8.09896 165.735 8.09896 164.99C8.09896 164.246 8.73229 163.644 9.49896 163.644Z" fill="white"/>
<path d="M9.49896 173.354C10.2656 173.354 10.899 173.956 10.899 174.701C10.899 175.445 10.2656 176.047 9.49896 176.047C8.73229 176.047 8.09896 175.445 8.09896 174.701C8.09896 173.956 8.73229 173.354 9.49896 173.354Z" fill="white"/>
<path d="M9.49896 183.049C10.2656 183.049 10.899 183.651 10.899 184.396C10.899 185.14 10.2656 185.742 9.49896 185.742C8.73229 185.742 8.09896 185.14 8.09896 184.396C8.09896 183.651 8.73229 183.049 9.49896 183.049Z" fill="white"/>
<path d="M9.49896 192.76C10.2656 192.76 10.899 193.362 10.899 194.107C10.899 194.851 10.2656 195.453 9.49896 195.453C8.73229 195.453 8.09896 194.851 8.09896 194.107C8.09896 193.362 8.73229 192.76 9.49896 192.76Z" fill="white"/>
<path d="M9.49896 202.47C10.2656 202.47 10.899 203.072 10.899 203.817C10.899 204.562 10.2656 205.164 9.49896 205.164C8.73229 205.164 8.09896 204.562 8.09896 203.817C8.09896 203.072 8.73229 202.47 9.49896 202.47Z" fill="white"/>
<path d="M9.49896 212.166C10.2656 212.166 10.899 212.768 10.899 213.513C10.899 214.257 10.2656 214.859 9.49896 214.859C8.73229 214.859 8.09896 214.257 8.09896 213.513C8.09896 212.768 8.73229 212.166 9.49896 212.166Z" fill="white"/>
<path d="M9.49896 221.876C10.2656 221.876 10.899 222.478 10.899 223.223C10.899 223.968 10.2656 224.57 9.49896 224.57C8.73229 224.57 8.09896 223.968 8.09896 223.223C8.09896 222.478 8.73229 221.876 9.49896 221.876Z" fill="white"/>
<path d="M9.49896 231.572C10.2656 231.572 10.899 232.174 10.899 232.918C10.899 233.663 10.2656 234.265 9.49896 234.265C8.73229 234.265 8.09896 233.663 8.09896 232.918C8.09896 232.174 8.73229 231.572 9.49896 231.572Z" fill="white"/>
<path d="M9.49896 241.282C10.2656 241.282 10.899 241.884 10.899 242.629C10.899 243.374 10.2656 243.976 9.49896 243.976C8.73229 243.976 8.09896 243.374 8.09896 242.629C8.09896 241.884 8.73229 241.282 9.49896 241.282Z" fill="white"/>
<path d="M9.49896 250.979C10.2656 250.979 10.899 251.581 10.899 252.325C10.899 253.07 10.2656 253.672 9.49896 253.672C8.73229 253.672 8.09896 253.07 8.09896 252.325C8.09896 251.581 8.73229 250.979 9.49896 250.979Z" fill="white"/>
<path d="M9.49896 260.688C10.2656 260.688 10.899 261.29 10.899 262.035C10.899 262.78 10.2656 263.382 9.49896 263.382C8.73229 263.382 8.09896 262.78 8.09896 262.035C8.09896 261.29 8.73229 260.688 9.49896 260.688Z" fill="white"/>
<path d="M9.49896 270.4C10.2656 270.4 10.899 271.002 10.899 271.746C10.899 272.491 10.2656 273.093 9.49896 273.093C8.73229 273.093 8.09896 272.491 8.09896 271.746C8.09896 271.002 8.73229 270.4 9.49896 270.4Z" fill="white"/>
<path d="M9.49896 280.094C10.2656 280.094 10.899 280.696 10.899 281.441C10.899 282.185 10.2656 282.787 9.49896 282.787C8.73229 282.787 8.09896 282.185 8.09896 281.441C8.09896 280.696 8.73229 280.094 9.49896 280.094Z" fill="white"/>
<path d="M9.49896 17.8535C10.2656 17.8535 10.899 18.4555 10.899 19.2001C10.899 19.9446 10.2656 20.5466 9.49896 20.5466C8.73229 20.5466 8.09896 19.9446 8.09896 19.2001C8.09896 18.4555 8.73229 17.8535 9.49896 17.8535Z" fill="white"/>
<path d="M9.49896 27.5642C10.2656 27.5642 10.899 28.1662 10.899 28.9107C10.899 29.6553 10.2656 30.2573 9.49896 30.2573C8.73229 30.2573 8.09896 29.6553 8.09896 28.9107C8.09896 28.1662 8.73229 27.5642 9.49896 27.5642Z" fill="white"/>
<path d="M9.49896 37.2595C10.2656 37.2595 10.899 37.8615 10.899 38.6061C10.899 39.3506 10.2656 39.9526 9.49896 39.9526C8.73229 39.9526 8.09896 39.3506 8.09896 38.6061C8.09896 37.8615 8.73229 37.2595 9.49896 37.2595Z" fill="white"/>
<path d="M9.49896 46.9702C10.2656 46.9702 10.899 47.5722 10.899 48.3167C10.899 49.0613 10.2656 49.6633 9.49896 49.6633C8.73229 49.6633 8.09896 49.0613 8.09896 48.3167C8.09896 47.5722 8.73229 46.9702 9.49896 46.9702Z" fill="white"/>
<path d="M9.49896 56.6653C10.2656 56.6653 10.899 57.2673 10.899 58.0118C10.899 58.7564 10.2656 59.3584 9.49896 59.3584C8.73229 59.3584 8.09896 58.7564 8.09896 58.0118C8.09896 57.2673 8.73229 56.6653 9.49896 56.6653Z" fill="white"/>
<path d="M9.49896 66.3762C10.2656 66.3762 10.899 66.9782 10.899 67.7228C10.899 68.4673 10.2656 69.0693 9.49896 69.0693C8.73229 69.0693 8.09896 68.4673 8.09896 67.7228C8.09896 66.9782 8.73229 66.3762 9.49896 66.3762Z" fill="white"/>
<path d="M9.49896 76.0876C10.2656 76.0876 10.899 76.6896 10.899 77.4342C10.899 78.1787 10.2656 78.7807 9.49896 78.7807C8.73229 78.7807 8.09896 78.1787 8.09896 77.4342C8.09896 76.6896 8.73229 76.0876 9.49896 76.0876Z" fill="white"/>
<path d="M210.999 86.0198C211.766 86.0198 212.399 86.6218 212.399 87.3663C212.399 88.1109 211.766 88.7128 210.999 88.7128C210.233 88.7128 209.599 88.1109 209.599 87.3663C209.599 86.6218 210.233 86.0198 210.999 86.0198Z" fill="white"/>
<path d="M210.999 95.7148C211.766 95.7148 212.399 96.3168 212.399 97.0614C212.399 97.8059 211.766 98.4079 210.999 98.4079C210.233 98.4079 209.599 97.8059 209.599 97.0614C209.599 96.3168 210.233 95.7148 210.999 95.7148Z" fill="white"/>
<path d="M210.999 105.426C211.766 105.426 212.399 106.028 212.399 106.772C212.399 107.517 211.766 108.119 210.999 108.119C210.233 108.119 209.599 107.517 209.599 106.772C209.599 106.028 210.233 105.426 210.999 105.426Z" fill="white"/>
<path d="M210.999 115.121C211.766 115.121 212.399 115.723 212.399 116.467C212.399 117.212 211.766 117.814 210.999 117.814C210.233 117.814 209.599 117.212 209.599 116.467C209.599 115.723 210.233 115.121 210.999 115.121Z" fill="white"/>
<path d="M210.999 124.832C211.766 124.832 212.399 125.434 212.399 126.178C212.399 126.923 211.766 127.525 210.999 127.525C210.233 127.525 209.599 126.923 209.599 126.178C209.599 125.434 210.233 124.832 210.999 124.832Z" fill="white"/>
<path d="M210.999 134.542C211.766 134.542 212.399 135.144 212.399 135.889C212.399 136.633 211.766 137.235 210.999 137.235C210.233 137.235 209.599 136.633 209.599 135.889C209.599 135.144 210.233 134.542 210.999 134.542Z" fill="white"/>
<path d="M210.999 144.238C211.766 144.238 212.399 144.84 212.399 145.584C212.399 146.329 211.766 146.931 210.999 146.931C210.233 146.931 209.599 146.329 209.599 145.584C209.599 144.84 210.233 144.238 210.999 144.238Z" fill="white"/>
<path d="M210.999 153.948C211.766 153.948 212.399 154.55 212.399 155.295C212.399 156.039 211.766 156.641 210.999 156.641C210.233 156.641 209.599 156.039 209.599 155.295C209.599 154.55 210.233 153.948 210.999 153.948Z" fill="white"/>
<path d="M210.999 163.644C211.766 163.644 212.399 164.246 212.399 164.99C212.399 165.735 211.766 166.337 210.999 166.337C210.233 166.337 209.599 165.735 209.599 164.99C209.599 164.246 210.233 163.644 210.999 163.644Z" fill="white"/>
<path d="M210.999 173.354C211.766 173.354 212.399 173.956 212.399 174.701C212.399 175.445 211.766 176.047 210.999 176.047C210.233 176.047 209.599 175.445 209.599 174.701C209.599 173.956 210.233 173.354 210.999 173.354Z" fill="white"/>
<path d="M210.999 183.049C211.766 183.049 212.399 183.651 212.399 184.396C212.399 185.14 211.766 185.742 210.999 185.742C210.233 185.742 209.599 185.14 209.599 184.396C209.599 183.651 210.233 183.049 210.999 183.049Z" fill="white"/>
<path d="M210.999 192.76C211.766 192.76 212.399 193.362 212.399 194.107C212.399 194.851 211.766 195.453 210.999 195.453C210.233 195.453 209.599 194.851 209.599 194.107C209.599 193.362 210.233 192.76 210.999 192.76Z" fill="white"/>
<path d="M210.999 202.47C211.766 202.47 212.399 203.072 212.399 203.817C212.399 204.562 211.766 205.164 210.999 205.164C210.233 205.164 209.599 204.562 209.599 203.817C209.599 203.072 210.233 202.47 210.999 202.47Z" fill="white"/>
<path d="M210.999 212.166C211.766 212.166 212.399 212.768 212.399 213.513C212.399 214.257 211.766 214.859 210.999 214.859C210.233 214.859 209.599 214.257 209.599 213.513C209.599 212.768 210.233 212.166 210.999 212.166Z" fill="white"/>
<path d="M210.999 221.876C211.766 221.876 212.399 222.478 212.399 223.223C212.399 223.968 211.766 224.57 210.999 224.57C210.233 224.57 209.599 223.968 209.599 223.223C209.599 222.478 210.233 221.876 210.999 221.876Z" fill="white"/>
<path d="M210.999 231.572C211.766 231.572 212.399 232.174 212.399 232.918C212.399 233.663 211.766 234.265 210.999 234.265C210.233 234.265 209.599 233.663 209.599 232.918C209.599 232.174 210.233 231.572 210.999 231.572Z" fill="white"/>
<path d="M210.999 241.282C211.766 241.282 212.399 241.884 212.399 242.629C212.399 243.374 211.766 243.976 210.999 243.976C210.233 243.976 209.599 243.374 209.599 242.629C209.599 241.884 210.233 241.282 210.999 241.282Z" fill="white"/>
<path d="M210.999 250.978C211.766 250.978 212.399 251.58 212.399 252.324C212.399 253.069 211.766 253.671 210.999 253.671C210.233 253.671 209.599 253.069 209.599 252.324C209.599 251.58 210.233 250.978 210.999 250.978Z" fill="white"/>
<path d="M210.999 260.688C211.766 260.688 212.399 261.29 212.399 262.035C212.399 262.78 211.766 263.382 210.999 263.382C210.233 263.382 209.599 262.78 209.599 262.035C209.599 261.29 210.233 260.688 210.999 260.688Z" fill="white"/>
<path d="M210.999 270.4C211.766 270.4 212.399 271.002 212.399 271.746C212.399 272.491 211.766 273.093 210.999 273.093C210.233 273.093 209.599 272.491 209.599 271.746C209.599 271.002 210.233 270.4 210.999 270.4Z" fill="white"/>
<path d="M210.999 280.094C211.766 280.094 212.399 280.696 212.399 281.441C212.399 282.185 211.766 282.787 210.999 282.787C210.233 282.787 209.599 282.185 209.599 281.441C209.599 280.696 210.233 280.094 210.999 280.094Z" fill="white"/>
<path d="M210.999 17.8535C211.766 17.8535 212.399 18.4555 212.399 19.2001C212.399 19.9446 211.766 20.5466 210.999 20.5466C210.233 20.5466 209.599 19.9446 209.599 19.2001C209.599 18.4555 210.233 17.8535 210.999 17.8535Z" fill="white"/>
<path d="M210.999 27.5642C211.766 27.5642 212.399 28.1662 212.399 28.9107C212.399 29.6553 211.766 30.2573 210.999 30.2573C210.233 30.2573 209.599 29.6553 209.599 28.9107C209.599 28.1662 210.233 27.5642 210.999 27.5642Z" fill="white"/>
<path d="M210.999 37.2595C211.766 37.2595 212.399 37.8615 212.399 38.6061C212.399 39.3506 211.766 39.9526 210.999 39.9526C210.233 39.9526 209.599 39.3506 209.599 38.6061C209.599 37.8615 210.233 37.2595 210.999 37.2595Z" fill="white"/>
<path d="M210.999 46.9702C211.766 46.9702 212.399 47.5722 212.399 48.3167C212.399 49.0613 211.766 49.6633 210.999 49.6633C210.233 49.6633 209.599 49.0613 209.599 48.3167C209.599 47.5722 210.233 46.9702 210.999 46.9702Z" fill="white"/>
<path d="M210.999 56.6653C211.766 56.6653 212.399 57.2673 212.399 58.0118C212.399 58.7564 211.766 59.3584 210.999 59.3584C210.233 59.3584 209.599 58.7564 209.599 58.0118C209.599 57.2673 210.233 56.6653 210.999 56.6653Z" fill="white"/>
<path d="M210.999 66.3762C211.766 66.3762 212.399 66.9782 212.399 67.7228C212.399 68.4673 211.766 69.0693 210.999 69.0693C210.233 69.0693 209.599 68.4673 209.599 67.7228C209.599 66.9782 210.233 66.3762 210.999 66.3762Z" fill="white"/>
<path d="M210.999 76.0876C211.766 76.0876 212.399 76.6896 212.399 77.4342C212.399 78.1787 211.766 78.7807 210.999 78.7807C210.233 78.7807 209.599 78.1787 209.599 77.4342C209.599 76.6896 210.233 76.0876 210.999 76.0876Z" fill="white"/>
</svg>
