<svg 
 viewBox="0 0 1151 825" fill="none" xmlns="http://www.w3.org/2000/svg">
<path fill-rule="evenodd" clip-rule="evenodd" d="M430.261 763.474C426.071 757.244 424.176 753.271 422.273 745.924C418.663 746.799 415.734 748.181 413.482 750.812C414.278 755.864 416.617 761.759 420.493 769.345C423.658 764.894 425.99 763.136 430.261 763.474Z" fill="#61BA47"/>
<path fill-rule="evenodd" clip-rule="evenodd" d="M1064.31 254.694C1070.65 258.72 1073.98 261.598 1078.67 267.564C1081.63 265.315 1083.75 262.874 1084.76 259.56C1082.01 255.252 1077.5 250.791 1070.9 245.397C1069.79 250.743 1068.36 253.29 1064.31 254.694Z" fill="#FFC700"/>
<path fill-rule="evenodd" clip-rule="evenodd" d="M345.381 606.425C340.66 603.734 336.75 604.33 330.895 605.419C327.969 610.387 325.22 613.829 323.397 618.276C327.819 622.602 329.805 626.466 330.382 634.23C338.403 624.404 341.454 617.805 345.381 606.425Z" fill="#007AFF"/>
<path fill-rule="evenodd" clip-rule="evenodd" d="M1090.86 75.8447C1095.91 77.8455 1099.7 76.7068 1105.35 74.807C1107.55 69.477 1109.78 65.6832 1110.97 61.0246C1105.98 57.3621 1103.47 53.815 1101.81 46.2091C1095.25 57.0636 1093.15 64.0261 1090.86 75.8447Z" fill="#F74F9E"/>
<path fill-rule="evenodd" clip-rule="evenodd" d="M1073.02 208.836C1076.18 215.646 1077.43 219.867 1078.16 227.421C1081.86 227.124 1084.97 226.218 1087.6 223.973C1087.61 218.858 1086.22 212.669 1083.59 204.569C1079.76 208.469 1077.18 209.84 1073.02 208.836Z" fill="#FF5257"/>
<path fill-rule="evenodd" clip-rule="evenodd" d="M625.332 803.892C629.108 807.799 633.028 808.324 638.953 808.922C643.156 804.975 646.76 802.442 649.758 798.686C646.728 793.293 645.907 789.027 647.532 781.413C637.075 788.593 632.294 794.071 625.332 803.892Z" fill="#A550A7"/>
<path fill-rule="evenodd" clip-rule="evenodd" d="M697.215 377.996C701.567 374.742 702.582 370.919 703.922 365.117C700.536 360.45 698.478 356.555 695.129 353.108C689.397 355.435 685.062 355.712 677.714 353.14C683.519 364.418 688.35 369.851 697.215 377.996Z" fill="#61BA47"/>
<path fill-rule="evenodd" clip-rule="evenodd" d="M148.726 55.136C142.896 59.8659 139.108 62.1085 131.961 64.6598C133.154 68.177 134.792 70.9715 137.614 72.9795C142.575 71.7348 148.237 68.8787 155.447 64.34C150.731 61.5861 148.771 59.42 148.726 55.136Z" fill="#A550A7"/>
<path fill-rule="evenodd" clip-rule="evenodd" d="M573.209 141.698C569.942 137.356 566.117 136.352 560.311 135.029C555.653 138.429 551.765 140.499 548.328 143.858C550.671 149.583 550.961 153.917 548.411 161.273C559.672 155.435 565.091 150.587 573.209 141.698Z" fill="#F74F9E"/>
<path fill-rule="evenodd" clip-rule="evenodd" d="M519.648 125.823C517.564 130.841 518.64 134.647 520.446 140.322C525.739 142.61 529.495 144.911 534.133 146.168C537.878 141.244 541.466 138.795 549.098 137.26C538.354 130.519 531.427 128.309 519.648 125.823Z" fill="#61BA47"/>
<path fill-rule="evenodd" clip-rule="evenodd" d="M711.159 443.192C707.33 436.734 705.663 432.66 704.181 425.217C700.528 425.885 697.524 427.098 695.126 429.597C695.635 434.687 697.635 440.705 701.074 448.499C704.486 444.235 706.914 442.612 711.159 443.192Z" fill="#61BA47"/>
<path fill-rule="evenodd" clip-rule="evenodd" d="M168.66 496.742C168.536 504.249 167.819 508.592 165.18 515.707C168.641 517.054 171.835 517.595 175.187 516.724C177.422 512.123 178.874 505.95 180.031 497.51C174.89 499.352 171.971 499.461 168.66 496.742Z" fill="#A550A7"/>
<path fill-rule="evenodd" clip-rule="evenodd" d="M644.697 98.1239C642.615 103.143 643.691 106.948 645.499 112.622C650.792 114.909 654.549 117.209 659.188 118.465C662.931 113.54 666.519 111.09 674.151 109.553C663.405 102.815 656.477 100.607 644.697 98.1239Z" fill="#F74F9E"/>
<path fill-rule="evenodd" clip-rule="evenodd" d="M349.447 417.462C349.587 412.03 347.215 408.866 343.489 404.221C337.727 403.989 333.395 403.193 328.614 403.688C326.891 409.629 324.424 413.205 317.854 417.382C330.304 419.808 337.562 419.379 349.447 417.462Z" fill="#61BA47"/>
<path fill-rule="evenodd" clip-rule="evenodd" d="M700.838 717.938C702.023 723.241 705.093 725.734 709.836 729.334C715.482 728.159 719.878 727.878 724.394 726.236C724.622 720.054 726.146 715.986 731.504 710.338C718.837 711.01 711.901 713.19 700.838 717.938Z" fill="#FFC700"/>
<path fill-rule="evenodd" clip-rule="evenodd" d="M830.603 125.257C828.911 120.093 825.614 117.909 820.544 114.785C815.039 116.502 810.691 117.207 806.355 119.278C806.727 125.453 805.603 129.649 800.818 135.79C813.36 133.895 820.052 131.053 830.603 125.257Z" fill="#F74F9E"/>
<path fill-rule="evenodd" clip-rule="evenodd" d="M997.574 692.284C997.355 686.855 994.779 683.853 990.755 679.464C984.991 679.613 980.615 679.104 975.878 679.913C974.55 685.955 972.324 689.685 966.044 694.286C978.627 695.886 985.841 694.98 997.574 692.284Z" fill="#F74F9E"/>
<path fill-rule="evenodd" clip-rule="evenodd" d="M436.15 585.089C432.709 589.295 432.644 593.249 432.74 599.203C437.15 602.918 440.085 606.203 444.165 608.742C449.168 605.105 453.31 603.792 461.061 604.52C452.712 594.971 446.715 590.86 436.15 585.089Z" fill="#F74F9E"/>
<path fill-rule="evenodd" clip-rule="evenodd" d="M645.512 503.421C638.224 505.226 633.843 505.647 626.288 504.919C625.874 508.61 626.17 511.836 627.871 514.853C632.891 515.834 639.23 515.654 647.685 514.609C644.586 510.112 643.732 507.319 645.512 503.421Z" fill="#61BA47"/>
<path fill-rule="evenodd" clip-rule="evenodd" d="M558.936 830.262C565.732 833.453 569.399 835.887 574.807 841.212C577.454 838.607 579.257 835.916 579.837 832.501C576.557 828.576 571.521 824.721 564.297 820.206C563.87 825.65 562.773 828.357 558.936 830.262Z" fill="#F74F9E"/>
<path fill-rule="evenodd" clip-rule="evenodd" d="M583.739 102.552C586.806 107.037 590.582 108.213 596.323 109.796C601.129 106.61 605.107 104.718 608.692 101.518C606.61 95.693 606.516 91.3498 609.396 84.1167C597.883 89.4403 592.25 94.0382 583.739 102.552Z" fill="#FFC700"/>
<path fill-rule="evenodd" clip-rule="evenodd" d="M352.991 443.901C358.365 444.707 361.797 442.741 366.864 439.613C367.801 433.924 369.123 429.722 369.219 424.917C363.534 422.478 360.289 419.59 356.95 412.557C353.014 424.615 352.548 431.871 352.991 443.901Z" fill="#FFC700"/>
<path fill-rule="evenodd" clip-rule="evenodd" d="M1084.23 627.128C1077.04 624.951 1073.06 623.072 1066.94 618.583C1064.7 621.542 1063.3 624.465 1063.22 627.928C1067.03 631.339 1072.57 634.427 1080.37 637.853C1080.01 632.404 1080.71 629.567 1084.23 627.128Z" fill="#FF5257"/>
<path fill-rule="evenodd" clip-rule="evenodd" d="M420.584 200.754C413.476 203.17 409.146 203.962 401.557 203.878C401.458 207.591 402.026 210.78 403.977 213.641C409.062 214.193 415.363 213.476 423.699 211.717C420.23 207.499 419.142 204.788 420.584 200.754Z" fill="#FF5257"/>
<path fill-rule="evenodd" clip-rule="evenodd" d="M974.848 687.342C978.446 691.414 982.338 692.115 988.23 692.978C992.606 689.223 996.32 686.855 999.483 683.237C996.698 677.713 996.069 673.415 998.034 665.881C987.266 672.585 982.244 677.843 974.848 687.342Z" fill="#FFC700"/>
<path fill-rule="evenodd" clip-rule="evenodd" d="M890.861 285.534C890.814 280.1 888.333 277.02 884.45 272.506C878.683 272.473 874.326 271.827 869.566 272.486C868.048 278.483 865.706 282.142 859.284 286.543C871.81 288.538 879.049 287.859 890.861 285.534Z" fill="#A550A7"/>
<path fill-rule="evenodd" clip-rule="evenodd" d="M359.496 375.278C358.233 367.878 358.135 363.477 359.417 355.997C355.766 355.312 352.527 355.369 349.394 356.844C348.046 361.778 347.758 368.114 348.179 376.622C352.891 373.863 355.74 373.217 359.496 375.278Z" fill="#FFC700"/>
<path fill-rule="evenodd" clip-rule="evenodd" d="M513.393 223.898C518.783 224.59 522.172 222.552 527.172 219.318C527.989 213.61 529.222 209.381 529.216 204.575C523.481 202.256 520.176 199.438 516.689 192.477C513.008 204.615 512.696 211.879 513.393 223.898Z" fill="#FFC700"/>
<path fill-rule="evenodd" clip-rule="evenodd" d="M422.75 180.621C419.932 185.267 420.421 189.192 421.35 195.074C426.236 198.135 429.602 200.976 433.998 202.92C438.443 198.617 442.359 196.738 450.136 196.373C440.533 188.087 434.019 184.856 422.75 180.621Z" fill="#F74F9E"/>
<path fill-rule="evenodd" clip-rule="evenodd" d="M1008.82 165.2C1003.47 159.938 1000.81 156.426 997.476 149.61C994.115 151.191 991.523 153.133 989.844 156.163C991.638 160.953 995.113 166.258 1000.43 172.912C1002.64 167.917 1004.57 165.726 1008.82 165.2Z" fill="#61BA47"/>
<path fill-rule="evenodd" clip-rule="evenodd" d="M1076.82 459.295C1069.46 460.791 1065.07 461.026 1057.55 459.982C1056.98 463.652 1057.14 466.887 1058.71 469.973C1063.69 471.165 1070.03 471.252 1078.52 470.564C1075.61 465.941 1074.88 463.113 1076.82 459.295Z" fill="#FF5257"/>
<path fill-rule="evenodd" clip-rule="evenodd" d="M34.4593 548.3C29.3901 553.839 25.9749 556.616 19.2819 560.193C20.9812 563.496 23.0135 566.018 26.1008 567.588C30.8241 565.625 36.0031 561.965 42.4641 556.412C37.3938 554.384 35.1357 552.531 34.4593 548.3Z" fill="#007AFF"/>
<path fill-rule="evenodd" clip-rule="evenodd" d="M529.074 535.184C529.25 540.615 531.802 543.636 535.791 548.057C541.556 547.954 545.928 548.497 550.671 547.726C552.047 541.695 554.302 537.982 560.619 533.431C548.049 531.731 540.828 532.58 529.074 535.184Z" fill="#61BA47"/>
<path fill-rule="evenodd" clip-rule="evenodd" d="M768.187 86.8454C763.338 84.3927 759.462 85.1816 753.669 86.5594C750.992 91.6668 748.418 95.241 746.818 99.7726C751.449 103.874 753.623 107.635 754.585 115.36C762.109 105.149 764.829 98.4062 768.187 86.8454Z" fill="#FF5257"/>
<path fill-rule="evenodd" clip-rule="evenodd" d="M154.15 449.512C149.327 452.015 147.704 455.622 145.438 461.129C148.021 466.284 149.419 470.462 152.162 474.407C158.196 473.044 162.519 473.475 169.352 477.207C165.457 465.135 161.573 458.989 154.15 449.512Z" fill="#FF5257"/>
<path fill-rule="evenodd" clip-rule="evenodd" d="M643.484 731.637C646.142 738.659 647.081 742.96 647.257 750.547C650.971 750.519 654.139 749.842 656.932 747.794C657.309 742.693 656.377 736.42 654.334 728.15C650.238 731.761 647.565 732.941 643.484 731.637Z" fill="#61BA47"/>
<path fill-rule="evenodd" clip-rule="evenodd" d="M15.7559 767.335C10.3803 768.128 7.66948 771.008 3.73168 775.475C4.49117 781.191 4.44963 785.596 5.75631 790.221C11.9051 790.9 15.8506 792.718 21.092 798.474C21.3483 785.793 19.6816 778.716 15.7559 767.335Z" fill="#61BA47"/>
<path fill-rule="evenodd" clip-rule="evenodd" d="M20.9518 469.721C26.1679 471.244 29.8332 469.758 35.2758 467.341C36.9707 461.83 38.8464 457.844 39.5888 453.096C34.2843 449.913 31.4572 446.615 29.0959 439.196C23.5714 450.614 22.1329 457.741 20.9518 469.721Z" fill="#61BA47"/>
<path fill-rule="evenodd" clip-rule="evenodd" d="M1066.15 252.367C1071.29 254.125 1075.02 252.807 1080.57 250.64C1082.51 245.212 1084.57 241.315 1085.52 236.606C1080.37 233.185 1077.69 229.762 1075.67 222.243C1069.64 233.398 1067.87 240.453 1066.15 252.367Z" fill="#007AFF"/>
<path fill-rule="evenodd" clip-rule="evenodd" d="M835.159 566.374C836.335 573.789 836.38 578.19 835.01 585.655C838.652 586.383 841.891 586.364 845.042 584.926C846.449 580.008 846.811 573.677 846.491 565.164C841.747 567.867 838.89 568.479 835.159 566.374Z" fill="#A550A7"/>
<path fill-rule="evenodd" clip-rule="evenodd" d="M369.843 34.1896C370.933 28.8664 369.152 25.335 366.299 20.1083C360.667 18.8698 356.542 17.3263 351.749 16.9748C349.01 22.5219 345.954 25.6092 338.753 28.5693C350.585 33.1415 357.806 33.9923 369.843 34.1896Z" fill="#F74F9E"/>
<path fill-rule="evenodd" clip-rule="evenodd" d="M532.772 2.63683C540.087 0.944426 544.474 0.590791 552.017 1.4338C552.487 -2.25044 552.241 -5.48023 550.586 -8.52276C545.582 -9.58075 539.241 -9.49822 530.771 -8.58253C533.8 -4.03896 534.611 -1.23256 532.772 2.63683Z" fill="#FFC700"/>
<path fill-rule="evenodd" clip-rule="evenodd" d="M1009 427.805C1014.11 433.309 1016.59 436.939 1019.61 443.902C1023.04 442.478 1025.72 440.659 1027.54 437.71C1025.97 432.842 1022.74 427.381 1017.74 420.489C1015.3 425.377 1013.27 427.476 1009 427.805Z" fill="#FFC700"/>
<path fill-rule="evenodd" clip-rule="evenodd" d="M973.056 487.69C972.304 480.22 972.508 475.823 974.3 468.448C970.705 467.515 967.47 467.35 964.242 468.606C962.559 473.436 961.838 479.737 961.674 488.254C966.564 485.825 969.451 485.376 973.056 487.69Z" fill="#FF5257"/>
<path fill-rule="evenodd" clip-rule="evenodd" d="M493.268 163.244C496.383 156.413 498.776 152.718 504.039 147.251C501.404 144.633 498.693 142.861 495.272 142.319C491.385 145.643 487.587 150.722 483.152 157.996C488.601 158.362 491.32 159.429 493.268 163.244Z" fill="#007AFF"/>
<path fill-rule="evenodd" clip-rule="evenodd" d="M789.717 638.181C783.509 642.403 779.545 644.318 772.208 646.257C773.101 649.863 774.497 652.785 777.14 655.024C782.188 654.202 788.071 651.834 795.638 647.919C791.171 644.778 789.401 642.454 789.717 638.181Z" fill="#FF5257"/>
<path fill-rule="evenodd" clip-rule="evenodd" d="M909.097 130.998C903.802 136.32 900.274 138.952 893.438 142.248C894.998 145.619 896.924 148.224 899.943 149.92C904.744 148.156 910.071 144.715 916.757 139.436C911.776 137.198 909.597 135.253 909.097 130.998Z" fill="#A550A7"/>
<path fill-rule="evenodd" clip-rule="evenodd" d="M287.824 347.728C283.104 345.037 279.194 345.633 273.339 346.721C270.412 351.689 267.663 355.131 265.84 359.577C270.261 363.904 272.246 367.768 272.822 375.532C280.844 365.707 283.897 359.108 287.824 347.728Z" fill="#007AFF"/>
<path fill-rule="evenodd" clip-rule="evenodd" d="M676.898 18.0024C681.455 20.9612 685.393 20.5927 691.301 19.8446C694.51 15.0539 697.453 11.7766 699.531 7.44288C695.366 2.86821 693.608 -1.10425 693.481 -8.88843C684.905 0.456719 681.476 6.86855 676.898 18.0024Z" fill="#F74F9E"/>
<path fill-rule="evenodd" clip-rule="evenodd" d="M995.904 296.054C991.763 292.535 987.811 292.396 981.856 292.381C978.059 296.72 974.72 299.593 972.104 303.625C975.648 308.696 976.883 312.861 976.011 320.597C985.714 312.428 989.936 306.509 995.904 296.054Z" fill="#FF5257"/>
<path fill-rule="evenodd" clip-rule="evenodd" d="M539.432 14.1523C534.228 15.7163 531.964 18.9587 528.715 23.9494C530.295 29.495 530.893 33.8592 532.856 38.2457C539.038 38.0264 543.205 39.2532 549.226 44.1891C547.641 31.6044 544.966 24.8435 539.432 14.1523Z" fill="#F74F9E"/>
<path fill-rule="evenodd" clip-rule="evenodd" d="M671.419 119.843C678.565 117.542 682.908 116.821 690.494 117.028C690.653 113.317 690.137 110.119 688.232 107.227C683.157 106.593 676.845 107.208 668.482 108.831C671.882 113.104 672.926 115.833 671.419 119.843Z" fill="#61BA47"/>
<path fill-rule="evenodd" clip-rule="evenodd" d="M115.566 687.054C109.686 691.722 105.875 693.924 98.701 696.4C99.8573 699.93 101.466 702.741 104.266 704.779C109.24 703.587 114.932 700.79 122.189 696.328C117.503 693.524 115.566 691.338 115.566 687.054Z" fill="#F74F9E"/>
<path fill-rule="evenodd" clip-rule="evenodd" d="M282.436 49.7197C288.307 54.4002 291.309 57.6186 295.334 64.0525C298.514 62.1324 300.892 59.9332 302.248 56.7462C299.968 52.1675 295.964 47.2496 289.985 41.1814C288.306 46.378 286.611 48.757 282.436 49.7197Z" fill="#F74F9E"/>
<path fill-rule="evenodd" clip-rule="evenodd" d="M577.635 668.565C580.43 675.533 581.453 679.814 581.778 687.397C585.491 687.296 588.645 686.557 591.397 684.455C591.674 679.347 590.619 673.094 588.414 664.865C584.39 668.556 581.741 669.788 577.635 668.565Z" fill="#61BA47"/>
<path fill-rule="evenodd" clip-rule="evenodd" d="M890.259 509.077C893.49 502.3 895.945 498.647 901.302 493.27C898.712 490.608 896.032 488.789 892.621 488.189C888.676 491.446 884.792 496.459 880.234 503.656C885.675 504.115 888.376 505.228 890.259 509.077Z" fill="#61BA47"/>
<path fill-rule="evenodd" clip-rule="evenodd" d="M396.613 103.504C397.718 96.0782 398.997 91.8663 402.545 85.1576C399.29 83.3698 396.194 82.4151 392.757 82.8401C389.939 87.1087 387.692 93.0391 385.44 101.255C390.778 100.101 393.686 100.375 396.613 103.504Z" fill="#A550A7"/>
<path fill-rule="evenodd" clip-rule="evenodd" d="M165.495 733.244C164.001 725.886 163.767 721.491 164.814 713.974C161.143 713.404 157.908 713.562 154.822 715.134C153.629 720.108 153.54 726.449 154.225 734.941C158.849 732.036 161.677 731.301 165.495 733.244Z" fill="#A550A7"/>
<path fill-rule="evenodd" clip-rule="evenodd" d="M1068.04 809.884C1073.46 809.444 1076.35 806.748 1080.58 802.548C1080.19 796.794 1080.52 792.402 1079.52 787.701C1073.43 786.622 1069.61 784.55 1064.76 778.463C1063.67 791.1 1064.87 798.271 1068.04 809.884Z" fill="#FFC700"/>
<path fill-rule="evenodd" clip-rule="evenodd" d="M343.919 522.611C348.682 525.226 352.582 524.569 358.418 523.388C361.266 518.374 363.96 514.889 365.713 510.415C361.223 506.159 359.178 502.326 358.478 494.573C350.613 504.524 347.666 511.17 343.919 522.611Z" fill="#A550A7"/>
<path fill-rule="evenodd" clip-rule="evenodd" d="M670.072 670.94C677.352 669.103 681.731 668.662 689.289 669.355C689.686 665.663 689.376 662.438 687.661 659.429C682.637 658.471 676.299 658.679 667.849 659.762C670.968 664.245 671.834 667.034 670.072 670.94Z" fill="#007AFF"/>
<path fill-rule="evenodd" clip-rule="evenodd" d="M358.57 325.652C354.403 329.139 353.598 333.011 352.577 338.878C356.214 343.353 358.482 347.129 362.014 350.388C367.61 347.752 371.924 347.238 379.402 349.404C372.989 338.461 367.867 333.3 358.57 325.652Z" fill="#FF5257"/>
<path fill-rule="evenodd" clip-rule="evenodd" d="M359.235 817.292C366.617 818.659 370.781 820.085 377.361 823.867C379.262 820.676 380.325 817.617 380.022 814.166C375.855 811.2 370.007 808.746 361.875 806.206C362.841 811.581 362.465 814.478 359.235 817.292Z" fill="#61BA47"/>
<path fill-rule="evenodd" clip-rule="evenodd" d="M853.77 515.988C848.805 513.781 844.973 514.763 839.256 516.429C836.839 521.664 834.446 525.362 833.075 529.968C837.905 533.833 840.265 537.48 841.612 545.148C848.615 534.573 850.995 527.703 853.77 515.988Z" fill="#61BA47"/>
<path fill-rule="evenodd" clip-rule="evenodd" d="M542.964 7.58294C548.313 8.54111 551.799 6.67322 556.953 3.69095C558.052 -1.96977 559.492 -6.13241 559.725 -10.9326C554.112 -13.5326 550.949 -16.5113 547.812 -23.6361C543.534 -11.695 542.863 -4.45514 542.964 7.58294Z" fill="#A550A7"/>
<path fill-rule="evenodd" clip-rule="evenodd" d="M614.599 387.689C609.406 386.09 605.719 387.522 600.242 389.858C598.466 395.344 596.532 399.302 595.72 404.039C600.977 407.299 603.756 410.639 606.008 418.091C611.699 406.756 613.242 399.651 614.599 387.689Z" fill="#F74F9E"/>
<path fill-rule="evenodd" clip-rule="evenodd" d="M429.388 618.736C436.881 619.217 441.185 620.138 448.167 623.113C449.676 619.719 450.369 616.555 449.657 613.165C445.168 610.714 439.07 608.971 430.694 607.415C432.291 612.637 432.262 615.558 429.388 618.736Z" fill="#F74F9E"/>
<path fill-rule="evenodd" clip-rule="evenodd" d="M176.632 429.592C175.725 422.139 175.838 417.739 177.476 410.328C173.862 409.47 170.624 409.372 167.424 410.695C165.841 415.559 165.251 421.873 165.264 430.393C170.103 427.862 172.979 427.353 176.632 429.592Z" fill="#FF5257"/>
<path fill-rule="evenodd" clip-rule="evenodd" d="M81.7356 94.3407C78.2405 90.1803 74.3666 89.3831 68.4978 88.3739C64.0298 92.0191 60.258 94.2943 57.0061 97.8328C59.6534 103.424 60.1755 107.737 58.0242 115.219C68.9551 108.784 74.1061 103.653 81.7356 94.3407Z" fill="#A550A7"/>
<path fill-rule="evenodd" clip-rule="evenodd" d="M396.014 536.072C393.071 542.979 390.771 546.732 385.645 552.329C388.344 554.88 391.098 556.585 394.532 557.041C398.336 553.621 402.006 548.449 406.258 541.067C400.802 540.837 398.056 539.838 396.014 536.072Z" fill="#007AFF"/>
<path fill-rule="evenodd" clip-rule="evenodd" d="M190.769 522.741C188.758 517.693 185.331 515.719 180.077 512.917C174.689 514.974 170.394 515.949 166.195 518.286C166.951 524.426 166.092 528.685 161.699 535.112C174.098 532.438 180.6 529.185 190.769 522.741Z" fill="#007AFF"/>
<path fill-rule="evenodd" clip-rule="evenodd" d="M809.201 824.876C801.768 823.82 797.548 822.569 790.816 819.065C789.05 822.332 788.115 825.434 788.563 828.868C792.85 831.658 798.795 833.866 807.026 836.063C805.837 830.733 806.092 827.823 809.201 824.876Z" fill="#007AFF"/>
<path fill-rule="evenodd" clip-rule="evenodd" d="M1081.19 203.064C1078.25 196.155 1077.14 191.897 1076.66 184.323C1072.95 184.501 1069.81 185.306 1067.1 187.465C1066.93 192.577 1068.12 198.807 1070.49 206.988C1074.44 203.214 1077.06 201.926 1081.19 203.064Z" fill="#61BA47"/>
</svg>
