<svg width="14" height="12" viewBox="0 0 14 12" fill="none" xmlns="http://www.w3.org/2000/svg">
<path d="M7.53333 5.81333C7.88905 5.50542 8.17437 5.12459 8.36992 4.69668C8.56547 4.26877 8.66667 3.80381 8.66667 3.33333C8.66667 2.44928 8.31548 1.60143 7.69036 0.976311C7.06523 0.351189 6.21739 0 5.33333 0C4.44928 0 3.60143 0.351189 2.97631 0.976311C2.35119 1.60143 2 2.44928 2 3.33333C1.99999 3.80381 2.1012 4.26877 2.29675 4.69668C2.4923 5.12459 2.77761 5.50542 3.13333 5.81333C2.20009 6.23592 1.40831 6.91835 0.852653 7.77903C0.296997 8.63971 0.000981236 9.64221 0 10.6667C0 10.8435 0.0702379 11.013 0.195262 11.1381C0.320286 11.2631 0.489856 11.3333 0.666667 11.3333C0.843478 11.3333 1.01305 11.2631 1.13807 11.1381C1.2631 11.013 1.33333 10.8435 1.33333 10.6667C1.33333 9.6058 1.75476 8.58838 2.50491 7.83824C3.25505 7.08809 4.27247 6.66667 5.33333 6.66667C6.3942 6.66667 7.41161 7.08809 8.16176 7.83824C8.91191 8.58838 9.33333 9.6058 9.33333 10.6667C9.33333 10.8435 9.40357 11.013 9.52859 11.1381C9.65362 11.2631 9.82319 11.3333 10 11.3333C10.1768 11.3333 10.3464 11.2631 10.4714 11.1381C10.5964 11.013 10.6667 10.8435 10.6667 10.6667C10.6657 9.64221 10.3697 8.63971 9.81401 7.77903C9.25836 6.91835 8.46657 6.23592 7.53333 5.81333V5.81333ZM5.33333 5.33333C4.93777 5.33333 4.55109 5.21603 4.22219 4.99627C3.89329 4.77651 3.63695 4.46415 3.48557 4.0987C3.3342 3.73325 3.29459 3.33111 3.37176 2.94315C3.44893 2.55519 3.63941 2.19882 3.91912 1.91912C4.19882 1.63941 4.55519 1.44893 4.94315 1.37176C5.33111 1.29459 5.73325 1.3342 6.0987 1.48557C6.46415 1.63695 6.77651 1.89329 6.99627 2.22219C7.21603 2.55109 7.33333 2.93777 7.33333 3.33333C7.33333 3.86377 7.12262 4.37247 6.74755 4.74755C6.37247 5.12262 5.86377 5.33333 5.33333 5.33333ZM13.14 3.75333C13.078 3.69085 13.0043 3.64125 12.9231 3.60741C12.8418 3.57356 12.7547 3.55613 12.6667 3.55613C12.5787 3.55613 12.4915 3.57356 12.4103 3.60741C12.329 3.64125 12.2553 3.69085 12.1933 3.75333L10.86 5.08667L10.4467 4.66667C10.3847 4.60418 10.311 4.55458 10.2297 4.52074C10.1485 4.48689 10.0613 4.46947 9.97333 4.46947C9.88532 4.46947 9.79819 4.48689 9.71695 4.52074C9.63571 4.55458 9.56197 4.60418 9.5 4.66667C9.37583 4.79157 9.30614 4.96054 9.30614 5.13667C9.30614 5.31279 9.37583 5.48176 9.5 5.60667L10.3933 6.5C10.5182 6.62417 10.6872 6.69386 10.8633 6.69386C11.0395 6.69386 11.2084 6.62417 11.3333 6.5L13.1133 4.72C13.1806 4.65955 13.2349 4.58603 13.2729 4.50392C13.3109 4.42181 13.3318 4.33283 13.3343 4.24239C13.3368 4.15196 13.3208 4.06196 13.2874 3.97788C13.254 3.8938 13.2039 3.8174 13.14 3.75333V3.75333Z" fill="currentColor"/>
</svg>
