<svg width="15" height="16" viewBox="0 0 15 16" fill="none" xmlns="http://www.w3.org/2000/svg">
<path d="M14.8073 6.66861C14.7795 6.51486 14.6986 6.37575 14.5787 6.27556C14.4588 6.17537 14.3076 6.12047 14.1514 6.12043H7.87241C7.78486 6.12041 7.69815 6.13764 7.61726 6.17113C7.53637 6.20463 7.46286 6.25373 7.40095 6.31564C7.33904 6.37755 7.28994 6.45105 7.25644 6.53195C7.22295 6.61284 7.20572 6.69954 7.20574 6.7871V9.36587C7.20572 9.45343 7.22295 9.54013 7.25644 9.62102C7.28994 9.70191 7.33904 9.77542 7.40095 9.83733C7.46286 9.89924 7.53637 9.94834 7.61726 9.98184C7.69815 10.0153 7.78486 10.0326 7.87241 10.0325H10.514C10.3258 10.3502 10.0678 10.621 9.75946 10.8242C9.19603 11.1814 8.53934 11.3636 7.87241 11.3476C7.18073 11.3397 6.50913 11.114 5.95307 10.7026C5.397 10.2911 4.98476 9.71491 4.77492 9.05578L4.77472 9.05467C4.54121 8.37026 4.54121 7.62775 4.77472 6.94334L4.77488 6.94224C4.98487 6.28324 5.39718 5.70717 5.95323 5.29586C6.50929 4.88455 7.18081 4.65893 7.87241 4.65103C8.25669 4.64221 8.63892 4.70939 8.99716 4.84871C9.3554 4.98803 9.68259 5.19675 9.95994 5.46288C10.0859 5.58325 10.254 5.64956 10.4282 5.64761C10.6024 5.64566 10.769 5.57562 10.8922 5.45246L12.8043 3.54035C12.8677 3.47709 12.9176 3.4017 12.9512 3.3187C12.9848 3.2357 13.0012 3.14678 12.9997 3.05726C12.9981 2.96775 12.9785 2.87947 12.942 2.7977C12.9055 2.71594 12.853 2.64236 12.7874 2.58137C11.4568 1.33384 9.69626 0.647745 7.87241 0.666005C6.51237 0.661981 5.17825 1.03801 4.0205 1.7517C2.86274 2.46538 1.92741 3.48833 1.31997 4.70519L1.31899 4.70637C0.804008 5.72754 0.536821 6.85566 0.539077 7.99934C0.540699 9.14256 0.807689 10.2698 1.31902 11.2923L1.32 11.2935C1.92744 12.5103 2.86277 13.5333 4.02052 14.247C5.17826 14.9607 6.51237 15.3367 7.87241 15.3327C9.66264 15.378 11.4025 14.7371 12.7355 13.5413L12.7365 13.5404C13.4591 12.8453 14.0285 12.0066 14.4078 11.0785C14.787 10.1504 14.9681 9.15324 14.9391 8.15104C14.9394 7.65395 14.8953 7.15784 14.8073 6.66861ZM7.87241 1.99934C9.11979 1.9872 10.3377 2.37837 11.3447 3.11457L10.3756 4.08334C9.64081 3.57471 8.76603 3.30714 7.87241 3.3177C7.05656 3.32189 6.25656 3.54342 5.55476 3.95949C4.85296 4.37555 4.27472 4.97112 3.87954 5.68488L2.77673 4.82994C3.31324 3.96184 4.06339 3.24581 4.9555 2.75024C5.84762 2.25468 6.8519 1.99615 7.87241 1.99934ZM2.19204 9.93488C1.76582 8.67972 1.76582 7.31896 2.19204 6.06379L3.38019 6.98502C3.22828 7.65248 3.22828 8.34555 3.38019 9.01302L2.19204 9.93488ZM7.87241 13.9993C6.85188 14.0025 5.84759 13.744 4.95546 13.2484C4.06334 12.7528 3.31319 12.0367 2.77668 11.1686L3.87954 10.3131C4.27454 11.0271 4.85273 11.6229 5.55456 12.0391C6.25638 12.4553 7.05647 12.6768 7.87241 12.681C8.63618 12.69 9.39127 12.5185 10.0762 12.1804L11.204 13.056C10.2121 13.6951 9.05208 14.0235 7.87241 13.9993ZM12.223 12.1588L11.1828 11.3513C11.6642 10.8312 11.9878 10.1848 12.1159 9.48765C12.1338 9.39142 12.1303 9.29243 12.1056 9.19771C12.0809 9.10299 12.0357 9.01487 11.9731 8.93961C11.9105 8.86435 11.8321 8.80379 11.7435 8.76225C11.6548 8.72071 11.5582 8.69919 11.4603 8.69924H8.53908V7.45376H13.5716C13.5944 7.68423 13.6058 7.9173 13.6058 8.15103C13.6448 9.61025 13.1535 11.0341 12.223 12.1588Z" fill="#6E99EC"/>
</svg>
