<svg width="10" height="10" viewBox="0 0 10 10" fill="none" xmlns="http://www.w3.org/2000/svg">
<path d="M9.93333 4.68333C9.89367 4.58103 9.8342 4.48758 9.75833 4.40833L5.59167 0.241658C5.51397 0.16396 5.42173 0.102326 5.32021 0.0602756C5.21869 0.0182253 5.10988 -0.00341797 5 -0.00341797C4.77808 -0.00341797 4.56525 0.0847387 4.40833 0.241658C4.33063 0.319357 4.269 0.411599 4.22695 0.513117C4.1849 0.614636 4.16326 0.723442 4.16326 0.833325C4.16326 1.05524 4.25141 1.26807 4.40833 1.42499L7.15833 4.16666H0.833333C0.61232 4.16666 0.400358 4.25446 0.244078 4.41074C0.0877975 4.56702 0 4.77898 0 4.99999C0 5.22101 0.0877975 5.43297 0.244078 5.58925C0.400358 5.74553 0.61232 5.83333 0.833333 5.83333H7.15833L4.40833 8.57499C4.33023 8.65246 4.26823 8.74463 4.22592 8.84618C4.18362 8.94773 4.16183 9.05665 4.16183 9.16666C4.16183 9.27667 4.18362 9.38559 4.22592 9.48714C4.26823 9.58869 4.33023 9.68086 4.40833 9.75832C4.4858 9.83643 4.57797 9.89843 4.67952 9.94073C4.78107 9.98304 4.88999 10.0048 5 10.0048C5.11001 10.0048 5.21893 9.98304 5.32048 9.94073C5.42203 9.89843 5.5142 9.83643 5.59167 9.75832L9.75833 5.59166C9.8342 5.51241 9.89367 5.41895 9.93333 5.31666C10.0167 5.11377 10.0167 4.88621 9.93333 4.68333Z" fill="currentColor"/>
</svg>
