<svg width="14" height="14" viewBox="0 0 14 14" fill="none" xmlns="http://www.w3.org/2000/svg">
<path d="M12.7404 5.33349C12.828 5.33352 12.9147 5.31629 12.9955 5.28279C13.0764 5.2493 13.1499 5.20019 13.2119 5.13828C13.2738 5.07637 13.3229 5.00287 13.3564 4.92198C13.3899 4.84108 13.4071 4.75438 13.4071 4.66683V2.66683C13.4071 2.52694 13.3631 2.3906 13.2813 2.27712C13.1995 2.16365 13.0841 2.07882 12.9513 2.03467L6.95134 0.0346679C6.8144 -0.0109049 6.66639 -0.0109049 6.52946 0.0346679L0.529457 2.03467C0.396726 2.07882 0.28127 2.16365 0.199468 2.27712C0.117666 2.3906 0.073673 2.52694 0.0737305 2.66683V4.66683C0.0737078 4.75438 0.0909361 4.84108 0.124431 4.92198C0.157926 5.00287 0.207032 5.07637 0.268942 5.13828C0.330852 5.20019 0.404354 5.2493 0.485248 5.28279C0.566142 5.31629 0.652843 5.33352 0.740397 5.33349H1.40706V10.123C1.01822 10.26 0.681307 10.5139 0.442575 10.85C0.203843 11.1861 0.0749988 11.5879 0.0737305 12.0002V13.3335C0.0737078 13.421 0.0909361 13.5077 0.124431 13.5886C0.157926 13.6695 0.207032 13.743 0.268942 13.8049C0.330852 13.8669 0.404354 13.916 0.485248 13.9495C0.566142 13.983 0.652843 14.0002 0.740397 14.0002H12.7404C12.828 14.0002 12.9147 13.983 12.9955 13.9495C13.0764 13.916 13.1499 13.8669 13.2119 13.8049C13.2738 13.743 13.3229 13.6695 13.3564 13.5886C13.3899 13.5077 13.4071 13.421 13.4071 13.3335V12.0002C13.4058 11.5879 13.277 11.1861 13.0382 10.85C12.7995 10.5139 12.4626 10.26 12.0737 10.123V5.33349H12.7404ZM12.0737 12.6668H1.40706V12.0002C1.40724 11.8234 1.47754 11.6539 1.60252 11.529C1.72751 11.404 1.89697 11.3337 2.07373 11.3335H11.4071C11.5838 11.3337 11.7533 11.404 11.8783 11.529C12.0033 11.6539 12.0736 11.8234 12.0737 12.0002V12.6668ZM2.7404 10.0002V5.33349H4.07373V10.0002H2.7404ZM5.40706 10.0002V5.33349H8.07373V10.0002H5.40706ZM9.40706 10.0002V5.33349H10.7404V10.0002H9.40706ZM1.40706 4.00016V3.14729L6.7404 1.36929L12.0737 3.14729V4.00016H1.40706Z" fill="#6E99EC"/>
</svg>
