<svg xmlns="http://www.w3.org/2000/svg" width="20" height="20" fill="none"><path fill="currentColor" fill-rule="evenodd" d="M5.875 2.542a5.833 5.833 0 0 1 9.958 4.125c0 2.793.598 4.528 1.149 5.538.276.507.545.84.732 1.037a3 3 0 0 0 .258.238A.833.833 0 0 1 17.5 15h-15a.833.833 0 0 1-.47-1.522l.044-.035c.044-.037.118-.102.212-.201.187-.198.456-.53.732-1.037.551-1.01 1.149-2.745 1.149-5.538 0-1.548.614-3.031 1.708-4.125M4.291 13.334h11.418a8 8 0 0 1-.19-.33c-.7-1.283-1.352-3.298-1.352-6.337a4.167 4.167 0 0 0-8.334 0c0 3.039-.652 5.054-1.352 6.336a8 8 0 0 1-.19.33m3.85 3.445a.833.833 0 0 1 1.138.303.832.832 0 0 0 1.442 0 .833.833 0 0 1 1.441.836 2.5 2.5 0 0 1-4.325 0 .833.833 0 0 1 .303-1.139" clip-rule="evenodd"/><circle cx="15" cy="5" r="3" fill="#FF1F00"/></svg>