<svg width="21" height="12" viewBox="0 0 21 12" fill="none" xmlns="http://www.w3.org/2000/svg">
<path d="M2.59757 4.37538C6.41617 1.65234 10.1324 6.55258 7.45877 9.8451C8.95806 9.5442 10.1196 8.28463 10.2719 6.79877C10.3422 6.1062 10.08 4.32192 10.4689 3.88175C10.9473 3.34212 11.8761 3.64426 12.0372 4.33932C12.3289 5.60138 11.5626 8.97969 12.5835 9.77671C12.9737 10.0813 13.9894 10.0403 14.4141 9.83018C14.9092 9.58523 15.3902 8.5358 15.3902 8.04341V5.24576C12.8726 5.56407 12.6897 3.18794 15.3902 3.62934V1.08037C15.3902 0.37288 17.0532 0.37288 17.0532 1.08037V3.62934H18.1112C18.3785 3.62934 18.6459 3.62934 18.9146 3.62934C19.2497 3.62934 19.6616 3.55971 19.883 3.86435C20.1119 4.18017 20.167 4.75089 19.8164 5.00952C19.37 5.33777 18.7137 5.24576 18.1867 5.24576C18.1125 5.24576 17.0545 5.24576 17.0545 5.24576V8.41643C17.0545 8.88022 17.501 9.73195 18.0447 9.82645C18.9209 9.98063 19.1678 9.07419 19.6821 8.97721C20.7375 8.77826 21.0125 9.70086 20.4509 10.473C19.6181 11.6157 17.8042 11.7487 16.6477 11.0189C16.4827 10.9144 16.3292 10.7913 16.1948 10.6521C16.0375 10.4892 15.9838 10.2604 15.7535 10.4457C15.4183 10.7155 15.1279 11.0649 14.7263 11.2427C14.1122 11.515 13.4009 11.5647 12.746 11.4242C12.2304 11.3136 11.7341 11.081 11.3516 10.7242C11.1635 10.5489 11.0049 10.3437 10.8872 10.1162C10.8322 10.0092 10.5635 9.45218 10.6595 9.34898C9.45186 10.6496 7.9257 11.3223 6.11682 11.4603C4.76208 11.5635 3.20011 11.4827 2.12808 10.5663C1.27354 9.83515 0.949884 8.7248 0.825796 7.66169C0.69659 6.58739 0.73113 5.50315 0.778463 4.42512C0.825796 3.34709 0.80149 2.31258 0.841147 1.25694C0.85266 0.938627 1.11491 0.810557 1.32343 0.607883C1.57544 0.459918 1.87479 0.463648 2.11913 0.626534C2.26624 0.723519 2.38138 0.860293 2.485 0.999554C2.65002 1.21964 2.59757 1.52302 2.59757 1.78538V4.37663V4.37538ZM4.09687 5.2756C2.11913 5.67598 1.97457 9.24827 4.15571 9.76179C7.38329 10.5215 7.43446 4.60168 4.09687 5.2756Z" fill="#6E99EC"/>
<path d="M10.877 0.546938C12.2266 0.252252 12.5118 2.14471 11.3029 2.33495C10.1516 2.51648 9.76911 0.789401 10.877 0.546938Z" fill="#6E99EC"/>
</svg>
