<svg xmlns="http://www.w3.org/2000/svg" width="32" height="33" fill="none"><path fill="currentColor" d="M22.787 3.915a10.67 10.67 0 0 0-8.907-2.213 10.67 10.67 0 0 0-8.36 8.427 10.76 10.76 0 0 0 2.293 8.866 6.05 6.05 0 0 1 1.52 3.827v4a4 4 0 0 0 4 4h5.334a4 4 0 0 0 4-4v-3.747a6.9 6.9 0 0 1 1.626-4.253 10.667 10.667 0 0 0-1.506-14.933zM20 26.822a1.334 1.334 0 0 1-1.333 1.333h-5.334A1.334 1.334 0 0 1 12 26.822v-1.334h8zm2.227-9.653A9.5 9.5 0 0 0 20 22.822h-8a8.67 8.67 0 0 0-2.133-5.547 8 8 0 0 1 4.52-12.96A8 8 0 0 1 24 12.155a7.85 7.85 0 0 1-1.773 5.014"/><path fill="currentColor" d="M15.898 9.489c.68 0 1.23.55 1.23 1.23v4.923a1.23 1.23 0 1 1-2.461 0V10.72c0-.68.55-1.23 1.23-1.23m-1.23 9.64c0-.68.55-1.231 1.23-1.231h.017a1.23 1.23 0 0 1 0 2.461h-.016a1.23 1.23 0 0 1-1.231-1.23"/></svg>