<svg xmlns="http://www.w3.org/2000/svg" width="24" height="28" fill="none"><path fill="currentColor" d="M22.396 3.27h-2.344v-.78A1.825 1.825 0 0 0 18.229.666a1.825 1.825 0 0 0-1.823 1.823v.781h-2.604v-.78A1.825 1.825 0 0 0 11.979.666a1.825 1.825 0 0 0-1.823 1.823v.781H7.552v-.78A1.825 1.825 0 0 0 5.73.666a1.825 1.825 0 0 0-1.823 1.823v.781H1.562C.701 3.27 0 3.971 0 4.833V25.77c0 .862.7 1.563 1.562 1.563h20.834c.861 0 1.562-.701 1.562-1.563V4.833c0-.862-.7-1.563-1.562-1.563m-4.948-.781a.782.782 0 0 1 1.562 0v.781h-1.562zm-6.25 0a.782.782 0 0 1 1.562 0v.781h-1.562zm-6.25 0a.782.782 0 0 1 1.562 0v.781H4.948zM1.562 4.312h2.344v.26c0 1.005.818 1.823 1.823 1.823a.52.52 0 1 0 0-1.041.78.78 0 0 1-.781-.782v-.26h5.208v.26c0 1.005.818 1.823 1.823 1.823a.52.52 0 1 0 0-1.041.78.78 0 0 1-.781-.782v-.26h5.208v.26c0 1.005.818 1.823 1.823 1.823a.52.52 0 1 0 0-1.041.78.78 0 0 1-.781-.782v-.26h4.948a.52.52 0 0 1 .52.52v2.605H1.043V4.833a.52.52 0 0 1 .52-.521M22.396 26.29H1.562a.52.52 0 0 1-.52-.52V8.477h21.875V25.77a.52.52 0 0 1-.521.521"/><path fill="currentColor" fill-rule="evenodd" d="M3.125 10.563h17.708v13.645H3.125z" clip-rule="evenodd"/><path fill="#fff" d="M14.954 13.69a1.7 1.7 0 0 0-1.21.5l-2.758 2.759-.774-.774a1.713 1.713 0 0 0-2.42 0 1.713 1.713 0 0 0 0 2.42l1.984 1.984c.334.334.772.5 1.21.5s.877-.166 1.21-.5l3.968-3.968a1.713 1.713 0 0 0-1.21-2.921m.474 2.184-3.968 3.969a.67.67 0 0 1-.947 0l-1.985-1.985a.67.67 0 0 1-.196-.473.665.665 0 0 1 1.143-.473l1.143 1.142a.52.52 0 0 0 .736 0l3.127-3.127a.67.67 0 0 1 .473-.196.666.666 0 0 1 .473 1.143"/></svg>