<svg width="14" height="12" viewBox="0 0 14 12" fill="none" xmlns="http://www.w3.org/2000/svg">
<path d="M12.8871 6.00024C13.2189 5.63515 13.4041 5.16028 13.4071 4.66691C13.4071 4.13648 13.1963 3.62777 12.8213 3.2527C12.4462 2.87762 11.9375 2.66691 11.4071 2.66691H7.95373C8.06023 2.3657 8.09301 2.04335 8.04934 1.72686C8.00567 1.41037 7.88682 1.10895 7.70273 0.847833C7.51864 0.586713 7.27467 0.373496 6.99126 0.22603C6.70784 0.0785636 6.39322 0.00114115 6.07373 0.000244141H2.07373C1.5433 0.000244141 1.03459 0.210958 0.659517 0.586031C0.284444 0.961103 0.0737305 1.46981 0.0737305 2.00024C0.0766709 2.49361 0.261871 2.96849 0.59373 3.33358C0.265761 3.70026 0.0844425 4.17496 0.0844425 4.66691C0.0844425 5.15887 0.265761 5.63356 0.59373 6.00024C0.265761 6.36693 0.0844425 6.84162 0.0844425 7.33358C0.0844425 7.82553 0.265761 8.30023 0.59373 8.66691C0.261871 9.032 0.0766709 9.50688 0.0737305 10.0002C0.0737305 10.5307 0.284444 11.0394 0.659517 11.4145C1.03459 11.7895 1.5433 12.0002 2.07373 12.0002H11.4071C11.7922 11.9982 12.1686 11.8849 12.491 11.6741C12.8134 11.4633 13.068 11.1639 13.2243 10.8119C13.3806 10.4598 13.4319 10.0701 13.3721 9.68964C13.3123 9.30914 13.1439 8.954 12.8871 8.66691C13.215 8.30023 13.3964 7.82553 13.3964 7.33358C13.3964 6.84162 13.215 6.36693 12.8871 6.00024ZM6.07373 10.6669H2.07373C1.89692 10.6669 1.72735 10.5967 1.60233 10.4716C1.4773 10.3466 1.40706 10.1771 1.40706 10.0002C1.40706 9.82343 1.4773 9.65386 1.60233 9.52884C1.72735 9.40382 1.89692 9.33358 2.07373 9.33358H6.07373C6.25054 9.33358 6.42011 9.40382 6.54513 9.52884C6.67016 9.65386 6.7404 9.82343 6.7404 10.0002C6.7404 10.1771 6.67016 10.3466 6.54513 10.4716C6.42011 10.5967 6.25054 10.6669 6.07373 10.6669ZM6.07373 8.00024H2.07373C1.89692 8.00024 1.72735 7.93001 1.60233 7.80498C1.4773 7.67996 1.40706 7.51039 1.40706 7.33358C1.40706 7.15677 1.4773 6.9872 1.60233 6.86217C1.72735 6.73715 1.89692 6.66691 2.07373 6.66691H6.07373C6.25054 6.66691 6.42011 6.73715 6.54513 6.86217C6.67016 6.9872 6.7404 7.15677 6.7404 7.33358C6.7404 7.51039 6.67016 7.67996 6.54513 7.80498C6.42011 7.93001 6.25054 8.00024 6.07373 8.00024ZM6.07373 5.33358H2.07373C1.89692 5.33358 1.72735 5.26334 1.60233 5.13832C1.4773 5.01329 1.40706 4.84372 1.40706 4.66691C1.40706 4.4901 1.4773 4.32053 1.60233 4.19551C1.72735 4.07048 1.89692 4.00024 2.07373 4.00024H6.07373C6.25054 4.00024 6.42011 4.07048 6.54513 4.19551C6.67016 4.32053 6.7404 4.4901 6.7404 4.66691C6.7404 4.84372 6.67016 5.01329 6.54513 5.13832C6.42011 5.26334 6.25054 5.33358 6.07373 5.33358ZM6.07373 2.66691H2.07373C1.89692 2.66691 1.72735 2.59667 1.60233 2.47165C1.4773 2.34662 1.40706 2.17706 1.40706 2.00024C1.40706 1.82343 1.4773 1.65386 1.60233 1.52884C1.72735 1.40382 1.89692 1.33358 2.07373 1.33358H6.07373C6.25054 1.33358 6.42011 1.40382 6.54513 1.52884C6.67016 1.65386 6.7404 1.82343 6.7404 2.00024C6.7404 2.17706 6.67016 2.34662 6.54513 2.47165C6.42011 2.59667 6.25054 2.66691 6.07373 2.66691ZM11.8671 10.4736C11.808 10.5359 11.7366 10.5853 11.6574 10.6186C11.5782 10.6518 11.4929 10.6683 11.4071 10.6669H7.95373C8.1136 10.2368 8.1136 9.76365 7.95373 9.33358H11.4071C11.5839 9.33358 11.7534 9.40382 11.8785 9.52884C12.0035 9.65386 12.0737 9.82343 12.0737 10.0002C12.0725 10.0889 12.0536 10.1765 12.0181 10.2577C11.9826 10.339 11.9313 10.4124 11.8671 10.4736ZM11.8671 7.80691C11.808 7.86924 11.7366 7.91862 11.6574 7.9519C11.5782 7.98518 11.4929 8.00164 11.4071 8.00024H7.95373C8.1136 7.57018 8.1136 7.09698 7.95373 6.66691H11.4071C11.5839 6.66691 11.7534 6.73715 11.8785 6.86217C12.0035 6.9872 12.0737 7.15677 12.0737 7.33358C12.0725 7.42226 12.0536 7.50979 12.0181 7.59107C11.9826 7.67235 11.9313 7.74573 11.8671 7.80691ZM11.8671 5.14024C11.808 5.20258 11.7366 5.25195 11.6574 5.28523C11.5782 5.31851 11.4929 5.33497 11.4071 5.33358H7.95373C8.1136 4.90351 8.1136 4.43031 7.95373 4.00024H11.4071C11.5839 4.00024 11.7534 4.07048 11.8785 4.19551C12.0035 4.32053 12.0737 4.4901 12.0737 4.66691C12.0725 4.75559 12.0536 4.84313 12.0181 4.9244C11.9826 5.00568 11.9313 5.07906 11.8671 5.14024Z" fill="#6E99EC"/>
</svg>
