<svg width="16" height="14" viewBox="0 0 16 14" fill="none" xmlns="http://www.w3.org/2000/svg">
<path d="M14.4072 0.333618H1.07389C0.897082 0.333618 0.727513 0.403856 0.602489 0.52888C0.477464 0.653904 0.407227 0.823474 0.407227 1.00028V6.33362C0.407227 6.51043 0.477464 6.68 0.602489 6.80502C0.727513 6.93005 0.897082 7.00028 1.07389 7.00028H3.07389V13.0003C3.07389 13.1771 3.14413 13.3467 3.26916 13.4717C3.39418 13.5967 3.56375 13.667 3.74056 13.667H11.7406C11.9174 13.667 12.0869 13.5967 12.212 13.4717C12.337 13.3467 12.4072 13.1771 12.4072 13.0003V7.00028H14.4072C14.584 7.00028 14.7536 6.93005 14.8786 6.80502C15.0037 6.68 15.0739 6.51043 15.0739 6.33362V1.00028C15.0739 0.823474 15.0037 0.653904 14.8786 0.52888C14.7536 0.403856 14.584 0.333618 14.4072 0.333618ZM4.40723 12.3336V11.0003C4.76085 11.0003 5.09999 11.1408 5.35004 11.3908C5.60008 11.6409 5.74056 11.98 5.74056 12.3336H4.40723ZM11.0739 12.3336H9.74056C9.74056 11.98 9.88104 11.6409 10.1311 11.3908C10.3811 11.1408 10.7203 11.0003 11.0739 11.0003V12.3336ZM11.0739 9.66695C10.3666 9.66695 9.68837 9.9479 9.18827 10.448C8.68818 10.9481 8.40723 11.6264 8.40723 12.3336H7.07389C7.07389 11.6264 6.79294 10.9481 6.29284 10.448C5.79275 9.9479 5.11447 9.66695 4.40723 9.66695V4.33362H11.0739V9.66695ZM13.7406 5.66695H12.4072V3.66695C12.4072 3.49014 12.337 3.32057 12.212 3.19555C12.0869 3.07052 11.9174 3.00028 11.7406 3.00028H3.74056C3.56375 3.00028 3.39418 3.07052 3.26916 3.19555C3.14413 3.32057 3.07389 3.49014 3.07389 3.66695V5.66695H1.74056V1.66695H13.7406V5.66695ZM7.74056 9.00028C8.13612 9.00028 8.5228 8.88299 8.8517 8.66322C9.1806 8.44346 9.43694 8.1311 9.58832 7.76565C9.73969 7.4002 9.7793 6.99807 9.70213 6.6101C9.62496 6.22214 9.43448 5.86578 9.15477 5.58607C8.87507 5.30637 8.5187 5.11588 8.13074 5.03871C7.74278 4.96154 7.34064 5.00115 6.97519 5.15253C6.60974 5.3039 6.29738 5.56025 6.07762 5.88914C5.85786 6.21804 5.74056 6.60472 5.74056 7.00028C5.74056 7.53072 5.95127 8.03943 6.32635 8.4145C6.70142 8.78957 7.21013 9.00028 7.74056 9.00028ZM7.74056 6.33362C7.87241 6.33362 8.00131 6.37272 8.11094 6.44597C8.22057 6.51923 8.30602 6.62334 8.35648 6.74516C8.40694 6.86698 8.42014 7.00102 8.39442 7.13034C8.36869 7.25967 8.3052 7.37845 8.21196 7.47169C8.11873 7.56492 7.99994 7.62842 7.87062 7.65414C7.7413 7.67986 7.60725 7.66666 7.48544 7.6162C7.36362 7.56575 7.2595 7.4803 7.18625 7.37066C7.11299 7.26103 7.07389 7.13214 7.07389 7.00028C7.07389 6.82347 7.14413 6.6539 7.26916 6.52888C7.39418 6.40386 7.56375 6.33362 7.74056 6.33362Z" fill="#6E99EC"/>
</svg>
