<svg xmlns="http://www.w3.org/2000/svg" width="72" height="63" fill="none"><path fill="#10E991" d="M72 43c0 11.046-16.118 20-36 20S0 54.046 0 43s16.118-20 36-20 36 8.954 36 20"/><path fill="#13B472" fill-rule="evenodd" d="M59.999 54.52C66.09 51.135 69 46.939 69 43s-2.909-8.135-9.001-11.52C54.009 28.152 45.529 26 36 26c-9.53 0-18.008 2.152-23.999 5.48C5.91 34.865 3 39.061 3 43s2.909 8.135 9.001 11.52C17.991 57.848 26.471 60 36 60c9.53 0 18.008-2.152 23.999-5.48M36 63c19.882 0 36-8.954 36-20S55.882 23 36 23 0 31.954 0 43s16.118 20 36 20" clip-rule="evenodd"/><path fill="#10E991" d="M2 23a7 7 0 0 1 7-7h54a7 7 0 0 1 7 7v16a7 7 0 0 1-7 7H9a7 7 0 0 1-7-7z"/><path fill="#13B472" fill-rule="evenodd" d="M0 44V20h3v24zm69 0V20h3v24z" clip-rule="evenodd"/><path fill="#10E991" d="M72 20c0 11.046-16.118 20-36 20S0 31.046 0 20 16.118 0 36 0s36 8.954 36 20"/><path fill="#13B472" fill-rule="evenodd" d="M59.999 31.52C66.09 28.135 69 23.939 69 20s-2.909-8.135-9.001-11.52C54.009 5.152 45.529 3 36 3c-9.53 0-18.008 2.152-23.999 5.48C5.91 11.865 3 16.061 3 20s2.909 8.135 9.001 11.52C17.991 34.848 26.471 37 36 37c9.53 0 18.008-2.152 23.999-5.48M36 40c19.882 0 36-8.954 36-20S55.882 0 36 0 0 8.954 0 20s16.118 20 36 20" clip-rule="evenodd"/></svg>