<svg xmlns="http://www.w3.org/2000/svg" width="17" height="17" fill="none"><g clip-path="url(#a)"><path fill="currentColor" fill-rule="evenodd" d="M8.668 2.622a6 6 0 1 0 0 12 6 6 0 0 0 0-12m-7.333 6a7.333 7.333 0 1 1 14.667 0 7.333 7.333 0 0 1-14.667 0m7.333-4.667c.369 0 .667.298.667.667V8.21l2.298 1.149a.667.667 0 1 1-.596 1.192L8.37 9.218a.67.67 0 0 1-.368-.596v-4c0-.369.298-.667.666-.667" clip-rule="evenodd"/></g><defs><clipPath id="a"><path fill="#fff" d="M.668.622h16v16h-16z"/></clipPath></defs></svg>