<svg xmlns="http://www.w3.org/2000/svg" width="482" height="433" fill="none"><path fill="currentColor" d="M73.739 29.233c4.483 1.688 7.431 5.637 7.988 9.996a15.8 15.8 0 0 1 4.963 1.01c8.112 3.054 12.236 12.044 9.21 20.078-3.025 8.035-12.054 12.071-20.166 9.017A15.8 15.8 0 0 1 70 65.598c-4.19 3.935-10.48 5.371-16.311 3.176-8.113-3.055-12.26-11.981-9.265-19.938 2.101-5.58 7.159-9.202 12.79-9.813.108-.956.333-1.913.687-2.852 2.35-6.24 9.44-9.346 15.837-6.938m242.001 170c4.482 1.688 7.431 5.637 7.988 9.996 1.653.065 3.327.393 4.963 1.009 8.112 3.055 12.236 12.045 9.211 20.079s-12.055 12.071-20.167 9.017a15.75 15.75 0 0 1-5.733-3.736c-4.19 3.935-10.481 5.371-16.311 3.176-8.113-3.055-12.261-11.981-9.265-19.938 2.101-5.58 7.158-9.202 12.79-9.813.108-.956.333-1.913.687-2.851 2.35-6.241 9.441-9.347 15.837-6.939M39.153 292.349c9.897.09 18 7.419 19.12 16.811 9.8 1.052 17.383 9.236 17.294 19.103-.095 10.516-8.87 18.963-19.598 18.866a19.66 19.66 0 0 1-8.892-2.199 23.3 23.3 0 0 1-9.764 2.03 23.3 23.3 0 0 1-9.326-2.023 19.66 19.66 0 0 1-8.561 1.861c-10.729-.097-19.35-8.7-19.254-19.216.095-10.508 8.855-18.949 19.572-18.866 1.333-9.323 9.546-16.456 19.41-16.367m388.166 60.163c14.49.131 26.353 10.861 27.995 24.61 14.345 1.541 25.448 13.523 25.317 27.968-.139 15.396-12.985 27.761-28.692 27.619a28.8 28.8 0 0 1-13.018-3.219 34.1 34.1 0 0 1-14.295 2.972 34.2 34.2 0 0 1-13.653-2.96 28.8 28.8 0 0 1-12.534 2.724c-15.707-.143-28.327-12.738-28.188-28.133.139-15.384 12.965-27.743 28.654-27.62 1.953-13.65 13.974-24.092 28.414-23.961M383.904.398C395.187.5 404.422 8.855 405.7 19.561c11.17 1.2 19.814 10.528 19.712 21.776-.109 11.987-10.11 21.614-22.339 21.504a22.4 22.4 0 0 1-10.137-2.507 26.6 26.6 0 0 1-11.13 2.314 26.6 26.6 0 0 1-10.629-2.305 22.4 22.4 0 0 1-9.759 2.121c-12.23-.11-22.056-9.917-21.948-21.904.109-11.978 10.094-21.6 22.31-21.505C363.3 8.427 372.661.297 383.904.398" style="mix-blend-mode:multiply"/></svg>