<svg xmlns="http://www.w3.org/2000/svg" width="20" height="20" fill="none"><path fill="currentColor" fill-rule="evenodd" d="M3.308 2.948c-.745.407-1.016.865-1.016 1.219s.271.812 1.016 1.219c.722.393 1.76.656 2.942.656 1.181 0 2.22-.263 2.941-.656.745-.407 1.017-.865 1.017-1.219s-.272-.812-1.017-1.219c-.72-.393-1.76-.656-2.941-.656-1.182 0-2.22.263-2.942.656M2.292 6.226q.2.14.418.257c.938.512 2.19.809 3.54.809s2.602-.297 3.54-.809a4.5 4.5 0 0 0 .51-.324v.555l-.15.072c-.724.363-1.38.91-1.612 1.63a.6.6 0 0 0-.09.32v.721a7.8 7.8 0 0 1-2.152.289c-1.202 0-2.26-.245-2.994-.613-.771-.385-1.01-.803-1.01-1.077zm0 3.768q.218.141.451.258c.942.47 2.199.744 3.553.744.763 0 1.494-.087 2.153-.246v1.948a7.8 7.8 0 0 1-2.153.288c-1.202 0-2.26-.245-2.994-.612-.771-.386-1.01-.803-1.01-1.077zm0 3.24q.218.142.451.258c.942.471 2.199.744 3.553.744a9.3 9.3 0 0 0 2.153-.245v1.605a8 8 0 0 1-2.153.285c-1.203 0-2.262-.242-2.997-.605-.774-.383-1.007-.793-1.007-1.055zm6.339 3.609a9.3 9.3 0 0 1-2.335.288c-1.353 0-2.61-.27-3.55-.734-.901-.445-1.704-1.177-1.704-2.176V4.167c0-1.026.754-1.818 1.668-2.316.938-.512 2.19-.809 3.54-.809s2.602.297 3.54.809c.798.435 1.474 1.094 1.633 1.937.08.105.128.237.128.379v2.12a9.3 9.3 0 0 1 2.153-.245c1.354 0 2.61.273 3.553.744.724.363 1.38.91 1.612 1.63a.6.6 0 0 1 .09.32v7.313c0 .999-.804 1.73-1.705 2.176-.941.464-2.197.734-3.55.734-1.354 0-2.61-.27-3.55-.734-.643-.318-1.236-.78-1.523-1.383m9.077-4.158V10.92q-.219.141-.451.257c-.942.471-2.2.745-3.554.745s-2.61-.274-3.552-.745a5 5 0 0 1-.452-.257v1.765c0 .275.239.692 1.01 1.078.735.367 1.792.612 2.995.612 1.202 0 2.26-.245 2.994-.612.771-.386 1.01-.803 1.01-1.078m-8.01 1.939q.22.141.452.257c.942.471 2.2.744 3.553.744 1.355 0 2.612-.273 3.554-.744q.232-.116.451-.257v1.425c0 .262-.233.672-1.008 1.055-.734.362-1.793.605-2.996.605s-2.263-.243-2.997-.605c-.775-.383-1.008-.793-1.008-1.055zm8.01-5.642c0-.275-.239-.692-1.01-1.078-.735-.367-1.792-.612-2.995-.612-1.202 0-2.26.245-2.993.612-.772.386-1.011.803-1.011 1.078 0 .274.239.692 1.01 1.077.735.368 1.792.613 2.995.613 1.202 0 2.26-.245 2.994-.613.771-.385 1.01-.803 1.01-1.077" clip-rule="evenodd"/></svg>