<svg xmlns="http://www.w3.org/2000/svg" width="41" height="40" fill="none"><path fill="currentColor" d="M8.915 32.03a.79.79 0 0 0-.789.774v.015a.79.79 0 0 0 1.578 0v-.015a.79.79 0 0 0-.79-.773"/><path fill="currentColor" d="M34.082 21.314V5.996c0-2.562-4.594-3.945-8.915-3.945-4.322 0-8.915 1.383-8.915 3.945v7.156c-1.715-1.071-4.581-1.634-7.337-1.634C4.593 11.518 0 12.901 0 15.463v18.934c0 2.563 4.593 3.945 8.915 3.945 3.239 0 6.63-.776 8.126-2.244 1.496 1.468 4.887 2.244 8.126 2.244 1.4 0 2.888-.138 4.034-.372a8.7 8.7 0 0 0 2.514.372c4.785 0 8.678-3.893 8.678-8.678a8.705 8.705 0 0 0-6.311-8.35M32.504 10.73c0 .348-.504.95-1.923 1.494-1.443.554-3.416.872-5.414.872s-3.972-.318-5.414-.872c-1.42-.545-1.923-1.146-1.923-1.495V8.308c1.715 1.071 4.58 1.634 7.337 1.634s5.621-.563 7.337-1.634zM17.83 13.04c1.715 1.072 4.58 1.634 7.337 1.634s5.621-.562 7.337-1.634v2.423c0 .349-.504.95-1.923 1.495-1.443.554-3.416.872-5.414.872s-3.972-.318-5.414-.872c-1.42-.545-1.923-1.146-1.923-1.495zm-1.578 7.157c0 .349-.504.95-1.923 1.495-1.443.554-3.416.871-5.414.871s-3.972-.317-5.414-.871c-1.42-.546-1.923-1.146-1.923-1.495v-2.423c1.715 1.071 4.58 1.634 7.337 1.634s5.622-.563 7.337-1.634zm-14.674 2.31c1.715 1.072 4.58 1.634 7.337 1.634s5.622-.562 7.337-1.634v2.423c0 .349-.504.95-1.923 1.495-1.443.554-3.416.872-5.414.872s-3.972-.318-5.414-.872c-1.42-.545-1.923-1.146-1.923-1.495zm16.252 4.67c1.312.81 3.277 1.337 5.255 1.565a8.7 8.7 0 0 0 .247 3.174c-1.403-.155-2.726-.462-3.747-.879-1.212-.495-1.755-1.046-1.755-1.373zm5.566.012c-1.488-.16-2.9-.498-3.949-.95-1.117-.48-1.617-1.003-1.617-1.309v-2.465a8.3 8.3 0 0 0 1.485.703c1.578.583 3.64.931 5.71.97a8.6 8.6 0 0 0-1.629 3.051m3.407-4.678c-.458.034-.928.052-1.4.052-2.015 0-4.035-.319-5.541-.875-1.404-.518-2.032-1.122-2.032-1.491v-2.423c1.715 1.071 4.58 1.634 7.337 1.634s5.621-.563 7.337-1.634v2.423c0 .24-.188.517-.533.793l-.256-.005a8.6 8.6 0 0 0-4.911 1.526M19.754 4.5c1.442-.554 3.416-.872 5.414-.872s3.971.318 5.414.872c1.42.545 1.923 1.146 1.923 1.495S32 6.946 30.58 7.49c-1.443.554-3.416.872-5.414.872s-3.972-.318-5.414-.872c-1.42-.545-1.923-1.146-1.923-1.495s.503-.95 1.923-1.495M3.5 13.968c1.442-.554 3.416-.872 5.414-.872s3.971.318 5.414.872c1.42.545 1.923 1.146 1.923 1.495s-.504.95-1.923 1.495c-1.443.554-3.416.872-5.414.872s-3.972-.318-5.414-.872c-1.42-.545-1.923-1.146-1.923-1.495s.503-.95 1.923-1.495m10.828 21.924c-1.443.554-3.416.872-5.414.872s-3.972-.318-5.414-.872c-1.42-.545-1.923-1.146-1.923-1.495v-2.452c1.38.856 3.28 1.256 4.057 1.391a.79.79 0 0 0 .27-1.555c-2.835-.492-4.234-1.5-4.322-2.054v-.006l-.004-.029v-.007l-.001-.021V27.24c1.715 1.071 4.58 1.634 7.337 1.634s5.622-.563 7.337-1.634v2.444l-.001.008v.002l-.003.021v.005c-.089.56-1.488 1.568-4.324 2.06a.789.789 0 0 0 .27 1.555c.777-.135 2.678-.535 4.058-1.392v2.453c0 .35-.504.95-1.923 1.495m5.424 0c-1.42-.545-1.923-1.146-1.923-1.495v-2.484c1.469.911 3.779 1.48 6.128 1.644a8.7 8.7 0 0 0 2.69 3.154c-.493.034-.996.053-1.481.053-1.998 0-3.972-.318-5.414-.872m11.962.872c-3.91 0-7.1-3.162-7.1-7.1 0-3.921 3.176-7.1 7.1-7.1 3.978 0 7.1 3.25 7.1 7.1 0 3.915-3.185 7.1-7.1 7.1"/><path fill="currentColor" d="M31.715 28.875a.79.79 0 1 1 .557-1.347.79.79 0 0 0 1.116-1.115 2.4 2.4 0 0 0-.884-.56v-.923a.789.789 0 1 0-1.578 0v.925a2.37 2.37 0 0 0-1.578 2.23 2.37 2.37 0 0 0 2.367 2.368.79.79 0 1 1-.558 1.346.79.79 0 0 0-1.116 1.116c.255.254.556.443.885.559v.923a.789.789 0 1 0 1.578 0v-.924a2.37 2.37 0 0 0 1.578-2.231 2.37 2.37 0 0 0-2.367-2.367"/></svg>