<svg xmlns="http://www.w3.org/2000/svg" width="28" height="28" fill="none"><path fill="#fff" fill-rule="evenodd" d="M7.94 9.55a2.14 2.14 0 0 1 0 4.28 1.65 1.65 0 0 0-1.649 1.647v4.546a.625.625 0 0 1-1.25 0v-4.546a2.9 2.9 0 0 1 1.27-2.397A2.14 2.14 0 0 1 7.94 9.55m0 1.25a.891.891 0 1 0-.001 1.781.891.891 0 0 0 0-1.782" clip-rule="evenodd"/><path fill="#fff" fill-rule="evenodd" d="M14 6.519a2.898 2.898 0 0 1 1.979 5.014 4.41 4.41 0 0 1 2.434 3.944v4.546a.625.625 0 0 1-1.25 0v-4.546a3.164 3.164 0 0 0-6.326 0v4.546a.625.625 0 0 1-1.25 0v-4.546a4.41 4.41 0 0 1 2.434-3.944l-.07-.067A2.898 2.898 0 0 1 14 6.519m0 1.25a1.648 1.648 0 1 0 0 3.296 1.648 1.648 0 0 0 0-3.296" clip-rule="evenodd"/><path fill="#fff" d="M22.11 13.428c.543.543.848 1.28.848 2.05v4.545a.625.625 0 0 1-1.25 0v-4.546c0-.437-.174-.856-.482-1.164-.17-.17-.188-.684.004-.828.297-.223.554-.382.88-.057m-1.166-3.039h.695a.694.694 0 1 1 0 1.389h-.695v.694a.694.694 0 0 1-1.389 0v-.694h-.694a.695.695 0 0 1 0-1.389h.694v-.694a.695.695 0 0 1 1.39 0z"/></svg>