<svg width="14" height="14" viewBox="0 0 14 14" fill="none" xmlns="http://www.w3.org/2000/svg">
<path d="M6.654 0C5.36099 0.00245669 4.09659 0.380874 3.01482 1.08916C1.93305 1.79744 1.0806 2.80503 0.561298 3.98918C0.041995 5.17333 -0.121745 6.48295 0.0900215 7.7585C0.301788 9.03406 0.879922 10.2205 1.754 11.1733C2.37829 11.85 3.13597 12.3901 3.9793 12.7595C4.82263 13.1289 5.73332 13.3196 6.654 13.3196C7.57468 13.3196 8.48538 13.1289 9.32871 12.7595C10.172 12.3901 10.9297 11.85 11.554 11.1733C12.4281 10.2205 13.0062 9.03406 13.218 7.7585C13.4298 6.48295 13.266 5.17333 12.7467 3.98918C12.2274 2.80503 11.375 1.79744 10.2932 1.08916C9.21141 0.380874 7.94702 0.00245669 6.654 0ZM6.654 12C5.27298 11.9979 3.94661 11.4602 2.954 10.5C3.25537 9.76636 3.76803 9.13887 4.42684 8.69726C5.08565 8.25565 5.86088 8.01987 6.654 8.01987C7.44713 8.01987 8.22235 8.25565 8.88117 8.69726C9.53998 9.13887 10.0526 9.76636 10.354 10.5C9.36139 11.4602 8.03503 11.9979 6.654 12ZM5.32067 5.33333C5.32067 5.06962 5.39887 4.81184 5.54538 4.59257C5.69189 4.37331 5.90012 4.20241 6.14376 4.10149C6.38739 4.00058 6.65548 3.97417 6.91412 4.02562C7.17277 4.07707 7.41034 4.20405 7.59681 4.39052C7.78328 4.57699 7.91027 4.81457 7.96172 5.07321C8.01316 5.33185 7.98676 5.59994 7.88584 5.84358C7.78493 6.08721 7.61403 6.29545 7.39476 6.44196C7.1755 6.58847 6.91771 6.66667 6.654 6.66667C6.30038 6.66667 5.96124 6.52619 5.71119 6.27614C5.46115 6.02609 5.32067 5.68696 5.32067 5.33333ZM11.2607 9.33333C10.665 8.31451 9.74827 7.52202 8.654 7.08C8.99345 6.69511 9.21462 6.22044 9.29098 5.71296C9.36735 5.20548 9.29565 4.68674 9.0845 4.219C8.87336 3.75125 8.53173 3.35437 8.10061 3.07598C7.66949 2.79758 7.1672 2.6495 6.654 2.6495C6.14081 2.6495 5.63852 2.79758 5.2074 3.07598C4.77628 3.35437 4.43465 3.75125 4.2235 4.219C4.01236 4.68674 3.94066 5.20548 4.01702 5.71296C4.09338 6.22044 4.31456 6.69511 4.654 7.08C3.55974 7.52202 2.64298 8.31451 2.04734 9.33333C1.57263 8.52473 1.32182 7.60431 1.32067 6.66667C1.32067 5.25218 1.88257 3.89562 2.88277 2.89543C3.88296 1.89524 5.23952 1.33333 6.654 1.33333C8.06849 1.33333 9.42505 1.89524 10.4252 2.89543C11.4254 3.89562 11.9873 5.25218 11.9873 6.66667C11.9862 7.60431 11.7354 8.52473 11.2607 9.33333Z" fill="currentColor"/>
</svg>
