<svg width="14" height="10" viewBox="0 0 14 10" fill="none" xmlns="http://www.w3.org/2000/svg">
<path d="M3.40706 6.66703H5.40706C5.58388 6.66703 5.75344 6.5968 5.87847 6.47177C6.00349 6.34675 6.07373 6.17718 6.07373 6.00037C6.07373 5.82355 6.00349 5.65399 5.87847 5.52896C5.75344 5.40394 5.58388 5.3337 5.40706 5.3337H3.40706C3.23025 5.3337 3.06068 5.40394 2.93566 5.52896C2.81064 5.65399 2.7404 5.82355 2.7404 6.00037C2.7404 6.17718 2.81064 6.34675 2.93566 6.47177C3.06068 6.5968 3.23025 6.66703 3.40706 6.66703ZM11.4071 0.000366211H2.07373C1.5433 0.000366211 1.03459 0.21108 0.659517 0.586153C0.284444 0.961226 0.0737305 1.46993 0.0737305 2.00037V8.00037C0.0737305 8.5308 0.284444 9.03951 0.659517 9.41458C1.03459 9.78965 1.5433 10.0004 2.07373 10.0004H11.4071C11.9375 10.0004 12.4462 9.78965 12.8213 9.41458C13.1964 9.03951 13.4071 8.5308 13.4071 8.00037V2.00037C13.4071 1.46993 13.1964 0.961226 12.8213 0.586153C12.4462 0.21108 11.9375 0.000366211 11.4071 0.000366211ZM12.0737 8.00037C12.0737 8.17718 12.0035 8.34675 11.8785 8.47177C11.7534 8.5968 11.5839 8.66703 11.4071 8.66703H2.07373C1.89692 8.66703 1.72735 8.5968 1.60233 8.47177C1.4773 8.34675 1.40706 8.17718 1.40706 8.00037V4.00037H12.0737V8.00037ZM12.0737 2.66703H1.40706V2.00037C1.40706 1.82356 1.4773 1.65399 1.60233 1.52896C1.72735 1.40394 1.89692 1.3337 2.07373 1.3337H11.4071C11.5839 1.3337 11.7534 1.40394 11.8785 1.52896C12.0035 1.65399 12.0737 1.82356 12.0737 2.00037V2.66703Z" fill="#6E99EC"/>
</svg>
