<svg xmlns="http://www.w3.org/2000/svg" width="36" height="34" fill="none"><path fill="currentColor" d="M33.644.551H2.356a2.353 2.353 0 0 0-2.35 2.35v28.197a2.353 2.353 0 0 0 2.35 2.35h31.288a2.353 2.353 0 0 0 2.35-2.35V2.902a2.353 2.353 0 0 0-2.35-2.35M1.425 2.901c0-.512.418-.93.93-.93h31.29c.512 0 .93.418.93.93v2.91H1.425zM34.575 31.1c0 .512-.418.93-.93.93H2.354a.93.93 0 0 1-.93-.93V7.23h33.15z"/><path fill="currentColor" d="M3.614 3.261a.715.715 0 0 0-.568.627.72.72 0 0 0 .435.724c.606.252 1.207-.422.894-.996a.72.72 0 0 0-.761-.355m3.243.106c-.536-.357-1.251.16-1.079.779a.72.72 0 0 0 .65.52.72.72 0 0 0 .696-.454.714.714 0 0 0-.268-.845m3.047.319c-.239-.582-1.091-.567-1.317.014-.234.602.427 1.185.995.883a.715.715 0 0 0 .322-.897m16.558 19.171c1.46 0 2.834-.57 3.866-1.602a5.43 5.43 0 0 0 1.602-3.866c0-1.46-.569-2.834-1.602-3.867a5.43 5.43 0 0 0-3.866-1.6c-1.46 0-2.834.568-3.866 1.6a5.43 5.43 0 0 0-1.602 3.867 5.474 5.474 0 0 0 5.468 5.468m3.256-7.875c.514.693.792 1.529.792 2.407 0 .825-.254 1.64-.728 2.315l-2.61-2.61v-3.69a4.07 4.07 0 0 1 2.546 1.578m-6.118-.455a4 4 0 0 1 2.152-1.123v3.985a.7.7 0 0 0 .208.502l2.818 2.817a4 4 0 0 1-2.316.729 4.053 4.053 0 0 1-4.048-4.048c0-1.081.421-2.098 1.186-2.862m-1.896 12.381h9.516a.71.71 0 0 0 0-1.42h-9.516a.71.71 0 1 0 0 1.42m-17.366 0h13.206a.71.71 0 0 0 0-1.42h-.936V14.996a.71.71 0 0 0-.71-.71h-3.519a.71.71 0 0 0-.71.71v10.492H9.855v-5.956a.71.71 0 0 0-.71-.71h-3.52a.71.71 0 0 0-.71.71v5.956h-.578a.71.71 0 1 0 0 1.42m8.751-11.202h2.1v9.782h-2.1zm-6.753 4.536h2.1v5.246h-2.1z"/></svg>