<svg xmlns="http://www.w3.org/2000/svg" width="20" height="20" fill="none"><path fill="currentColor" fill-rule="evenodd" d="M8.333 2.5a.833.833 0 0 0-.833.833v.834h5v-.834a.833.833 0 0 0-.833-.833zm5.834 1.667v-.834a2.5 2.5 0 0 0-2.5-2.5H8.333a2.5 2.5 0 0 0-2.5 2.5v.834H2.5a.833.833 0 0 0 0 1.666h.833v10.834a2.5 2.5 0 0 0 2.5 2.5h8.334a2.5 2.5 0 0 0 2.5-2.5V5.833h.833a.833.833 0 0 0 0-1.666zM5 5.833v10.834a.833.833 0 0 0 .833.833h8.334a.833.833 0 0 0 .833-.833V5.833zm3.333 2.5c.46 0 .834.373.834.834v5a.833.833 0 0 1-1.667 0v-5c0-.46.373-.834.833-.834m2.5.834a.833.833 0 0 1 1.667 0v5a.833.833 0 0 1-1.667 0z" clip-rule="evenodd"/></svg>