<svg xmlns="http://www.w3.org/2000/svg" width="17" height="17" fill="none"><path fill="currentColor" fill-rule="evenodd" d="M7.335 2.622a.667.667 0 0 0-.667.666v.667h4v-.667a.667.667 0 0 0-.666-.666zm4.667 1.333v-.667a2 2 0 0 0-2-2H7.335a2 2 0 0 0-2 2v.667H2.668a.667.667 0 0 0 0 1.333h.667v8.667a2 2 0 0 0 2 2h6.667a2 2 0 0 0 2-2V5.288h.666a.667.667 0 1 0 0-1.333zM4.668 5.288v8.667a.667.667 0 0 0 .667.666h6.667a.667.667 0 0 0 .666-.666V5.288zm2.667 2c.368 0 .667.299.667.667v4a.667.667 0 0 1-1.334 0v-4c0-.368.299-.667.667-.667m2 .667a.667.667 0 1 1 1.333 0v4a.667.667 0 0 1-1.333 0z" clip-rule="evenodd"/></svg>