<svg xmlns="http://www.w3.org/2000/svg" width="34" height="33" fill="none"><g clip-path="url(#a)"><path fill="#0C4AD5" d="M17 33c9.389 0 17-7.387 17-16.5S26.389 0 17 0 0 7.387 0 16.5 7.611 33 17 33"/><path fill="#fff" d="m18.41 17 4.3-4.29a1.004 1.004 0 1 0-1.42-1.42L17 15.59l-4.29-4.3a1.004 1.004 0 1 0-1.42 1.42l4.3 4.29-4.3 4.29a1 1 0 0 0 .325 1.639 1 1 0 0 0 1.095-.22l4.29-4.3 4.29 4.3a1 1 0 0 0 1.42 0 1 1 0 0 0 .219-1.094 1 1 0 0 0-.22-.325z"/></g><defs><clipPath id="a"><path fill="#fff" d="M0 0h34v33H0z"/></clipPath></defs></svg>