<svg xmlns="http://www.w3.org/2000/svg" width="40" height="41" fill="none"><path fill="currentColor" d="M1.46 22.341h9.036a6.06 6.06 0 0 1 .457-7.069l3.094-5.458c1.732-3.208 4.71-3.5 7.59-3.784a58 58 0 0 0 1.26-.133c2.913-.348 3.481-.66 5.597-1.82q.373-.206.817-.447a2 2 0 0 1 .068-.873c.156-.507.499-.922.962-1.167L32.89.232A1.97 1.97 0 0 1 34.4.088c.509.155.925.498 1.172.965L39.49 8.43c.248.466.3 1.002.145 1.51a1.97 1.97 0 0 1-.965 1.172l-2.547 1.357a1.99 1.99 0 0 1-2.682-.82l-.038-.072c-.804.499-1.275.97-1.704 1.667-1.261 2.046-2.494 2.642-3.686 3.218-.415.2-.807.39-1.216.645l-5.175 3.227-.116.07a6 6 0 0 1-.789 1.937h8.201a.79.79 0 0 1 .79.789v14.777a2.49 2.49 0 0 1-2.486 2.486H3.155a2.49 2.49 0 0 1-2.484-2.486V23.13c0-.436.353-.789.788-.789m10.207-1.122q.336.63.847 1.122h6.184c.419-.402.753-.88.987-1.408a2 2 0 0 1-.191-.039c-.481-.13-.869-.465-1.152-.998-.532-1.002-.319-2.626.418-3.932a4.45 4.45 0 0 0-5.249-.785 4.477 4.477 0 0 0-1.844 6.04m8.07-6.505 2.61-2.711.022-.026a2.3 2.3 0 0 0-.445-.113c-2.07-.346-2.665.236-3.629 1.844.52.259 1.006.596 1.442 1.006m15.097-3.807a.41.41 0 0 0 .548.17l2.547-1.358a.406.406 0 0 0 .168-.548l-3.92-7.378a.4.4 0 0 0-.36-.214.4.4 0 0 0-.187.046l-2.55 1.36a.405.405 0 0 0-.165.547zm-14.046 8.088 5.175-3.227c.48-.3.93-.517 1.363-.727 1.123-.543 2.01-.971 3.03-2.624.636-1.035 1.375-1.674 2.305-2.237l-2.71-5.102-.699.382c-2.148 1.178-2.951 1.62-6.168 2.004a61 61 0 0 1-1.292.136c-2.809.276-5.027.495-6.36 2.97l-.008.015-1.56 2.75a6 6 0 0 1 2.904-.146c1.151-1.956 2.216-3.417 5.417-2.881.96.16 1.555.54 1.769 1.125.13.356.163.924-.418 1.608l-.033.037-2.865 2.974c-.908.942-1.196 2.551-.903 3.103.086.162.152.211.169.215.033.01.229.032.884-.375M3.155 38.815h24.067c.5 0 .907-.407.907-.908v-9.312h-4.267a.789.789 0 1 1 0-1.578h4.267v-3.098H2.25v3.098h14.535a.789.789 0 1 1 0 1.578H2.248v9.312c0 .5.407.908.907.908"/><path fill="currentColor" d="M20.323 28.595h-.004a.787.787 0 0 1-.787-.789.79.79 0 0 1 1.58 0 .79.79 0 0 1-.789.789"/></svg>