<svg width="119" height="36" viewBox="0 0 119 36" fill="none" xmlns="http://www.w3.org/2000/svg">
<path d="M0 17.3254C0 12.5001 3.18385 8.84678 7.55026 8.84678C9.93056 8.84678 11.7802 9.83621 13.0083 11.5715V4.96517C13.0083 3.76264 13.7815 2.95587 14.9489 2.95587C16.1163 2.95587 16.9199 3.76264 16.9199 4.96517V23.5817C16.9199 24.8755 16.177 25.7432 15.1005 25.7432C14.0241 25.7432 13.2205 24.8451 13.1296 23.5817L13.0992 22.9576C11.9015 24.7538 9.99121 25.8041 7.55026 25.8041C3.18385 25.8041 0 22.1508 0 17.3254ZM8.41445 22.3944C11.007 22.3944 12.978 20.2328 12.978 17.3406C12.978 14.4333 11.007 12.287 8.41445 12.287C5.79157 12.287 3.91158 14.4485 3.91158 17.3406C3.91158 20.2328 5.79157 22.3944 8.41445 22.3944Z" fill="#0C4AD5"/>
<path d="M19.8611 17.3255C19.8611 12.2718 23.3785 8.70984 28.2452 8.70984C33.1423 8.70984 36.6597 12.2718 36.6597 17.3255C36.6597 22.3792 33.1423 25.9564 28.2452 25.9564C23.3785 25.9564 19.8611 22.3944 19.8611 17.3255ZM28.2452 22.3944C30.8681 22.3944 32.839 20.2633 32.839 17.3407C32.839 14.4029 30.8681 12.287 28.2452 12.287C25.6223 12.287 23.6817 14.4181 23.6817 17.3407C23.6817 20.2633 25.6223 22.3944 28.2452 22.3944Z" fill="#0C4AD5"/>
<path d="M83.4015 8.77069C88.4956 8.77069 91.4217 12.8197 91.4824 17.0971C91.5127 18.117 90.8304 18.7715 89.7237 18.7715H78.8683C79.3686 21.0548 81.1121 22.5466 83.4015 22.5466C84.5992 22.5466 85.6908 22.1052 86.7369 21.3441C87.6314 20.7808 88.6169 20.8722 89.1475 21.618C89.6175 22.3335 89.4508 23.3534 88.6169 24.0383C87.2524 25.2409 85.5089 25.8954 83.3711 25.8954C78.656 25.8954 75.1689 22.1813 75.1689 17.3254C75.1689 12.4544 78.656 8.77069 83.4015 8.77069ZM87.8437 16.0772C87.4798 14.0071 85.994 12.2109 83.4015 12.2109C81.0818 12.2109 79.3231 13.7331 78.8379 16.0772H87.8437Z" fill="#0C4AD5"/>
<path d="M93.2563 22.8206L97.5166 17.2189L93.7567 12.2261C93.0138 11.2062 93.1047 10.0341 93.9689 9.34916C94.8634 8.66417 95.9702 8.92294 96.6828 9.97326L100.079 14.7377L103.505 9.97326C104.218 8.92294 105.325 8.64895 106.219 9.34916C107.114 10.0037 107.205 11.2062 106.431 12.2261L102.611 17.2189L106.856 22.8206C107.599 23.8101 107.538 24.9517 106.765 25.5758C105.87 26.2912 104.673 26.0629 103.93 25.0126L100.079 19.9589L96.1976 25.0126C95.4547 26.0325 94.257 26.3065 93.3322 25.5758C92.5741 24.9365 92.5134 23.8101 93.2563 22.8206Z" fill="#0C4AD5"/>
<path d="M110.934 10.8866H111.601V8.92293C111.601 7.84217 112.299 7.11151 113.345 7.11151C114.391 7.11151 115.119 7.84217 115.119 8.92293V10.8866H117.105C117.969 10.8866 118.56 11.4498 118.56 12.2718C118.56 13.0938 117.969 13.657 117.105 13.657H115.119V20.7047C115.119 22.0899 115.543 22.6532 116.514 22.6532C116.832 22.6532 117.181 22.5162 117.56 22.5162C118.424 22.5162 118.985 23.0642 118.985 24.0231C118.985 24.9669 118.227 25.865 115.756 25.865C112.829 25.865 111.586 24.1601 111.586 21.2375V13.6417H110.919C110.025 13.6417 109.433 13.0785 109.433 12.2565C109.433 11.4346 110.04 10.8866 110.934 10.8866Z" fill="#0C4AD5"/>
<path d="M37.2055 35.6984C36.8113 35.6984 36.4171 35.5918 36.0532 35.3787C35.0374 34.7851 34.7039 33.4608 35.189 32.38C37.5087 27.0371 44.1341 9.89713 44.1341 9.89713C45.0893 7.76605 46.2719 5.1022 48.4399 3.26034L48.6218 3.12334C50.1986 2.04258 52.0028 1.66203 53.7008 2.07302C55.5656 2.51446 57.3547 3.76266 58.2643 5.83285C59.2953 8.1466 62.6308 19.1217 63.1462 20.6286C63.3282 21.1462 64.0559 21.1766 64.2682 20.6591C65.5872 17.5081 68.7559 9.42524 70.3023 5.61975C70.8481 4.26499 71.4091 2.91023 71.9397 1.55548C72.3642 0.505159 73.471 -0.195053 74.5778 0.048499C75.9877 0.368161 76.7306 1.84469 76.2152 3.12334C73.9713 8.75548 68.1949 22.5466 68.1949 22.5466C66.7394 26.0172 64.3591 26.2455 63.3888 26.2151C61.524 26.1085 59.9169 24.6625 59.2346 22.6684C58.2643 19.8066 56.2176 12.835 55.1108 9.57746C54.8076 8.67937 54.095 6.82228 52.4728 6.86795C50.0925 6.92884 49.7589 8.51192 46.196 17.1885C45.6502 18.528 39.8587 33.0345 39.2826 34.3589C38.9035 35.1808 38.0697 35.6984 37.2055 35.6984Z" fill="url(#paint0_linear_7544_1131)"/>
<path d="M44.8467 34.8459V31.9233C44.8467 31.7711 44.9528 31.6646 45.0893 31.6646C45.2409 31.6646 45.3622 31.7711 45.3622 31.9081L45.3773 32.5931C45.5441 32.1212 45.9686 31.6646 46.4992 31.6646C46.6812 31.6646 46.8025 31.7711 46.8025 31.9233C46.8025 32.0908 46.6812 32.1973 46.4689 32.2125C45.8625 32.2582 45.4076 32.7605 45.4076 33.5673V34.8612C45.4076 35.0286 45.2864 35.1504 45.1347 35.1504C44.9528 35.1352 44.8467 35.0134 44.8467 34.8459Z" fill="#799BE8"/>
<path d="M49.8043 34.8764L49.7892 34.7698C49.5466 35.0134 49.1676 35.1656 48.7127 35.1656C47.8637 35.1656 47.2876 34.6785 47.2876 33.9935C47.2876 33.2933 47.8789 32.791 48.7127 32.791C49.1524 32.791 49.5163 32.928 49.7589 33.1715V33.1411C49.7589 32.4257 49.3798 32.0756 48.7127 32.0756C48.3337 32.0756 48.0002 32.1973 47.7728 32.3191C47.6515 32.38 47.5302 32.3648 47.4544 32.2582C47.3937 32.1517 47.4544 32.0299 47.5757 31.9538C47.894 31.7559 48.3034 31.6189 48.8037 31.6189C49.7437 31.6189 50.3198 32.0908 50.3198 33.1411V34.846C50.3198 35.0286 50.2137 35.1504 50.0621 35.1504C49.9408 35.1352 49.8195 35.0438 49.8043 34.8764ZM48.834 34.7546C49.4102 34.7546 49.8043 34.435 49.8043 33.9631C49.8043 33.4912 49.4102 33.1563 48.834 33.1563C48.2579 33.1563 47.8486 33.4912 47.8486 33.9631C47.8486 34.435 48.2427 34.7546 48.834 34.7546Z" fill="#799BE8"/>
<path d="M51.7147 30.3859C51.927 30.3859 52.0786 30.5534 52.0786 30.7513C52.0786 30.9644 51.927 31.1166 51.7147 31.1166C51.5024 31.1166 51.3508 30.9644 51.3508 30.7513C51.3508 30.5534 51.5024 30.3859 51.7147 30.3859ZM51.4266 34.846V31.9386C51.4266 31.7711 51.5328 31.6494 51.7147 31.6494C51.8966 31.6494 51.9876 31.7711 51.9876 31.9386V34.846C51.9876 35.0134 51.8815 35.1352 51.7147 35.1352C51.5479 35.1352 51.4266 35.0134 51.4266 34.846Z" fill="#799BE8"/>
<path d="M55.4442 32.5018C55.3381 32.5931 55.2017 32.5779 55.0955 32.4561C54.8833 32.1973 54.6407 32.0451 54.2313 32.0451C53.8523 32.0451 53.5188 32.1973 53.5188 32.5474C53.5188 32.9128 53.9433 33.0345 54.4739 33.1563C55.1562 33.3237 55.6717 33.5369 55.6717 34.2066C55.6717 34.8916 55.0046 35.1808 54.3375 35.1808C53.7159 35.1808 53.2459 34.9525 53.0033 34.5567C52.8972 34.4045 52.9275 34.2523 53.0336 34.161C53.1397 34.0848 53.2914 34.1001 53.3823 34.2371C53.6401 34.5872 53.9433 34.7242 54.3223 34.7242C54.7317 34.7242 55.1259 34.5719 55.1259 34.2066C55.1259 33.8565 54.8075 33.7195 54.292 33.5825C53.7614 33.4455 52.9881 33.2476 52.973 32.5626C52.973 31.8929 53.5946 31.5884 54.2313 31.5884C54.8378 31.5884 55.2017 31.8015 55.4442 32.1517C55.5352 32.2886 55.5352 32.4104 55.4442 32.5018Z" fill="#799BE8"/>
<path d="M58.0672 31.6189C59.1285 31.6189 59.7349 32.4713 59.7349 33.3694C59.7349 33.5369 59.6288 33.6434 59.462 33.6434H56.9149C57.0059 34.2675 57.4607 34.6937 58.0823 34.6937C58.4159 34.6937 58.6888 34.572 58.9162 34.3436C59.0375 34.2371 59.2043 34.2219 59.2952 34.3284C59.3862 34.435 59.371 34.5872 59.2649 34.709C58.9768 35.0286 58.5675 35.1961 58.0823 35.1961C57.0969 35.1961 56.3691 34.435 56.3691 33.4151C56.354 32.38 57.0817 31.6189 58.0672 31.6189ZM59.2043 33.1868C59.1436 32.6235 58.7494 32.106 58.052 32.106C57.4304 32.106 56.9604 32.5474 56.8846 33.1868H59.2043Z" fill="#799BE8"/>
<path d="M64.8898 32.5018C64.7837 32.5931 64.6472 32.5779 64.5411 32.4561C64.3288 32.1973 64.0863 32.0451 63.6769 32.0451C63.2979 32.0451 62.9643 32.1973 62.9643 32.5474C62.9643 32.9128 63.3888 33.0345 63.9195 33.1563C64.6017 33.3237 65.1172 33.5369 65.1172 34.2066C65.1172 34.8916 64.4501 35.1808 63.783 35.1808C63.1614 35.1808 62.6914 34.9525 62.4489 34.5567C62.3427 34.4045 62.373 34.2523 62.4792 34.161C62.5853 34.0848 62.7369 34.1001 62.8279 34.2371C63.0856 34.5872 63.3888 34.7242 63.7679 34.7242C64.1772 34.7242 64.5714 34.5719 64.5714 34.2066C64.5714 33.8565 64.253 33.7195 63.7376 33.5825C63.2069 33.4455 62.4337 33.2476 62.4185 32.5626C62.4185 31.8929 63.0401 31.5884 63.6769 31.5884C64.2834 31.5884 64.6472 31.8015 64.8898 32.1517C64.9808 32.2886 64.9808 32.4104 64.8898 32.5018Z" fill="#799BE8"/>
<path d="M66.0571 34.846V31.9386C66.0571 31.7711 66.1633 31.6493 66.33 31.6493C66.4968 31.6493 66.6029 31.7711 66.6029 31.9386V32.243C66.8152 31.8472 67.1487 31.6189 67.6339 31.6189C68.1645 31.6189 68.5436 31.9081 68.6952 32.3496C68.8923 31.8929 69.3016 31.6189 69.8474 31.6189C70.5752 31.6189 71.0603 32.1212 71.0603 32.9432V34.846C71.0603 35.0134 70.9542 35.1352 70.7723 35.1352C70.6055 35.1352 70.4994 35.0134 70.4994 34.846V33.0193C70.4994 32.4561 70.1506 32.0908 69.6655 32.0908C69.1803 32.0908 68.8316 32.4713 68.8316 33.0193V34.8612C68.8316 35.0286 68.7103 35.1504 68.5587 35.1504C68.4071 35.1504 68.2858 35.0286 68.2858 34.8612V33.0193C68.2858 32.4561 67.9371 32.0908 67.4671 32.0908C66.9668 32.0908 66.6181 32.4713 66.6181 33.0193V34.8612C66.6181 35.0286 66.512 35.1504 66.3452 35.1504C66.1784 35.1352 66.0571 35.0134 66.0571 34.846Z" fill="#799BE8"/>
<path d="M74.4716 34.8764L74.4564 34.7698C74.2139 35.0134 73.8348 35.1656 73.38 35.1656C72.531 35.1656 71.9548 34.6785 71.9548 33.9935C71.9548 33.2933 72.5461 32.791 73.38 32.791C73.8197 32.791 74.1835 32.928 74.4261 33.1715V33.1411C74.4261 32.4257 74.0471 32.0756 73.38 32.0756C73.001 32.0756 72.6674 32.1973 72.44 32.3191C72.3187 32.38 72.1974 32.3648 72.1216 32.2582C72.061 32.1517 72.1216 32.0299 72.2429 31.9538C72.5613 31.7559 72.9706 31.6189 73.471 31.6189C74.4109 31.6189 74.9871 32.0908 74.9871 33.1411V34.846C74.9871 35.0286 74.8809 35.1504 74.7293 35.1504C74.608 35.1352 74.4867 35.0438 74.4716 34.8764ZM73.4861 34.7546C74.0622 34.7546 74.4564 34.435 74.4564 33.9631C74.4564 33.4912 74.0622 33.1563 73.4861 33.1563C72.91 33.1563 72.5006 33.4912 72.5006 33.9631C72.5006 34.435 72.91 34.7546 73.4861 34.7546Z" fill="#799BE8"/>
<path d="M76.0938 34.8459V31.9233C76.0938 31.7711 76.1999 31.6646 76.3363 31.6646C76.4879 31.6646 76.6092 31.7711 76.6092 31.9081L76.6244 32.5931C76.7912 32.1212 77.2157 31.6646 77.7463 31.6646C77.9283 31.6646 78.0495 31.7711 78.0495 31.9233C78.0495 32.0908 77.9283 32.1973 77.716 32.2125C77.1095 32.2582 76.6547 32.7605 76.6547 33.5673V34.8612C76.6547 35.0286 76.5334 35.1504 76.3818 35.1504C76.215 35.1352 76.0938 35.0134 76.0938 34.8459Z" fill="#799BE8"/>
<path d="M78.8078 31.6798H79.111V31.0861C79.111 30.9187 79.2171 30.8121 79.3839 30.8121C79.5507 30.8121 79.6568 30.9339 79.6568 31.0861V31.6798H80.3087C80.4452 31.6798 80.5361 31.7711 80.5361 31.8929C80.5361 32.0147 80.4452 32.106 80.3087 32.106H79.6568V34.0088C79.6568 34.435 79.7932 34.6176 80.0813 34.6176C80.2178 34.6176 80.3087 34.572 80.3997 34.572C80.5361 34.572 80.6271 34.6481 80.6271 34.8155C80.6271 34.9982 80.3997 35.1352 80.0055 35.1352C79.3687 35.1352 79.0958 34.7546 79.0958 34.0696V32.106H78.7926C78.6562 32.106 78.5652 32.0147 78.5652 31.8929C78.5803 31.7559 78.6865 31.6798 78.8078 31.6798Z" fill="#799BE8"/>
<path d="M81.9006 34.1762C82.0674 34.2219 82.1583 34.3741 82.0825 34.572L81.6883 35.7897C81.6429 35.942 81.5367 36.0029 81.4154 35.9876C81.2942 35.9572 81.2335 35.8354 81.2638 35.6984L81.5216 34.4502C81.5822 34.2523 81.7338 34.1305 81.9006 34.1762Z" fill="#799BE8"/>
<path d="M85.145 34.8459V31.9233C85.145 31.7711 85.2511 31.6646 85.3876 31.6646C85.5392 31.6646 85.6605 31.7711 85.6605 31.9081L85.6757 32.5931C85.8424 32.1212 86.2669 31.6646 86.7976 31.6646C86.9795 31.6646 87.1008 31.7711 87.1008 31.9233C87.1008 32.0908 86.9795 32.1973 86.7673 32.2125C86.1608 32.2582 85.706 32.7605 85.706 33.5673V34.8612C85.706 35.0286 85.5847 35.1504 85.4331 35.1504C85.2663 35.1352 85.145 35.0134 85.145 34.8459Z" fill="#799BE8"/>
<path d="M90.1178 34.8764L90.1027 34.7698C89.8601 35.0134 89.4811 35.1656 89.0262 35.1656C88.1772 35.1656 87.6011 34.6785 87.6011 33.9935C87.6011 33.2933 88.1924 32.791 89.0262 32.791C89.4659 32.791 89.8298 32.928 90.0723 33.1715V33.1411C90.0723 32.4257 89.6933 32.0756 89.0262 32.0756C88.6472 32.0756 88.3136 32.1973 88.0862 32.3191C87.9649 32.38 87.8437 32.3648 87.7678 32.2582C87.7072 32.1517 87.7679 32.0299 87.8891 31.9538C88.2075 31.7559 88.6169 31.6189 89.1172 31.6189C90.0572 31.6189 90.6333 32.0908 90.6333 33.1411V34.846C90.6333 35.0286 90.5272 35.1504 90.3756 35.1504C90.2543 35.1352 90.133 35.0438 90.1178 34.8764ZM89.1324 34.7546C89.7085 34.7546 90.1027 34.435 90.1027 33.9631C90.1027 33.4912 89.7085 33.1563 89.1324 33.1563C88.5562 33.1563 88.1469 33.4912 88.1469 33.9631C88.1469 34.435 88.5562 34.7546 89.1324 34.7546Z" fill="#799BE8"/>
<path d="M92.013 30.3859C92.2253 30.3859 92.3769 30.5534 92.3769 30.7513C92.3769 30.9644 92.2253 31.1166 92.013 31.1166C91.8008 31.1166 91.6492 30.9644 91.6492 30.7513C91.6492 30.5534 91.8159 30.3859 92.013 30.3859ZM91.7401 34.846V31.9386C91.7401 31.7711 91.8463 31.6494 92.0282 31.6494C92.2101 31.6494 92.3011 31.7711 92.3011 31.9386V34.846C92.3011 35.0134 92.195 35.1352 92.0282 35.1352C91.8614 35.1352 91.7401 35.0134 91.7401 34.846Z" fill="#799BE8"/>
<path d="M95.758 32.5018C95.6518 32.5931 95.5154 32.5779 95.4093 32.4561C95.197 32.1973 94.9544 32.0451 94.5451 32.0451C94.166 32.0451 93.8325 32.1973 93.8325 32.5474C93.8325 32.9128 94.257 33.0345 94.7876 33.1563C95.4699 33.3237 95.9854 33.5369 95.9854 34.2066C95.9854 34.8916 95.3183 35.1808 94.6512 35.1808C94.0296 35.1808 93.5596 34.9525 93.317 34.5567C93.2109 34.4045 93.2412 34.2523 93.3473 34.161C93.4535 34.0848 93.6051 34.1001 93.696 34.2371C93.9538 34.5872 94.257 34.7242 94.636 34.7242C95.0454 34.7242 95.4396 34.5719 95.4396 34.2066C95.4396 33.8565 95.1212 33.7195 94.6057 33.5825C94.0751 33.4455 93.3019 33.2476 93.2867 32.5626C93.2867 31.8929 93.9083 31.5884 94.5451 31.5884C95.1515 31.5884 95.5154 31.8015 95.758 32.1517C95.8489 32.2886 95.8489 32.4104 95.758 32.5018Z" fill="#799BE8"/>
<path d="M98.3655 31.6189C99.4268 31.6189 100.033 32.4713 100.033 33.3694C100.033 33.5369 99.9271 33.6434 99.7604 33.6434H97.2133C97.3043 34.2675 97.7591 34.6937 98.3807 34.6937C98.7142 34.6937 98.9871 34.572 99.2146 34.3436C99.3359 34.2371 99.5026 34.2219 99.5936 34.3284C99.6846 34.435 99.6694 34.5872 99.5633 34.709C99.2752 35.0286 98.8659 35.1961 98.3807 35.1961C97.3952 35.1961 96.6675 34.435 96.6675 33.4151C96.6675 32.38 97.3801 31.6189 98.3655 31.6189ZM99.5178 33.1868C99.4571 32.6235 99.0629 32.106 98.3655 32.106C97.7439 32.106 97.2739 32.5474 97.1981 33.1868H99.5178Z" fill="#799BE8"/>
<path d="M102.914 34.846V31.9386C102.914 31.7711 103.02 31.6493 103.187 31.6493C103.353 31.6493 103.46 31.7711 103.46 31.9386V32.243C103.672 31.8472 104.005 31.6189 104.491 31.6189C105.021 31.6189 105.4 31.9081 105.552 32.3496C105.749 31.8929 106.158 31.6189 106.704 31.6189C107.432 31.6189 107.917 32.1212 107.917 32.9432V34.846C107.917 35.0134 107.811 35.1352 107.629 35.1352C107.462 35.1352 107.356 35.0134 107.356 34.846V33.0193C107.356 32.4561 107.007 32.0908 106.522 32.0908C106.037 32.0908 105.688 32.4713 105.688 33.0193V34.8612C105.688 35.0286 105.567 35.1504 105.415 35.1504C105.264 35.1504 105.143 35.0286 105.143 34.8612V33.0193C105.143 32.4561 104.794 32.0908 104.324 32.0908C103.823 32.0908 103.475 32.4713 103.475 33.0193V34.8612C103.475 35.0286 103.369 35.1504 103.202 35.1504C103.02 35.1352 102.914 35.0134 102.914 34.846Z" fill="#799BE8"/>
<path d="M108.796 33.3999C108.796 32.3496 109.524 31.6037 110.525 31.6037C111.541 31.6037 112.253 32.3496 112.253 33.3999C112.253 34.4502 111.525 35.1961 110.525 35.1961C109.509 35.1809 108.796 34.435 108.796 33.3999ZM110.51 34.6938C111.207 34.6938 111.707 34.1458 111.707 33.3999C111.707 32.654 111.207 32.106 110.51 32.106C109.827 32.106 109.327 32.654 109.327 33.3999C109.327 34.1458 109.827 34.6938 110.51 34.6938Z" fill="#799BE8"/>
<path d="M113.193 34.8459V31.9233C113.193 31.7711 113.299 31.6646 113.436 31.6646C113.587 31.6646 113.709 31.7711 113.709 31.9081L113.724 32.5931C113.891 32.1212 114.315 31.6646 114.846 31.6646C115.028 31.6646 115.149 31.7711 115.149 31.9233C115.149 32.0908 115.028 32.1973 114.815 32.2125C114.209 32.2582 113.754 32.7605 113.754 33.5673V34.8612C113.754 35.0286 113.633 35.1504 113.481 35.1504C113.314 35.1352 113.193 35.0134 113.193 34.8459Z" fill="#799BE8"/>
<path d="M117.211 31.6189C118.272 31.6189 118.879 32.4713 118.879 33.3694C118.879 33.5369 118.773 33.6434 118.606 33.6434H116.059C116.15 34.2675 116.605 34.6937 117.226 34.6937C117.56 34.6937 117.833 34.572 118.06 34.3436C118.181 34.2371 118.348 34.2219 118.439 34.3284C118.53 34.435 118.515 34.5872 118.409 34.709C118.121 35.0286 117.711 35.1961 117.226 35.1961C116.241 35.1961 115.513 34.435 115.513 33.4151C115.498 32.38 116.21 31.6189 117.211 31.6189ZM118.348 33.1868C118.287 32.6235 117.893 32.106 117.196 32.106C116.574 32.106 116.104 32.5474 116.028 33.1868H118.348Z" fill="#799BE8"/>
<defs>
<linearGradient id="paint0_linear_7544_1131" x1="35.9268" y1="16.2214" x2="77.2139" y2="19.7205" gradientUnits="userSpaceOnUse">
<stop offset="0.07" stop-color="#0C4AD5"/>
<stop offset="0.5064" stop-color="#02E4FF"/>
<stop offset="0.5225" stop-color="#02E6F7"/>
<stop offset="0.59" stop-color="#01EEDD"/>
<stop offset="0.664" stop-color="#01F4C8"/>
<stop offset="0.7467" stop-color="#00F8B9"/>
<stop offset="0.8451" stop-color="#00FAB1"/>
<stop offset="1" stop-color="#00FBAE"/>
</linearGradient>
</defs>
</svg>
