<svg width="8" height="12" viewBox="0 0 8 12" fill="none" xmlns="http://www.w3.org/2000/svg">
<path d="M1.17518 5.28995L5.41518 1.04995C5.50815 0.95622 5.61875 0.881826 5.74061 0.831057C5.86247 0.780288 5.99317 0.75415 6.12518 0.75415C6.2572 0.75415 6.3879 0.780288 6.50976 0.831057C6.63162 0.881826 6.74222 0.95622 6.83518 1.04995C7.02144 1.23731 7.12598 1.49076 7.12598 1.75495C7.12598 2.01913 7.02144 2.27259 6.83518 2.45995L3.29518 5.99995L6.83518 9.53995C7.02144 9.72731 7.12598 9.98076 7.12598 10.2449C7.12598 10.5091 7.02144 10.7626 6.83518 10.9499C6.74174 11.0426 6.63093 11.116 6.50909 11.1657C6.38725 11.2155 6.25679 11.2407 6.12518 11.2399C5.99358 11.2407 5.86312 11.2155 5.74128 11.1657C5.61944 11.116 5.50862 11.0426 5.41518 10.9499L1.17518 6.70995C1.08146 6.61699 1.00706 6.50638 0.956293 6.38453C0.905524 6.26267 0.879386 6.13196 0.879386 5.99995C0.879386 5.86794 0.905524 5.73723 0.956293 5.61537C1.00706 5.49351 1.08146 5.38291 1.17518 5.28995Z" fill="currentColor"/>
</svg>
