<svg xmlns="http://www.w3.org/2000/svg" width="20" height="20" fill="none"><g clip-path="url(#a)"><path fill="#6E99EC" fill-rule="evenodd" d="M15.833 2.643a1.52 1.52 0 0 0-1.077.446L3.662 14.183l-.808 2.963 2.963-.808L16.911 5.244a1.522 1.522 0 0 0-1.078-2.601m-1.22-1.424a3.19 3.19 0 0 1 3.476 5.204L6.84 17.673a.83.83 0 0 1-.37.214l-4.583 1.25a.833.833 0 0 1-1.023-1.023l1.25-4.583a.83.83 0 0 1 .214-.37l11.25-11.25a3.2 3.2 0 0 1 1.035-.692" clip-rule="evenodd"/></g><defs><clipPath id="a"><path fill="#fff" d="M0 0h20v20H0z"/></clipPath></defs></svg>