<svg xmlns="http://www.w3.org/2000/svg" width="33" height="33" fill="none"><path fill="currentColor" fill-rule="evenodd" d="M15 4.155A2.222 2.222 0 0 0 15 8.6h2.222a2.222 2.222 0 0 0 0-4.445zM11.543 2.92A4.9 4.9 0 0 1 15 1.49h2.222a4.89 4.89 0 0 1 4.704 3.555H23a4.89 4.89 0 0 1 4.889 4.889v16A4.89 4.89 0 0 1 23 30.822H9.222a4.89 4.89 0 0 1-4.889-4.889v-16a4.89 4.89 0 0 1 4.89-4.889h1.073a4.9 4.9 0 0 1 1.247-2.124m-1.246 4.79H9.222A2.22 2.22 0 0 0 7 9.934v16a2.22 2.22 0 0 0 2.222 2.222H23a2.22 2.22 0 0 0 2.222-2.222v-16A2.22 2.22 0 0 0 23 7.711h-1.074a4.89 4.89 0 0 1-4.704 3.555H15a4.89 4.89 0 0 1-4.703-3.555m-.186 9.778c0-.736.597-1.333 1.333-1.333h9.334a1.333 1.333 0 1 1 0 2.667h-9.333a1.333 1.333 0 0 1-1.334-1.334m0 4.445c0-.736.597-1.333 1.333-1.333h9.334a1.333 1.333 0 0 1 0 2.666h-9.333a1.333 1.333 0 0 1-1.334-1.333" clip-rule="evenodd"/></svg>