<svg width="11" height="11" viewBox="0 0 11 11" fill="none" xmlns="http://www.w3.org/2000/svg">
<path d="M6.67495 5.55987L10.2583 1.98487C10.4152 1.82795 10.5034 1.61512 10.5034 1.3932C10.5034 1.17128 10.4152 0.958454 10.2583 0.801534C10.1014 0.644614 9.88853 0.556458 9.66662 0.556458C9.4447 0.556458 9.23187 0.644614 9.07495 0.801534L5.49995 4.38487L1.92495 0.801534C1.76803 0.644614 1.5552 0.556458 1.33328 0.556458C1.11136 0.556458 0.898536 0.644614 0.741616 0.801534C0.584696 0.958454 0.496539 1.17128 0.496539 1.3932C0.496539 1.61512 0.584696 1.82795 0.741616 1.98487L4.32495 5.55987L0.741616 9.13487C0.663509 9.21234 0.601514 9.3045 0.559206 9.40605C0.516899 9.5076 0.495117 9.61652 0.495117 9.72653C0.495117 9.83654 0.516899 9.94547 0.559206 10.047C0.601514 10.1486 0.663509 10.2407 0.741616 10.3182C0.819085 10.3963 0.911252 10.4583 1.0128 10.5006C1.11435 10.5429 1.22327 10.5647 1.33328 10.5647C1.44329 10.5647 1.55221 10.5429 1.65376 10.5006C1.75531 10.4583 1.84748 10.3963 1.92495 10.3182L5.49995 6.73487L9.07495 10.3182C9.15242 10.3963 9.24459 10.4583 9.34614 10.5006C9.44769 10.5429 9.55661 10.5647 9.66662 10.5647C9.77663 10.5647 9.88555 10.5429 9.9871 10.5006C10.0886 10.4583 10.1808 10.3963 10.2583 10.3182C10.3364 10.2407 10.3984 10.1486 10.4407 10.047C10.483 9.94547 10.5048 9.83654 10.5048 9.72653C10.5048 9.61652 10.483 9.5076 10.4407 9.40605C10.3984 9.3045 10.3364 9.21234 10.2583 9.13487L6.67495 5.55987Z" fill="currentColor"/>
</svg>
