<svg width="38" height="26" viewBox="0 0 38 26" fill="none" xmlns="http://www.w3.org/2000/svg">
<path d="M19 0C26.6555 0 32.9377 4.28597 37.8574 12.4854C38.0474 12.802 38.0474 13.198 37.8574 13.5146C32.9377 21.714 26.6555 26 19 26C11.3445 26 5.06224 21.714 0.142568 13.5146C-0.0474413 13.198 -0.0474413 12.802 0.142568 12.4854C5.06224 4.28597 11.3445 0 19 0ZM19 2C12.4058 2 6.79409 5.55103 2.17284 13C6.79409 20.449 12.4058 24 19 24C25.5941 24 31.205 20.4487 35.8262 13C31.205 5.55133 25.5941 2 19 2ZM22 13C22 12.2044 21.6837 11.4415 21.1211 10.8789C20.5585 10.3163 19.7956 10 19 10C18.2043 10 17.4415 10.3163 16.8789 10.8789C16.3163 11.4415 16 12.2044 16 13C16 13.7956 16.3163 14.5585 16.8789 15.1211C17.4415 15.6837 18.2043 16 19 16C19.7956 16 20.5585 15.6837 21.1211 15.1211C21.6837 14.5585 22 13.7956 22 13ZM24 13C24 14.3261 23.4728 15.5975 22.5351 16.5352C21.5975 17.4728 20.3261 18 19 18C17.6739 18 16.4025 17.4728 15.4648 16.5352C14.5272 15.5975 14 14.3261 14 13C14 11.6739 14.5272 10.4025 15.4648 9.46484C16.4025 8.52716 17.6739 8 19 8C20.3261 8 21.5975 8.52716 22.5351 9.46484C23.4728 10.4025 24 11.6739 24 13Z" fill="currentColor"/>
</svg>
