<svg width="38" height="38" viewBox="0 0 38 38" fill="none" xmlns="http://www.w3.org/2000/svg">
<path d="M0.29302 0.29297C0.683544 -0.0975548 1.31656 -0.0975548 1.70708 0.29297L28.9571 27.543C29.0344 27.6003 29.1043 27.6694 29.1641 27.75L37.7071 36.293C38.0976 36.6835 38.0976 37.3165 37.7071 37.707C37.3166 38.0976 36.6835 38.0976 36.293 37.707L28.1924 29.6064C25.3933 31.1905 22.2256 32.0191 19.0001 31.999V32L18.9971 31.999C18.9959 31.999 18.9944 32 18.9932 32V31.999C11.3408 31.9965 5.06084 27.7116 0.142629 19.5146C-0.0473803 19.198 -0.0473803 18.802 0.142629 18.4854C2.4753 14.5976 5.11548 11.585 8.0772 9.49121L0.29302 1.70703C-0.0975045 1.31651 -0.0975045 0.683494 0.29302 0.29297ZM9.51372 10.9277C6.8496 12.7393 4.39752 15.4145 2.1729 19C6.79415 26.449 12.4058 30 19.0001 30H19.0069C21.6981 30.0177 24.3445 29.3722 26.7188 28.1328L21.7569 23.1709C20.945 23.708 19.9881 24.0018 19.0001 24.002C17.6739 24.0022 16.4018 23.4756 15.4639 22.5381C14.5262 21.6006 13.9993 20.329 13.9991 19.0029C13.9989 18.0142 14.2916 17.0556 14.8292 16.2432L9.51372 10.9277ZM19.0001 6C26.6556 6 32.9378 10.286 37.8575 18.4854C38.0475 18.802 38.0475 19.198 37.8575 19.5146C36.4945 21.7863 35.0263 23.7603 33.4512 25.4268C33.0719 25.8281 32.4385 25.8461 32.0372 25.4668C31.6358 25.0874 31.6177 24.4541 31.9971 24.0527C33.341 22.6309 34.6172 20.9466 35.8262 18.998C31.2052 11.5503 25.5937 8 19.0001 8H18.9971C17.8424 7.99705 16.6904 8.11075 15.5586 8.33984C15.0174 8.44941 14.4896 8.0998 14.3799 7.55859C14.2704 7.01744 14.6201 6.48966 15.1612 6.37988C16.4246 6.12412 17.711 5.99685 19.0001 6ZM15.9991 19.0029C15.9993 19.7985 16.3153 20.5616 16.878 21.124C17.4407 21.6865 18.2044 22.0021 19.0001 22.002C19.4517 22.0018 19.8911 21.8962 20.2911 21.7051L16.295 17.709C16.1035 18.1095 15.999 18.5505 15.9991 19.0029Z" fill="currentColor"/>
</svg>
