<svg xmlns="http://www.w3.org/2000/svg" fill="currentColor" viewBox="0 0 20 20"><path fill-rule="evenodd" d="M1.784 10a15.6 15.6 0 0 0 2.053 2.763c1.493 1.592 3.58 3.07 6.163 3.07s4.67-1.478 6.163-3.07A15.6 15.6 0 0 0 18.216 10a15.6 15.6 0 0 0-2.053-2.763c-1.493-1.592-3.58-3.07-6.163-3.07s-4.67 1.478-6.163 3.07A15.6 15.6 0 0 0 1.784 10m17.383 0 .745-.373-.002-.003-.003-.006-.009-.018a7 7 0 0 0-.16-.295 17.2 17.2 0 0 0-2.36-3.208C15.747 4.355 13.25 2.5 10 2.5S4.254 4.355 2.621 6.097a17.2 17.2 0 0 0-2.36 3.208 10 10 0 0 0-.16.295l-.009.018-.002.006-.001.002s-.001.001.744.374l-.745-.373a.83.83 0 0 0 0 .746L.833 10l-.745.373.002.003.002.006.01.018.034.065q.043.082.126.23a17.2 17.2 0 0 0 2.36 3.208C4.253 15.645 6.75 17.5 10 17.5s5.746-1.855 7.379-3.597a17.2 17.2 0 0 0 2.36-3.208 11 11 0 0 0 .16-.295l.008-.018.003-.006.001-.002s.001-.001-.744-.374m0 0 .745.373a.84.84 0 0 0 0-.746zM10 8.333a1.667 1.667 0 1 0 0 3.334 1.667 1.667 0 0 0 0-3.334M6.667 10a3.333 3.333 0 1 1 6.666 0 3.333 3.333 0 0 1-6.666 0" clip-rule="evenodd"/></svg>