<svg xmlns="http://www.w3.org/2000/svg" width="20" height="20" fill="none"><path fill="currentColor" d="M17.59 9.185h-.723L12.121 4.12c.988-1.598-.164-3.686-2.059-3.686-1.894 0-3.047 2.087-2.058 3.686L3.257 9.185h-.722a2.04 2.04 0 0 0-2.038 2.038v6.304a2.04 2.04 0 0 0 2.038 2.038H17.59a2.04 2.04 0 0 0 2.038-2.038v-6.304a2.04 2.04 0 0 0-2.038-2.038m-7.528-7.12a.789.789 0 1 1-.001 1.578.789.789 0 0 1 .001-1.578M9.277 5.14a2.4 2.4 0 0 0 1.57 0l3.932 4.045H5.345zm8.72 12.387a.41.41 0 0 1-.407.408H2.535a.41.41 0 0 1-.407-.408v-6.304c0-.225.182-.408.407-.408H17.59c.224 0 .407.183.407.408z"/></svg>