<svg xmlns="http://www.w3.org/2000/svg" width="20" height="20" fill="none"><path fill="currentColor" fill-rule="evenodd" d="M6.667 5a1.667 1.667 0 1 0 0 3.333 1.667 1.667 0 0 0 0-3.333m-3.228.833a3.335 3.335 0 0 1 6.458.007A1 1 0 0 1 10 5.833h8.334a.833.833 0 0 1 0 1.667H10a1 1 0 0 1-.103-.006 3.335 3.335 0 0 1-6.458.006H1.667a.833.833 0 1 1 0-1.667zm9.895 6.667a1.667 1.667 0 1 0 0 3.333 1.667 1.667 0 0 0 0-3.333m-3.229.833a3.335 3.335 0 0 1 6.457 0h1.771a.833.833 0 1 1 0 1.667h-1.771a3.335 3.335 0 0 1-6.457 0H1.667a.833.833 0 1 1 0-1.667z" clip-rule="evenodd"/></svg>