<svg xmlns="http://www.w3.org/2000/svg" width="32" height="33" fill="none"><path fill="currentColor" fill-rule="evenodd" d="M14.667 4.155a2.222 2.222 0 0 0 0 4.445h2.222a2.222 2.222 0 1 0 0-4.445zM11.21 2.921a4.9 4.9 0 0 1 3.457-1.432h2.222a4.89 4.89 0 0 1 4.704 3.555h1.074a4.89 4.89 0 0 1 4.889 4.89v16a4.89 4.89 0 0 1-4.89 4.888H8.89A4.89 4.89 0 0 1 4 25.933v-16a4.89 4.89 0 0 1 4.889-4.889h1.074a4.9 4.9 0 0 1 1.247-2.123M9.963 7.71H8.89a2.22 2.22 0 0 0-2.222 2.222v16a2.22 2.22 0 0 0 2.222 2.222h13.778a2.22 2.22 0 0 0 2.222-2.222v-16a2.22 2.22 0 0 0-2.222-2.222h-1.075a4.89 4.89 0 0 1-4.703 3.556h-2.222A4.89 4.89 0 0 1 9.963 7.71" clip-rule="evenodd"/><path fill="currentColor" d="M15.897 14.155c.68 0 1.231.552 1.231 1.231v4.923a1.23 1.23 0 0 1-2.461 0v-4.923c0-.68.55-1.23 1.23-1.23m-1.23 9.641c0-.68.55-1.231 1.23-1.231h.017a1.23 1.23 0 1 1 0 2.461h-.017a1.23 1.23 0 0 1-1.23-1.23"/></svg>