<svg xmlns="http://www.w3.org/2000/svg" width="33" height="33" fill="none"><path fill="currentColor" fill-rule="evenodd" d="M15.333 4.155a2.222 2.222 0 0 0 0 4.445h2.223a2.222 2.222 0 1 0 0-4.445zM11.876 2.92a4.9 4.9 0 0 1 3.457-1.431h2.223a4.89 4.89 0 0 1 4.703 3.555h1.074a4.89 4.89 0 0 1 4.89 4.889v16a4.89 4.89 0 0 1-4.89 4.889H9.556a4.89 4.89 0 0 1-4.89-4.889v-16a4.89 4.89 0 0 1 4.89-4.889h1.074a4.9 4.9 0 0 1 1.246-2.124M10.63 7.71H9.556a2.22 2.22 0 0 0-2.223 2.223v16a2.22 2.22 0 0 0 2.223 2.222h13.777a2.22 2.22 0 0 0 2.223-2.222v-16a2.22 2.22 0 0 0-2.223-2.222H22.26a4.89 4.89 0 0 1-4.703 3.555h-2.223a4.89 4.89 0 0 1-4.703-3.555" clip-rule="evenodd"/><path fill="currentColor" fill-rule="evenodd" d="M15.471 17.485a.8.8 0 0 1-.364-1.558 5 5 0 0 1 1.117-.127h-.002c1.875 0 3.294 1.07 4.195 2.03a9.5 9.5 0 0 1 1.309 1.78c.164.291.261.603.09.922a9 9 0 0 1-1.053 1.556.8.8 0 0 1-1.224-1.03q.36-.427.65-.903a8 8 0 0 0-.94-1.23c-.968-1.034-2.34-1.776-3.778-1.44M13.535 18.6a7.4 7.4 0 0 0-1.28 1.556l.077.12c.196.305.487.709.863 1.11.766.817 1.791 1.525 3.027 1.525.536 0 .98-.082 1.353-.272l1.164 1.164c-.764.536-1.64.708-2.517.708-1.875 0-3.294-1.07-4.195-2.03a9.6 9.6 0 0 1-1.38-1.912l-.02-.038-.006-.012-.002-.003v-.002a.8.8 0 0 1 .01-.737 9 9 0 0 1 1.774-2.31zm3.522 3.537a2.134 2.134 0 0 1-2.817-2.817z" clip-rule="evenodd"/><path fill="currentColor" fill-rule="evenodd" d="M10.768 14.7a.8.8 0 0 1 1.131 0l9.778 9.778a.8.8 0 0 1-1.132 1.132l-1.806-1.807-1.164-1.164-4.04-4.04-1.132-1.132-1.635-1.635a.8.8 0 0 1 0-1.131" clip-rule="evenodd"/></svg>