<svg width="15" height="12" viewBox="0 0 15 12" fill="none" xmlns="http://www.w3.org/2000/svg">
<path fill-rule="evenodd" clip-rule="evenodd" d="M5.52746 0.67898C5.96221 0.244236 6.55185 0 7.16667 0C7.78149 0 8.37113 0.244236 8.80587 0.67898C9.24061 1.11372 9.48485 1.70336 9.48485 2.31818C9.48485 2.933 9.24061 3.52264 8.80587 3.95738C8.78754 3.97572 8.76893 3.99371 8.75005 4.01136C9.08459 4.17923 9.39334 4.40074 9.66297 4.67037C10.325 5.33243 10.697 6.23037 10.697 7.16667V10.803C10.697 11.0792 10.4731 11.303 10.197 11.303C9.92083 11.303 9.69697 11.0792 9.69697 10.803V7.16667C9.69697 6.49559 9.43039 5.852 8.95586 5.37747C8.48134 4.90295 7.83774 4.63636 7.16667 4.63636C6.49559 4.63636 5.852 4.90295 5.37747 5.37747C4.90295 5.852 4.63636 6.49559 4.63636 7.16667V10.803C4.63636 11.0792 4.41251 11.303 4.13636 11.303C3.86022 11.303 3.63636 11.0792 3.63636 10.803V7.16667C3.63636 6.23037 4.00831 5.33243 4.67037 4.67037C4.93999 4.40074 5.24875 4.17923 5.58328 4.01136C5.56441 3.99371 5.5458 3.97572 5.52746 3.95738C5.09272 3.52264 4.84848 2.933 4.84848 2.31818C4.84848 1.70336 5.09272 1.11372 5.52746 0.67898ZM7.16667 1C6.81706 1 6.48178 1.13888 6.23457 1.38609C5.98736 1.63329 5.84849 1.96858 5.84849 2.31818C5.84849 2.66779 5.98736 3.00307 6.23457 3.25028C6.48178 3.49748 6.81706 3.63636 7.16667 3.63636C7.51627 3.63636 7.85156 3.49748 8.09876 3.25028C8.34597 3.00307 8.48485 2.66779 8.48485 2.31818C8.48485 1.96858 8.34597 1.63329 8.09876 1.38609C7.85156 1.13888 7.51627 1 7.16667 1ZM1.10753 2.92571C1.42861 2.60463 1.8641 2.42424 2.31818 2.42424C2.77226 2.42424 3.20775 2.60463 3.52883 2.92571C3.84992 3.2468 4.0303 3.68228 4.0303 4.13636C4.0303 4.59045 3.84992 5.02593 3.52883 5.34702C3.20775 5.6681 2.77226 5.84848 2.31818 5.84848C1.96858 5.84848 1.63329 5.98736 1.38609 6.23457C1.13888 6.48178 1 6.81706 1 7.16667V10.803C1 11.0792 0.776142 11.303 0.5 11.303C0.223858 11.303 0 11.0792 0 10.803V7.16667C0 6.55185 0.244236 5.96221 0.67898 5.52746C0.783161 5.42328 0.896238 5.33004 1.01643 5.24848C0.752527 4.9396 0.606061 4.54554 0.606061 4.13636C0.606061 3.68228 0.786444 3.2468 1.10753 2.92571ZM2.31818 3.42424C2.12932 3.42424 1.94818 3.49927 1.81464 3.63282C1.68109 3.76637 1.60606 3.9475 1.60606 4.13636C1.60606 4.32523 1.68109 4.50636 1.81464 4.63991C1.94818 4.77346 2.12932 4.84848 2.31818 4.84848C2.50705 4.84848 2.68818 4.77346 2.82173 4.63991C2.95528 4.50636 3.0303 4.32523 3.0303 4.13636C3.0303 3.9475 2.95528 3.76637 2.82173 3.63282C2.68818 3.49927 2.50705 3.42424 2.31818 3.42424ZM10.8045 2.92571C11.1256 2.60463 11.5611 2.42424 12.0152 2.42424C12.4692 2.42424 12.9047 2.60463 13.2258 2.92571C13.5469 3.2468 13.7273 3.68228 13.7273 4.13636C13.7273 4.54554 13.5808 4.93961 13.3169 5.24848C13.4371 5.33004 13.5502 5.42328 13.6544 5.52746C14.0891 5.96221 14.3333 6.55185 14.3333 7.16667V10.803C14.3333 11.0792 14.1095 11.303 13.8333 11.303C13.5572 11.303 13.3333 11.0792 13.3333 10.803V7.16667C13.3333 6.81706 13.1945 6.48178 12.9472 6.23457C12.7 5.98736 12.3648 5.84848 12.0152 5.84848C11.5611 5.84848 11.1256 5.6681 10.8045 5.34702C10.4834 5.02593 10.303 4.59045 10.303 4.13636C10.303 3.68228 10.4834 3.2468 10.8045 2.92571ZM12.0152 4.84848C12.204 4.84848 12.3851 4.77346 12.5187 4.63991C12.6522 4.50636 12.7273 4.32523 12.7273 4.13636C12.7273 3.9475 12.6522 3.76637 12.5187 3.63282C12.3851 3.49927 12.204 3.42424 12.0152 3.42424C11.8263 3.42424 11.6452 3.49927 11.5116 3.63282C11.3781 3.76637 11.303 3.9475 11.303 4.13636C11.303 4.32523 11.3781 4.50636 11.5116 4.63991C11.6452 4.77346 11.8263 4.84848 12.0152 4.84848Z" fill="#0C4AD5"/>
</svg>
