<svg xmlns="http://www.w3.org/2000/svg" width="20" height="20" fill="none"><path fill="currentColor" fill-rule="evenodd" d="M1.667 2.5c0-.46.373-.833.833-.833h5.833c.46 0 .833.373.833.833v5.834c0 .46-.373.833-.833.833H2.5a.833.833 0 0 1-.833-.833zm1.666.834V7.5H7.5V3.334zm7.5-.834c0-.46.373-.833.833-.833H17.5c.46 0 .833.373.833.833v5.834c0 .46-.373.833-.833.833h-5.834a.833.833 0 0 1-.833-.833zm1.667.834V7.5h4.166V3.334zM1.667 11.667c0-.46.373-.833.833-.833h5.833c.46 0 .833.373.833.833V17.5c0 .46-.373.834-.833.834H2.5a.833.833 0 0 1-.833-.834zm1.666.833v4.167H7.5V12.5zm7.5-.833c0-.46.373-.833.833-.833H17.5c.46 0 .833.373.833.833V17.5c0 .46-.373.834-.833.834h-5.834a.833.833 0 0 1-.833-.834zm1.667.833v4.167h4.166V12.5z" clip-rule="evenodd"/></svg>