<svg xmlns="http://www.w3.org/2000/svg" width="33" height="33" fill="none"><path fill="currentColor" d="M23.12 3.915a10.67 10.67 0 0 0-8.907-2.213 10.67 10.67 0 0 0-8.36 8.427 10.76 10.76 0 0 0 2.294 8.866 6.05 6.05 0 0 1 1.52 3.827v4a4 4 0 0 0 4 4H19a4 4 0 0 0 4-4v-3.747a6.9 6.9 0 0 1 1.627-4.253A10.667 10.667 0 0 0 23.12 3.889zm-2.787 22.907A1.334 1.334 0 0 1 19 28.155h-5.333a1.334 1.334 0 0 1-1.334-1.333v-1.334h8zm2.227-9.653a9.5 9.5 0 0 0-2.227 5.653h-8a8.67 8.67 0 0 0-2.133-5.547 8 8 0 0 1 4.52-12.96 8 8 0 0 1 9.613 7.84 7.85 7.85 0 0 1-1.773 5.014"/><path fill="currentColor" d="M12.634 15.327a1.026 1.026 0 0 1 1.75.726v3.077a1.026 1.026 0 0 1-2.05 0v-3.077c0-.272.107-.533.3-.726m3.076-8.205a1.026 1.026 0 0 1 1.752.726V19.13a1.026 1.026 0 0 1-2.052 0V7.848c0-.273.108-.533.3-.726m3.078 4.103a1.026 1.026 0 0 1 1.75.725v7.18a1.025 1.025 0 1 1-2.05 0v-7.18c0-.272.107-.533.3-.725"/></svg>