<svg xmlns="http://www.w3.org/2000/svg" width="36" height="29" fill="none"><path fill="currentColor" d="m3.51 16.26 7.77 1.998c.142-1.066.918-1.957 1.97-1.995 5.71-.208 9.29-4.91 16.06.12a2.12 2.12 0 0 1 1.751-.932h2.824c1.166 0 2.115.95 2.115 2.115v9.178a2.117 2.117 0 0 1-2.115 2.115h-2.824a2.12 2.12 0 0 1-2.101-1.875c-.967-.346-2.965-1.05-6.435-.52-1.21.185-2.33.272-3.395.272-6.066 0-10.29-2.84-18.655-6.65a.7.7 0 0 1-.391-.47c-.508-2.056 1.377-3.907 3.426-3.357m27.551 11.193h2.824a.71.71 0 0 0 .709-.709v-9.178a.71.71 0 0 0-.709-.708h-2.824a.71.71 0 0 0-.709.708v9.178c0 .39.318.709.71.709m-8.749-2.38c3.294-.502 5.461.033 6.634.418v-7.614c-6.494-5.167-9.305-.44-15.646-.209-.547.02-.839 1.043-.488 1.372 1.017.954 2.809.993 3.756.717 2.372-.694 4.379-.592 5.965.303a.703.703 0 1 1-.691 1.225c-1.261-.712-2.857-.77-4.88-.178-1.227.358-3.601.376-5.112-1.042a1.7 1.7 0 0 1-.23-.268l-8.473-2.179a1.38 1.38 0 0 0-1.739 1.349c9.645 4.422 13.372 7.259 20.904 6.106M8.486 10.767c.4.26.713.386 1.061.443v.278a.703.703 0 0 0 1.406 0v-.353c.793-.273 1.299-.982 1.416-1.682.164-.973-.363-1.853-1.312-2.188-.473-.168-.996-.369-1.279-.59-.032-.026-.067-.126-.041-.263.012-.066.07-.287.286-.352.47-.142.706 0 .805.097a.703.703 0 1 0 .987-1 2 2 0 0 0-.862-.49v-.24a.703.703 0 1 0-1.406 0v.31c-1.327.461-1.633 2.262-.636 3.044.441.346 1.067.594 1.678.81.39.138.43.418.394.63a.74.74 0 0 1-.737.625c-.495.004-.623-.017-.99-.256a.703.703 0 0 0-.77 1.177"/><path fill="currentColor" fill-rule="evenodd" d="M10.284 13.565a5.607 5.607 0 1 0 0-11.214 5.607 5.607 0 0 0 0 11.214m0 1.485a7.092 7.092 0 1 0 0-14.184 7.092 7.092 0 0 0 0 14.184" clip-rule="evenodd"/></svg>