<svg width="20" height="20" viewBox="0 0 20 20" fill="none" xmlns="http://www.w3.org/2000/svg">
<path d="M19.605 10.2302C19.605 9.55044 19.5499 8.86699 19.4323 8.19824H10V12.0491H15.4014C15.1773 13.291 14.4571 14.3897 13.4025 15.0878V17.5864H16.625C18.5174 15.8448 19.605 13.2726 19.605 10.2302Z" fill="#4285F4"/>
<path d="M9.99948 20.0003C12.6965 20.0003 14.971 19.1147 16.6282 17.5862L13.4057 15.0875C12.5091 15.6975 11.3517 16.0429 10.0032 16.0429C7.3943 16.0429 5.18229 14.2828 4.38861 11.9165H1.06323V14.4923C2.76083 17.8691 6.21848 20.0003 9.99948 20.0003Z" fill="#34A853"/>
<path d="M4.38545 11.9172C3.96656 10.6753 3.96656 9.33044 4.38545 8.08848V5.5127H1.06375C-0.354584 8.33834 -0.354584 11.6674 1.06375 14.493L4.38545 11.9172Z" fill="#FBBC04"/>
<path d="M9.99948 3.95805C11.4252 3.936 12.8031 4.47247 13.8356 5.45722L16.6906 2.60218C14.8828 0.904587 12.4834 -0.0287217 9.99948 0.000673888C6.21848 0.000673888 2.76083 2.13185 1.06323 5.51234L4.38493 8.08813C5.17494 5.71811 7.39063 3.95805 9.99948 3.95805Z" fill="#EA4335"/>
</svg>
