<svg width="13" height="16" viewBox="0 0 13 16" fill="none" xmlns="http://www.w3.org/2000/svg">
<path d="M12.4117 10.4962C12.0038 10.3218 11.6564 10.031 11.4127 9.66024C11.1691 9.28948 11.0401 8.85517 11.0419 8.41155C11.0472 8.01555 11.1532 7.62743 11.3501 7.28377C11.5469 6.94012 11.828 6.65227 12.1669 6.44735C12.2436 6.39997 12.3098 6.33753 12.3617 6.26381C12.4136 6.19009 12.4499 6.10662 12.4686 6.01844C12.4873 5.93026 12.4879 5.83921 12.4704 5.75079C12.4529 5.66237 12.4176 5.57842 12.3668 5.50402C12.0621 5.061 11.665 4.68936 11.2027 4.41476C10.7405 4.14017 10.2241 3.96916 9.68936 3.91353C10.1871 3.12362 10.413 2.19266 10.3326 1.26248C10.3169 1.09357 10.2364 0.937313 10.108 0.826488C9.97953 0.715663 9.81317 0.658889 9.64379 0.668078C8.49909 0.770104 7.43794 1.31001 6.68155 2.17524C6.20207 2.73083 5.86372 3.3939 5.69522 4.10818C5.3471 3.99037 4.98263 3.92798 4.61514 3.92329C3.9348 3.94257 3.27098 4.13731 2.68805 4.48863C2.10511 4.83995 1.62284 5.33593 1.28799 5.92848C0.0295281 8.11337 0.799388 11.3875 2.16266 13.3582C2.70953 14.1479 3.53017 15.3334 4.76813 15.3334C4.79254 15.3334 4.81728 15.3334 4.84202 15.3321C5.25681 15.3086 5.66288 15.2035 6.03701 15.0228C6.33585 14.8714 6.66554 14.7907 7.00055 14.7872C7.3156 14.791 7.62542 14.8681 7.9055 15.0124C8.31475 15.2061 8.76075 15.3097 9.21344 15.3165C10.4888 15.2924 11.2421 14.1921 11.7922 13.3881C12.2263 12.7494 12.5659 12.0515 12.8007 11.3158C12.8507 11.1553 12.8385 10.9819 12.7664 10.83C12.6943 10.6781 12.5677 10.5589 12.4117 10.4962ZM7.69099 3.04569C8.04113 2.65402 8.47988 2.35178 8.97061 2.16419C8.86324 2.69234 8.6257 3.18533 8.27953 3.59843C8.04456 3.88034 7.75867 4.11556 7.43676 4.29181L7.43481 4.29248C7.41593 4.30029 7.39705 4.30745 7.37814 4.31527C7.2538 4.36409 7.10014 4.42464 6.98166 4.4637C7.09608 3.93925 7.33993 3.45177 7.69099 3.04569ZM10.692 12.6355C10.1562 13.4181 9.73463 13.9734 9.18904 13.9832C8.92531 13.9824 8.66599 13.9154 8.4348 13.7885C7.98789 13.5708 7.4977 13.4564 7.00056 13.4539C6.48615 13.4565 5.97872 13.5732 5.51488 13.7957C5.28937 13.9108 5.04335 13.9803 4.79092 14.0001H4.77107C4.22907 14.0001 3.64607 13.1583 3.25902 12.599C2.29059 11.1993 1.39737 8.41024 2.44359 6.59383C2.66298 6.20077 2.98025 5.8711 3.36462 5.6368C3.74898 5.4025 4.18738 5.27155 4.63727 5.25663L4.65973 5.25597C5.03926 5.28822 5.40986 5.38856 5.75381 5.55219C5.84138 5.58669 5.92764 5.6212 6.01326 5.6531C6.03506 5.66222 6.05752 5.67068 6.08031 5.67784C6.31755 5.77326 6.56955 5.82679 6.8251 5.83605C7.18693 5.80729 7.54038 5.71217 7.86777 5.55545C8.32927 5.33146 8.83659 5.21801 9.34953 5.22407C9.89822 5.24553 10.4249 5.4453 10.8499 5.79308C10.4867 6.12766 10.1976 6.5345 10.001 6.98747C9.80449 7.44045 9.70487 7.92952 9.70859 8.42329V8.42395C9.70482 9.0217 9.85275 9.61064 10.1385 10.1357C10.4243 10.6607 10.8386 11.1046 11.3427 11.4259C11.1672 11.85 10.9492 12.2553 10.692 12.6355Z" fill="#6E99EC"/>
</svg>
