<svg width="36" height="42" viewBox="0 0 36 42" fill="none" xmlns="http://www.w3.org/2000/svg">
<path d="M16 6C16 5.46957 15.7891 4.96101 15.4141 4.58594C15.039 4.21087 14.5304 4 14 4C13.4696 4 12.961 4.21087 12.5859 4.58594C12.2109 4.96101 12 5.46957 12 6V23C12 23.4044 11.7564 23.769 11.3828 23.9238C11.0091 24.0786 10.579 23.993 10.293 23.707L7.35254 20.7676C6.92149 20.3372 6.35947 20.0626 5.75488 19.9883C5.15002 19.914 4.53722 20.0439 4.01465 20.3574C3.56791 20.6253 3.24284 21.0571 3.10938 21.5605C2.97591 22.064 3.04441 22.5998 3.2998 23.0537C7.06707 29.7502 9.23463 33.5281 9.83691 34.4531L10.2275 35.0498L10.4189 35.332C11.4003 36.7261 12.6936 37.8746 14.1973 38.6846C15.801 39.5484 17.5944 40.0003 19.416 40H23C25.9174 40 28.7154 38.8412 30.7783 36.7783C32.7122 34.8445 33.8513 32.2645 33.9863 29.5459L34 29V20C34 19.4696 33.7891 18.961 33.4141 18.5859C33.0858 18.2577 32.6553 18.0551 32.1973 18.0098L32 18C31.4696 18 30.961 18.2109 30.5859 18.5859C30.2109 18.961 30 19.4696 30 20V21C30 21.5523 29.5523 22 29 22C28.4477 22 28 21.5523 28 21V18C28 17.4696 27.7891 16.961 27.4141 16.5859C27.0858 16.2577 26.6553 16.0551 26.1973 16.0098L26 16C25.4696 16 24.961 16.2109 24.5859 16.5859C24.2109 16.961 24 17.4696 24 18V21C24 21.5523 23.5523 22 23 22C22.4477 22 22 21.5523 22 21V16C22 15.4696 21.7891 14.961 21.4141 14.5859C21.039 14.2109 20.5304 14 20 14C19.4696 14 18.961 14.2109 18.5859 14.5859C18.2109 14.961 18 15.4696 18 16V21C18 21.5523 17.5523 22 17 22C16.4477 22 16 21.5523 16 21V6ZM3 10C3.55228 10 4 10.4477 4 11C4 11.5523 3.55228 12 3 12H1C0.447715 12 0 11.5523 0 11C0 10.4477 0.447715 10 1 10H3ZM27 8C27.5523 8 28 8.44772 28 9C28 9.55229 27.5523 10 27 10H25C24.4477 10 24 9.55229 24 9C24 8.44772 24.4477 8 25 8H27ZM2.29297 0.29297C2.68349 -0.0975548 3.31651 -0.0975548 3.70703 0.29297L5.70703 2.29297C6.09756 2.68349 6.09756 3.31651 5.70703 3.70703C5.31651 4.09756 4.68349 4.09756 4.29297 3.70703L2.29297 1.70703C1.90244 1.31651 1.90244 0.683494 2.29297 0.29297ZM24.293 0.29297C24.6835 -0.0975548 25.3165 -0.0975548 25.707 0.29297C26.0976 0.683494 26.0976 1.31651 25.707 1.70703L23.707 3.70703C23.3165 4.09756 22.6835 4.09756 22.293 3.70703C21.9024 3.31651 21.9024 2.68349 22.293 2.29297L24.293 0.29297ZM18 12.5371C18.603 12.1889 19.2916 12 20 12C21.0609 12 22.078 12.4217 22.8281 13.1719C23.2565 13.6002 23.5767 14.1158 23.7734 14.6768C24.4273 14.2387 25.2014 14 26 14L26.1982 14.0049C27.1869 14.0539 28.1248 14.4686 28.8281 15.1719C29.2565 15.6002 29.5767 16.1158 29.7734 16.6768C30.4273 16.2387 31.2014 16 32 16L32.1982 16.0049C33.1869 16.0539 34.1248 16.4686 34.8281 17.1719C35.5783 17.922 36 18.9391 36 20V29C36 32.4478 34.6304 35.7544 32.1924 38.1924C29.7544 40.6304 26.4478 42 23 42H19C18.9457 42 18.8928 41.9937 18.8408 41.9854C16.8869 41.8991 14.9743 41.3753 13.248 40.4453C11.3528 39.4243 9.7407 37.9483 8.55664 36.1504L8.55469 36.1465L8.16309 35.5469L8.16211 35.5459C7.51528 34.5528 5.30367 30.6947 1.55664 24.0342C1.04586 23.1263 0.908854 22.0548 1.17578 21.0479C1.44269 20.0411 2.09214 19.1782 2.98535 18.6426C3.8902 18.0996 4.95068 17.8743 5.99805 18.0029C7.04547 18.1316 8.01997 18.6068 8.7666 19.3525H8.76758L10 20.585V6C10 4.93914 10.4217 3.92202 11.1719 3.17188C11.922 2.42173 12.9391 2 14 2C15.0609 2 16.078 2.42173 16.8281 3.17188C17.5783 3.92202 18 4.93914 18 6V12.5371Z" fill="currentColor"/>
</svg>
