<svg width="14" height="14" viewBox="0 0 14 14" fill="none" xmlns="http://www.w3.org/2000/svg">
<path d="M11.4071 0.333618H2.07373C1.5433 0.333618 1.03459 0.544332 0.659517 0.919405C0.284444 1.29448 0.0737305 1.80319 0.0737305 2.33362V11.667C0.0737305 12.1974 0.284444 12.7061 0.659517 13.0812C1.03459 13.4562 1.5433 13.667 2.07373 13.667H11.4071C11.9375 13.667 12.4462 13.4562 12.8213 13.0812C13.1964 12.7061 13.4071 12.1974 13.4071 11.667V2.33362C13.4071 1.80319 13.1964 1.29448 12.8213 0.919405C12.4462 0.544332 11.9375 0.333618 11.4071 0.333618ZM5.40706 1.66695H8.07373V3.75362L7.10706 3.08695C6.99821 3.01527 6.87073 2.97706 6.7404 2.97706C6.61006 2.97706 6.48258 3.01527 6.37373 3.08695L5.40706 3.75362V1.66695ZM12.0737 11.667C12.0737 11.8438 12.0035 12.0133 11.8785 12.1384C11.7534 12.2634 11.5839 12.3336 11.4071 12.3336H2.07373C1.89692 12.3336 1.72735 12.2634 1.60233 12.1384C1.4773 12.0133 1.40706 11.8438 1.40706 11.667V2.33362C1.40706 2.15681 1.4773 1.98724 1.60233 1.86221C1.72735 1.73719 1.89692 1.66695 2.07373 1.66695H4.07373V5.00028C4.07405 5.12089 4.10708 5.23914 4.16931 5.34246C4.23153 5.44577 4.32061 5.53027 4.42706 5.58695C4.53131 5.64048 4.64783 5.66558 4.76487 5.65973C4.88191 5.65388 4.99534 5.61728 5.09373 5.55362L6.7404 4.46695L8.37373 5.55362C8.474 5.61965 8.59023 5.65738 8.71017 5.66283C8.8301 5.66827 8.94928 5.64123 9.05511 5.58456C9.16095 5.52788 9.24952 5.44368 9.31147 5.34084C9.37342 5.238 9.40645 5.12034 9.40706 5.00028V1.66695H11.4071C11.5839 1.66695 11.7534 1.73719 11.8785 1.86221C12.0035 1.98724 12.0737 2.15681 12.0737 2.33362V11.667Z" fill="#6E99EC"/>
</svg>
