<svg xmlns="http://www.w3.org/2000/svg" width="27" height="28" fill="none"><path fill="currentColor" d="M19.474 4.002a8.71 8.71 0 0 0-7.276-1.808A8.71 8.71 0 0 0 5.37 9.077a8.79 8.79 0 0 0 1.874 7.243 4.95 4.95 0 0 1 1.241 3.126v3.267a3.267 3.267 0 0 0 3.268 3.267h4.356a3.267 3.267 0 0 0 3.267-3.267v-3.06a5.63 5.63 0 0 1 1.33-3.475A8.713 8.713 0 0 0 19.473 3.98zm-2.277 18.711a1.09 1.09 0 0 1-1.089 1.09h-4.356a1.09 1.09 0 0 1-1.09-1.09v-1.089h6.535zm1.82-7.885a7.77 7.77 0 0 0-1.82 4.618H15.02v-3.268a1.09 1.09 0 0 0-2.178 0v3.268h-2.179a7.08 7.08 0 0 0-1.742-4.531 6.535 6.535 0 0 1 3.692-10.587 6.535 6.535 0 0 1 7.853 6.405 6.4 6.4 0 0 1-1.449 4.095"/></svg>