<svg width="15" height="14" viewBox="0 0 15 14" fill="none" xmlns="http://www.w3.org/2000/svg">
<path d="M7.49992 3.66659C7.32311 3.66659 7.15354 3.73682 7.02852 3.86185C6.90349 3.98687 6.83326 4.15644 6.83326 4.33325V6.99992C6.83326 7.17673 6.90349 7.3463 7.02852 7.47132C7.15354 7.59635 7.32311 7.66659 7.49992 7.66659C7.67673 7.66659 7.8463 7.59635 7.97133 7.47132C8.09635 7.3463 8.16659 7.17673 8.16659 6.99992V4.33325C8.16659 4.15644 8.09635 3.98687 7.97133 3.86185C7.8463 3.73682 7.67673 3.66659 7.49992 3.66659ZM8.11326 9.41325C8.09866 9.37077 8.07849 9.33042 8.05326 9.29325L7.97326 9.19325C7.87951 9.10075 7.76046 9.03808 7.63113 9.01317C7.5018 8.98825 7.368 9.0022 7.24659 9.05325C7.1658 9.08701 7.09139 9.13437 7.02659 9.19325C6.9648 9.25555 6.91592 9.32942 6.88274 9.41065C6.84957 9.49187 6.83275 9.57885 6.83326 9.66659C6.83431 9.7537 6.85243 9.83977 6.88659 9.91992C6.91653 10.0026 6.9643 10.0778 7.02651 10.14C7.08873 10.2022 7.16386 10.25 7.24659 10.2799C7.32639 10.3152 7.41267 10.3334 7.49992 10.3334C7.58717 10.3334 7.67346 10.3152 7.75326 10.2799C7.83599 10.25 7.91112 10.2022 7.97333 10.14C8.03554 10.0778 8.08331 10.0026 8.11326 9.91992C8.14742 9.83977 8.16554 9.7537 8.16659 9.66659C8.16986 9.6222 8.16986 9.57764 8.16659 9.53325C8.15511 9.49074 8.13712 9.45026 8.11326 9.41325ZM7.49992 0.333252C6.18138 0.333252 4.89245 0.724245 3.79612 1.45679C2.69979 2.18933 1.84531 3.23052 1.34072 4.4487C0.836141 5.66687 0.704118 7.00731 0.961353 8.30052C1.21859 9.59373 1.85353 10.7816 2.78588 11.714C3.71823 12.6463 4.90611 13.2813 6.19932 13.5385C7.49253 13.7957 8.83297 13.6637 10.0511 13.1591C11.2693 12.6545 12.3105 11.8 13.0431 10.7037C13.7756 9.60739 14.1666 8.31846 14.1666 6.99992C14.1666 6.12444 13.9942 5.25753 13.6591 4.4487C13.3241 3.63986 12.833 2.90493 12.214 2.28587C11.5949 1.66682 10.86 1.17575 10.0511 0.840722C9.24231 0.50569 8.3754 0.333252 7.49992 0.333252ZM7.49992 12.3333C6.44509 12.3333 5.41394 12.0205 4.53688 11.4344C3.65982 10.8484 2.97623 10.0154 2.57256 9.0409C2.1689 8.06636 2.06328 6.994 2.26907 5.95944C2.47485 4.92487 2.98281 3.97456 3.72869 3.22868C4.47457 2.4828 5.42487 1.97485 6.45944 1.76906C7.49401 1.56328 8.56636 1.66889 9.5409 2.07256C10.5154 2.47623 11.3484 3.15982 11.9344 4.03688C12.5205 4.91394 12.8333 5.94509 12.8333 6.99992C12.8333 8.41441 12.2714 9.77096 11.2712 10.7712C10.271 11.7713 8.91441 12.3333 7.49992 12.3333Z" fill="#6E99EC"/>
</svg>
