<svg xmlns="http://www.w3.org/2000/svg" width="24" height="28" fill="none"><path fill="currentColor" d="M11.999 19.72a.54.54 0 0 1-.535-.54v-4.207c0-.299.24-.54.535-.54s.535.242.535.54v4.207c0 .299-.24.54-.535.54"/><path fill="currentColor" d="M16.156 13.772a5.987 5.987 0 0 0 0-8.407 5.843 5.843 0 0 0-8.323 0 5.987 5.987 0 0 0 0 8.407 5.843 5.843 0 0 0 8.323 0"/><path fill="currentColor" d="M21.31 9.568c0-5.185-4.177-9.404-9.311-9.404s-9.31 4.219-9.31 9.404a9.38 9.38 0 0 0 1.902 5.697c1.683 2.23 2.242 3.066 2.41 3.903-.36.345-.585.832-.585 1.372 0 .529.216 1.008.563 1.351a1.9 1.9 0 0 0-.563 1.351c0 .995.764 1.813 1.73 1.886v.395c0 1.276 1.028 2.313 2.29 2.313h3.393c1.263 0 2.29-1.037 2.29-2.313v-.435a1.89 1.89 0 0 0 1.463-1.846c0-.529-.216-1.007-.563-1.35a1.9 1.9 0 0 0-.022-2.724c.168-.837.727-1.673 2.41-3.903a9.38 9.38 0 0 0 1.902-5.697m-7.481 17.187h-3.392c-.673 0-1.22-.552-1.22-1.232v-.389h5.832v.39c0 .679-.547 1.231-1.22 1.231m2.683-3.513c0 .447-.36.811-.803.811H8.29a.81.81 0 0 1-.803-.81c0-.448.36-.811.803-.811h7.42c.443 0 .803.363.803.81M8.29 21.351a.81.81 0 0 1-.803-.811c0-.447.36-.81.803-.81h7.42c.443 0 .803.363.803.81s-.36.81-.803.81zm7.725-2.678a2 2 0 0 0-.305-.025H8.29q-.156 0-.305.025c-.275-.997-.967-1.976-2.542-4.064a8.3 8.3 0 0 1-1.683-5.04c0-4.59 3.696-8.324 8.24-8.324s8.24 3.734 8.24 8.323c0 1.84-.582 3.583-1.683 5.041-1.576 2.088-2.267 3.067-2.542 4.064"/><path fill="#fff" d="m14.899 8.167-1.518-.51-.95-1.301a.533.533 0 0 0-.862 0l-.95 1.3-1.518.511a.545.545 0 0 0-.266.827l.93 1.315.013 1.617a.54.54 0 0 0 .22.433c.138.1.314.13.476.078L12 11.949l1.525.488a.53.53 0 0 0 .476-.078.54.54 0 0 0 .22-.434l.013-1.616.93-1.315a.545.545 0 0 0-.265-.827M13.265 9.82a.54.54 0 0 0-.1.31l-.008 1.055-.996-.318a.53.53 0 0 0-.323 0l-.996.318-.008-1.055a.55.55 0 0 0-.1-.31l-.607-.859.991-.333a.54.54 0 0 0 .261-.192l.62-.85.621.85a.54.54 0 0 0 .262.192l.99.333z"/><path fill="currentColor" d="M2.47 3.684a.53.53 0 0 0 .445-.24.544.544 0 0 0-.148-.75L.832 1.39a.53.53 0 0 0-.742.15.544.544 0 0 0 .148.75l1.935 1.303a.53.53 0 0 0 .297.091m.558 13.126-1.736 1.54a.544.544 0 0 0-.049.762.53.53 0 0 0 .755.05l1.736-1.54a.544.544 0 0 0 .049-.763.53.53 0 0 0-.755-.05M23.91 1.54a.53.53 0 0 0-.742-.15l-1.935 1.304a.544.544 0 0 0-.148.75.533.533 0 0 0 .742.15l1.935-1.305a.544.544 0 0 0 .148-.75M22.709 18.35l-1.736-1.54a.53.53 0 0 0-.755.05.544.544 0 0 0 .05.762l1.735 1.54a.53.53 0 0 0 .755-.05.544.544 0 0 0-.05-.762"/></svg>