<svg xmlns="http://www.w3.org/2000/svg" width="17" height="16" fill="none"><path fill="currentColor" d="M12.21 1.88A5.33 5.33 0 0 0 7.756.774a5.33 5.33 0 0 0-4.18 4.213A5.38 5.38 0 0 0 4.723 9.42c.47.53.738 1.207.76 1.914v2a2 2 0 0 0 2 2h2.667a2 2 0 0 0 2-2V11.46c.022-.78.309-1.53.813-2.126a5.333 5.333 0 0 0-.753-7.467zm-1.394 11.454a.667.667 0 0 1-.666.666H7.483a.666.666 0 0 1-.667-.666v-.667h4zm1.114-4.827a4.75 4.75 0 0 0-1.114 2.827H9.483v-2a.667.667 0 1 0-1.333 0v2H6.816A4.33 4.33 0 0 0 5.75 8.56a4 4 0 0 1 4.02-6.447A4 4 0 0 1 12.815 6c.005.913-.308 1.8-.886 2.507"/></svg>