<svg width="16" height="19" viewBox="0 0 16 19" fill="none" xmlns="http://www.w3.org/2000/svg">
<path fill-rule="evenodd" clip-rule="evenodd" d="M1.23223 0.724176C1.70107 0.255335 2.33696 -0.00805664 3 -0.00805664H9.66667C9.88768 -0.00805664 10.0996 0.0797407 10.2559 0.236021L15.2559 5.23602C15.4122 5.3923 15.5 5.60426 15.5 5.82528V15.8253C15.5 16.4883 15.2366 17.1242 14.7678 17.593C14.2989 18.0619 13.663 18.3253 13 18.3253H3C2.33696 18.3253 1.70107 18.0619 1.23223 17.593C0.763392 17.1242 0.5 16.4883 0.5 15.8253V2.49194C0.5 1.8289 0.763392 1.19302 1.23223 0.724176ZM3 1.65861C2.77899 1.65861 2.56702 1.74641 2.41074 1.90269C2.25446 2.05897 2.16667 2.27093 2.16667 2.49194V15.8253C2.16667 16.0463 2.25446 16.2582 2.41074 16.4145C2.56702 16.5708 2.77899 16.6586 3 16.6586H13C13.221 16.6586 13.433 16.5708 13.5893 16.4145C13.7455 16.2582 13.8333 16.0463 13.8333 15.8253V6.65861H9.66667C9.20643 6.65861 8.83333 6.28551 8.83333 5.82528V1.65861H3ZM10.5 2.83712L12.6548 4.99194H10.5V2.83712ZM3.83333 6.65861C3.83333 6.19837 4.20643 5.82528 4.66667 5.82528H6.33333C6.79357 5.82528 7.16667 6.19837 7.16667 6.65861C7.16667 7.11885 6.79357 7.49194 6.33333 7.49194H4.66667C4.20643 7.49194 3.83333 7.11885 3.83333 6.65861ZM3.83333 9.99194C3.83333 9.5317 4.20643 9.15861 4.66667 9.15861H11.3333C11.7936 9.15861 12.1667 9.5317 12.1667 9.99194C12.1667 10.4522 11.7936 10.8253 11.3333 10.8253H4.66667C4.20643 10.8253 3.83333 10.4522 3.83333 9.99194ZM3.83333 13.3253C3.83333 12.865 4.20643 12.4919 4.66667 12.4919H11.3333C11.7936 12.4919 12.1667 12.865 12.1667 13.3253C12.1667 13.7855 11.7936 14.1586 11.3333 14.1586H4.66667C4.20643 14.1586 3.83333 13.7855 3.83333 13.3253Z" fill="currentColor"/>
</svg>
