<svg xmlns="http://www.w3.org/2000/svg" width="40" height="48" fill="none"><path fill="currentColor" d="m38.523 39.312-8.012 7.995a2.36 2.36 0 0 1-1.677.693H6.01a5.23 5.23 0 0 1-5.228-5.22V5.22A5.23 5.23 0 0 1 6.01 0h27.982a5.23 5.23 0 0 1 5.228 5.22v32.414c0 .634-.247 1.23-.696 1.678m-7.882 3.892 3.772-3.764h-3.34a.43.43 0 0 0-.432.428zm3.35-40.391H6.009A2.414 2.414 0 0 0 3.594 5.22v37.56a2.414 2.414 0 0 0 2.415 2.407h21.82v-5.32a3.245 3.245 0 0 1 3.244-3.24h5.333V5.22a2.414 2.414 0 0 0-2.415-2.407"/><path fill="currentColor" d="M8.656 9h24.586a1.406 1.406 0 1 1 0 2.813H8.656a1.407 1.407 0 0 1 0-2.813m0 9h24.586a1.406 1.406 0 1 1 0 2.813H8.656a1.407 1.407 0 0 1 0-2.813m0 9h24.586a1.406 1.406 0 1 1 0 2.813H8.656a1.407 1.407 0 0 1 0-2.813m-.375 8.25h16.711a1.406 1.406 0 1 1 0 2.813H8.282a1.407 1.407 0 0 1 0-2.813"/></svg>