<svg xmlns="http://www.w3.org/2000/svg" width="40" height="48" fill="none"><path fill="currentColor" d="m1.477 39.312 8.012 7.995a2.36 2.36 0 0 0 1.676.693h22.826a5.23 5.23 0 0 0 5.228-5.22V5.22A5.23 5.23 0 0 0 33.99 0H6.009A5.23 5.23 0 0 0 .781 5.22v32.414c0 .634.247 1.23.696 1.678m7.882 3.892L5.587 39.44h3.34a.43.43 0 0 1 .432.428zM6.009 2.813h27.982a2.414 2.414 0 0 1 2.415 2.407v37.56a2.414 2.414 0 0 1-2.415 2.407H12.17v-5.32a3.245 3.245 0 0 0-3.244-3.24H3.594V5.22a2.414 2.414 0 0 1 2.415-2.407"/><path fill="currentColor" d="M22.344 9H6.758a1.406 1.406 0 1 0 0 2.813h15.586a1.407 1.407 0 0 0 0-2.813m0 8.813H6.758a1.406 1.406 0 1 0 0 2.812h15.586a1.406 1.406 0 1 0 0-2.812m0 8.812H6.758a1.406 1.406 0 0 0 0 2.813h15.586a1.406 1.406 0 0 0 0-2.813m0 8.813h-7.312a1.406 1.406 0 0 0 0 2.812h7.312a1.406 1.406 0 0 0 0-2.812M31.85 7.162l-2.655 2.654-.83-.83a1.407 1.407 0 0 0-1.989 1.989l1.233 1.232c.423.424.987.657 1.586.657s1.163-.233 1.587-.657l3.056-3.056a1.407 1.407 0 0 0-1.989-1.989m.001 8.713-2.655 2.654-.83-.83a1.406 1.406 0 0 0-1.988 1.988l1.232 1.233a2.24 2.24 0 0 0 1.586.656c.575 0 1.15-.219 1.587-.656l3.056-3.057a1.406 1.406 0 1 0-1.989-1.988m.001 17.424-2.655 2.654-.83-.83a1.407 1.407 0 0 0-1.989 1.989l1.233 1.232a2.24 2.24 0 0 0 1.586.656c.575 0 1.15-.219 1.587-.656l3.056-3.057A1.407 1.407 0 0 0 31.85 33.3"/></svg>