<svg xmlns="http://www.w3.org/2000/svg" width="20" height="20" fill="none"><path fill="currentColor" fill-rule="evenodd" d="M10 1.667a6.667 6.667 0 0 0-6.667 6.666c0 2.582 1.68 5.087 3.522 7.031A24.5 24.5 0 0 0 10 18.144a24.5 24.5 0 0 0 3.145-2.78c1.842-1.944 3.522-4.449 3.522-7.03A6.666 6.666 0 0 0 10 1.666m0 17.5-.463.693-.002-.002-.006-.004-.019-.012a8 8 0 0 1-.32-.226 26 26 0 0 1-3.545-3.105c-1.908-2.015-3.978-4.926-3.978-8.178a8.333 8.333 0 1 1 16.666 0c0 3.252-2.07 6.163-3.978 8.178a26 26 0 0 1-3.545 3.105 16 16 0 0 1-.32.226l-.02.012-.005.004-.002.001zm0 0 .462.693a.83.83 0 0 1-.925 0zm0-12.5A1.667 1.667 0 1 0 10 10a1.667 1.667 0 0 0 0-3.333M6.667 8.333a3.333 3.333 0 1 1 6.666 0 3.333 3.333 0 0 1-6.666 0" clip-rule="evenodd"/></svg>