<svg xmlns="http://www.w3.org/2000/svg" width="34" height="35" fill="none"><circle cx="17" cy="17.498" r="17" fill="#EDF5FD"/><path fill="#fff" d="M26.798 9.724a1.74 1.74 0 0 0-1.146-.874 2 2 0 0 0-.348-.034c-.696 0-1.344.45-1.617 1.126-.24.607-.492 1.214-.737 1.815-.3.736-.737 1.828-1.18 2.94-.39.969-.785 1.965-1.106 2.757q-.05-.166-.109-.342c-.566-1.794-1.426-4.502-1.774-5.28a3.66 3.66 0 0 0-2.517-2.068 3.3 3.3 0 0 0-.771-.088c-.717 0-1.426.232-2.054.662-.007.006-.02.013-.027.02l-.082.061c-1.119.949-1.692 2.218-2.15 3.241 0 .007-.006.02-.006.027-.034.082-2.988 7.703-4.018 10.05-.362.826-.075 1.774.675 2.21a1.715 1.715 0 0 0 2.429-.785c.177-.395 1.31-3.226 2.224-5.498.45-1.112.805-2.006.894-2.21l.505-1.229c1.105-2.715 1.248-2.96 1.705-2.974.089 0 .294.075.526.757.245.73.607 1.897.955 3.03s.675 2.196.9 2.838c.403 1.187 1.378 1.992 2.477 2.053h.116c.553 0 1.93-.198 2.708-2.06.028-.062 2.614-6.216 3.61-8.713a1.7 1.7 0 0 0-.082-1.432"/></svg>