<svg width="21" height="21" viewBox="0 0 21 21" fill="none" xmlns="http://www.w3.org/2000/svg">
<path fill-rule="evenodd" clip-rule="evenodd" d="M3.08886 6.43817L10.5 11.626L17.9112 6.43817C17.7734 6.16565 17.49 5.97654 17.1667 5.97654H3.83337C3.51007 5.97654 3.22667 6.16564 3.08886 6.43817ZM18 8.41042L10.9779 13.3259C10.691 13.5268 10.3091 13.5268 10.0222 13.3259L3.00004 8.41042V15.1432C3.00004 15.5996 3.37694 15.9765 3.83337 15.9765H17.1667C17.6231 15.9765 18 15.5996 18 15.1432V8.41042ZM1.33337 6.80988C1.33337 5.43297 2.45647 4.30988 3.83337 4.30988H17.1667C18.5436 4.30988 19.6667 5.43297 19.6667 6.80988V15.1432C19.6667 16.5201 18.5436 17.6432 17.1667 17.6432H3.83337C2.45647 17.6432 1.33337 16.5201 1.33337 15.1432V6.80988Z" fill="currentColor"/>
</svg>
