<svg width="13" height="13" viewBox="0 0 13 13" fill="none" xmlns="http://www.w3.org/2000/svg">
<path d="M12 7.95215C10.2665 8.70332 8.39489 9.0931 6.5 9.0931C4.60511 9.0931 2.73349 8.70332 1 7.95215V10.5C1 10.721 1.08786 10.9329 1.24414 11.0892C1.40042 11.2455 1.61232 11.3333 1.83333 11.3333H11.1667C11.3877 11.3333 11.5996 11.2455 11.7559 11.0892C11.9121 10.9329 12 10.721 12 10.5V7.95215ZM6 6.50651V6.5C6 6.22386 6.22386 6 6.5 6C6.77614 6 7 6.22386 7 6.5V6.50651C7 6.78265 6.77614 7.00651 6.5 7.00651C6.22386 7.00651 6 6.78265 6 6.50651ZM12 4.5C12 4.27899 11.9121 4.06709 11.7559 3.91081C11.6191 3.77406 11.4398 3.68984 11.249 3.6709L11.1667 3.66667H1.83333C1.61232 3.66667 1.40042 3.75453 1.24414 3.91081C1.08786 4.06709 1 4.27899 1 4.5V6.85417C2.71777 7.66901 4.59621 8.0931 6.5 8.0931C8.40379 8.0931 10.2822 7.66901 12 6.85417V4.5ZM8.66667 1.83333C8.66667 1.61232 8.57881 1.40042 8.42253 1.24414C8.26625 1.08786 8.05435 1 7.83333 1H5.16667C4.94565 1 4.73375 1.08786 4.57747 1.24414C4.42119 1.40042 4.33333 1.61232 4.33333 1.83333V2.66667H8.66667V1.83333ZM9.66667 2.66667H11.1667C11.6529 2.66667 12.1191 2.85996 12.4629 3.20378C12.8067 3.54759 13 4.01377 13 4.5V10.5C13 10.9862 12.8067 11.4524 12.4629 11.7962C12.1191 12.14 11.6529 12.3333 11.1667 12.3333H1.83333C1.3471 12.3333 0.880926 12.14 0.537109 11.7962C0.193293 11.4524 0 10.9862 0 10.5V4.5C0 4.01377 0.193293 3.54759 0.537109 3.20378C0.880926 2.85996 1.3471 2.66667 1.83333 2.66667H3.33333V1.83333C3.33333 1.3471 3.52663 0.880926 3.87044 0.537109C4.21426 0.193293 4.68044 0 5.16667 0H7.83333C8.31956 0 8.78574 0.193293 9.12956 0.537109C9.47337 0.880926 9.66667 1.3471 9.66667 1.83333V2.66667Z" fill="#0C4AD5"/>
</svg>
