<svg xmlns="http://www.w3.org/2000/svg" width="21" height="20" fill="none"><path fill="currentColor" fill-rule="evenodd" d="M8.143.976a3.333 3.333 0 0 1 5.69 2.357V10a3.333 3.333 0 1 1-6.666 0V3.333c0-.884.351-1.732.976-2.357m2.357.69a1.667 1.667 0 0 0-1.666 1.667V10a1.667 1.667 0 1 0 3.333 0V3.333A1.667 1.667 0 0 0 10.5 1.667M4.667 7.5c.46 0 .833.373.833.833V10a5 5 0 1 0 10 0V8.333a.833.833 0 0 1 1.667 0V10a6.666 6.666 0 0 1-5.834 6.614v1.72h2.5a.833.833 0 0 1 0 1.666H7.168a.833.833 0 1 1 0-1.667h2.5v-1.719A6.67 6.67 0 0 1 3.834 10V8.333c0-.46.373-.833.833-.833" clip-rule="evenodd"/></svg>