<svg xmlns="http://www.w3.org/2000/svg" width="20" height="20" fill="none"><path fill="currentColor" d="m10.592 13.575-.125-.1a.6.6 0 0 0-.15-.075l-.15-.067a.83.83 0 0 0-.759.225 1 1 0 0 0-.175.275.833.833 0 0 0 1.084 1.092q.15-.073.275-.183a.83.83 0 0 0 .175-.909.8.8 0 0 0-.175-.258m2.741-11.908H6.667a2.5 2.5 0 0 0-2.5 2.5v11.666a2.5 2.5 0 0 0 2.5 2.5h6.666a2.5 2.5 0 0 0 2.5-2.5V4.167a2.5 2.5 0 0 0-2.5-2.5m.834 14.166a.833.833 0 0 1-.834.834H6.667a.833.833 0 0 1-.834-.834V4.167a.833.833 0 0 1 .834-.834h6.666a.833.833 0 0 1 .834.834z"/></svg>