<svg xmlns="http://www.w3.org/2000/svg" width="17" height="16" viewBox="0 0 17 16" fill="none"><path fill="currentColor" fill-rule="evenodd" d="M3.463 2.358c-.596.326-.813.692-.813.975s.217.65.813.976c.577.314 1.408.524 2.353.524s1.777-.21 2.353-.524c.596-.326.814-.692.814-.976 0-.283-.218-.65-.814-.975-.576-.314-1.408-.525-2.353-.525s-1.776.21-2.353.525M2.65 4.98q.161.113.334.206c.75.41 1.753.648 2.832.648 1.08 0 2.082-.238 2.832-.648q.215-.116.41-.259v.444q-.063.028-.121.058c-.58.29-1.105.728-1.29 1.303a.5.5 0 0 0-.071.257v.577a6.2 6.2 0 0 1-1.723.23c-.961 0-1.808-.196-2.395-.49-.617-.308-.808-.642-.808-.861zm0 3.015q.175.113.36.206c.754.377 1.76.595 2.843.595.611 0 1.195-.069 1.723-.196v1.558a6.2 6.2 0 0 1-1.723.231c-.961 0-1.808-.196-2.395-.49-.617-.308-.808-.642-.808-.862zm0 2.593q.175.113.36.206c.754.376 1.76.595 2.843.595.611 0 1.195-.07 1.723-.196v1.284a6.3 6.3 0 0 1-1.723.227c-.962 0-1.81-.193-2.397-.484-.62-.305-.806-.634-.806-.844zm5.071 2.886a7.4 7.4 0 0 1-1.868.23c-1.082 0-2.087-.215-2.84-.587-.72-.356-1.363-.941-1.363-1.74V3.334c0-.821.603-1.455 1.334-1.853.75-.41 1.753-.648 2.832-.648 1.08 0 2.082.238 2.832.648.639.348 1.18.875 1.307 1.55a.5.5 0 0 1 .102.302V5.03a7.4 7.4 0 0 1 1.722-.197c1.084 0 2.09.22 2.843.596.58.29 1.104.728 1.29 1.303a.5.5 0 0 1 .071.257v5.85c0 .8-.643 1.385-1.364 1.74-.752.372-1.757.588-2.84.588s-2.087-.216-2.84-.587c-.514-.254-.988-.625-1.218-1.106m7.262-3.326V8.736a4 4 0 0 1-.361.206c-.754.377-1.76.595-2.843.595S9.69 9.32 8.937 8.942a4 4 0 0 1-.361-.206v1.412c0 .22.19.554.808.862.587.294 1.434.49 2.395.49s1.808-.196 2.396-.49c.617-.308.808-.642.808-.862m-6.407 1.55q.175.114.36.207c.754.377 1.76.595 2.843.595 1.084 0 2.09-.219 2.843-.595q.186-.092.361-.206v1.14c0 .21-.187.538-.806.844-.588.29-1.435.484-2.398.484-.962 0-1.81-.194-2.397-.484-.62-.306-.806-.634-.806-.844zm6.407-4.513c0-.22-.191-.553-.809-.862-.587-.293-1.433-.49-2.395-.49-.961 0-1.808.197-2.395.49-.617.309-.808.643-.808.862 0 .22.19.554.808.862.587.294 1.434.49 2.395.49s1.808-.196 2.396-.49c.617-.308.808-.642.808-.862" clip-rule="evenodd"/></svg>