<svg xmlns="http://www.w3.org/2000/svg" width="20" height="20" fill="none"><path fill="#fff" fill-rule="evenodd" d="M6.042 1.042c1.35 0 2.602.297 3.54.809.798.435 1.474 1.094 1.633 1.937.08.105.128.236.128.379v2.12c.225-.128.433-.157.69-.175s.517.296.517.602c0 .28-.176.57-.438.638-.053.014-.107.02-.16.034-.668.166-.881.233-1.45.518-.772.385-1.011.803-1.012 1.077 0 .275.24.693 1.011 1.078.734.367 1.792.612 2.994.612s2.26-.245 2.994-.612q.299-.116.556-.236c.676-.313 1.705.198 1.705.943v5.282c0 1-.803 1.732-1.704 2.176-.941.465-2.198.734-3.55.734-1.354 0-2.61-.27-3.55-.734-.643-.317-1.236-.78-1.523-1.382-.706.186-1.5.289-2.335.289-1.353 0-2.61-.27-3.55-.735C1.635 15.952.832 15.22.832 14.22V4.167c0-1.026.755-1.818 1.669-2.316.937-.512 2.19-.81 3.54-.81M17.5 14.623q-.218.141-.452.257c-.941.471-2.198.745-3.553.745s-2.611-.274-3.553-.745a5 5 0 0 1-.452-.257v1.425c0 .262.234.673 1.009 1.056.734.362 1.793.604 2.996.604s2.263-.242 2.997-.604c.775-.383 1.008-.794 1.008-1.056zM2.083 14.22c0 .262.233.673 1.008 1.055.735.363 1.794.605 2.997.605.796 0 1.531-.106 2.152-.284V13.99a9.3 9.3 0 0 1-2.152.245c-1.354 0-2.611-.273-3.553-.744a5 5 0 0 1-.452-.258zm15.417-3.3q-.218.141-.452.257c-.941.47-2.198.744-3.553.744s-2.611-.273-3.553-.744a5 5 0 0 1-.452-.257v1.765c0 .275.24.692 1.011 1.078.734.367 1.792.612 2.994.612s2.26-.245 2.994-.612c.771-.386 1.01-.803 1.01-1.078zm-15.417.376c0 .275.24.692 1.011 1.078.734.367 1.792.612 2.994.612.796 0 1.532-.107 2.152-.288v-1.949a9.3 9.3 0 0 1-2.152.246c-1.354 0-2.611-.273-3.553-.744a5 5 0 0 1-.452-.258zm8.01-5.137a4.5 4.5 0 0 1-.511.324c-.938.511-2.19.809-3.54.809s-2.603-.298-3.54-.81a5 5 0 0 1-.419-.256v1.83c0 .274.24.692 1.011 1.077.734.367 1.792.612 2.994.612.796 0 1.532-.107 2.152-.288v-.72c0-.118.034-.228.09-.322.232-.72.888-1.266 1.612-1.629l.15-.072zM6.042 2.292c-1.182 0-2.22.262-2.941.656-.745.406-1.018.865-1.018 1.219s.273.812 1.017 1.219c.722.393 1.76.656 2.942.656 1.18 0 2.22-.263 2.94-.656C9.729 4.979 10 4.52 10 4.166c0-.353-.272-.812-1.017-1.218-.721-.394-1.76-.656-2.941-.656" clip-rule="evenodd"/><path fill="#fff" d="M16.944 5.556h1.528a.694.694 0 1 1 0 1.388h-1.528v1.528a.695.695 0 0 1-1.388 0V6.944h-1.528a.695.695 0 0 1 0-1.388h1.527V4.028a.694.694 0 1 1 1.39 0z"/></svg>