<svg xmlns="http://www.w3.org/2000/svg" width="20" height="21" fill="none"><path fill="#6E99EC" d="M17.5 9.386h-.833v-.833a.833.833 0 1 0-1.667 0v.833h-.833a.833.833 0 0 0 0 1.667H15v.833a.833.833 0 1 0 1.667 0v-.833h.833a.833.833 0 0 0 0-1.667m-6.416 1.433a4.1 4.1 0 0 0 1.416-3.1 4.167 4.167 0 0 0-8.333 0 4.1 4.1 0 0 0 1.417 3.1 6.67 6.67 0 0 0-3.917 6.067.833.833 0 1 0 1.667 0 5 5 0 0 1 10 0 .834.834 0 1 0 1.666 0 6.67 6.67 0 0 0-3.916-6.067m-2.75-.6a2.5 2.5 0 1 1 0-5 2.5 2.5 0 0 1 0 5"/></svg>