<svg width="12" height="12" viewBox="0 0 12 12" fill="none" xmlns="http://www.w3.org/2000/svg">
<path d="M7.5 5.81333C7.85572 5.50542 8.14103 5.12459 8.33658 4.69668C8.53213 4.26877 8.63334 3.80381 8.63333 3.33333C8.63333 2.44928 8.28214 1.60143 7.65702 0.976311C7.0319 0.351189 6.18406 0 5.3 0C4.41595 0 3.5681 0.351189 2.94298 0.976311C2.31786 1.60143 1.96667 2.44928 1.96667 3.33333C1.97078 3.80639 2.07718 4.27296 2.27856 4.70103C2.47993 5.1291 2.77153 5.50855 3.13333 5.81333C2.20009 6.23592 1.40831 6.91835 0.852653 7.77903C0.296997 8.63971 0.000981237 9.64221 0 10.6667C0 10.8435 0.0702379 11.013 0.195262 11.1381C0.320286 11.2631 0.489856 11.3333 0.666667 11.3333C0.843478 11.3333 1.01305 11.2631 1.13807 11.1381C1.2631 11.013 1.33333 10.8435 1.33333 10.6667C1.33333 9.6058 1.75476 8.58838 2.50491 7.83824C3.25505 7.08809 4.27247 6.66667 5.33333 6.66667C6.3942 6.66667 7.41162 7.08809 8.16176 7.83824C8.91191 8.58838 9.33333 9.6058 9.33333 10.6667C9.33333 10.8435 9.40357 11.013 9.5286 11.1381C9.65362 11.2631 9.82319 11.3333 10 11.3333C10.1768 11.3333 10.3464 11.2631 10.4714 11.1381C10.5964 11.013 10.6667 10.8435 10.6667 10.6667C10.6628 9.63854 10.3618 8.63344 9.80002 7.77238C9.2382 6.91132 8.43947 6.23101 7.5 5.81333V5.81333ZM5.3 5.33333C4.90444 5.33333 4.51776 5.21603 4.18886 4.99627C3.85996 4.77651 3.60362 4.46415 3.45224 4.0987C3.30087 3.73325 3.26126 3.33111 3.33843 2.94315C3.4156 2.55519 3.60608 2.19882 3.88579 1.91912C4.16549 1.63941 4.52186 1.44893 4.90982 1.37176C5.29778 1.29459 5.69991 1.3342 6.06537 1.48557C6.43082 1.63695 6.74318 1.89329 6.96294 2.22219C7.1827 2.55109 7.3 2.93777 7.3 3.33333C7.3 3.86377 7.08929 4.37247 6.71421 4.74755C6.33914 5.12262 5.83043 5.33333 5.3 5.33333ZM10.9667 2C10.7899 2 10.6203 2.07024 10.4953 2.19526C10.3702 2.32029 10.3 2.48986 10.3 2.66667V4C10.3 4.17681 10.3702 4.34638 10.4953 4.4714C10.6203 4.59643 10.7899 4.66667 10.9667 4.66667C11.1435 4.66667 11.313 4.59643 11.4381 4.4714C11.5631 4.34638 11.6333 4.17681 11.6333 4V2.66667C11.6333 2.48986 11.5631 2.32029 11.4381 2.19526C11.313 2.07024 11.1435 2 10.9667 2ZM10.4667 5.52667C10.3448 5.65442 10.2758 5.82349 10.2733 6C10.2728 6.08774 10.2896 6.17471 10.3228 6.25594C10.356 6.33716 10.4049 6.41104 10.4667 6.47333C10.5315 6.53222 10.6059 6.57957 10.6867 6.61333C10.7665 6.6486 10.8528 6.66682 10.94 6.66682C11.0272 6.66682 11.1135 6.6486 11.1933 6.61333C11.2761 6.58339 11.3512 6.53562 11.4134 6.47341C11.4756 6.4112 11.5234 6.33606 11.5533 6.25333C11.5907 6.17421 11.6089 6.08745 11.6067 6C11.6074 5.86758 11.5688 5.73794 11.4956 5.62759C11.4224 5.51724 11.318 5.4312 11.1957 5.38042C11.0734 5.32964 10.9387 5.31643 10.8089 5.34248C10.679 5.36853 10.5599 5.43265 10.4667 5.52667Z" fill="currentColor"/>
</svg>
