<svg width="14" height="14" viewBox="0 0 14 14" fill="none" xmlns="http://www.w3.org/2000/svg">
<path d="M0.350235 3.13348C0.644781 2.91266 1.06229 2.97243 1.28318 3.26694L3.61651 6.37762C3.70306 6.49302 3.74997 6.63376 3.74997 6.77801V12.3333H9.75016V6.77801C9.75016 6.63376 9.79708 6.49302 9.88363 6.37762L12.217 3.26694C12.4378 2.97243 12.8554 2.91266 13.1499 3.13348C13.4444 3.35437 13.5042 3.77188 13.2834 4.06642L11.0835 6.99936V13C11.0835 13.3682 10.785 13.6667 10.4168 13.6667H3.08331C2.71512 13.6667 2.41664 13.3682 2.41664 13V6.99936L0.216772 4.06642C-0.00405002 3.77188 0.0557181 3.35437 0.350235 3.13348Z" fill="#6E99EC"/>
<path d="M8.75016 3.66671C8.75016 2.56214 7.85473 1.66671 6.75016 1.66671C5.64559 1.66671 4.75016 2.56214 4.75016 3.66671C4.75016 4.77128 5.64559 5.66671 6.75016 5.66671V7.00004C4.90921 7.00004 3.41683 5.50766 3.41683 3.66671C3.41683 1.82576 4.90921 0.333374 6.75016 0.333374C8.59111 0.333374 10.0835 1.82576 10.0835 3.66671C10.0835 5.50766 8.59111 7.00004 6.75016 7.00004V5.66671C7.85473 5.66671 8.75016 4.77128 8.75016 3.66671Z" fill="#6E99EC"/>
</svg>
