<svg width="14" height="16" viewBox="0 0 14 16" fill="none" xmlns="http://www.w3.org/2000/svg">
<path d="M12.3515 4.73665C12.2364 4.6076 12.1084 4.49059 11.9696 4.38745C12.0266 3.94085 11.9872 3.48723 11.8541 3.05714C11.7209 2.62706 11.4972 2.2305 11.1978 1.89421C10.4752 1.07975 9.24339 0.666992 7.53637 0.666992H3.39379C3.09451 0.66779 2.80526 0.774958 2.57771 0.969354C2.35016 1.16375 2.19913 1.43271 2.1516 1.72819L0.425032 12.6657C0.400605 12.8123 0.408444 12.9625 0.448001 13.1057C0.487559 13.249 0.557884 13.3819 0.654075 13.4952C0.750266 13.6085 0.870008 13.6995 1.00496 13.7617C1.1399 13.824 1.28681 13.8561 1.43543 13.8558H3.21149L3.15683 14.2028C3.13472 14.3424 3.14313 14.4851 3.18148 14.6211C3.21983 14.7571 3.2872 14.8832 3.37896 14.9907C3.47073 15.0982 3.58469 15.1845 3.71302 15.2437C3.84134 15.3029 3.98098 15.3336 4.1223 15.3337H6.27855C6.55787 15.3359 6.82884 15.2385 7.04279 15.0589C7.25675 14.8793 7.39967 14.6293 7.44589 14.3538L7.87297 11.6663L7.88013 11.6299H8.07935C10.7675 11.6299 12.4465 10.3011 12.9361 7.78809C13.0855 7.26932 13.1104 6.72263 13.0088 6.19244C12.9072 5.66224 12.682 5.16348 12.3515 4.73665ZM3.95499 9.13639L3.47867 12.1599L3.42113 12.5225H1.79743L3.45824 2.00033H7.53637C8.82673 2.00033 9.74795 2.26986 10.1978 2.77637C10.4102 3.02326 10.5583 3.31877 10.629 3.63666C10.6997 3.95454 10.6908 4.28497 10.6031 4.59859L10.5907 4.67342C10.5826 4.72441 10.5752 4.77421 10.5618 4.83757C10.4332 5.79018 9.95711 6.66167 9.22501 7.28459C8.40312 7.85615 7.41257 8.134 6.41332 8.07325H5.19782C4.89767 8.07225 4.60714 8.17901 4.37905 8.37411C4.15097 8.56922 4.00049 8.83971 3.95499 9.13639ZM11.6275 7.53288C11.2603 9.41829 10.1327 10.2966 8.07933 10.2966H7.75707C7.47746 10.2944 7.20625 10.3921 6.99225 10.5721C6.77826 10.752 6.63552 11.0025 6.58973 11.2783L6.15679 13.9945L4.53832 14.0003L5.26451 9.40918H6.41071C6.51525 9.40918 6.60765 9.39347 6.70946 9.38989C6.94868 9.38163 7.1872 9.37244 7.41124 9.34465C7.54808 9.3276 7.67365 9.29651 7.8048 9.27218C7.98648 9.23861 8.16828 9.20541 8.33885 9.158C8.46577 9.12267 8.58419 9.07719 8.7049 9.03426C8.86441 8.97766 9.02143 8.91826 9.16995 8.84847C9.28195 8.79574 9.38866 8.7371 9.49433 8.67696C9.63499 8.59728 9.77127 8.51011 9.90257 8.41581C9.99743 8.34741 10.0905 8.27722 10.1792 8.20181C10.305 8.09338 10.4245 7.97788 10.5372 7.85587C10.6125 7.7755 10.6897 7.6975 10.7594 7.61103C10.8751 7.4636 10.982 7.30941 11.0794 7.14928C11.1304 7.06782 11.1869 6.99246 11.2338 6.90673C11.3689 6.65962 11.4849 6.4026 11.581 6.13789C11.5868 6.12198 11.595 6.10855 11.6007 6.09255C11.6033 6.08507 11.6073 6.07884 11.6099 6.07131C11.742 6.54879 11.7481 7.05236 11.6275 7.53288Z" fill="#6E99EC"/>
</svg>
