<svg xmlns="http://www.w3.org/2000/svg" width="27" height="27" fill="none"><path fill="currentColor" fill-rule="evenodd" d="M11.06 5.545a4.06 4.06 0 0 1 5.904 5.57 6.04 6.04 0 0 1 3.007 5.222v5.347a1.09 1.09 0 1 1-2.179 0v-5.347a3.861 3.861 0 1 0-7.723 0v5.347a1.09 1.09 0 1 1-2.178 0v-5.347a6.04 6.04 0 0 1 3.007-5.223 4.06 4.06 0 0 1 .162-5.569m2.87.99a1.881 1.881 0 1 0 0 3.762 1.881 1.881 0 0 0 0-3.762M3.84 9.216a3.07 3.07 0 1 1 2.17 5.24 1.88 1.88 0 0 0-1.882 1.881v5.347a1.09 1.09 0 0 1-2.178 0v-5.347a4.06 4.06 0 0 1 1.547-3.188 3.07 3.07 0 0 1 .342-3.933m2.17 1.28a.891.891 0 1 0 0 1.782.891.891 0 0 0 0-1.783m13.671-1.28a3.07 3.07 0 0 1 4.684 3.933 4.06 4.06 0 0 1 1.546 3.188v5.347a1.09 1.09 0 0 1-2.178 0v-5.347a1.88 1.88 0 0 0-1.881-1.881 3.069 3.069 0 0 1-2.17-5.24m2.17 3.062a.891.891 0 1 0 0-1.783.891.891 0 0 0 0 1.783" clip-rule="evenodd"/></svg>