<svg xmlns="http://www.w3.org/2000/svg" width="20" height="20" fill="none"><path fill="currentColor" d="M16.2 10.833c-.183 0-.375-.058-.558-.1a8 8 0 0 1-1.092-.325 1.667 1.667 0 0 0-2.067.834l-.183.375a10.2 10.2 0 0 1-2.217-1.667 10.2 10.2 0 0 1-1.666-2.217l.35-.233A1.667 1.667 0 0 0 9.6 5.433a9 9 0 0 1-.325-1.091 6 6 0 0 1-.1-.567 2.5 2.5 0 0 0-2.5-2.075h-2.5a2.5 2.5 0 0 0-2.5 2.842 15.83 15.83 0 0 0 13.767 13.716h.316a2.5 2.5 0 0 0 2.285-1.481 2.5 2.5 0 0 0 .215-1.027v-2.5a2.5 2.5 0 0 0-2.058-2.417m.417 5a.83.83 0 0 1-.603.802.9.9 0 0 1-.364.032A14.166 14.166 0 0 1 3.392 4.35a.9.9 0 0 1 .208-.683.83.83 0 0 1 .625-.284h2.5a.83.83 0 0 1 .833.659q.05.34.125.675.146.659.384 1.291L6.9 6.55a.833.833 0 0 0-.408 1.108 12.08 12.08 0 0 0 5.833 5.834c.203.083.43.083.633 0a.83.83 0 0 0 .475-.434l.517-1.166q.646.231 1.317.383.333.075.675.125a.83.83 0 0 1 .658.833z"/></svg>