<svg xmlns="http://www.w3.org/2000/svg" width="28" height="28" fill="none"><path fill="#fff" d="M0 14C0 6.268 6.268 0 14 0s14 6.268 14 14-6.268 14-14 14S0 21.732 0 14"/><g fill="currentColor" clip-path="url(#a)"><path fill-rule="evenodd" d="M10.667 11.5c0-.46.373-.834.833-.834h.008a.833.833 0 0 1 0 1.667H11.5a.833.833 0 0 1-.833-.833m5 0c0-.46.373-.834.833-.834h.009a.833.833 0 0 1 0 1.667H16.5a.833.833 0 0 1-.833-.833m-4.337 4.35A.833.833 0 0 0 10 16.854h.001l.001.002.002.003.006.008.018.022q.021.028.058.072.074.089.207.23c.177.184.435.427.77.67.664.483 1.666.992 2.937.992s2.273-.509 2.938-.992a5.8 5.8 0 0 0 .976-.9q.037-.044.058-.072l.018-.022.006-.008.002-.003.001-.001.001-.002a.833.833 0 0 0-1.33-1.003l-.004.005-.029.034a4 4 0 0 1-.68.623c-.48.35-1.145.675-1.957.675s-1.477-.324-1.958-.674a4 4 0 0 1-.679-.624l-.028-.034z" clip-rule="evenodd"/><path d="M19.879 6.5h1.49a.833.833 0 0 1 0 1.666h-1.49v1.435a.833.833 0 0 1-1.667 0V8.166h-1.485a.833.833 0 0 1 0-1.666h1.485V5.004a.833.833 0 1 1 1.667 0z"/><path fill-rule="evenodd" d="M14.369 6.508a7.5 7.5 0 1 0 6.593 4.701.833.833 0 1 1 1.547-.62 9.167 9.167 0 1 1-8.058-5.745.833.833 0 0 1-.082 1.664" clip-rule="evenodd"/></g><defs><clipPath id="a"><path fill="#fff" d="M4 4h20v20H4z"/></clipPath></defs></svg>