<svg width="20" height="19" viewBox="0 0 20 19" fill="none" xmlns="http://www.w3.org/2000/svg">
<path fill-rule="evenodd" clip-rule="evenodd" d="M4.16671 0.825277C4.16671 0.365039 4.5398 -0.00805664 5.00004 -0.00805664H15C15.4603 -0.00805664 15.8334 0.365039 15.8334 0.825277V5.82528H16.6667C17.3298 5.82528 17.9656 6.08867 18.4345 6.55751C18.9033 7.02635 19.1667 7.66223 19.1667 8.32528V12.4919C19.1667 13.155 18.9033 13.7909 18.4345 14.2597C17.9656 14.7285 17.3298 14.9919 16.6667 14.9919H15.8334V17.4919C15.8334 17.9522 15.4603 18.3253 15 18.3253H5.00004C4.5398 18.3253 4.16671 17.9522 4.16671 17.4919V14.9919H3.33337C2.67033 14.9919 2.03445 14.7285 1.56561 14.2597C1.09677 13.7909 0.833374 13.155 0.833374 12.4919V8.32528C0.833374 7.66223 1.09677 7.02635 1.56561 6.55751C2.03445 6.08867 2.67033 5.82528 3.33337 5.82528H4.16671V0.825277ZM3.33337 7.49194C3.11236 7.49194 2.9004 7.57974 2.74412 7.73602C2.58784 7.8923 2.50004 8.10426 2.50004 8.32528V12.4919C2.50004 12.713 2.58784 12.9249 2.74412 13.0812C2.9004 13.2375 3.11236 13.3253 3.33337 13.3253H4.16671V10.8253C4.16671 10.365 4.5398 9.99194 5.00004 9.99194H15C15.4603 9.99194 15.8334 10.365 15.8334 10.8253V13.3253H16.6667C16.8877 13.3253 17.0997 13.2375 17.256 13.0812C17.4122 12.9249 17.5 12.713 17.5 12.4919V8.32528C17.5 8.10426 17.4122 7.8923 17.256 7.73602C17.0997 7.57974 16.8877 7.49194 16.6667 7.49194H3.33337ZM14.1667 5.82528H5.83337V1.65861H14.1667V5.82528ZM14.1667 11.6586H5.83337V16.6586H14.1667V11.6586Z" fill="currentColor"/>
</svg>
