<svg xmlns="http://www.w3.org/2000/svg" width="27" height="27" fill="none"><path fill="currentColor" fill-rule="evenodd" d="M12.842 3.267a1.815 1.815 0 0 0 0 3.63h1.815a1.815 1.815 0 1 0 0-3.63zM10.018 2.26a4 4 0 0 1 2.823-1.17h1.816a3.99 3.99 0 0 1 3.842 2.904h.877a3.993 3.993 0 0 1 3.994 3.994v13.07a3.994 3.994 0 0 1-3.994 3.993H8.122a3.994 3.994 0 0 1-3.994-3.993V7.987a3.994 3.994 0 0 1 3.994-3.994h.877a4 4 0 0 1 1.019-1.734M8.999 6.172h-.877a1.815 1.815 0 0 0-1.815 1.815v13.07a1.815 1.815 0 0 0 1.815 1.815h11.254a1.815 1.815 0 0 0 1.816-1.815V7.987a1.815 1.815 0 0 0-1.816-1.815H18.5a3.99 3.99 0 0 1-3.842 2.904h-1.815A3.99 3.99 0 0 1 9 6.172" clip-rule="evenodd"/></svg>