<svg xmlns="http://www.w3.org/2000/svg" width="21" height="20" fill="none"><path fill="currentColor" fill-rule="evenodd" d="M9.441 2.5a1.389 1.389 0 1 0 0 2.778h1.389a1.39 1.39 0 0 0 0-2.778zm-2.16-.772A3.06 3.06 0 0 1 9.44.833h1.389a3.055 3.055 0 0 1 2.94 2.223h.671a3.055 3.055 0 0 1 3.056 3.055v10a3.056 3.056 0 0 1-3.056 3.056H5.83a3.055 3.055 0 0 1-3.056-3.056v-10A3.056 3.056 0 0 1 5.83 3.056h.671c.141-.498.408-.956.78-1.328M6.5 4.722h-.67a1.39 1.39 0 0 0-1.389 1.39v10A1.39 1.39 0 0 0 5.83 17.5h8.611a1.39 1.39 0 0 0 1.389-1.389v-10a1.39 1.39 0 0 0-1.389-1.389h-.671a3.055 3.055 0 0 1-2.94 2.222H9.441a3.056 3.056 0 0 1-2.94-2.222" clip-rule="evenodd"/><path fill="currentColor" d="M13.726 9.81c.3.3.3.787 0 1.087L9.624 15c-.3.3-.788.3-1.088 0l-2.051-2.051a.77.77 0 1 1 1.087-1.088l1.508 1.507 3.558-3.558c.3-.3.788-.3 1.088 0"/></svg>