<svg xmlns="http://www.w3.org/2000/svg" width="21" height="20" fill="none"><path fill="currentColor" fill-rule="evenodd" d="M9.441 2.5a1.389 1.389 0 1 0 0 2.778h1.389a1.39 1.39 0 0 0 0-2.778zm-2.16-.772A3.06 3.06 0 0 1 9.44.833h1.389a3.055 3.055 0 0 1 2.94 2.223h.671a3.055 3.055 0 0 1 3.056 3.055v10a3.056 3.056 0 0 1-3.056 3.056H5.83a3.055 3.055 0 0 1-3.056-3.056v-10A3.056 3.056 0 0 1 5.83 3.056h.671c.141-.498.408-.956.78-1.328M6.5 4.722h-.67a1.39 1.39 0 0 0-1.389 1.39v10A1.39 1.39 0 0 0 5.83 17.5h8.611a1.39 1.39 0 0 0 1.389-1.389v-10a1.39 1.39 0 0 0-1.389-1.389h-.671a3.055 3.055 0 0 1-2.94 2.222H9.441a3.056 3.056 0 0 1-2.94-2.222" clip-rule="evenodd"/><path fill="currentColor" fill-rule="evenodd" d="M9.527 10.831a.5.5 0 0 1-.228-.973q.346-.08.699-.08h-.001c1.172 0 2.059.669 2.621 1.269.43.458.703.907.819 1.112.102.182.163.377.056.577a5.7 5.7 0 0 1-.658.972.5.5 0 0 1-.765-.644q.225-.267.406-.564a5 5 0 0 0-.587-.77c-.606-.645-1.463-1.11-2.362-.899m-1.21.697q-.467.431-.8.973l.048.075c.123.19.305.443.54.693.478.51 1.12.953 1.892.953.335 0 .612-.05.845-.17l.727.728c-.477.335-1.025.442-1.572.442-1.172 0-2.06-.669-2.622-1.269a6 6 0 0 1-.863-1.194l-.012-.024-.004-.007-.001-.003a.5.5 0 0 1 .006-.461 5.6 5.6 0 0 1 1.108-1.444zm2.201 2.21a1.335 1.335 0 0 1-1.875-1.24q.005-.272.115-.52z" clip-rule="evenodd"/><path fill="currentColor" fill-rule="evenodd" d="M6.588 9.09a.5.5 0 0 1 .707 0l6.11 6.112a.5.5 0 1 1-.706.707l-1.13-1.129-.727-.727-2.525-2.526-.708-.707-1.021-1.022a.5.5 0 0 1 0-.707" clip-rule="evenodd"/></svg>