<svg xmlns="http://www.w3.org/2000/svg" width="21" height="20" fill="none"><path fill="currentColor" fill-rule="evenodd" d="M9.441 2.5a1.389 1.389 0 1 0 0 2.778h1.389a1.39 1.39 0 0 0 0-2.778zm-2.16-.772A3.06 3.06 0 0 1 9.44.833h1.389a3.055 3.055 0 0 1 2.94 2.223h.671a3.055 3.055 0 0 1 3.056 3.055v10a3.056 3.056 0 0 1-3.056 3.056H5.83a3.055 3.055 0 0 1-3.056-3.056v-10A3.056 3.056 0 0 1 5.83 3.056h.671c.141-.498.408-.956.78-1.328M6.5 4.722h-.67a1.39 1.39 0 0 0-1.389 1.39v10A1.39 1.39 0 0 0 5.83 17.5h8.611a1.39 1.39 0 0 0 1.389-1.389v-10a1.39 1.39 0 0 0-1.389-1.389h-.671a3.055 3.055 0 0 1-2.94 2.222H9.441a3.056 3.056 0 0 1-2.94-2.222m-.115 6.111c0-.46.373-.833.833-.833h5.833a.833.833 0 0 1 0 1.667H7.22a.833.833 0 0 1-.833-.834m0 2.778c0-.46.373-.833.833-.833h5.833a.833.833 0 0 1 0 1.666H7.22a.833.833 0 0 1-.833-.833" clip-rule="evenodd"/></svg>