<svg xmlns="http://www.w3.org/2000/svg" fill="none" viewBox="0 0 34 34"><g clip-path="url(#a)"><path fill="#7D7A70" d="M17 34c9.389 0 17-7.611 17-17S26.389 0 17 0 0 7.611 0 17s7.611 17 17 17"/><path fill="#8C897D" d="M6.564 3.541c7.454-5.74 18.15-4.356 23.895 3.097 5.744 7.453 4.356 18.15-3.097 23.895"/><g fill="#fff" opacity=".06" style="mix-blend-mode:overlay"><path d="M5.969 26.1q.216.265.45.518a2 2 0 0 0-.074-.191.6.6 0 0 0-.376-.327m25.317-9.615a2 2 0 0 0-.3.504s-.546 1.404-.78 1.955a.054.054 0 0 1-.082-.028c-.046-.136-.349-1.126-.441-1.335a.61.61 0 0 0-.415-.341.57.57 0 0 0-.46.095l-.017.014c-.196.166-.305.406-.39.6 0 0-.57 1.466-.793 1.99-.027.013-.065.002-.076-.03-.047-.137-.35-1.126-.445-1.336a.61.61 0 0 0-.414-.34.57.57 0 0 0-.46.095l-.017.013c-.196.166-.305.406-.39.6 0 0-.553 1.428-.785 1.968-.027.011-.063.003-.074-.03-.046-.136-.349-1.126-.444-1.336a.61.61 0 0 0-.414-.34.57.57 0 0 0-.461.095l-.016.014c-.197.166-.306.406-.39.6 0 0-.57 1.466-.794 1.99-.027.013-.065.002-.076-.03-.046-.137-.349-1.126-.444-1.336a.61.61 0 0 0-.415-.341.57.57 0 0 0-.46.095l-.017.014c-.196.166-.305.406-.39.6 0 0-.545 1.404-.78 1.954a.052.052 0 0 1-.081-.027c-.046-.136-.349-1.126-.444-1.336a.61.61 0 0 0-.415-.34.57.57 0 0 0-.46.095l-.017.014c-.196.166-.305.406-.39.6 0 0-.57 1.466-.793 1.99-.027.013-.065.002-.076-.03-.047-.137-.35-1.127-.445-1.337a.61.61 0 0 0-.414-.34.57.57 0 0 0-.46.095l-.012.003c-.196.166-.305.406-.39.6 0 0-.575 1.48-.795 1.995a.054.054 0 0 1-.09-.019c-.047-.136-.35-1.126-.445-1.336a.61.61 0 0 0-.414-.34.57.57 0 0 0-.46.095l-.017.014c-.197.166-.306.406-.39.6 0 0-.57 1.466-.793 1.99-.028.013-.066.002-.077-.03-.046-.137-.349-1.126-.444-1.336a.61.61 0 0 0-.414-.341.57.57 0 0 0-.461.095l-.016.014c-.197.166-.306.406-.39.6 0 0-.545 1.404-.78 1.954a.053.053 0 0 1-.082-.027c-.046-.136-.349-1.126-.441-1.336a.61.61 0 0 0-.415-.34.57.57 0 0 0-.46.095l-.017.013c-.196.167-.305.407-.39.6 0 0-.33.848-.586 1.483.107.101.21.205.32.303.168-.406.446-1.069.58-1.41q.01-.03.008-.054c.2-.488.254-.594.434-.597.147-.003.212.163.24.245.1.295.286.924.373 1.183.063.18.207.311.376.322a.4.4 0 0 0 .303-.125.22.22 0 0 0 .098-.101c.024-.055.144-.352.272-.674.167-.398.377-.905.488-1.188.006-.011.003-.025.006-.038.193-.477.248-.581.428-.587.147-.002.213.164.24.246.1.294.286.924.373 1.183.063.18.207.31.376.322a.42.42 0 0 0 .352-.183.2.2 0 0 0 .057-.07c.017-.036.071-.173.142-.347.166-.395.469-1.123.614-1.483q.01-.03.008-.055c.199-.488.253-.594.433-.597.147-.002.213.164.24.246.1.294.286.924.373 1.183.063.18.208.31.377.322a.42.42 0 0 0 .36-.197.2.2 0 0 0 .062-.079c.03-.068.213-.523.376-.927.137-.327.278-.67.363-.886q.004-.01.003-.021c.218-.538.267-.646.455-.652.147-.003.213.164.24.245.1.295.286.924.373 1.183.063.18.208.311.377.322a.42.42 0 0 0 .351-.182.2.2 0 0 0 .058-.071c.016-.036.07-.172.141-.347.166-.395.47-1.123.614-1.483q.01-.03.008-.054c.199-.488.253-.594.433-.597.148-.003.213.163.24.245.101.295.286.924.374 1.183.062.18.207.311.376.322a.4.4 0 0 0 .302-.125.22.22 0 0 0 .099-.101c.024-.055.144-.352.272-.674.166-.398.376-.905.49-1.188.006-.011.004-.025.006-.038.194-.477.248-.581.428-.586.148-.003.213.163.24.245.101.294.287.924.374 1.183.062.18.207.31.376.322a.42.42 0 0 0 .352-.183.2.2 0 0 0 .057-.07c.016-.036.07-.172.142-.347.166-.395.468-1.123.613-1.483q.01-.03.008-.055c.2-.488.254-.594.434-.596.147-.003.212.163.24.245.1.294.286.924.373 1.183.063.18.207.31.376.322a.4.4 0 0 0 .327-.15.2.2 0 0 0 .071-.085c.011-.024.044-.103.087-.212.134-.32.513-1.224.68-1.639.007-.022.007-.044.01-.063.188-.46.243-.561.42-.567.147-.002.213.164.24.246.1.294.286.924.373 1.183.063.18.207.31.377.322a.41.41 0 0 0 .351-.183.2.2 0 0 0 .057-.071c.017-.035.071-.172.142-.346.166-.396.47-1.123.614-1.483q.01-.03.008-.055c.199-.488.253-.594.433-.597.147-.002.213.164.24.246.1.294.286.924.374 1.183.062.18.207.31.376.321a.4.4 0 0 0 .302-.125.22.22 0 0 0 .098-.1c.025-.055.145-.352.273-.674.155-.374.352-.842.466-1.134.003-.131.011-.26.011-.393-.003-.19-.008-.36-.014-.531M8.524 27.605a.57.57 0 0 0-.46.095l-.017.014a1 1 0 0 0-.215.261q.159.133.327.262c.082-.153.145-.193.256-.199.148-.003.213.164.24.245.036.107.085.26.134.423q.256.178.52.349c-.108-.344-.3-.949-.37-1.11a.6.6 0 0 0-.415-.34"/><path d="M30.205 21.452c-.027.019-.071.01-.082-.028-.046-.136-.349-1.125-.442-1.335a.61.61 0 0 0-.414-.341.57.57 0 0 0-.46.095l-.017.014c-.196.166-.305.406-.39.6 0 0-.57 1.466-.793 1.99-.027.013-.066.003-.076-.03-.047-.137-.35-1.126-.445-1.336a.61.61 0 0 0-.414-.34.57.57 0 0 0-.46.095l-.017.013c-.197.166-.306.406-.39.6 0 0-.553 1.428-.785 1.968-.027.011-.063.003-.074-.03-.046-.136-.349-1.126-.444-1.335a.61.61 0 0 0-.415-.341.57.57 0 0 0-.46.095l-.017.014c-.196.166-.305.406-.39.6 0 0-.57 1.466-.793 1.99-.027.013-.065.002-.076-.03-.046-.137-.349-1.126-.444-1.336a.61.61 0 0 0-.415-.341.57.57 0 0 0-.46.095l-.017.014c-.196.166-.305.406-.39.6 0 0-.545 1.404-.78 1.954a.052.052 0 0 1-.081-.027c-.046-.136-.35-1.126-.444-1.336a.61.61 0 0 0-.415-.34.57.57 0 0 0-.46.095l-.017.014c-.196.166-.305.406-.39.6 0 0-.57 1.466-.793 1.99-.027.013-.066.002-.076-.03-.047-.137-.35-1.126-.445-1.336a.61.61 0 0 0-.414-.341.57.57 0 0 0-.46.095l-.012.003c-.196.166-.305.406-.39.6 0 0-.575 1.48-.796 1.995a.054.054 0 0 1-.09-.019c-.046-.136-.348-1.126-.444-1.336a.61.61 0 0 0-.414-.34.57.57 0 0 0-.461.095l-.016.014c-.197.166-.306.406-.39.6 0 0-.57 1.466-.793 1.99-.028.013-.066.002-.077-.03-.046-.137-.349-1.126-.444-1.336a.61.61 0 0 0-.415-.341.57.57 0 0 0-.46.095l-.017.014c-.196.166-.305.406-.39.6 0 0-.474 1.221-.727 1.832q.176.108.357.21c.052-.129.128-.314.204-.508.167-.398.377-.905.488-1.188.006-.011.003-.025.006-.038.193-.477.248-.58.428-.586.147-.003.212.163.24.245.1.294.286.924.373 1.183.063.18.207.31.376.322a.42.42 0 0 0 .352-.183.2.2 0 0 0 .057-.07c.017-.036.071-.172.142-.347.166-.395.469-1.123.613-1.483q.01-.03.008-.054c.2-.488.254-.595.434-.598.147-.002.213.164.24.246.1.294.286.924.373 1.183.063.18.207.31.377.322a.42.42 0 0 0 .36-.197.2.2 0 0 0 .062-.079c.03-.068.213-.523.376-.926.137-.328.278-.671.363-.887q.004-.01.003-.021c.218-.537.267-.646.455-.652.147-.003.212.164.24.246.1.294.286.924.373 1.183.063.18.207.31.376.321a.42.42 0 0 0 .352-.182.2.2 0 0 0 .057-.071c.017-.036.071-.172.142-.346.166-.396.469-1.124.613-1.483.009-.02.009-.039.009-.055.199-.488.253-.594.433-.597.147-.003.213.164.24.245.1.295.286.924.373 1.183.063.18.208.311.377.322a.4.4 0 0 0 .302-.125.22.22 0 0 0 .098-.101c.025-.055.145-.352.273-.673.166-.398.376-.905.49-1.189.006-.01.003-.024.006-.038.194-.477.248-.58.428-.586.147-.003.213.163.24.245.1.294.286.924.373 1.183.063.18.208.311.377.322a.41.41 0 0 0 .351-.183.2.2 0 0 0 .058-.07c.016-.036.07-.17.141-.347.167-.395.47-1.123.614-1.483q.01-.03.008-.054c.199-.488.253-.595.433-.597.148-.003.213.163.24.245.101.294.287.924.374 1.183.063.18.207.31.376.322a.4.4 0 0 0 .327-.15.2.2 0 0 0 .071-.085c.01-.024.044-.103.087-.212.134-.32.513-1.224.679-1.639.008-.021.008-.043.01-.062.189-.461.244-.562.42-.567.148-.003.213.163.24.245.102.294.287.924.374 1.183.063.18.207.31.376.322a.41.41 0 0 0 .352-.183.2.2 0 0 0 .057-.07c.017-.036.071-.173.142-.347.166-.395.469-1.123.613-1.483.008-.02.008-.038.008-.055.2-.488.254-.594.434-.597.147-.002.213.164.24.246.1.294.286.924.373 1.183.063.18.208.31.377.322a.4.4 0 0 0 .302-.126l.025-.016a14 14 0 0 0 .654-2.576c-.055.098-.1.196-.142.286-.002-.022-.548 1.382-.782 1.933M5.4 22.07c.188-.46.243-.561.42-.566.147-.003.213.163.24.245.1.294.286.924.373 1.183.063.18.208.31.377.322a.41.41 0 0 0 .351-.183.2.2 0 0 0 .058-.07c.016-.036.07-.173.141-.347.167-.395.47-1.123.614-1.483q.01-.03.008-.055c.199-.488.253-.594.433-.597.148-.002.213.164.24.246.101.294.286.924.374 1.183.062.18.207.31.376.322a.4.4 0 0 0 .303-.126.22.22 0 0 0 .098-.1c.024-.055.144-.352.272-.674.167-.398.377-.905.488-1.189.006-.01.003-.024.006-.038.193-.477.248-.58.428-.586.147-.003.212.164.24.245.1.295.286.925.373 1.184.063.18.207.31.376.321a.42.42 0 0 0 .352-.182.2.2 0 0 0 .057-.071c.017-.036.071-.172.142-.346.166-.396.469-1.124.613-1.483q.01-.03.008-.055c.2-.488.254-.594.434-.597.147-.003.213.164.24.245.1.295.286.924.373 1.183.063.18.207.311.377.322a.42.42 0 0 0 .36-.196.2.2 0 0 0 .062-.08c.03-.067.213-.523.376-.926.137-.327.278-.67.363-.886q.004-.011.003-.022c.218-.537.267-.646.455-.651.147-.003.212.163.24.245.1.294.286.924.373 1.183.063.18.207.31.376.322a.42.42 0 0 0 .352-.183.2.2 0 0 0 .057-.07c.017-.036.071-.172.142-.347.166-.395.469-1.123.613-1.483.009-.02.009-.038.009-.055.199-.488.253-.594.433-.596.147-.003.213.163.24.245.1.294.286.924.373 1.183.063.18.208.31.377.322a.4.4 0 0 0 .302-.126.22.22 0 0 0 .098-.1c.025-.055.145-.352.273-.674.166-.398.376-.905.49-1.189.006-.01.003-.024.006-.038.194-.477.248-.58.428-.586.147-.002.213.164.24.245.1.295.286.925.373 1.184.063.18.208.31.377.321a.42.42 0 0 0 .351-.182.2.2 0 0 0 .058-.071c.016-.036.07-.172.141-.346.167-.396.47-1.124.614-1.483q.01-.03.008-.055c.199-.488.254-.594.433-.597.148-.003.213.164.24.245.101.295.287.925.374 1.184.063.18.207.31.376.321a.4.4 0 0 0 .327-.15.2.2 0 0 0 .071-.084c.01-.025.044-.104.087-.213.134-.319.513-1.224.679-1.638.008-.022.008-.044.01-.063.189-.46.244-.562.42-.567.148-.003.213.164.24.245.102.295.287.925.374 1.184.063.18.207.31.376.321a.41.41 0 0 0 .352-.183.2.2 0 0 0 .057-.07c.017-.036.071-.172.142-.347.166-.395.469-1.123.613-1.483.008-.019.008-.038.008-.054.2-.488.254-.594.434-.597.147-.003.213.163.24.245.1.295.286.924.373 1.183.063.18.208.311.377.322a.4.4 0 0 0 .302-.125.22.22 0 0 0 .098-.101c.025-.055.145-.352.273-.674l.03-.07a18 18 0 0 0-.183-.65c-.16.41-.346.873-.46 1.14-.028.02-.071.011-.082-.027-.047-.136-.35-1.126-.442-1.336a.61.61 0 0 0-.414-.34.57.57 0 0 0-.46.095l-.017.014c-.197.166-.306.406-.39.6 0 0-.57 1.466-.793 1.99-.028.013-.066.002-.077-.03-.046-.137-.349-1.127-.444-1.336a.61.61 0 0 0-.415-.341.57.57 0 0 0-.46.095l-.017.014c-.196.166-.305.406-.39.6 0 0-.553 1.428-.784 1.968-.028.01-.063.003-.074-.03-.047-.136-.349-1.126-.445-1.336a.61.61 0 0 0-.414-.34.57.57 0 0 0-.46.095l-.017.013c-.196.167-.305.406-.39.6 0 0-.57 1.467-.793 1.99-.027.014-.066.003-.076-.03-.047-.136-.35-1.126-.445-1.336a.61.61 0 0 0-.414-.34.57.57 0 0 0-.46.095l-.017.014c-.196.166-.306.406-.39.6 0 0-.545 1.403-.78 1.954-.027.019-.07.01-.081-.027-.047-.137-.35-1.126-.445-1.336a.61.61 0 0 0-.414-.34.57.57 0 0 0-.46.095l-.017.013c-.197.167-.306.406-.39.6 0 0-.57 1.467-.793 1.99-.028.014-.066.003-.077-.03-.046-.136-.349-1.126-.444-1.336a.61.61 0 0 0-.414-.34.57.57 0 0 0-.461.095l-.017-.022c-.196.166-.305.406-.39.6 0 0-.575 1.48-.795 1.995a.054.054 0 0 1-.09-.019c-.047-.136-.35-1.126-.445-1.336a.61.61 0 0 0-.414-.34.57.57 0 0 0-.46.095l-.017.014c-.196.166-.305.406-.39.6 0 0-.57 1.466-.793 1.99-.027.013-.066.002-.077-.03-.046-.137-.349-1.126-.444-1.336a.61.61 0 0 0-.414-.341.57.57 0 0 0-.461.095l-.016.014c-.197.166-.306.406-.39.6 0 0-.545 1.404-.78 1.954a.053.053 0 0 1-.082-.027c-.046-.136-.349-1.126-.441-1.336a.61.61 0 0 0-.415-.34.57.57 0 0 0-.46.095l-.017.014c-.196.166-.305.406-.39.6 0 0-.57 1.466-.793 1.99-.027.013-.065.002-.076-.03-.046-.137-.35-1.126-.445-1.336a.61.61 0 0 0-.414-.341.57.57 0 0 0-.46.095l-.017.014c-.196.166-.305.406-.39.6 0 0-.482 1.245-.736 1.85q.116.219.235.431a.2.2 0 0 0 .06-.073l.087-.213c.133-.319.512-1.224.679-1.638a.2.2 0 0 0 .013-.068m-1.68.242q.071.179.145.355a4 4 0 0 0-.106-.29c-.008-.024-.025-.043-.038-.065"/><path d="M7.22 25.503c.016-.036.07-.172.142-.347.166-.395.469-1.123.613-1.483q.01-.03.008-.054c.2-.488.254-.594.434-.597.147-.003.212.163.24.245.1.295.286.924.373 1.183.063.18.207.311.376.322a.4.4 0 0 0 .303-.125.22.22 0 0 0 .098-.101c.025-.055.145-.352.273-.674.166-.398.376-.905.488-1.188.005-.011.002-.025.005-.038.194-.477.248-.581.428-.586.147-.003.213.163.24.245.1.294.286.924.373 1.183.063.18.208.31.377.322a.42.42 0 0 0 .351-.183.2.2 0 0 0 .058-.07c.016-.036.07-.172.141-.347.167-.395.47-1.123.614-1.483.008-.02.008-.038.008-.055.199-.488.253-.594.433-.597.148-.002.213.164.24.246.101.294.287.924.374 1.183.062.18.207.31.376.322a.42.42 0 0 0 .36-.197.2.2 0 0 0 .063-.079c.03-.068.212-.523.376-.927.136-.327.278-.67.362-.886q.004-.01.003-.021c.218-.537.267-.646.455-.652.147-.003.213.164.24.245.101.295.286.925.374 1.183.062.18.207.311.376.322a.42.42 0 0 0 .352-.182.2.2 0 0 0 .057-.071c.016-.036.07-.172.142-.346.166-.396.468-1.124.613-1.483q.01-.03.008-.055c.199-.488.254-.594.433-.597.148-.003.213.164.24.245.101.295.287.924.374 1.183.063.18.207.311.376.322a.4.4 0 0 0 .303-.125.22.22 0 0 0 .098-.101c.024-.055.144-.352.272-.674.167-.398.377-.905.491-1.188.006-.011.003-.025.006-.038.193-.477.248-.58.428-.586.147-.003.212.163.24.245.1.294.286.924.373 1.183.063.18.207.31.376.322a.41.41 0 0 0 .352-.183.2.2 0 0 0 .057-.07c.016-.036.07-.17.142-.347.166-.395.469-1.123.613-1.483q.01-.03.008-.055c.2-.488.254-.594.434-.596.147-.003.212.163.24.245.1.294.286.924.373 1.183.063.18.207.31.376.322a.4.4 0 0 0 .327-.15.2.2 0 0 0 .071-.085 166 166 0 0 0 .766-1.851c.009-.022.009-.043.011-.063.188-.46.243-.561.42-.566.147-.003.213.163.24.245.1.294.286.924.373 1.183.063.18.208.31.377.322a.41.41 0 0 0 .351-.183.3.3 0 0 0 .058-.07c.016-.036.07-.173.141-.347.167-.395.47-1.123.614-1.483.008-.02.008-.038.008-.055.199-.488.254-.594.433-.597.148-.002.213.164.24.246.101.294.287.924.374 1.183.063.18.207.31.376.322a.4.4 0 0 0 .303-.126.22.22 0 0 0 .098-.1c.024-.055.144-.352.272-.674.112-.27.246-.592.355-.859a13 13 0 0 0-.128-.812l-.063.136s-.545 1.404-.78 1.955c-.027.019-.07.01-.081-.028-.047-.136-.35-1.125-.442-1.335a.61.61 0 0 0-.415-.341.57.57 0 0 0-.46.095l-.017.014c-.196.166-.305.406-.39.6 0 0-.57 1.466-.793 1.99-.027.013-.065.002-.076-.03-.046-.137-.349-1.126-.444-1.336a.61.61 0 0 0-.415-.34.57.57 0 0 0-.46.095l-.017.013c-.196.166-.305.406-.39.6 0 0-.553 1.428-.785 1.968-.027.011-.062.003-.073-.03-.047-.136-.35-1.126-.445-1.336a.61.61 0 0 0-.414-.34.57.57 0 0 0-.46.095l-.017.014c-.196.166-.305.406-.39.6 0 0-.57 1.466-.793 1.99-.028.013-.066.002-.077-.03-.046-.137-.349-1.126-.444-1.336a.61.61 0 0 0-.414-.341.57.57 0 0 0-.461.095l-.017.014c-.196.166-.305.406-.39.6 0 0-.545 1.404-.779 1.954a.053.053 0 0 1-.082-.027c-.046-.136-.349-1.126-.444-1.336a.61.61 0 0 0-.415-.34.57.57 0 0 0-.46.095l-.017.014c-.196.166-.305.406-.39.6 0 0-.57 1.466-.793 1.99-.027.013-.065.002-.076-.03-.046-.137-.349-1.126-.444-1.336a.61.61 0 0 0-.415-.341.57.57 0 0 0-.46.095l-.014-.016c-.196.166-.305.406-.39.6 0 0-.575 1.48-.796 1.995a.054.054 0 0 1-.09-.019c-.046-.136-.349-1.126-.444-1.336a.61.61 0 0 0-.415-.34.57.57 0 0 0-.46.095l-.017.014c-.196.166-.305.406-.39.6 0 0-.57 1.466-.793 1.99-.027.013-.065.002-.076-.03-.046-.137-.35-1.126-.444-1.336a.61.61 0 0 0-.415-.341.57.57 0 0 0-.46.095l-.017.014c-.196.166-.305.406-.39.6 0 0-.545 1.404-.78 1.954a.052.052 0 0 1-.081-.027c-.047-.136-.35-1.126-.442-1.336a.61.61 0 0 0-.414-.34.57.57 0 0 0-.46.095l-.017.014c-.197.166-.306.406-.39.6 0 0-.57 1.466-.793 1.99-.028.013-.066.002-.077-.03-.046-.137-.349-1.127-.444-1.336a.61.61 0 0 0-.414-.341.57.57 0 0 0-.461.095l-.017.014c-.196.166-.305.406-.39.6l-.141.365q.14.221.286.439l.183-.447c.008-.022.008-.044.01-.063.189-.46.243-.562.42-.567.148-.003.213.163.24.245.101.295.287.924.374 1.183.063.18.207.311.376.322a.41.41 0 0 0 .352-.183.3.3 0 0 0 .057-.081m16.41 3.917-.017.014c-.128.109-.218.25-.289.39q.44-.218.862-.464a.58.58 0 0 0-.556.06m-2.596.992-.016.014a1.2 1.2 0 0 0-.284.379q.531-.144 1.044-.325a.6.6 0 0 0-.283-.16.56.56 0 0 0-.46.092m-9.922-1.164a.57.57 0 0 0-.461.096l-.016.014c-.107.09-.188.204-.251.318q.183.098.37.191c.077-.139.14-.18.249-.182.147-.003.212.163.24.245.019.052.038.12.062.19q.233.102.47.194a10 10 0 0 0-.249-.72.6.6 0 0 0-.414-.346m18.151-6.897a.57.57 0 0 0-.46.096l-.017.013c-.196.167-.305.406-.39.6 0 0-.57 1.467-.793 1.99-.027.014-.065.003-.076-.03-.046-.136-.35-1.126-.444-1.336a.61.61 0 0 0-.415-.34.57.57 0 0 0-.46.095l-.017.014c-.196.166-.305.406-.39.6 0 0-.553 1.428-.785 1.968-.027.01-.063.002-.073-.03-.047-.137-.35-1.126-.445-1.336a.61.61 0 0 0-.414-.341.57.57 0 0 0-.461.095l-.016.014c-.197.166-.306.406-.39.6 0 0-.57 1.466-.793 1.99-.028.013-.066.003-.077-.03-.046-.136-.349-1.126-.444-1.336a.61.61 0 0 0-.415-.34.57.57 0 0 0-.46.095l-.011.005c-.196.166-.305.406-.39.6 0 0-.545 1.404-.78 1.954-.027.02-.07.012-.081-.027-.047-.136-.35-1.126-.445-1.335a.61.61 0 0 0-.414-.341.57.57 0 0 0-.46.095l-.017.014c-.197.166-.306.406-.39.6 0 0-.57 1.466-.793 1.99-.028.013-.066.002-.077-.03-.046-.137-.349-1.126-.444-1.336a.61.61 0 0 0-.414-.341.57.57 0 0 0-.461.095l-.016.014c-.197.166-.306.406-.39.6 0 0-.575 1.48-.796 1.995a.054.054 0 0 1-.09-.019c-.047-.136-.35-1.126-.445-1.335a.61.61 0 0 0-.414-.341.57.57 0 0 0-.46.095l-.017.014c-.196.166-.305.406-.39.6 0 0-.34.877-.6 1.518q.194.07.39.13c.17-.405.404-.967.524-1.272q.01-.03.008-.055c.199-.488.253-.594.433-.597.147-.003.213.164.24.245.101.295.286.925.374 1.184.062.18.207.31.376.321a.42.42 0 0 0 .36-.196.2.2 0 0 0 .062-.079c.03-.068.213-.523.377-.927.136-.327.278-.67.362-.886q.004-.011.003-.022c.218-.537.267-.646.455-.651.147-.003.213.163.24.245.1.295.286.924.373 1.183.063.18.208.311.377.322a.42.42 0 0 0 .351-.183.2.2 0 0 0 .058-.07c.016-.036.07-.172.141-.347.167-.395.47-1.123.614-1.483q.01-.03.008-.054c.199-.488.253-.595.433-.597.148-.003.213.163.24.245.101.294.287.924.374 1.183.063.18.207.31.376.322a.4.4 0 0 0 .303-.126.22.22 0 0 0 .098-.1c.024-.055.144-.352.272-.674.167-.398.377-.905.491-1.188.006-.011.003-.025.006-.039.193-.477.248-.58.428-.586.147-.002.212.164.24.246.1.294.286.924.373 1.183.063.18.207.31.376.322a.42.42 0 0 0 .352-.183.3.3 0 0 0 .057-.071c.016-.036.07-.172.142-.346.166-.396.469-1.123.613-1.483.008-.02.008-.038.008-.055.2-.488.254-.594.434-.597.147-.003.212.164.24.245.1.295.286.925.373 1.184.063.18.207.31.376.321a.4.4 0 0 0 .327-.15.2.2 0 0 0 .071-.084l.088-.213c.133-.319.512-1.224.678-1.638.008-.022.008-.044.011-.063.188-.46.243-.561.42-.567.147-.003.213.164.24.245.1.295.286.925.373 1.184.063.18.208.31.377.321a.41.41 0 0 0 .351-.182.3.3 0 0 0 .058-.071c.016-.036.07-.172.141-.346.167-.396.47-1.124.614-1.483q.01-.03.008-.055c.199-.488.253-.594.433-.597.147-.003.213.164.24.245.058.167.142.445.221.698q.13-.244.254-.496a7 7 0 0 0-.189-.54.6.6 0 0 0-.417-.357"/><path d="M16.317 29.758a.57.57 0 0 0-.46.096l-.017.013c-.197.166-.306.406-.39.6l-.278.714q.214.03.428.052l.15-.368.002-.022c.219-.537.268-.646.456-.651.147-.003.212.163.24.245.068.202.177.564.27.856q.141.006.283.008l.13-.002c-.1-.317-.32-1.026-.397-1.197a.62.62 0 0 0-.417-.344m-2.612 1.009a.56.56 0 0 0-.385.052q.362.095.73.174a.6.6 0 0 0-.345-.226m15.083-5.799c-.197.167-.306.407-.39.6l-.046.12q.296-.388.567-.793a1 1 0 0 0-.115.063zm-2.116.884a.57.57 0 0 0-.461.095l-.016.014c-.197.166-.306.406-.39.6 0 0-.554 1.428-.785 1.968-.028.01-.063.003-.074-.03-.046-.136-.349-1.126-.444-1.336a.61.61 0 0 0-.415-.34.57.57 0 0 0-.46.095l-.017.013c-.196.166-.305.406-.39.6 0 0-.57 1.467-.793 1.99-.027.014-.065.003-.076-.03-.047-.136-.35-1.126-.445-1.336a.61.61 0 0 0-.414-.34.57.57 0 0 0-.46.095l-.017.014c-.196.166-.305.406-.39.6 0 0-.545 1.403-.78 1.954-.027.019-.07.01-.081-.027-.047-.137-.35-1.126-.445-1.336a.61.61 0 0 0-.414-.34.57.57 0 0 0-.46.095l-.017.013c-.196.166-.305.406-.39.6 0 0-.466 1.2-.72 1.816q.225-.003.45-.014c.17-.406.45-1.08.589-1.423q.01-.03.008-.055c.2-.488.254-.594.434-.597.147-.003.212.164.24.246.1.294.286.924.373 1.183.063.18.207.31.376.321a.4.4 0 0 0 .303-.125.22.22 0 0 0 .098-.1c.024-.055.144-.352.273-.674.166-.398.376-.905.49-1.189.006-.01.003-.024.006-.038.193-.477.248-.58.428-.586.147-.003.212.163.24.245.1.295.286.925.373 1.183.063.18.207.311.376.322a.42.42 0 0 0 .352-.183.2.2 0 0 0 .057-.07c.017-.036.071-.172.142-.347.166-.395.469-1.123.613-1.483.008-.019.008-.038.008-.054.2-.488.254-.594.434-.597.147-.003.213.163.24.245.1.295.286.924.373 1.183.044.128.131.23.24.281q.323-.213.638-.441c.145-.344.505-1.203.665-1.606.008-.022.008-.044.011-.063.188-.46.243-.561.42-.567.147-.003.213.164.24.245.055.161.136.426.213.674q.157-.156.31-.317c-.092-.291-.19-.588-.237-.695a.62.62 0 0 0-.422-.351M9.03 6.758c.062.18.206.31.375.322a.4.4 0 0 0 .303-.126.22.22 0 0 0 .098-.1c.025-.055.145-.352.273-.674.166-.398.376-.905.488-1.189.005-.01.002-.024.005-.038.194-.477.248-.58.428-.586.147-.003.213.164.24.245.1.295.286.925.373 1.184.063.18.208.31.377.321a.42.42 0 0 0 .351-.182.2.2 0 0 0 .058-.071c.016-.036.07-.172.141-.347.167-.395.47-1.123.614-1.483q.01-.03.008-.054c.199-.488.253-.594.433-.597.148-.003.213.164.24.245.101.295.286.924.374 1.183.062.18.207.311.376.322a.42.42 0 0 0 .36-.196.2.2 0 0 0 .063-.08c.03-.067.212-.523.376-.926.136-.327.278-.67.362-.886l.003-.022c.044-.109.082-.196.114-.273-.158.014-.316.025-.474.044-.15.387-.561 1.434-.741 1.851a.054.054 0 0 1-.09-.019c-.047-.136-.35-1.126-.445-1.336a.6.6 0 0 0-.212-.248q-.434.095-.854.216c-.092.13-.158.275-.215.398 0 0-.57 1.466-.793 1.99-.027.013-.066.002-.077-.03-.046-.137-.348-1.126-.444-1.336a.6.6 0 0 0-.376-.327q-.371.167-.73.354a3 3 0 0 0-.175.34s-.545 1.405-.78 1.955a.053.053 0 0 1-.082-.027c-.046-.136-.349-1.126-.441-1.336-.006-.013-.014-.021-.022-.035q-.167.115-.33.234c.033.05.055.101.065.14.107.288.292.92.382 1.18M19.79 3.13a.4.4 0 0 0 .266-.099q-.293-.063-.591-.114c.076.123.19.204.324.213M6.81 8.067a.41.41 0 0 0 .352-.183.2.2 0 0 0 .057-.071c.016-.035.07-.172.142-.346.166-.395.468-1.123.613-1.483q.01-.03.008-.055l.016-.038q-.35.285-.684.589a54 54 0 0 1-.45 1.112c-.027.014-.065.003-.076-.03-.019-.052-.07-.223-.136-.428q-.156.164-.308.33c.035.112.065.213.09.284.062.18.207.31.376.319M17.196 4.12a.42.42 0 0 0 .352-.184.2.2 0 0 0 .057-.07c.017-.036.071-.172.142-.347l.322-.771q-.222-.018-.442-.027c-.142.357-.289.72-.379.93-.027.013-.065.002-.076-.03-.03-.09-.172-.549-.292-.911q-.204.001-.403.01c.103.32.261.854.34 1.086.063.174.207.305.38.313"/><path d="M4.23 11.542a.4.4 0 0 0 .327-.15.2.2 0 0 0 .07-.084l.088-.213c.133-.319.512-1.224.678-1.638.009-.022.009-.044.011-.063.188-.46.243-.561.42-.567.147-.003.213.164.24.246.101.294.286.924.374 1.183.062.18.207.31.376.321a.41.41 0 0 0 .351-.182.2.2 0 0 0 .058-.071c.016-.036.07-.172.141-.346.167-.396.47-1.124.614-1.483q.01-.03.008-.055c.199-.488.254-.594.433-.597.148-.003.213.164.24.245.101.295.287.925.374 1.184.063.18.207.31.376.321a.4.4 0 0 0 .303-.125.22.22 0 0 0 .098-.101c.024-.055.144-.352.272-.673.167-.398.377-.905.488-1.189.006-.01.003-.024.006-.038.193-.477.248-.58.428-.586.147-.003.212.163.24.245.1.295.286.924.373 1.183.063.18.207.311.376.322a.42.42 0 0 0 .352-.183.2.2 0 0 0 .057-.07c.017-.036.071-.172.142-.347.166-.395.469-1.123.613-1.483.009-.019.009-.038.009-.054.199-.488.253-.595.433-.597.147-.003.213.163.24.245.1.294.286.924.373 1.183.063.18.208.31.377.322a.42.42 0 0 0 .36-.196.2.2 0 0 0 .062-.08c.03-.068.213-.523.376-.926.137-.328.278-.671.363-.886q.004-.012.003-.022c.218-.537.267-.646.455-.652.147-.002.213.164.24.246.1.294.286.924.373 1.183.063.18.207.31.377.321a.42.42 0 0 0 .351-.182.2.2 0 0 0 .057-.071c.017-.036.071-.172.142-.346.166-.396.47-1.123.614-1.483q.01-.03.008-.055c.199-.488.253-.594.433-.597.147-.003.213.164.24.245.101.295.286.925.374 1.184.062.18.207.31.376.321a.4.4 0 0 0 .302-.125.22.22 0 0 0 .099-.101c.024-.054.144-.352.272-.673.166-.398.376-.905.49-1.189.006-.01.004-.024.006-.038q.054-.133.096-.23-.205-.06-.41-.116c-.005.01-.01.024-.016.032 0 0-.545 1.404-.78 1.955a.052.052 0 0 1-.081-.027c-.046-.137-.349-1.126-.444-1.336a.61.61 0 0 0-.415-.34.57.57 0 0 0-.46.095l-.017.013c-.196.167-.305.406-.39.6 0 0-.57 1.467-.793 1.99-.027.014-.065.003-.076-.03-.047-.136-.35-1.126-.445-1.336a.61.61 0 0 0-.414-.34.57.57 0 0 0-.46.095l-.017.014c-.196.166-.305.406-.39.6 0 0-.575 1.48-.796 1.995a.054.054 0 0 1-.09-.02c-.046-.136-.349-1.125-.444-1.335a.61.61 0 0 0-.415-.34.57.57 0 0 0-.46.095l-.017.013c-.196.167-.305.406-.39.6 0 0-.57 1.467-.793 1.99-.027.014-.065.003-.076-.03-.046-.136-.35-1.126-.444-1.336a.61.61 0 0 0-.415-.34.57.57 0 0 0-.46.095l-.017.014c-.196.166-.305.406-.39.6 0 0-.545 1.403-.78 1.954-.027.019-.07.01-.081-.027-.047-.137-.35-1.126-.442-1.336a.61.61 0 0 0-.414-.34.57.57 0 0 0-.46.094l-.017.014c-.197.166-.306.406-.39.6 0 0-.57 1.467-.793 1.99-.028.014-.066.003-.077-.03-.046-.136-.349-1.126-.444-1.336a.61.61 0 0 0-.414-.34.55.55 0 0 0-.401.062q-.254.34-.485.7c-.101.262-.56 1.435-.764 1.914-.027.011-.062.003-.073-.03-.014-.035-.044-.136-.085-.264q-.123.255-.234.518c.07.128.193.226.34.234m18.148-6.864a.42.42 0 0 0 .351-.183.2.2 0 0 0 .057-.07c.017-.036.071-.172.142-.347.008-.022.022-.049.03-.073q-.186-.087-.373-.17c-.06.145-.112.276-.156.371-.027.014-.065.003-.076-.03l-.158-.496q-.23-.09-.463-.171c.095.302.204.67.267.853.062.177.207.308.379.316M12.265 3.506q-.144.05-.287.103l.011.003a.42.42 0 0 0 .276-.106M3.239 17.414c.147-.002.213.164.24.246.1.294.286.924.373 1.183.063.18.208.31.377.322a.4.4 0 0 0 .327-.15.2.2 0 0 0 .07-.085l.088-.212c.133-.32.512-1.225.679-1.639.008-.022.008-.044.01-.063.189-.46.243-.561.42-.567.148-.002.213.164.24.246.101.294.286.924.374 1.183.062.18.207.31.376.322a.41.41 0 0 0 .352-.183.2.2 0 0 0 .057-.071c.016-.036.07-.172.142-.346.166-.396.468-1.123.613-1.483q.01-.03.008-.055c.2-.488.254-.594.434-.597.147-.002.212.164.24.246.1.294.286.924.373 1.183.063.18.207.31.376.321a.4.4 0 0 0 .303-.125.22.22 0 0 0 .098-.1c.024-.055.144-.353.273-.674.166-.398.376-.905.487-1.189.006-.01.003-.024.006-.038.194-.477.248-.58.428-.586.147-.003.213.163.24.245.1.295.286.924.373 1.183.063.18.207.311.377.322a.42.42 0 0 0 .351-.183.2.2 0 0 0 .057-.07c.017-.036.071-.172.142-.347.167-.395.47-1.123.614-1.483q.01-.03.008-.054c.199-.488.253-.594.433-.597.147-.003.213.163.24.245.101.295.286.924.374 1.183.062.18.207.311.376.322a.42.42 0 0 0 .36-.196.2.2 0 0 0 .062-.08c.03-.068.213-.523.377-.926.136-.327.278-.67.362-.886q.004-.011.003-.022c.218-.537.267-.646.455-.652.147-.002.213.164.24.246.1.294.286.924.373 1.183.063.18.208.31.377.322a.42.42 0 0 0 .351-.183.2.2 0 0 0 .058-.071c.016-.035.07-.172.141-.346.167-.396.47-1.123.614-1.483.008-.02.008-.038.008-.055.199-.488.253-.594.433-.597.148-.002.213.164.24.246.101.294.286.924.374 1.183.062.18.207.31.376.321a.4.4 0 0 0 .302-.125.22.22 0 0 0 .099-.1c.024-.055.144-.353.272-.674.166-.398.377-.905.491-1.189.005-.01.003-.024.005-.038.194-.477.248-.58.428-.586.148-.003.213.164.24.245.101.295.287.924.374 1.183.063.18.207.311.376.322a.42.42 0 0 0 .352-.182.2.2 0 0 0 .057-.071c.016-.036.07-.172.142-.347.166-.395.468-1.123.613-1.483q.01-.03.008-.054c.2-.488.254-.594.434-.597.147-.003.212.163.24.245.1.295.286.924.373 1.183.063.18.207.311.376.322a.4.4 0 0 0 .327-.15.2.2 0 0 0 .071-.085l.087-.212c.134-.32.513-1.224.68-1.638.008-.022.008-.044.01-.063.188-.46.243-.562.42-.567.147-.003.213.163.24.245.1.295.286.924.373 1.183.063.18.208.311.377.322a.41.41 0 0 0 .351-.183.2.2 0 0 0 .058-.07c.016-.036.07-.17.141-.347.123-.292.316-.758.47-1.131a14 14 0 0 0-.303-.4c-.183.463-.508 1.291-.666 1.657-.027.013-.065.002-.076-.03-.046-.137-.349-1.126-.444-1.336a.61.61 0 0 0-.415-.34.57.57 0 0 0-.46.094l-.017.014c-.196.166-.305.406-.39.6 0 0-.553 1.428-.785 1.968-.027.011-.062.003-.073-.03-.047-.136-.35-1.126-.445-1.336a.61.61 0 0 0-.414-.34.57.57 0 0 0-.46.095l-.017.014c-.196.166-.305.406-.39.6 0 0-.57 1.466-.793 1.99-.027.013-.066.002-.077-.03-.046-.137-.348-1.126-.444-1.336a.61.61 0 0 0-.414-.341.57.57 0 0 0-.461.095l-.016-.016c-.197.166-.306.406-.39.6 0 0-.545 1.404-.78 1.954a.053.053 0 0 1-.082-.027c-.046-.136-.349-1.126-.444-1.336a.61.61 0 0 0-.414-.34.57.57 0 0 0-.461.095l-.016.013c-.197.167-.306.407-.39.6 0 0-.57 1.467-.794 1.99-.027.014-.065.003-.076-.03-.046-.136-.349-1.126-.444-1.336a.61.61 0 0 0-.415-.34.57.57 0 0 0-.46.095l-.017.014c-.196.166-.305.406-.39.6 0 0-.575 1.48-.796 1.995a.054.054 0 0 1-.09-.019c-.046-.136-.348-1.126-.444-1.336a.61.61 0 0 0-.414-.34.57.57 0 0 0-.46.095l-.017.014c-.197.166-.306.406-.39.6 0 0-.57 1.466-.793 1.99-.028.013-.066.002-.077-.03-.046-.137-.349-1.127-.444-1.336a.61.61 0 0 0-.415-.341.57.57 0 0 0-.46.095l-.017.014c-.196.166-.305.406-.39.6 0 0-.545 1.404-.779 1.954a.053.053 0 0 1-.082-.027c-.046-.136-.349-1.126-.441-1.336a.61.61 0 0 0-.415-.34.57.57 0 0 0-.46.095l-.017.013c-.196.167-.305.406-.39.6 0 0-.57 1.467-.793 1.99-.027.014-.065.003-.076-.03-.047-.136-.35-1.126-.445-1.336a.61.61 0 0 0-.414-.34.57.57 0 0 0-.46.095l-.017.014c-.196.166-.305.406-.39.6 0 0-.553 1.428-.785 1.968-.027.01-.063.002-.074-.03-.046-.137-.349-1.126-.444-1.336a.61.61 0 0 0-.414-.34.57.57 0 0 0-.461.095l-.016.013a1 1 0 0 0-.167.188q.01.457.047.905l.046-.114c.008-.02.008-.038.008-.055.205-.499.26-.602.439-.608"/><path d="M4.624 21.438c.011-.024.044-.103.087-.212.134-.32.513-1.224.68-1.639.007-.022.007-.043.01-.062.188-.461.243-.562.42-.568.147-.002.213.164.24.246.1.294.286.924.373 1.183.063.18.207.31.376.322a.41.41 0 0 0 .352-.183.2.2 0 0 0 .057-.07c.017-.036.071-.173.142-.347.166-.395.47-1.123.614-1.483q.01-.03.008-.055c.199-.488.253-.594.433-.597.147-.002.213.164.24.246.1.294.286.924.374 1.183.062.18.207.31.376.322a.4.4 0 0 0 .302-.126.22.22 0 0 0 .098-.1c.025-.055.145-.353.273-.674.166-.398.376-.905.488-1.189.005-.01.003-.024.005-.038.194-.477.249-.58.429-.586.147-.003.212.164.24.245.1.295.286.924.373 1.183.063.18.207.311.376.322a.42.42 0 0 0 .352-.183.2.2 0 0 0 .057-.07c.016-.036.07-.172.142-.347.166-.395.469-1.123.613-1.483q.01-.03.008-.054c.2-.488.254-.594.434-.597.147-.003.212.163.24.245.1.295.286.924.373 1.183.063.18.207.311.376.322a.42.42 0 0 0 .36-.196.2.2 0 0 0 .063-.08c.03-.068.213-.523.376-.926.136-.327.278-.67.363-.886q.003-.011.002-.022c.218-.537.268-.646.456-.652.147-.002.212.164.24.246.1.294.286.924.373 1.183.063.18.207.31.376.322a.42.42 0 0 0 .352-.183.2.2 0 0 0 .057-.07c.016-.036.071-.173.142-.347.166-.395.469-1.123.613-1.483q.01-.03.008-.055c.2-.488.254-.594.434-.597.147-.002.212.164.24.246.1.294.286.924.373 1.183.063.18.207.31.377.321a.4.4 0 0 0 .302-.125.22.22 0 0 0 .098-.1c.025-.055.145-.352.273-.674.166-.398.376-.905.49-1.189.006-.01.003-.024.006-.038.194-.477.248-.58.428-.586.147-.003.213.164.24.245.1.295.286.925.373 1.184.063.18.207.31.377.321a.42.42 0 0 0 .351-.183.2.2 0 0 0 .057-.07c.017-.036.071-.172.142-.347a131 131 0 0 0 .614-1.482c.008-.02.008-.039.008-.055.199-.488.253-.594.433-.597.147-.003.213.163.24.245.101.295.286.924.374 1.183.062.18.207.311.376.322a.4.4 0 0 0 .327-.15.2.2 0 0 0 .07-.084 166 166 0 0 0 .766-1.851c.009-.022.009-.044.012-.063.188-.46.242-.562.42-.567.147-.003.212.163.24.245.1.295.286.924.373 1.183.063.18.207.311.376.322a.41.41 0 0 0 .352-.183.2.2 0 0 0 .057-.07c.016-.036.07-.172.142-.347.166-.395.469-1.123.613-1.483.008-.019.008-.038.008-.054.2-.488.254-.594.434-.597.147-.003.213.163.24.245.1.294.286.924.373 1.183.063.18.207.311.376.322a.4.4 0 0 0 .178-.041q-.085-.222-.178-.444l-.057-.128a14 14 0 0 0-.807-1.565l-.016-.006a.57.57 0 0 0-.46.096l-.017.013c-.197.167-.306.406-.39.6 0 0-.57 1.467-.793 1.99-.028.014-.066.003-.077-.03-.046-.136-.349-1.126-.444-1.336a.61.61 0 0 0-.414-.34.57.57 0 0 0-.461.095l-.017.014c-.196.166-.305.406-.39.6 0 0-.553 1.428-.784 1.968-.028.01-.063.002-.074-.03-.046-.137-.349-1.126-.444-1.336a.61.61 0 0 0-.415-.34.57.57 0 0 0-.46.095l-.017.013c-.196.166-.305.406-.39.6 0 0-.57 1.467-.793 1.99-.027.014-.065.003-.076-.03-.047-.136-.35-1.126-.445-1.336a.61.61 0 0 0-.414-.34.57.57 0 0 0-.46.095l-.017-.022c-.196.166-.305.406-.39.6 0 0-.545 1.404-.78 1.954a.052.052 0 0 1-.081-.027c-.047-.136-.35-1.126-.445-1.336a.61.61 0 0 0-.414-.34.57.57 0 0 0-.46.095l-.017.014c-.196.166-.305.406-.39.6 0 0-.57 1.466-.793 1.99-.027.013-.066.002-.077-.03-.046-.137-.349-1.127-.444-1.336a.61.61 0 0 0-.414-.341.57.57 0 0 0-.461.095l-.016.014c-.197.166-.306.406-.39.6 0 0-.575 1.48-.796 1.995a.054.054 0 0 1-.09-.019c-.046-.136-.35-1.126-.445-1.336a.61.61 0 0 0-.414-.34.57.57 0 0 0-.46.095l-.017.014c-.196.166-.305.406-.39.6 0 0-.57 1.466-.793 1.99-.027.013-.066.002-.076-.03-.047-.137-.35-1.126-.445-1.336a.61.61 0 0 0-.414-.341.57.57 0 0 0-.46.095l-.017.014c-.197.166-.306.406-.39.6 0 0-.545 1.404-.78 1.954a.053.053 0 0 1-.082-.027c-.046-.136-.348-1.126-.441-1.336a.61.61 0 0 0-.415-.34.57.57 0 0 0-.46.095l-.017.013c-.196.167-.305.407-.39.6 0 0-.57 1.467-.793 1.99-.027.014-.065.003-.076-.03-.046-.136-.349-1.126-.444-1.335a.61.61 0 0 0-.415-.341.57.57 0 0 0-.46.095l-.017.014c-.196.166-.305.406-.39.6 0 0-.553 1.428-.785 1.968-.027.01-.062.002-.073-.03-.047-.137-.35-1.126-.445-1.336a.61.61 0 0 0-.414-.34.57.57 0 0 0-.417.07q.044.242.095.485c.063-.09.12-.12.213-.122.147-.003.212.163.24.245.1.294.286.924.373 1.183.063.18.207.31.376.322a.4.4 0 0 0 .328-.15.3.3 0 0 0 .073-.093m-.771-7.611c.063.18.207.31.376.321a.4.4 0 0 0 .327-.15.2.2 0 0 0 .071-.084c.011-.025.044-.104.087-.213.134-.319.513-1.224.68-1.638.007-.022.007-.044.01-.063.188-.46.243-.561.42-.567.147-.003.213.164.24.245.1.295.286.925.373 1.184.063.18.207.31.377.321a.41.41 0 0 0 .351-.182.2.2 0 0 0 .057-.071c.017-.036.071-.172.142-.346.166-.396.47-1.124.614-1.483q.01-.03.008-.055c.199-.488.253-.594.433-.597.147-.003.213.164.24.245.101.295.286.924.374 1.183.062.18.207.311.376.322a.4.4 0 0 0 .302-.125.22.22 0 0 0 .099-.101c.024-.055.144-.352.272-.673.166-.398.376-.905.488-1.189.005-.01.003-.025.005-.038.194-.477.249-.58.429-.586.147-.003.212.163.24.245.1.295.286.924.373 1.183.063.18.207.311.376.322a.42.42 0 0 0 .352-.183.2.2 0 0 0 .057-.07c.016-.036.07-.172.142-.347.166-.395.469-1.123.613-1.483q.01-.03.008-.054c.2-.488.254-.595.434-.597.147-.003.212.163.24.245.1.294.286.924.373 1.183.063.18.207.31.376.322a.42.42 0 0 0 .36-.197.2.2 0 0 0 .063-.079c.03-.068.213-.523.376-.926.136-.328.278-.671.363-.886q.003-.012.002-.022c.218-.537.268-.646.456-.652.147-.003.212.164.24.246.1.294.286.924.373 1.183.063.18.207.31.376.321a.42.42 0 0 0 .352-.182.2.2 0 0 0 .057-.071c.016-.036.071-.17.142-.346.166-.396.469-1.124.613-1.483q.01-.03.008-.055c.2-.488.254-.594.434-.597.147-.003.213.164.24.245.1.295.286.925.373 1.184.063.18.207.31.377.321a.4.4 0 0 0 .302-.125.22.22 0 0 0 .098-.101c.025-.055.145-.352.273-.673.166-.398.376-.905.49-1.189.006-.01.003-.024.006-.038.194-.477.248-.58.428-.586.147-.003.213.163.24.245.1.295.286.924.373 1.183.063.18.208.311.377.322a.42.42 0 0 0 .351-.183.2.2 0 0 0 .057-.07c.017-.036.071-.172.142-.347.166-.395.47-1.123.614-1.483.008-.019.008-.038.008-.054.199-.488.253-.595.433-.597q.04.001.071.019a11 11 0 0 0-.504-.273c-.153.161-.248.363-.322.529 0 0-.57 1.467-.793 1.99-.027.014-.066.003-.077-.03-.046-.136-.348-1.126-.444-1.336a.61.61 0 0 0-.414-.34.57.57 0 0 0-.46.095l-.023-.008c-.196.166-.305.406-.39.6 0 0-.545 1.403-.78 1.954a.052.052 0 0 1-.081-.027c-.046-.136-.349-1.126-.444-1.336a.61.61 0 0 0-.415-.34.57.57 0 0 0-.46.095l-.017.013c-.196.167-.305.407-.39.6 0 0-.57 1.467-.793 1.99-.027.014-.065.003-.076-.03-.047-.136-.35-1.126-.445-1.336a.61.61 0 0 0-.414-.34.57.57 0 0 0-.46.095l-.017.014c-.196.166-.305.406-.39.6 0 0-.575 1.48-.796 1.995a.054.054 0 0 1-.09-.02c-.046-.136-.349-1.125-.444-1.335a.61.61 0 0 0-.415-.34.57.57 0 0 0-.46.095l-.017.013c-.196.167-.305.406-.39.6 0 0-.57 1.467-.793 1.99-.027.014-.065.003-.076-.03-.046-.136-.35-1.126-.444-1.336a.61.61 0 0 0-.415-.34.57.57 0 0 0-.46.095l-.017.014c-.196.166-.305.406-.39.6 0 0-.545 1.403-.78 1.954-.027.019-.07.01-.081-.027-.047-.137-.35-1.126-.442-1.336a.61.61 0 0 0-.414-.34.57.57 0 0 0-.46.095l-.017.013c-.197.167-.306.406-.39.6 0 0-.57 1.467-.793 1.99-.028.014-.066.003-.077-.03-.046-.136-.349-1.126-.444-1.336a.61.61 0 0 0-.414-.34.57.57 0 0 0-.461.095l-.017.013c-.196.167-.305.407-.39.6 0 0-.553 1.429-.784 1.969-.028.01-.063.002-.074-.03-.046-.137-.349-1.126-.444-1.336a.56.56 0 0 0-.191-.235q-.081.221-.153.447c.027.044.046.093.06.126.104.286.289.916.379 1.175m20.74-7.857c.063.18.207.31.376.322a.4.4 0 0 0 .327-.15.2.2 0 0 0 .071-.085c.011-.024.044-.103.087-.212l.12-.29q-.168-.126-.346-.247a21 21 0 0 1-.207.507c-.027.01-.063.002-.074-.03-.03-.085-.155-.496-.27-.848q-.286-.18-.577-.352a.5.5 0 0 1 .122.2c.096.296.284.926.371 1.185m2.96 1.862a.4.4 0 0 0 .302-.133 15 15 0 0 0-.93-.987c.09.291.192.627.252.798.06.18.204.311.376.322"/><path d="M2.805 15.503c.199-.488.253-.594.433-.597.148-.003.213.164.24.246.101.294.287.924.374 1.183.062.18.207.31.376.321a.4.4 0 0 0 .327-.15.2.2 0 0 0 .071-.084c.01-.025.044-.104.087-.213.134-.319.513-1.224.679-1.638.008-.022.008-.044.01-.063.189-.46.244-.561.42-.567.148-.003.213.164.24.246.101.294.287.924.374 1.183.063.18.207.31.376.321a.41.41 0 0 0 .352-.182.2.2 0 0 0 .057-.071c.017-.036.071-.172.142-.346.166-.396.469-1.123.613-1.483.009-.02.009-.039.009-.055.199-.488.253-.594.433-.597.147-.003.213.164.24.245.1.295.286.925.373 1.184.063.18.208.31.377.321a.4.4 0 0 0 .302-.125.22.22 0 0 0 .098-.101c.025-.054.145-.352.273-.673.166-.398.376-.905.49-1.189.006-.01.003-.024.006-.038.194-.477.248-.58.428-.586.147-.003.213.163.24.245.1.295.286.924.373 1.183.063.18.208.311.377.322a.42.42 0 0 0 .351-.183.2.2 0 0 0 .057-.07c.017-.036.071-.172.142-.347.167-.395.47-1.123.614-1.483q.01-.03.008-.054c.199-.488.253-.595.433-.597.148-.003.213.163.24.245.101.294.286.924.374 1.183.062.18.207.31.376.322a.42.42 0 0 0 .36-.196.2.2 0 0 0 .062-.08c.03-.068.213-.523.377-.926.136-.327.278-.671.362-.886q.004-.012.003-.022c.218-.537.267-.646.455-.652.147-.002.213.164.24.246.101.294.286.924.374 1.183.062.18.207.31.376.321a.42.42 0 0 0 .351-.182.2.2 0 0 0 .058-.071c.016-.036.07-.172.141-.346.167-.396.47-1.123.614-1.483q.01-.03.008-.055c.199-.488.254-.594.433-.597.148-.003.213.164.24.245.101.295.287.925.374 1.184.063.18.207.31.376.321a.4.4 0 0 0 .303-.125.22.22 0 0 0 .098-.101c.024-.054.144-.352.272-.673.167-.398.377-.905.491-1.189.006-.01.003-.024.006-.038.193-.477.248-.58.428-.586.147-.003.212.163.24.245.1.295.286.924.373 1.183.063.18.207.311.376.322a.42.42 0 0 0 .352-.183.2.2 0 0 0 .057-.07c.016-.036.07-.172.142-.347.166-.395.469-1.123.613-1.483q.01-.03.008-.054c.2-.488.254-.595.434-.597.147-.003.212.163.24.245.1.294.286.924.373 1.183.063.18.207.311.376.322a.4.4 0 0 0 .328-.15.2.2 0 0 0 .07-.085 166 166 0 0 0 .766-1.851c.009-.021.009-.043.011-.062.096-.232.156-.371.216-.456q-.154-.137-.317-.27a2.2 2.2 0 0 0-.237.434s-.553 1.428-.785 1.968c-.027.011-.063.003-.073-.03-.047-.136-.35-1.126-.445-1.336a.61.61 0 0 0-.414-.34.57.57 0 0 0-.46.095l-.017.014c-.197.166-.306.406-.39.6 0 0-.57 1.466-.793 1.99-.028.013-.066.002-.077-.03-.046-.137-.349-1.126-.444-1.336a.61.61 0 0 0-.414-.341.57.57 0 0 0-.461.095l-.022-.013c-.196.166-.305.406-.39.6 0 0-.545 1.403-.78 1.954a.052.052 0 0 1-.081-.027c-.047-.136-.35-1.126-.445-1.336a.61.61 0 0 0-.414-.34.57.57 0 0 0-.46.095l-.017.013c-.196.167-.305.407-.39.6 0 0-.57 1.467-.793 1.99-.027.014-.066.003-.076-.03-.047-.136-.35-1.126-.445-1.336a.61.61 0 0 0-.414-.34.57.57 0 0 0-.46.095l-.017.014c-.197.166-.306.406-.39.6 0 0-.575 1.48-.796 1.995a.054.054 0 0 1-.09-.02c-.046-.135-.349-1.125-.444-1.335a.61.61 0 0 0-.415-.34.57.57 0 0 0-.46.095l-.017.013c-.196.167-.305.406-.39.6 0 0-.57 1.467-.793 1.99-.027.014-.065.003-.076-.03-.047-.136-.35-1.126-.445-1.336a.61.61 0 0 0-.414-.34.57.57 0 0 0-.46.095l-.017.014c-.196.166-.306.406-.39.6 0 0-.545 1.403-.78 1.954a.052.052 0 0 1-.081-.027c-.047-.137-.35-1.126-.442-1.336a.61.61 0 0 0-.414-.34.57.57 0 0 0-.461.095l-.016.013c-.197.166-.306.406-.39.6 0 0-.57 1.467-.794 1.99-.027.014-.065.003-.076-.03-.046-.136-.349-1.126-.444-1.336a.61.61 0 0 0-.415-.34.57.57 0 0 0-.46.095l-.017.014c-.196.166-.305.406-.39.6 0 0-.553 1.428-.785 1.967-.027.011-.062.003-.073-.03-.047-.136-.35-1.125-.445-1.335a.61.61 0 0 0-.414-.341.57.57 0 0 0-.439.082q-.095.534-.147 1.085l.033-.082c.013-.025.013-.044.016-.063"/></g><path fill="#6D6A5F" d="M17 0h-.475l-.082.003h-.136l-.136.005h-.055q-1.141.059-2.238.262c-.036.005-.068.014-.104.019l-.013.003-.014.002-.01.003-.013.003h-.002l-.011.003h-.003l-.011.002h-.003l-.01.003h-.003l-.011.003h-.003l-.01.003h-.004l-.01.002h-.003l-.01.004h-.003l-.01.003h-.004l-.01.002H13.6l-.011.003h-.003l-.01.003h-.003l-.011.003h-.003l-.01.002h-.004q-.003.002-.01.003h-.003l-.011.003h-.003l-.01.002h-.004l-.01.003h-.003L13.48.35h-.003l-.01.003h-.004l.562 2.669a15.6 15.6 0 0 1 2.974-.295zm-6.13 1.14q-.27.104-.534.218l-.011.005-.131.057-.011.006-.01.005-.012.006-.01.005-.118.052-.01.005q-.017 0-.02.003l-.01.006-.012.005c-.038.02-.079.035-.117.055l-.01.005-.012.005-.01.006-.012.005-.01.006-.118.054-.01.006-.011.005-.011.006a17 17 0 0 0-1.93 1.087l1.488 2.282c.832-.542 1.72-.998 2.642-1.355zM5.569 4.419l-.006.005-.002.003-.006.006-.003.002q-.004.003-.005.006l-.003.003q-.005.002-.005.005l-.003.003q-.005.002-.005.005l-.003.003-.006.005-.002.003q-.005.005-.008.006l-.003.002q-.005.005-.008.006l-.003.002-.055.05-.008.008-.008.008-.003.003-.008.008-.008.008-.008.008c-.227.213-.447.428-.663.654l-.008.009-.008.008-.008.008-.008.008q-.032.032-.06.063l-.009.008v.003l-.008.008-.002.003-.009.008-.002.003-.009.008-.002.002-.008.009-.003.002-.008.009-.003.002-.008.008-.041.044-.003.003q-.005.003-.005.008l-.003.003-.006.005-.002.003-.006.005-.002.003-.006.005-.003.003q-.002.005-.005.006l-.003.002-.005.006-.003.003-.005.005-.003.003-.006.005-.002.003-.006.005-.003.003c-.002.006-.008.008-.01.014l-.003.002-.006.006-.005.005-.005.006-.006.005-.005.006-.006.005-.005.006-.006.005-.005.006-.006.005-.005.005-.006.006-.005.005-.005.006q-.004.003-.003.005l-.006.006q-.002.002-.002.005l-.006.006-.003.002q-.002.005-.005.006l-.003.002-.008.011-.008.011-.003.003q-.003.005-.005.005l-.003.003-.005.006-.003.002q-.003.005-.006.006l-.002.003q-.003.004-.006.005l-.003.003q-.004.003-.005.008l-.003.003q-.004.003-.005.008l-.003.003q-.005.003-.005.008l-.003.002-.008.009-.003.002-.035.039q-.005.003-.009.01l-.008.009-.002.002-.009.009-.002.002-.009.008q0 .002-.002.003l-.008.008-.003.003-.008.008v.003q-.005.004-.009.01-.03.038-.062.074-.005.004-.008.011l-.009.009-.008.008q-.004.003-.008.01l-.09.107a14 14 0 0 0-.313.387l-.069.087-.008.011-.008.011-.008.008v.003l-.008.008V6.6l-.008.01-.009.012-.04.054v.003l-.009.008-.002.003q-.005.004-.006.008l-.003.003-.005.008-.003.003-.005.008-.003.003-.005.008-.003.002-.006.009-.002.002-.006.009-.003.002-.005.008q0 .002-.003.003l-.008.011-.008.011-.003.003-.005.008-.003.005-.005.006-.003.005-.006.006-.002.005-.003.006-.005.005-.003.006-.006.005-.002.005q-.003.005-.006.006l-.003.003-.005.008-.003.003-.005.008-.003.002-.005.009a1 1 0 0 0-.06.081l-.009.011-.046.063 2.211 1.597a14.3 14.3 0 0 1 1.982-2.216zM1.796 9.383q0 .002-.003.003 0 .002-.003.003 0 .003-.005.008 0 .002-.003.003l-.005.008v.003q-.003.003-.006.01l-.027.058q-.003.003-.005.01v.003l-.006.011v.003l-.005.008v.003l-.006.008v.003l-.005.008q0 .002-.003.003c.005.002.003.005.003.008v.003l-.006.008v.002l-.005.011v.003l-.006.011-.005.01q-.024.053-.05.104l-.005.011q-.008.009-.008.011v.003l-.005.01-.006.012q-.392.829-.695 1.704-.004.007-.003.01l-.002.011v.003l-.003.011v.003l-.003.01v.003l-.002.011v.003l-.003.011v.003l-.003.01v.003l-.003.011-.024.074-.003.01v.003l-.003.009v.002l-.002.009v.005l-.003.008q0 .003-.003.006l-.003.008q0 .003-.002.005l-.003.008q0 .003-.003.006l-.002.008q0 .003-.003.005l-.003.009q0 .002-.003.005l-.002.008q0 .003-.003.006l-.003.008q0 .005-.003.005l-.002.006q0 .005-.003.005 0 .003-.003.006c-.008-.006-.008-.003-.008 0l-.003.008-.002.01v.004l-.003.008q0 .002-.003.005l-.002.008q0 .003-.003.006l-.003.008q0 .003-.003.005l-.002.009q0 .002-.003.005l-.003.008q0 .003-.003.006l-.002.008q0 .003-.003.005l-.003.008-.002.006-.003.008v.003l-.003.008v.003q-.002.003-.003.01v.003l-.002.011v.003l-.003.014-.036.117-.002.014q-.09.298-.17.605l2.64.69a14.2 14.2 0 0 1 1.046-2.776zm-1.72 5.992-.028.33v.068l-.008.123v.084l-.005.096v.109l-.003.082v.136q0 .02-.003.04v1.391q.026.547.088 1.085l2.71-.302a14.4 14.4 0 0 1-.025-2.977zm3.176 5.477-2.626.733v.003l.003.008q0 .003.003.006l.002.008q0 .003.003.005l.003.009q0 .002.003.005l.002.008q0 .003.003.006l.003.008v.005l.003.008.002.011q0 .003.003.006l.003.008v.005l.002.009q0 .002.003.005l.003.008q0 .003.003.006l.002.008q0 .003.003.005l.003.008q0 .003.003.006l.002.008q0 .003.003.005l.003.009v.005l.002.008v.006l.003.008v.003l.003.01v.003l.003.011v.003l.002.01.025.088.003.011v.003l.002.01v.003l.003.011v.003l.003.01v.004l.003.01v.003l.002.011.003.011q.02.068.044.136l.002.011.003.011q.091.286.19.567.005.005.006.011l.006.011.005.01.006.012c.013.04.03.082.043.122l.003.011v.003l.003.011v.003l.002.01v.003l.003.011v.003l.003.01v.004l.003.01v.003l.002.011v.003l.003.01c.008.025.02.047.027.072q.004.003.003.01v.003l.003.009v.002l.003.008v.003l.002.008q0 .002.003.003l.003.008.002.006.003.008.003.005.003.008q0 .002.002.003l.003.008q0 .002.003.003l.003.008.002.006.003.008q0 .002.003.003l.002.008v.002l.017.044.003.003.002.008q0 .003.003.006l.003.008.002.005.003.008.003.006.003.005.002.006q.001.004.003.005l.003.006q.001.004.003.005l.002.006q.001.004.003.005l.003.005.002.006.003.005.003.006q.001.005.003.005l.002.006.003.005.003.005.003.009.002.005.003.008v.003l.01.025v.002l.004.011q0 .002.002.003l.003.008q0 .003.003.006l.003.008.002.005.003.008q0 .003.003.006l.002.008q0 .003.003.006l.003.008q0 .002.003.005l.002.008q0 .003.003.006l.003.008q0 .004.002.003l.003.008q0 .002.003.003l.003.008v.002l.005.011v.003l.006.011c.008.022.019.04.027.063v.002l.005.011v.003l.006.011v.003l.005.01v.003l.006.011v.003l.005.01v.004l.006.01v.003l.005.011v.003l.005.01.044.102.006.01.005.011.005.011.006.011.005.011.006.014c.022.046.04.092.062.139l.006.01.005.014c.06.128.12.26.183.385l.06.122.005.011.006.011.005.011q.002.006.006.011l.005.01.006.012.043.084.006.011v.003l.005.01v.004q.003.003.006.01 0 .002.002.003l.006.008q0 .002.003.003l.005.008q0 .002.003.003c.019.016.022.022.022.025q0 .003.002.002l.006.009.002.002.006.008q0 .004.003.003l.005.008q0 .002.003.003l2.415-1.265a13.6 13.6 0 0 1-1.098-2.756m2.311 4.692L3.38 27.177q.572.764 1.224 1.458l.008.008.008.008.008.009.071.073.008.008.008.009.003.002.008.008.003.003.008.008.003.003.008.008.003.003.008.008.008.008c.014.017.03.03.044.047l.008.008.008.008.003.003q.005.003.005.008l.003.003.006.005.002.003.006.005.002.003.006.006.003.002.005.006.003.002.005.006.003.003.033.032.002.003.006.005.003.003.005.006.003.002.005.006.006.005.005.006.006.005.005.006.006.005.021.022.006.005.01.011.006.006.003.002.008.009.003.002.008.009.003.002.005.006.003.002.005.006.003.003.006.005.002.003.006.005.002.003.006.005.003.003.005.006.003.002q.004.003.005.006l.003.002.005.006.003.003.008.008.003.003.03.03.008.008.008.008.003.003.008.008.003.003.008.008.003.002.008.009.016.016q.28.27.57.523l1.8-2.047a14.2 14.2 0 0 1-2.01-2.175m3.852 3.552-1.45 2.309q.208.132.423.256c.035.022.07.04.106.063l.01.005h.003l.011.006h.003l.008.005q.002 0 .003.003l.008.005q.002 0 .003.003l.008.005.003.003.008.006q.002 0 .003.002l.008.006q.004 0 .003.003l.008.005h.003l.01.005H8.6q.012.008.025.014h.002q.004.003.011.005l.003.003.008.006.006.002.008.003.005.003.006.003.005.002.006.003.005.003q.005.001.006.003l.005.002.005.003.006.003.005.002.006.003.005.003.006.003.005.002.006.003.005.003.008.003.003.002q.021.011.038.022.002 0 .003.003l.008.005.003.003.008.005.003.003q.003 0 .008.006l.003.002q.003 0 .008.006.002 0 .003.002l.008.006.002.003.009.005.002.003.009.005.002.003.008.005h.003l.008.006.09.049.011.005.011.006.011.005q.886.472 1.83.837l.01.006q.005.003.011.002h.003l.01.003h.003l.011.003h.003l.01.003h.004l.01.002h.003l.011.003h.003q.003.002.01.003h.004l.043.016h.003l.008.003q.003 0 .005.003l.009.002q.002 0 .005.003l.008.003.006.002.005.003.006.003.005.003.006.002.005.003.005.003.006.003.008.002.006.003.008.003.005.002.008.003q.003 0 .006.003l.008.003h.003l.94-2.56a14 14 0 0 1-2.658-1.303m4.866 1.922-.515 2.677q.23.045.46.081l.014.003q.008 0 .014.003.007 0 .014.003.007 0 .013.002.044.01.093.014.005 0 .011.003h.003l.01.002h.153l.025.003h.169q.006 0 .01.003a1 1 0 0 1 .096.016h.098q.005 0 .011.003.058.006.112.014.006 0 .01.002h.055l.164.017h.054l.15.013h.057q.077.008.153.011h.093l.114.008h.134l.076.003h.166q.025 0 .05.003h.758q.08 0 .166-.003l-.046-2.726-.243.003c-.9.098-1.813.013-2.702-.158m8.091-.788a14.2 14.2 0 0 1-2.848.823L20 33.738h.002q.006 0 .011-.002h.003q.004 0 .011-.003h.003l.01-.003h.006q.004 0 .008-.003h.006l.008-.002h.005q.005 0 .008-.003h.006q.004 0 .008-.003h.006l.008-.002h.005q.005 0 .008-.003h.006q.004 0 .008-.003h.005q.004 0 .011-.003h.003l.011-.002h.003l.027-.006h.003l.01-.003h.006q.005 0 .008-.002h.006q.004 0 .008-.003h.005q.005 0 .009-.003h.049l.008-.002h.005q.005 0 .008-.003h.006q.004 0 .008-.003h.006q.003 0 .008-.003h.005q.005 0 .008-.002h.006q.004 0 .008-.003h.005q.004 0 .009-.003h.002q.005 0 .008-.003h.003a.3.3 0 0 0 .05-.01h.002l.01-.003h.004q.003 0 .008-.003h.002l.009-.003h.002l.009-.002h.005q.005 0 .008-.003h.006q.003 0 .008-.003h.005q.005 0 .009-.003h.005l.008-.002h.003q.004 0 .008-.003h.003q.003 0 .008-.003h.003l.01-.002h.003l.011-.003h.003l.01-.003.102-.022.01-.002h.003l.011-.003h.003l.01-.003h.004l.01-.003h.003l.011-.002h.003l.01-.003h.003l.011-.003.011-.003.011-.002.153-.036.014-.002.01-.003.011-.003.011-.003q.103-.023.205-.051.254-.066.507-.14.09-.025.174-.051l.011-.003.011-.003h.003l.01-.002h.003l.011-.003h.003l.01-.003h.004l.01-.003h.003l.011-.002h.003l.01-.003.012-.003q.048-.017.098-.03l.01-.003h.003l.011-.002h.003l.011-.003h.003l.008-.003h.003l.008-.002h.002l.009-.003h.002l.009-.003h.002l.009-.003h.002l.008-.002h.006l.008-.003h.003l.008-.003h.003l.008-.002h.003q.003-.002.01-.003l.036-.011.008-.003h.003l.008-.003.006-.002.008-.003q.002 0 .005-.003l.008-.002q.003 0 .006-.003l.008-.003q.003 0 .005-.003l.006-.002.005-.003.006-.003.005-.002.006-.003.005-.003q.003 0 .006-.003l.008-.002.005-.003.008-.003.006-.003.008-.002q.003 0 .005-.003l.009-.003.005-.002.008-.003q.003 0 .006-.003l.008-.003q.003 0 .005-.002l.011-.003h.003l.038-.014h.003l.01-.002h.003l.011-.003h.003l.011-.003h.003l.01-.003h.003l.009-.002h.002l.011-.003h.003l.01-.003h.004q.003-.002.01-.003h.003l.011-.002h.003l.01-.003h.003l.011-.005.014-.006q.336-.12.665-.254zm4.406-2.83a14.5 14.5 0 0 1-2.364 1.802l1.418 2.328q.07-.042.136-.084.004-.005.011-.006l.008-.005h.003l.008-.006h.003l.008-.005h.003q.003-.005.01-.006.028-.015.055-.032l.008-.006h.003l.008-.005q.002 0 .003-.003l.008-.005q.002 0 .003-.003l.008-.006.003-.002.008-.006.005-.003.009-.005.005-.003q.005-.002.006-.005l.005-.003.006-.005.005-.003.005-.003.006-.003.005-.002.006-.003.013-.008q.002 0 .003-.003.003-.004.006-.003l.005-.002q.003-.004.005-.003l.006-.003.005-.002.006-.003.005-.003q.005-.004.006-.003l.005-.002q.005-.003.006-.006l.005-.003q.005-.002.005-.005 0-.002.006-.003l.008-.005q0-.002.006-.003l.008-.005q.001-.002.005-.003l.008-.006.003-.002q.005-.005.008-.006h.003a.2.2 0 0 1 .035-.021h.003q.004-.005.011-.006.002 0 .003-.003l.008-.005.003-.003.008-.005.003-.003.008-.006.003-.002.008-.006q.002 0 .003-.002l.008-.006.002-.003q.004-.004.011-.005h.003l.01-.008.058-.038.011-.009.011-.008h.003q.003-.005.01-.005.004-.005.012-.008h.002l.011-.009.011-.008c.03-.022.06-.04.09-.062q.479-.332.932-.696l.011-.008.011-.008.085-.068q.003-.005.01-.008l.009-.008h.002l.009-.009.008-.008h.002l.009-.008.01-.008.052-.044.009-.008.002-.003.008-.005.003-.003q.005-.005.008-.005l.003-.003.008-.006.003-.002.008-.006.003-.002q.004-.005.008-.006l.003-.003q.004-.004.008-.005l.003-.003q.004-.004.008-.005l.003-.003.008-.008.01-.008.003-.003q.005-.005.009-.006l.005-.002q.005-.003.006-.006l.005-.002.005-.006q.003-.004.006-.003l.005-.005.006-.006.005-.005.006-.005.005-.003.006-.006.005-.002.005-.006.006-.002.005-.006q.004-.002.003-.003.005-.002.006-.005l.002-.003.006-.005q.002 0 .003-.003.011-.012.027-.022.004-.005.008-.005.002 0 .003-.003.003-.005.008-.005l.003-.003q.003-.005.008-.006l.002-.002q.005-.005.009-.006l.002-.002q.005-.005.009-.006l.002-.003q.004-.004.009-.005l.002-.003q.005-.005.008-.005l.003-.003.008-.008q.254-.22.5-.453zm3.097-4.223a14.3 14.3 0 0 1-1.56 2.528l2.16 1.662c.45-.583.864-1.2 1.234-1.84l.006-.01q.003-.004.005-.011t.006-.012l.043-.076q.003-.003.006-.01v-.003l.005-.009.003-.002.005-.008q0-.002.003-.003l.006-.008q0-.002.002-.003l.006-.008q0-.002.003-.003l.005-.008q0-.002.003-.003l.005-.008.003-.003.005-.008q0-.002.003-.003l.005-.008q.008-.016.02-.033v-.002l.005-.009.003-.002.003-.008.002-.006.003-.005.003-.006.002-.005.003-.006.003-.005.003-.006.002-.005.003-.006.003-.005q.001-.005.003-.005l.002-.006.003-.005.003-.006.002-.008.003-.005.006-.009q.001-.003.002-.002c.006-.008.008-.017.014-.025l.005-.01v-.003l.006-.011v-.003l.005-.008q0-.002.003-.003l.005-.008q0-.002.003-.003l.006-.008.002-.003.006-.008q0-.002.003-.003l.005-.008v-.003c.003-.002.003-.008.005-.01v-.003l.006-.011q.177-.332.34-.668zm1.355-5.051c-.077.99-.26 1.974-.538 2.92l2.615.771c.136-.463.253-.938.351-1.415l.003-.014.003-.013.003-.011.002-.01v-.004l.003-.01v-.003l.003-.011v-.003l.003-.01v-.003l.002-.011v-.003l.003-.011v-.003l.003-.01v-.003l.002-.011v-.003l.003-.01v-.004l.003-.01v-.003q0-.006.003-.011v-.003l.002-.01V20.2l.003-.01v-.003q0-.005.003-.008v-.003q0-.004.003-.008v-.003l.002-.008v-.006q0-.003.003-.008v-.005q0-.005.003-.008v-.047l.002-.008v-.005q0-.005.003-.009v-.005q0-.005.003-.008v-.006q0-.003.003-.008v-.003l.005-.032v-.003l.003-.01.003-.015.002-.013q.002-.007.003-.014l.003-.013q.136-.782.199-1.587zm2.063-5.99-2.611.78c.28.946.466 1.928.545 2.917l2.718-.218v-.204l-.003-.041v-.028l-.003-.027v-.027a17 17 0 0 0-.447-2.524l-.002-.011-.003-.011-.003-.011v-.003l-.003-.01v-.003l-.002-.011V12.7l-.003-.011v-.003l-.003-.01v-.003l-.003-.011-.002-.011v-.003l-.003-.01v-.003l-.003-.011v-.003l-.003-.011v-.003l-.002-.01v-.003l-.003-.011v-.003l-.003-.008v-.003l-.002-.008v-.003l-.003-.008v-.005l-.003-.009v-.005q0-.005-.002-.005 0-.005-.003-.006 0-.003-.003-.005 0-.005-.003-.009l-.002-.005-.003-.008v-.006l-.003-.008v-.005l-.003-.008v-.003l-.002-.011v-.003l-.003-.013a1.1 1.1 0 0 1-.123-.3m-2.848-5.544-2.154 1.67a14.4 14.4 0 0 1 1.567 2.525L32.312 9.6l-.117-.238-.006-.01v-.003l-.005-.011v-.003l-.006-.01V9.32l-.005-.011v-.003l-.006-.008-.002-.003-.006-.008v-.003l-.005-.01V9.27l-.02-.035-.005-.01-.002-.004-.006-.008-.003-.005-.002-.008-.003-.006-.003-.005-.003-.006-.002-.005-.003-.006-.003-.005-.002-.006-.003-.005-.003-.005-.003-.006-.002-.005-.003-.006-.003-.005-.003-.006-.002-.005-.003-.006-.003-.005-.008-.016-.003-.006-.002-.008-.003-.006q-.004-.003-.003-.008l-.003-.005-.002-.008-.003-.006-.003-.008-.003-.005q-.003-.005-.002-.009l-.003-.002-.005-.008-.003-.003-.006-.008q0-.002-.002-.003l-.006-.008q0-.002-.002-.003L32 8.98v-.003l-.005-.01-.03-.058-.006-.011v-.003l-.005-.008v-.003l-.006-.008v-.003c-.003-.002-.002-.005-.005-.008v-.002l-.006-.009v-.002l-.005-.009v-.002l-.006-.011-.049-.09-.005-.011-.006-.01-.005-.012-.005-.01-.006-.012-.057-.1-.006-.011-.005-.011-.006-.011-.005-.011-.065-.112-.006-.01-.005-.012-.006-.01-.057-.099q-.003-.003-.005-.01l-.006-.012v-.002q-.003-.004-.005-.011l-.006-.011-.005-.011q-.027-.043-.052-.087-.003-.004-.005-.011V8.14l-.006-.008v-.003l-.005-.008q0-.002-.003-.003l-.006-.008q0-.002-.002-.003l-.006-.008-.002-.002-.006-.009v-.002q-.003-.004-.005-.011l-.038-.063q0-.002-.003-.003l-.006-.008q0-.002-.002-.003l-.006-.008-.003-.003-.005-.008-.003-.002-.005-.009-.003-.002-.005-.009-.003-.002-.006-.008-.002-.003-.006-.008-.002-.003-.006-.008-.003-.003-.005-.008V7.91q-.008-.013-.02-.027 0-.002-.002-.003l-.005-.008-.003-.005q-.003-.005-.006-.006l-.002-.005q-.003-.005-.006-.006l-.003-.005-.002-.006-.003-.005-.003-.006-.002-.005-.003-.006-.003-.005-.002-.005-.003-.006-.003-.005-.003-.006-.002-.005-.003-.006q-.002 0-.003-.005l-.005-.006-.003-.005q-.01-.011-.014-.022l-.002-.003-.006-.008-.003-.002-.005-.009q-.002 0-.003-.005l-.005-.008-.003-.003-.005-.008q-.002 0-.003-.006l-.006-.008-.002-.003-.006-.008-.002-.005-.006-.008-.003-.003-.005-.008-.003-.003-.005-.008-.003-.003q-.005-.003-.006-.01v-.004l-.03-.046V7.57q-.004-.003-.005-.01v-.003q-.005-.005-.005-.008l-.003-.003q-.005-.005-.006-.008v-.003q-.004-.004-.005-.008l-.003-.003q-.004-.004-.005-.008v-.003q-.005-.003-.008-.01-.034-.053-.071-.104l-.008-.011-.009-.011c-.215-.262-.409-.526-.607-.785m-4.657-4.147L24.376 4.78a14.4 14.4 0 0 1 2.37 1.794l1.861-1.99a18 18 0 0 0-.531-.477l-.009-.009-.008-.008-.008-.008-.008-.008-.077-.066-.016-.016-.008-.008h-.003l-.008-.008-.008-.009-.008-.008-.066-.054-.003-.003q-.003-.005-.008-.005l-.002-.003-.009-.006-.002-.002-.008-.006-.003-.002-.008-.006-.003-.003-.008-.005q-.002 0-.003-.003l-.008-.005q-.002 0-.003-.003-.004-.005-.008-.005l-.038-.03q-.005-.005-.008-.006l-.003-.003-.008-.005-.003-.003-.006-.005-.002-.003-.008-.005-.003-.003q-.005-.003-.006-.006l-.002-.002q-.005-.003-.006-.006l-.003-.003q-.004-.002-.005-.005l-.003-.003q-.004-.002-.005-.005l-.003-.003-.008-.005q-.002 0-.003-.003l-.035-.03q-.002 0-.003-.003l-.008-.005-.003-.003-.005-.005-.006-.003-.005-.006-.006-.002q-.004-.003-.005-.006l-.006-.002q-.004 0-.005-.006l-.005-.003-.006-.005-.005-.003-.006-.005-.005-.003-.006-.005-.005-.003-.006-.006-.005-.002-.006-.006-.005-.003q-.006-.003-.01-.008l-.006-.002-.006-.006-.005-.003-.006-.005q-.002-.004-.005-.003-.003-.001-.006-.005l-.005-.003-.006-.005-.005-.003-.005-.006-.006-.002-.005-.003-.006-.006-.005-.002-.006-.006-.005-.002-.006-.006-.005-.003-.005-.005-.006-.003q-.005-.003-.005-.005l-.006-.003q-.004-.005-.008-.005l-.006-.003-.008-.006-.005-.002-.006-.006-.005-.002-.006-.006-.005-.003-.005-.005-.006-.003-.005-.005-.006-.003-.005-.005-.006-.003-.005-.006-.006-.002-.005-.006-.005-.003-.006-.005-.005-.003-.006-.005q0-.002-.005-.003l-.006-.005-.005-.003-.011-.008h-.003q-.004-.005-.008-.006l-.003-.002q-.004-.003-.005-.006 0-.002-.006-.003-.004-.002-.005-.005l-.006-.003-.005-.005q-.001-.002-.005-.003l-.006-.005q-.001-.002-.005-.003-.005-.003-.006-.006l-.005-.002q-.005-.003-.006-.006 0-.002-.005-.003-.005-.002-.006-.005 0-.002-.005-.003-.005-.002-.006-.005 0-.002-.005-.003l-.008-.005-.003-.003-.008-.006q-.002 0-.003-.002l-.022-.017-.002-.002-.008-.006-.003-.003-.008-.005q0-.002-.006-.003-.005-.002-.005-.005l-.006-.003-.005-.005q0-.002-.006-.003c-.002-.014-.005-.014-.005-.016l-.006-.003q-.004-.003-.005-.006l-.005-.002-.01-.007V3.25l-.008-.006q0-.002-.006-.003l-.008-.005-.003-.003-.008-.005q-.002 0-.003-.003l-.01-.008q-.004-.005-.012-.008l-.002-.003-.009-.006-.002-.002-.008-.006-.006-.002q-.005-.003-.005-.006l-.006-.003-.005-.005-.006-.003-.005-.005-.006-.003-.005-.005-.006-.003q-.004-.003-.005-.006l-.005-.002q-.005-.003-.006-.006 0-.002-.005-.003l-.008-.005-.003-.003-.008-.005q-.002 0-.003-.003l-.011-.008-.01-.008-.004-.003-.008-.005-.005-.003q-.005-.003-.006-.006l-.005-.002q-.005-.003-.006-.006 0-.002-.005-.003-.005-.002-.005-.005l-.006-.003q-.005-.002-.005-.005l-.006-.003-.005-.005q0-.002-.006-.003l-.005-.003-.006-.002q-.002-.004-.005-.003l-.006-.003-.005-.005-.006-.003-.008-.006-.005-.002-.011-.008q-.002 0-.003-.003l-.008-.006-.005-.002q-.005-.003-.006-.006-.001-.002-.005-.003-.003 0-.006-.005l-.005-.003-.006-.002q-.002-.004-.005-.003l-.006-.003-.005-.003-.005-.002-.006-.003-.005-.003q-.003-.004-.006-.003l-.005-.002-.006-.003-.005-.003q-.005 0-.006-.005-.002-.001-.002-.003l-.009-.005-.002-.003-.027-.02-.009-.005-.002-.002-.009-.006-.002-.003q-.005-.002-.006-.005l-.005-.003q-.005-.002-.006-.005 0-.002-.005-.003l-.008-.005-.003-.003-.008-.006-.003-.002-.008-.006-.003-.002-.008-.006q-.002 0-.003-.003l-.008-.005q-.002 0-.003-.003l-.008-.005c-.013-.008-.027-.02-.04-.027l-.009-.006q-.002 0-.003-.003l-.008-.005q-.002 0-.003-.003l-.008-.005-.002-.003-.009-.005-.002-.003-.008-.006q-.002 0-.003-.002l-.008-.006h-.003l-.008-.005-.085-.055-.01-.008a.02.02 0 0 0-.012-.005q-.204-.129-.417-.257M19.952.256l-.47 2.685c.977.172 1.936.445 2.852.816l1.02-2.528a16 16 0 0 0-1.698-.58l-.011-.003-.011-.003-.011-.002-.011-.003-.14-.038-.01-.003h-.003l-.01-.003h-.003l-.011-.002h-.003l-.01-.003h-.004l-.01-.003h-.003l-.011-.003h-.003l-.01-.002h-.004l-.01-.003h-.003l-.011-.003h-.003l-.01-.003h-.003L21.326.57l-.077-.02-.01-.002h-.003l-.011-.003h-.003q-.003-.002-.01-.003h-.004L21.2.54h-.005l-.008-.003h-.006l-.008-.003h-.005l-.009-.002h-.005l-.008-.003h-.006l-.008-.003h-.005l-.008-.003h-.006l-.008-.002h-.003l-.008-.003h-.003l-.008-.003h-.003l-.008-.002h-.003L21.02.502l-.01-.003h-.003q-.004 0-.009-.003h-.005q-.004 0-.008-.003h-.006l-.008-.002h-.005q-.005 0-.008-.003h-.006q-.004 0-.008-.003-.003 0-.005-.002-.005 0-.009-.003h-.005q-.005 0-.008-.003-.003 0-.006-.003l-.008-.002q-.003 0-.005-.003-.005 0-.008-.003-.005 0-.006-.003l-.008-.002q-.005 0-.006-.003-.003 0-.008-.003-.004 0-.005-.002-.005 0-.008-.003-.005 0-.006-.003-.004 0-.008-.003l-.006-.002q-.003 0-.008-.003h-.005q-.005 0-.008-.003h-.006l-.013-.003q-.005 0-.009-.002h-.005q-.004 0-.008-.003-.005 0-.006-.003l-.008-.002h-.005q-.004 0-.009-.003h-.005q-.004 0-.008-.003-.003 0-.006-.003l-.008-.002q-.005 0-.005-.003-.005 0-.008-.003-.003 0-.006-.003l-.008-.002h-.005q-.005 0-.009-.003h-.005q-.005 0-.008-.003h-.006l-.008-.002h-.005q-.005 0-.008-.003h-.006q-.004 0-.008-.003h-.006q-.003 0-.008-.003h-.005q-.005 0-.008-.002h-.006q-.003-.002-.01-.003h-.004l-.01-.003h-.003l-.041-.008h-.003l-.01-.003H20.5l-.011-.002h-.003q-.004 0-.01-.003h-.004l-.01-.003h-.003q-.005 0-.008-.003h-.003q-.005 0-.008-.002h-.006q-.004 0-.008-.003h-.003l-.01-.003h-.003q-.004 0-.011-.003h-.003l-.008-.002h-.006l-.01-.003h-.003l-.011-.003h-.003l-.01-.002h-.003L20.33.33l-.055-.011-.014-.003-.01-.002h-.003l-.01-.004h-.003l-.01-.003h-.003q-.006 0-.011-.003h-.003l-.011-.002h-.003q-.005 0-.01-.003h-.003q-.004 0-.011-.003h-.003q-.006 0-.01-.003h-.004c-.002 0-.008 0-.01-.002h-.003l-.011-.003h-.003l-.01-.003h-.003l-.014-.002-.096-.017-.013-.003h-.003l-.01-.002h-.003q-.006 0-.011-.003h-.003q0-.004-.008-.003M16.999 0v2.726q.102 0 .202.003l.038-2.726h-.057Q17.18-.001 17.174 0H17"/></g><defs><clipPath id="a"><path fill="#fff" d="M0 0h34v34H0z"/></clipPath></defs></svg>