<svg width="40" height="41" viewBox="0 0 40 41" fill="none" xmlns="http://www.w3.org/2000/svg">
<g clip-path="url(#clip0_2806_3006)">
<path d="M19.9998 3.0188C18.6534 3.0188 17.5415 4.13075 17.5415 5.47713C17.5415 6.8235 18.6534 7.93545 19.9998 7.93545C21.3462 7.93545 22.4582 6.8235 22.4582 5.47713C22.4582 4.13075 21.3462 3.0188 19.9998 3.0188Z" fill="currentColor"/>
<path d="M20 10.4355C14.4772 10.4355 10 14.9127 10 20.4355C10 23.3155 11.25 25.8855 13.25 27.6855L11.08 36.5855C10.95 37.1355 11.3 37.6855 11.85 37.8155C12.4 37.9455 12.95 37.6155 13.08 37.0655L15.34 27.8155C16.79 28.3255 18.36 28.6155 20 28.6155C25.5228 28.6155 30 24.1384 30 18.6155C30 14.9127 25.5228 10.4355 20 10.4355ZM20 26.1555C15.86 26.1555 12.5 22.7955 12.5 18.6555C12.5 14.5155 15.86 11.1555 20 11.1555C24.14 11.1555 27.5 14.5155 27.5 18.6555C27.5 22.7955 24.14 26.1555 20 26.1555Z" fill="currentColor"/>
</g>
<defs>
<clipPath id="clip0_2806_3006">
<rect width="40" height="40" fill="white" transform="translate(0 0.5)"/>
</clipPath>
</defs>
</svg>
