<svg xmlns="http://www.w3.org/2000/svg" fill="none" viewBox="0 0 34 34"><g clip-path="url(#a)"><path fill="#DBD6C4" d="M17 34c9.389 0 17-7.611 17-17S26.389 0 17 0 0 7.611 0 17s7.611 17 17 17"/><path fill="#E4E0D3" d="M6.564 3.541c7.454-5.74 18.15-4.356 23.895 3.097 5.744 7.453 4.356 18.15-3.097 23.895"/><g fill="#fff" opacity=".12"><path d="M5.969 26.1q.216.265.45.518a2 2 0 0 0-.074-.191.6.6 0 0 0-.376-.327m25.317-9.615a2 2 0 0 0-.3.504s-.546 1.404-.78 1.955a.054.054 0 0 1-.082-.028c-.046-.136-.349-1.126-.441-1.335a.61.61 0 0 0-.415-.341.57.57 0 0 0-.46.095l-.017.014c-.196.166-.305.406-.39.6 0 0-.57 1.466-.793 1.99-.027.013-.065.002-.076-.03-.047-.137-.35-1.126-.445-1.336a.61.61 0 0 0-.414-.34.57.57 0 0 0-.46.095l-.017.013c-.196.166-.305.406-.39.6 0 0-.553 1.428-.785 1.968-.027.011-.063.003-.074-.03-.046-.136-.349-1.126-.444-1.336a.61.61 0 0 0-.414-.34.57.57 0 0 0-.461.095l-.016.014c-.197.166-.306.406-.39.6 0 0-.57 1.466-.794 1.99-.027.013-.065.002-.076-.03-.046-.137-.349-1.126-.444-1.336a.61.61 0 0 0-.415-.341.57.57 0 0 0-.46.095l-.017.014c-.196.166-.305.406-.39.6 0 0-.545 1.404-.78 1.954a.052.052 0 0 1-.081-.027c-.046-.136-.349-1.126-.444-1.336a.61.61 0 0 0-.415-.34.57.57 0 0 0-.46.095l-.017.014c-.196.166-.305.406-.39.6 0 0-.57 1.466-.793 1.99-.027.013-.065.002-.076-.03-.047-.137-.35-1.127-.445-1.337a.61.61 0 0 0-.414-.34.57.57 0 0 0-.46.095l-.012.003c-.196.166-.305.406-.39.6 0 0-.575 1.48-.795 1.995a.054.054 0 0 1-.09-.019c-.047-.136-.35-1.126-.445-1.336a.61.61 0 0 0-.414-.34.57.57 0 0 0-.46.095l-.017.014c-.197.166-.306.406-.39.6 0 0-.57 1.466-.793 1.99-.028.013-.066.002-.077-.03-.046-.137-.349-1.126-.444-1.336a.61.61 0 0 0-.414-.341.57.57 0 0 0-.461.095l-.016.014c-.197.166-.306.406-.39.6 0 0-.545 1.404-.78 1.954a.053.053 0 0 1-.082-.027c-.046-.136-.349-1.126-.441-1.336a.61.61 0 0 0-.415-.34.57.57 0 0 0-.46.095l-.017.013c-.196.167-.305.407-.39.6 0 0-.33.848-.586 1.483.107.101.21.205.32.303.168-.406.446-1.069.58-1.41q.01-.03.008-.054c.2-.488.254-.594.434-.597.147-.003.212.163.24.245.1.295.286.924.373 1.183.063.18.207.311.376.322a.4.4 0 0 0 .303-.125.22.22 0 0 0 .098-.101c.024-.055.144-.352.272-.674.167-.398.377-.905.488-1.188.006-.011.003-.025.006-.038.193-.477.248-.581.428-.587.147-.002.213.164.24.246.1.294.286.924.373 1.183.063.18.207.31.376.322a.42.42 0 0 0 .352-.183.2.2 0 0 0 .057-.07c.017-.036.071-.173.142-.347.166-.395.469-1.123.614-1.483q.01-.03.008-.055c.199-.488.253-.594.433-.597.147-.002.213.164.24.246.1.294.286.924.373 1.183.063.18.208.31.377.322a.42.42 0 0 0 .36-.197.2.2 0 0 0 .062-.079c.03-.068.213-.523.376-.927.137-.327.278-.67.363-.886q.004-.01.003-.021c.218-.538.267-.646.455-.652.147-.003.213.164.24.245.1.295.286.924.373 1.183.063.18.208.311.377.322a.42.42 0 0 0 .351-.182.2.2 0 0 0 .058-.071c.016-.036.07-.172.141-.347.166-.395.47-1.123.614-1.483q.01-.03.008-.054c.199-.488.253-.594.433-.597.148-.003.213.163.24.245.101.295.286.924.374 1.183.062.18.207.311.376.322a.4.4 0 0 0 .302-.125.22.22 0 0 0 .099-.101c.024-.055.144-.352.272-.674.166-.398.376-.905.49-1.188.006-.011.004-.025.006-.038.194-.477.248-.581.428-.586.148-.003.213.163.24.245.101.294.287.924.374 1.183.062.18.207.31.376.322a.42.42 0 0 0 .352-.183.2.2 0 0 0 .057-.07c.016-.036.07-.172.142-.347.166-.395.468-1.123.613-1.483q.01-.03.008-.055c.2-.488.254-.594.434-.596.147-.003.212.163.24.245.1.294.286.924.373 1.183.063.18.207.31.376.322a.4.4 0 0 0 .327-.15.2.2 0 0 0 .071-.085c.011-.024.044-.103.087-.212.134-.32.513-1.224.68-1.639.007-.022.007-.044.01-.063.188-.46.243-.561.42-.567.147-.002.213.164.24.246.1.294.286.924.373 1.183.063.18.207.31.377.322a.41.41 0 0 0 .351-.183.2.2 0 0 0 .057-.071c.017-.035.071-.172.142-.346.166-.396.47-1.123.614-1.483q.01-.03.008-.055c.199-.488.253-.594.433-.597.147-.002.213.164.24.246.1.294.286.924.374 1.183.062.18.207.31.376.321a.4.4 0 0 0 .302-.125.22.22 0 0 0 .098-.1c.025-.055.145-.352.273-.674.155-.374.352-.842.466-1.134.003-.131.011-.26.011-.393-.003-.19-.008-.36-.014-.531M8.524 27.605a.57.57 0 0 0-.46.095l-.017.014a1 1 0 0 0-.215.261q.159.133.327.262c.082-.153.145-.193.256-.199.148-.003.213.164.24.245.036.107.085.26.134.423q.256.178.52.349c-.108-.344-.3-.949-.37-1.11a.6.6 0 0 0-.415-.34"/><path d="M30.205 21.452c-.027.019-.071.01-.082-.028-.046-.136-.349-1.125-.442-1.335a.61.61 0 0 0-.414-.341.57.57 0 0 0-.46.095l-.017.014c-.196.166-.305.406-.39.6 0 0-.57 1.466-.793 1.99-.027.013-.066.003-.076-.03-.047-.137-.35-1.126-.445-1.336a.61.61 0 0 0-.414-.34.57.57 0 0 0-.46.095l-.017.013c-.197.166-.306.406-.39.6 0 0-.553 1.428-.785 1.968-.027.011-.063.003-.074-.03-.046-.136-.349-1.126-.444-1.335a.61.61 0 0 0-.415-.341.57.57 0 0 0-.46.095l-.017.014c-.196.166-.305.406-.39.6 0 0-.57 1.466-.793 1.99-.027.013-.065.002-.076-.03-.046-.137-.349-1.126-.444-1.336a.61.61 0 0 0-.415-.341.57.57 0 0 0-.46.095l-.017.014c-.196.166-.305.406-.39.6 0 0-.545 1.404-.78 1.954a.052.052 0 0 1-.081-.027c-.046-.136-.35-1.126-.444-1.336a.61.61 0 0 0-.415-.34.57.57 0 0 0-.46.095l-.017.014c-.196.166-.305.406-.39.6 0 0-.57 1.466-.793 1.99-.027.013-.066.002-.076-.03-.047-.137-.35-1.126-.445-1.336a.61.61 0 0 0-.414-.341.57.57 0 0 0-.46.095l-.012.003c-.196.166-.305.406-.39.6 0 0-.575 1.48-.796 1.995a.054.054 0 0 1-.09-.019c-.046-.136-.348-1.126-.444-1.336a.61.61 0 0 0-.414-.34.57.57 0 0 0-.461.095l-.016.014c-.197.166-.306.406-.39.6 0 0-.57 1.466-.793 1.99-.028.013-.066.002-.077-.03-.046-.137-.349-1.126-.444-1.336a.61.61 0 0 0-.415-.341.57.57 0 0 0-.46.095l-.017.014c-.196.166-.305.406-.39.6 0 0-.474 1.221-.727 1.832q.176.108.357.21c.052-.129.128-.314.204-.508.167-.398.377-.905.488-1.188.006-.011.003-.025.006-.038.193-.477.248-.58.428-.586.147-.003.212.163.24.245.1.294.286.924.373 1.183.063.18.207.31.376.322a.42.42 0 0 0 .352-.183.2.2 0 0 0 .057-.07c.017-.036.071-.172.142-.347.166-.395.469-1.123.613-1.483q.01-.03.008-.054c.2-.488.254-.595.434-.598.147-.002.213.164.24.246.1.294.286.924.373 1.183.063.18.207.31.377.322a.42.42 0 0 0 .36-.197.2.2 0 0 0 .062-.079c.03-.068.213-.523.376-.926.137-.328.278-.671.363-.887q.004-.01.003-.021c.218-.537.267-.646.455-.652.147-.003.212.164.24.246.1.294.286.924.373 1.183.063.18.207.31.376.321a.42.42 0 0 0 .352-.182.2.2 0 0 0 .057-.071c.017-.036.071-.172.142-.346.166-.396.469-1.124.613-1.483.009-.02.009-.039.009-.055.199-.488.253-.594.433-.597.147-.003.213.164.24.245.1.295.286.924.373 1.183.063.18.208.311.377.322a.4.4 0 0 0 .302-.125.22.22 0 0 0 .098-.101c.025-.055.145-.352.273-.673.166-.398.376-.905.49-1.189.006-.01.003-.024.006-.038.194-.477.248-.58.428-.586.147-.003.213.163.24.245.1.294.286.924.373 1.183.063.18.208.311.377.322a.41.41 0 0 0 .351-.183.2.2 0 0 0 .058-.07c.016-.036.07-.17.141-.347.167-.395.47-1.123.614-1.483q.01-.03.008-.054c.199-.488.253-.595.433-.597.148-.003.213.163.24.245.101.294.287.924.374 1.183.063.18.207.31.376.322a.4.4 0 0 0 .327-.15.2.2 0 0 0 .071-.085c.01-.024.044-.103.087-.212.134-.32.513-1.224.679-1.639.008-.021.008-.043.01-.062.189-.461.244-.562.42-.567.148-.003.213.163.24.245.102.294.287.924.374 1.183.063.18.207.31.376.322a.41.41 0 0 0 .352-.183.2.2 0 0 0 .057-.07c.017-.036.071-.173.142-.347.166-.395.469-1.123.613-1.483.008-.02.008-.038.008-.055.2-.488.254-.594.434-.597.147-.002.213.164.24.246.1.294.286.924.373 1.183.063.18.208.31.377.322a.4.4 0 0 0 .302-.126l.025-.016a14 14 0 0 0 .654-2.576c-.055.098-.1.196-.142.286-.002-.022-.548 1.382-.782 1.933M5.4 22.07c.188-.46.243-.561.42-.566.147-.003.213.163.24.245.1.294.286.924.373 1.183.063.18.208.31.377.322a.41.41 0 0 0 .351-.183.2.2 0 0 0 .058-.07c.016-.036.07-.173.141-.347.167-.395.47-1.123.614-1.483q.01-.03.008-.055c.199-.488.253-.594.433-.597.148-.002.213.164.24.246.101.294.286.924.374 1.183.062.18.207.31.376.322a.4.4 0 0 0 .303-.126.22.22 0 0 0 .098-.1c.024-.055.144-.352.272-.674.167-.398.377-.905.488-1.189.006-.01.003-.024.006-.038.193-.477.248-.58.428-.586.147-.003.212.164.24.245.1.295.286.925.373 1.184.063.18.207.31.376.321a.42.42 0 0 0 .352-.182.2.2 0 0 0 .057-.071c.017-.036.071-.172.142-.346.166-.396.469-1.124.613-1.483q.01-.03.008-.055c.2-.488.254-.594.434-.597.147-.003.213.164.24.245.1.295.286.924.373 1.183.063.18.207.311.377.322a.42.42 0 0 0 .36-.196.2.2 0 0 0 .062-.08c.03-.067.213-.523.376-.926.137-.327.278-.67.363-.886q.004-.011.003-.022c.218-.537.267-.646.455-.651.147-.003.212.163.24.245.1.294.286.924.373 1.183.063.18.207.31.376.322a.42.42 0 0 0 .352-.183.2.2 0 0 0 .057-.07c.017-.036.071-.172.142-.347.166-.395.469-1.123.613-1.483.009-.02.009-.038.009-.055.199-.488.253-.594.433-.596.147-.003.213.163.24.245.1.294.286.924.373 1.183.063.18.208.31.377.322a.4.4 0 0 0 .302-.126.22.22 0 0 0 .098-.1c.025-.055.145-.352.273-.674.166-.398.376-.905.49-1.189.006-.01.003-.024.006-.038.194-.477.248-.58.428-.586.147-.002.213.164.24.245.1.295.286.925.373 1.184.063.18.208.31.377.321a.42.42 0 0 0 .351-.182.2.2 0 0 0 .058-.071c.016-.036.07-.172.141-.346.167-.396.47-1.124.614-1.483q.01-.03.008-.055c.199-.488.254-.594.433-.597.148-.003.213.164.24.245.101.295.287.925.374 1.184.063.18.207.31.376.321a.4.4 0 0 0 .327-.15.2.2 0 0 0 .071-.084c.01-.025.044-.104.087-.213.134-.319.513-1.224.679-1.638.008-.022.008-.044.01-.063.189-.46.244-.562.42-.567.148-.003.213.164.24.245.102.295.287.925.374 1.184.063.18.207.31.376.321a.41.41 0 0 0 .352-.183.2.2 0 0 0 .057-.07c.017-.036.071-.172.142-.347.166-.395.469-1.123.613-1.483.008-.019.008-.038.008-.054.2-.488.254-.594.434-.597.147-.003.213.163.24.245.1.295.286.924.373 1.183.063.18.208.311.377.322a.4.4 0 0 0 .302-.125.22.22 0 0 0 .098-.101c.025-.055.145-.352.273-.674l.03-.07a18 18 0 0 0-.183-.65c-.16.41-.346.873-.46 1.14-.028.02-.071.011-.082-.027-.047-.136-.35-1.126-.442-1.336a.61.61 0 0 0-.414-.34.57.57 0 0 0-.46.095l-.017.014c-.197.166-.306.406-.39.6 0 0-.57 1.466-.793 1.99-.028.013-.066.002-.077-.03-.046-.137-.349-1.127-.444-1.336a.61.61 0 0 0-.415-.341.57.57 0 0 0-.46.095l-.017.014c-.196.166-.305.406-.39.6 0 0-.553 1.428-.784 1.968-.028.01-.063.003-.074-.03-.047-.136-.349-1.126-.445-1.336a.61.61 0 0 0-.414-.34.57.57 0 0 0-.46.095l-.017.013c-.196.167-.305.406-.39.6 0 0-.57 1.467-.793 1.99-.027.014-.066.003-.076-.03-.047-.136-.35-1.126-.445-1.336a.61.61 0 0 0-.414-.34.57.57 0 0 0-.46.095l-.017.014c-.196.166-.306.406-.39.6 0 0-.545 1.403-.78 1.954-.027.019-.07.01-.081-.027-.047-.137-.35-1.126-.445-1.336a.61.61 0 0 0-.414-.34.57.57 0 0 0-.46.095l-.017.013c-.197.167-.306.406-.39.6 0 0-.57 1.467-.793 1.99-.028.014-.066.003-.077-.03-.046-.136-.349-1.126-.444-1.336a.61.61 0 0 0-.414-.34.57.57 0 0 0-.461.095l-.017-.022c-.196.166-.305.406-.39.6 0 0-.575 1.48-.795 1.995a.054.054 0 0 1-.09-.019c-.047-.136-.35-1.126-.445-1.336a.61.61 0 0 0-.414-.34.57.57 0 0 0-.46.095l-.017.014c-.196.166-.305.406-.39.6 0 0-.57 1.466-.793 1.99-.027.013-.066.002-.077-.03-.046-.137-.349-1.126-.444-1.336a.61.61 0 0 0-.414-.341.57.57 0 0 0-.461.095l-.016.014c-.197.166-.306.406-.39.6 0 0-.545 1.404-.78 1.954a.053.053 0 0 1-.082-.027c-.046-.136-.349-1.126-.441-1.336a.61.61 0 0 0-.415-.34.57.57 0 0 0-.46.095l-.017.014c-.196.166-.305.406-.39.6 0 0-.57 1.466-.793 1.99-.027.013-.065.002-.076-.03-.046-.137-.35-1.126-.445-1.336a.61.61 0 0 0-.414-.341.57.57 0 0 0-.46.095l-.017.014c-.196.166-.305.406-.39.6 0 0-.482 1.245-.736 1.85q.116.219.235.431a.2.2 0 0 0 .06-.073l.087-.213c.133-.319.512-1.224.679-1.638a.2.2 0 0 0 .013-.068m-1.68.242q.071.179.145.355a4 4 0 0 0-.106-.29c-.008-.024-.025-.043-.038-.065"/><path d="M7.22 25.503c.016-.036.07-.172.142-.347.166-.395.469-1.123.613-1.483q.01-.03.008-.054c.2-.488.254-.594.434-.597.147-.003.212.163.24.245.1.295.286.924.373 1.183.063.18.207.311.376.322a.4.4 0 0 0 .303-.125.22.22 0 0 0 .098-.101c.025-.055.145-.352.273-.674.166-.398.376-.905.488-1.188.005-.011.002-.025.005-.038.194-.477.248-.581.428-.586.147-.003.213.163.24.245.1.294.286.924.373 1.183.063.18.208.31.377.322a.42.42 0 0 0 .351-.183.2.2 0 0 0 .058-.07c.016-.036.07-.172.141-.347.167-.395.47-1.123.614-1.483.008-.02.008-.038.008-.055.199-.488.253-.594.433-.597.148-.002.213.164.24.246.101.294.287.924.374 1.183.062.18.207.31.376.322a.42.42 0 0 0 .36-.197.2.2 0 0 0 .063-.079c.03-.068.212-.523.376-.927.136-.327.278-.67.362-.886q.004-.01.003-.021c.218-.537.267-.646.455-.652.147-.003.213.164.24.245.101.295.286.925.374 1.183.062.18.207.311.376.322a.42.42 0 0 0 .352-.182.2.2 0 0 0 .057-.071c.016-.036.07-.172.142-.346.166-.396.468-1.124.613-1.483q.01-.03.008-.055c.199-.488.254-.594.433-.597.148-.003.213.164.24.245.101.295.287.924.374 1.183.063.18.207.311.376.322a.4.4 0 0 0 .303-.125.22.22 0 0 0 .098-.101c.024-.055.144-.352.272-.674.167-.398.377-.905.491-1.188.006-.011.003-.025.006-.038.193-.477.248-.58.428-.586.147-.003.212.163.24.245.1.294.286.924.373 1.183.063.18.207.31.376.322a.41.41 0 0 0 .352-.183.2.2 0 0 0 .057-.07c.016-.036.07-.17.142-.347.166-.395.469-1.123.613-1.483q.01-.03.008-.055c.2-.488.254-.594.434-.596.147-.003.212.163.24.245.1.294.286.924.373 1.183.063.18.207.31.376.322a.4.4 0 0 0 .327-.15.2.2 0 0 0 .071-.085 166 166 0 0 0 .766-1.851c.009-.022.009-.043.011-.063.188-.46.243-.561.42-.566.147-.003.213.163.24.245.1.294.286.924.373 1.183.063.18.208.31.377.322a.41.41 0 0 0 .351-.183.3.3 0 0 0 .058-.07c.016-.036.07-.173.141-.347.167-.395.47-1.123.614-1.483.008-.02.008-.038.008-.055.199-.488.254-.594.433-.597.148-.002.213.164.24.246.101.294.287.924.374 1.183.063.18.207.31.376.322a.4.4 0 0 0 .303-.126.22.22 0 0 0 .098-.1c.024-.055.144-.352.272-.674.112-.27.246-.592.355-.859a13 13 0 0 0-.128-.812l-.063.136s-.545 1.404-.78 1.955c-.027.019-.07.01-.081-.028-.047-.136-.35-1.125-.442-1.335a.61.61 0 0 0-.415-.341.57.57 0 0 0-.46.095l-.017.014c-.196.166-.305.406-.39.6 0 0-.57 1.466-.793 1.99-.027.013-.065.002-.076-.03-.046-.137-.349-1.126-.444-1.336a.61.61 0 0 0-.415-.34.57.57 0 0 0-.46.095l-.017.013c-.196.166-.305.406-.39.6 0 0-.553 1.428-.785 1.968-.027.011-.062.003-.073-.03-.047-.136-.35-1.126-.445-1.336a.61.61 0 0 0-.414-.34.57.57 0 0 0-.46.095l-.017.014c-.196.166-.305.406-.39.6 0 0-.57 1.466-.793 1.99-.028.013-.066.002-.077-.03-.046-.137-.349-1.126-.444-1.336a.61.61 0 0 0-.414-.341.57.57 0 0 0-.461.095l-.017.014c-.196.166-.305.406-.39.6 0 0-.545 1.404-.779 1.954a.053.053 0 0 1-.082-.027c-.046-.136-.349-1.126-.444-1.336a.61.61 0 0 0-.415-.34.57.57 0 0 0-.46.095l-.017.014c-.196.166-.305.406-.39.6 0 0-.57 1.466-.793 1.99-.027.013-.065.002-.076-.03-.046-.137-.349-1.126-.444-1.336a.61.61 0 0 0-.415-.341.57.57 0 0 0-.46.095l-.014-.016c-.196.166-.305.406-.39.6 0 0-.575 1.48-.796 1.995a.054.054 0 0 1-.09-.019c-.046-.136-.349-1.126-.444-1.336a.61.61 0 0 0-.415-.34.57.57 0 0 0-.46.095l-.017.014c-.196.166-.305.406-.39.6 0 0-.57 1.466-.793 1.99-.027.013-.065.002-.076-.03-.046-.137-.35-1.126-.444-1.336a.61.61 0 0 0-.415-.341.57.57 0 0 0-.46.095l-.017.014c-.196.166-.305.406-.39.6 0 0-.545 1.404-.78 1.954a.052.052 0 0 1-.081-.027c-.047-.136-.35-1.126-.442-1.336a.61.61 0 0 0-.414-.34.57.57 0 0 0-.46.095l-.017.014c-.197.166-.306.406-.39.6 0 0-.57 1.466-.793 1.99-.028.013-.066.002-.077-.03-.046-.137-.349-1.127-.444-1.336a.61.61 0 0 0-.414-.341.57.57 0 0 0-.461.095l-.017.014c-.196.166-.305.406-.39.6l-.141.365q.14.221.286.439l.183-.447c.008-.022.008-.044.01-.063.189-.46.243-.562.42-.567.148-.003.213.163.24.245.101.295.287.924.374 1.183.063.18.207.311.376.322a.41.41 0 0 0 .352-.183.3.3 0 0 0 .057-.081m16.41 3.917-.017.014c-.128.109-.218.25-.289.39q.44-.218.862-.464a.58.58 0 0 0-.556.06m-2.596.992-.016.014a1.2 1.2 0 0 0-.284.379q.531-.144 1.044-.325a.6.6 0 0 0-.283-.16.56.56 0 0 0-.46.092m-9.922-1.164a.57.57 0 0 0-.461.096l-.016.014c-.107.09-.188.204-.251.318q.183.098.37.191c.077-.139.14-.18.249-.182.147-.003.212.163.24.245.019.052.038.12.062.19q.233.102.47.194a10 10 0 0 0-.249-.72.6.6 0 0 0-.414-.346m18.151-6.897a.57.57 0 0 0-.46.096l-.017.013c-.196.167-.305.406-.39.6 0 0-.57 1.467-.793 1.99-.027.014-.065.003-.076-.03-.046-.136-.35-1.126-.444-1.336a.61.61 0 0 0-.415-.34.57.57 0 0 0-.46.095l-.017.014c-.196.166-.305.406-.39.6 0 0-.553 1.428-.785 1.968-.027.01-.063.002-.073-.03-.047-.137-.35-1.126-.445-1.336a.61.61 0 0 0-.414-.341.57.57 0 0 0-.461.095l-.016.014c-.197.166-.306.406-.39.6 0 0-.57 1.466-.793 1.99-.028.013-.066.003-.077-.03-.046-.136-.349-1.126-.444-1.336a.61.61 0 0 0-.415-.34.57.57 0 0 0-.46.095l-.011.005c-.196.166-.305.406-.39.6 0 0-.545 1.404-.78 1.954-.027.02-.07.012-.081-.027-.047-.136-.35-1.126-.445-1.335a.61.61 0 0 0-.414-.341.57.57 0 0 0-.46.095l-.017.014c-.197.166-.306.406-.39.6 0 0-.57 1.466-.793 1.99-.028.013-.066.002-.077-.03-.046-.137-.349-1.126-.444-1.336a.61.61 0 0 0-.414-.341.57.57 0 0 0-.461.095l-.016.014c-.197.166-.306.406-.39.6 0 0-.575 1.48-.796 1.995a.054.054 0 0 1-.09-.019c-.047-.136-.35-1.126-.445-1.335a.61.61 0 0 0-.414-.341.57.57 0 0 0-.46.095l-.017.014c-.196.166-.305.406-.39.6 0 0-.34.877-.6 1.518q.194.07.39.13c.17-.405.404-.967.524-1.272q.01-.03.008-.055c.199-.488.253-.594.433-.597.147-.003.213.164.24.245.101.295.286.925.374 1.184.062.18.207.31.376.321a.42.42 0 0 0 .36-.196.2.2 0 0 0 .062-.079c.03-.068.213-.523.377-.927.136-.327.278-.67.362-.886q.004-.011.003-.022c.218-.537.267-.646.455-.651.147-.003.213.163.24.245.1.295.286.924.373 1.183.063.18.208.311.377.322a.42.42 0 0 0 .351-.183.2.2 0 0 0 .058-.07c.016-.036.07-.172.141-.347.167-.395.47-1.123.614-1.483q.01-.03.008-.054c.199-.488.253-.595.433-.597.148-.003.213.163.24.245.101.294.287.924.374 1.183.063.18.207.31.376.322a.4.4 0 0 0 .303-.126.22.22 0 0 0 .098-.1c.024-.055.144-.352.272-.674.167-.398.377-.905.491-1.188.006-.011.003-.025.006-.039.193-.477.248-.58.428-.586.147-.002.212.164.24.246.1.294.286.924.373 1.183.063.18.207.31.376.322a.42.42 0 0 0 .352-.183.3.3 0 0 0 .057-.071c.016-.036.07-.172.142-.346.166-.396.469-1.123.613-1.483.008-.02.008-.038.008-.055.2-.488.254-.594.434-.597.147-.003.212.164.24.245.1.295.286.925.373 1.184.063.18.207.31.376.321a.4.4 0 0 0 .327-.15.2.2 0 0 0 .071-.084l.088-.213c.133-.319.512-1.224.678-1.638.008-.022.008-.044.011-.063.188-.46.243-.561.42-.567.147-.003.213.164.24.245.1.295.286.925.373 1.184.063.18.208.31.377.321a.41.41 0 0 0 .351-.182.3.3 0 0 0 .058-.071c.016-.036.07-.172.141-.346.167-.396.47-1.124.614-1.483q.01-.03.008-.055c.199-.488.253-.594.433-.597.147-.003.213.164.24.245.058.167.142.445.221.698q.13-.244.254-.496a7 7 0 0 0-.189-.54.6.6 0 0 0-.417-.357"/><path d="M16.317 29.758a.57.57 0 0 0-.46.096l-.017.013c-.197.166-.306.406-.39.6l-.278.714q.214.03.428.052l.15-.368.002-.022c.219-.537.268-.646.456-.651.147-.003.212.163.24.245.068.202.177.564.27.856q.141.006.283.008l.13-.002c-.1-.317-.32-1.026-.397-1.197a.62.62 0 0 0-.417-.344m-2.612 1.009a.56.56 0 0 0-.385.052q.362.095.73.174a.6.6 0 0 0-.345-.226m15.083-5.799c-.197.167-.306.407-.39.6l-.046.12q.296-.388.567-.793a1 1 0 0 0-.115.063zm-2.116.884a.57.57 0 0 0-.461.095l-.016.014c-.197.166-.306.406-.39.6 0 0-.554 1.428-.785 1.968-.028.01-.063.003-.074-.03-.046-.136-.349-1.126-.444-1.336a.61.61 0 0 0-.415-.34.57.57 0 0 0-.46.095l-.017.013c-.196.166-.305.406-.39.6 0 0-.57 1.467-.793 1.99-.027.014-.065.003-.076-.03-.047-.136-.35-1.126-.445-1.336a.61.61 0 0 0-.414-.34.57.57 0 0 0-.46.095l-.017.014c-.196.166-.305.406-.39.6 0 0-.545 1.403-.78 1.954-.027.019-.07.01-.081-.027-.047-.137-.35-1.126-.445-1.336a.61.61 0 0 0-.414-.34.57.57 0 0 0-.46.095l-.017.013c-.196.166-.305.406-.39.6 0 0-.466 1.2-.72 1.816q.225-.003.45-.014c.17-.406.45-1.08.589-1.423q.01-.03.008-.055c.2-.488.254-.594.434-.597.147-.003.212.164.24.246.1.294.286.924.373 1.183.063.18.207.31.376.321a.4.4 0 0 0 .303-.125.22.22 0 0 0 .098-.1c.024-.055.144-.352.273-.674.166-.398.376-.905.49-1.189.006-.01.003-.024.006-.038.193-.477.248-.58.428-.586.147-.003.212.163.24.245.1.295.286.925.373 1.183.063.18.207.311.376.322a.42.42 0 0 0 .352-.183.2.2 0 0 0 .057-.07c.017-.036.071-.172.142-.347.166-.395.469-1.123.613-1.483.008-.019.008-.038.008-.054.2-.488.254-.594.434-.597.147-.003.213.163.24.245.1.295.286.924.373 1.183.044.128.131.23.24.281q.323-.213.638-.441c.145-.344.505-1.203.665-1.606.008-.022.008-.044.011-.063.188-.46.243-.561.42-.567.147-.003.213.164.24.245.055.161.136.426.213.674q.157-.156.31-.317c-.092-.291-.19-.588-.237-.695a.62.62 0 0 0-.422-.351M9.03 6.758c.062.18.206.31.375.322a.4.4 0 0 0 .303-.126.22.22 0 0 0 .098-.1c.025-.055.145-.352.273-.674.166-.398.376-.905.488-1.189.005-.01.002-.024.005-.038.194-.477.248-.58.428-.586.147-.003.213.164.24.245.1.295.286.925.373 1.184.063.18.208.31.377.321a.42.42 0 0 0 .351-.182.2.2 0 0 0 .058-.071c.016-.036.07-.172.141-.347.167-.395.47-1.123.614-1.483q.01-.03.008-.054c.199-.488.253-.594.433-.597.148-.003.213.164.24.245.101.295.286.924.374 1.183.062.18.207.311.376.322a.42.42 0 0 0 .36-.196.2.2 0 0 0 .063-.08c.03-.067.212-.523.376-.926.136-.327.278-.67.362-.886l.003-.022c.044-.109.082-.196.114-.273-.158.014-.316.025-.474.044-.15.387-.561 1.434-.741 1.851a.054.054 0 0 1-.09-.019c-.047-.136-.35-1.126-.445-1.336a.6.6 0 0 0-.212-.248q-.434.095-.854.216c-.092.13-.158.275-.215.398 0 0-.57 1.466-.793 1.99-.027.013-.066.002-.077-.03-.046-.137-.348-1.126-.444-1.336a.6.6 0 0 0-.376-.327q-.371.167-.73.354a3 3 0 0 0-.175.34s-.545 1.405-.78 1.955a.053.053 0 0 1-.082-.027c-.046-.136-.349-1.126-.441-1.336-.006-.013-.014-.021-.022-.035q-.167.115-.33.234c.033.05.055.101.065.14.107.288.292.92.382 1.18M19.79 3.13a.4.4 0 0 0 .266-.099q-.293-.063-.591-.114c.076.123.19.204.324.213M6.81 8.067a.41.41 0 0 0 .352-.183.2.2 0 0 0 .057-.071c.016-.035.07-.172.142-.346.166-.395.468-1.123.613-1.483q.01-.03.008-.055l.016-.038q-.35.285-.684.589a54 54 0 0 1-.45 1.112c-.027.014-.065.003-.076-.03-.019-.052-.07-.223-.136-.428q-.156.164-.308.33c.035.112.065.213.09.284.062.18.207.31.376.319M17.196 4.12a.42.42 0 0 0 .352-.184.2.2 0 0 0 .057-.07c.017-.036.071-.172.142-.347l.322-.771q-.222-.018-.442-.027c-.142.357-.289.72-.379.93-.027.013-.065.002-.076-.03-.03-.09-.172-.549-.292-.911q-.204.001-.403.01c.103.32.261.854.34 1.086.063.174.207.305.38.313"/><path d="M4.23 11.542a.4.4 0 0 0 .327-.15.2.2 0 0 0 .07-.084l.088-.213c.133-.319.512-1.224.678-1.638.009-.022.009-.044.011-.063.188-.46.243-.561.42-.567.147-.003.213.164.24.246.101.294.286.924.374 1.183.062.18.207.31.376.321a.41.41 0 0 0 .351-.182.2.2 0 0 0 .058-.071c.016-.036.07-.172.141-.346.167-.396.47-1.124.614-1.483q.01-.03.008-.055c.199-.488.254-.594.433-.597.148-.003.213.164.24.245.101.295.287.925.374 1.184.063.18.207.31.376.321a.4.4 0 0 0 .303-.125.22.22 0 0 0 .098-.101c.024-.055.144-.352.272-.673.167-.398.377-.905.488-1.189.006-.01.003-.024.006-.038.193-.477.248-.58.428-.586.147-.003.212.163.24.245.1.295.286.924.373 1.183.063.18.207.311.376.322a.42.42 0 0 0 .352-.183.2.2 0 0 0 .057-.07c.017-.036.071-.172.142-.347.166-.395.469-1.123.613-1.483.009-.019.009-.038.009-.054.199-.488.253-.595.433-.597.147-.003.213.163.24.245.1.294.286.924.373 1.183.063.18.208.31.377.322a.42.42 0 0 0 .36-.196.2.2 0 0 0 .062-.08c.03-.068.213-.523.376-.926.137-.328.278-.671.363-.886q.004-.012.003-.022c.218-.537.267-.646.455-.652.147-.002.213.164.24.246.1.294.286.924.373 1.183.063.18.207.31.377.321a.42.42 0 0 0 .351-.182.2.2 0 0 0 .057-.071c.017-.036.071-.172.142-.346.166-.396.47-1.123.614-1.483q.01-.03.008-.055c.199-.488.253-.594.433-.597.147-.003.213.164.24.245.101.295.286.925.374 1.184.062.18.207.31.376.321a.4.4 0 0 0 .302-.125.22.22 0 0 0 .099-.101c.024-.054.144-.352.272-.673.166-.398.376-.905.49-1.189.006-.01.004-.024.006-.038q.054-.133.096-.23-.205-.06-.41-.116c-.005.01-.01.024-.016.032 0 0-.545 1.404-.78 1.955a.052.052 0 0 1-.081-.027c-.046-.137-.349-1.126-.444-1.336a.61.61 0 0 0-.415-.34.57.57 0 0 0-.46.095l-.017.013c-.196.167-.305.406-.39.6 0 0-.57 1.467-.793 1.99-.027.014-.065.003-.076-.03-.047-.136-.35-1.126-.445-1.336a.61.61 0 0 0-.414-.34.57.57 0 0 0-.46.095l-.017.014c-.196.166-.305.406-.39.6 0 0-.575 1.48-.796 1.995a.054.054 0 0 1-.09-.02c-.046-.136-.349-1.125-.444-1.335a.61.61 0 0 0-.415-.34.57.57 0 0 0-.46.095l-.017.013c-.196.167-.305.406-.39.6 0 0-.57 1.467-.793 1.99-.027.014-.065.003-.076-.03-.046-.136-.35-1.126-.444-1.336a.61.61 0 0 0-.415-.34.57.57 0 0 0-.46.095l-.017.014c-.196.166-.305.406-.39.6 0 0-.545 1.403-.78 1.954-.027.019-.07.01-.081-.027-.047-.137-.35-1.126-.442-1.336a.61.61 0 0 0-.414-.34.57.57 0 0 0-.46.094l-.017.014c-.197.166-.306.406-.39.6 0 0-.57 1.467-.793 1.99-.028.014-.066.003-.077-.03-.046-.136-.349-1.126-.444-1.336a.61.61 0 0 0-.414-.34.55.55 0 0 0-.401.062q-.254.34-.485.7c-.101.262-.56 1.435-.764 1.914-.027.011-.062.003-.073-.03-.014-.035-.044-.136-.085-.264q-.123.255-.234.518c.07.128.193.226.34.234m18.148-6.864a.42.42 0 0 0 .351-.183.2.2 0 0 0 .057-.07c.017-.036.071-.172.142-.347.008-.022.022-.049.03-.073q-.186-.087-.373-.17c-.06.145-.112.276-.156.371-.027.014-.065.003-.076-.03l-.158-.496q-.23-.09-.463-.171c.095.302.204.67.267.853.062.177.207.308.379.316M12.265 3.506q-.144.05-.287.103l.011.003a.42.42 0 0 0 .276-.106M3.239 17.414c.147-.002.213.164.24.246.1.294.286.924.373 1.183.063.18.208.31.377.322a.4.4 0 0 0 .327-.15.2.2 0 0 0 .07-.085l.088-.212c.133-.32.512-1.225.679-1.639.008-.022.008-.044.01-.063.189-.46.243-.561.42-.567.148-.002.213.164.24.246.101.294.286.924.374 1.183.062.18.207.31.376.322a.41.41 0 0 0 .352-.183.2.2 0 0 0 .057-.071c.016-.036.07-.172.142-.346.166-.396.468-1.123.613-1.483q.01-.03.008-.055c.2-.488.254-.594.434-.597.147-.002.212.164.24.246.1.294.286.924.373 1.183.063.18.207.31.376.321a.4.4 0 0 0 .303-.125.22.22 0 0 0 .098-.1c.024-.055.144-.353.273-.674.166-.398.376-.905.487-1.189.006-.01.003-.024.006-.038.194-.477.248-.58.428-.586.147-.003.213.163.24.245.1.295.286.924.373 1.183.063.18.207.311.377.322a.42.42 0 0 0 .351-.183.2.2 0 0 0 .057-.07c.017-.036.071-.172.142-.347.167-.395.47-1.123.614-1.483q.01-.03.008-.054c.199-.488.253-.594.433-.597.147-.003.213.163.24.245.101.295.286.924.374 1.183.062.18.207.311.376.322a.42.42 0 0 0 .36-.196.2.2 0 0 0 .062-.08c.03-.068.213-.523.377-.926.136-.327.278-.67.362-.886q.004-.011.003-.022c.218-.537.267-.646.455-.652.147-.002.213.164.24.246.1.294.286.924.373 1.183.063.18.208.31.377.322a.42.42 0 0 0 .351-.183.2.2 0 0 0 .058-.071c.016-.035.07-.172.141-.346.167-.396.47-1.123.614-1.483.008-.02.008-.038.008-.055.199-.488.253-.594.433-.597.148-.002.213.164.24.246.101.294.286.924.374 1.183.062.18.207.31.376.321a.4.4 0 0 0 .302-.125.22.22 0 0 0 .099-.1c.024-.055.144-.353.272-.674.166-.398.377-.905.491-1.189.005-.01.003-.024.005-.038.194-.477.248-.58.428-.586.148-.003.213.164.24.245.101.295.287.924.374 1.183.063.18.207.311.376.322a.42.42 0 0 0 .352-.182.2.2 0 0 0 .057-.071c.016-.036.07-.172.142-.347.166-.395.468-1.123.613-1.483q.01-.03.008-.054c.2-.488.254-.594.434-.597.147-.003.212.163.24.245.1.295.286.924.373 1.183.063.18.207.311.376.322a.4.4 0 0 0 .327-.15.2.2 0 0 0 .071-.085l.087-.212c.134-.32.513-1.224.68-1.638.008-.022.008-.044.01-.063.188-.46.243-.562.42-.567.147-.003.213.163.24.245.1.295.286.924.373 1.183.063.18.208.311.377.322a.41.41 0 0 0 .351-.183.2.2 0 0 0 .058-.07c.016-.036.07-.17.141-.347.123-.292.316-.758.47-1.131a14 14 0 0 0-.303-.4c-.183.463-.508 1.291-.666 1.657-.027.013-.065.002-.076-.03-.046-.137-.349-1.126-.444-1.336a.61.61 0 0 0-.415-.34.57.57 0 0 0-.46.094l-.017.014c-.196.166-.305.406-.39.6 0 0-.553 1.428-.785 1.968-.027.011-.062.003-.073-.03-.047-.136-.35-1.126-.445-1.336a.61.61 0 0 0-.414-.34.57.57 0 0 0-.46.095l-.017.014c-.196.166-.305.406-.39.6 0 0-.57 1.466-.793 1.99-.027.013-.066.002-.077-.03-.046-.137-.348-1.126-.444-1.336a.61.61 0 0 0-.414-.341.57.57 0 0 0-.461.095l-.016-.016c-.197.166-.306.406-.39.6 0 0-.545 1.404-.78 1.954a.053.053 0 0 1-.082-.027c-.046-.136-.349-1.126-.444-1.336a.61.61 0 0 0-.414-.34.57.57 0 0 0-.461.095l-.016.013c-.197.167-.306.407-.39.6 0 0-.57 1.467-.794 1.99-.027.014-.065.003-.076-.03-.046-.136-.349-1.126-.444-1.336a.61.61 0 0 0-.415-.34.57.57 0 0 0-.46.095l-.017.014c-.196.166-.305.406-.39.6 0 0-.575 1.48-.796 1.995a.054.054 0 0 1-.09-.019c-.046-.136-.348-1.126-.444-1.336a.61.61 0 0 0-.414-.34.57.57 0 0 0-.46.095l-.017.014c-.197.166-.306.406-.39.6 0 0-.57 1.466-.793 1.99-.028.013-.066.002-.077-.03-.046-.137-.349-1.127-.444-1.336a.61.61 0 0 0-.415-.341.57.57 0 0 0-.46.095l-.017.014c-.196.166-.305.406-.39.6 0 0-.545 1.404-.779 1.954a.053.053 0 0 1-.082-.027c-.046-.136-.349-1.126-.441-1.336a.61.61 0 0 0-.415-.34.57.57 0 0 0-.46.095l-.017.013c-.196.167-.305.406-.39.6 0 0-.57 1.467-.793 1.99-.027.014-.065.003-.076-.03-.047-.136-.35-1.126-.445-1.336a.61.61 0 0 0-.414-.34.57.57 0 0 0-.46.095l-.017.014c-.196.166-.305.406-.39.6 0 0-.553 1.428-.785 1.968-.027.01-.063.002-.074-.03-.046-.137-.349-1.126-.444-1.336a.61.61 0 0 0-.414-.34.57.57 0 0 0-.461.095l-.016.013a1 1 0 0 0-.167.188q.01.457.047.905l.046-.114c.008-.02.008-.038.008-.055.205-.499.26-.602.439-.608"/><path d="M4.624 21.438c.011-.024.044-.103.087-.212.134-.32.513-1.224.68-1.639.007-.022.007-.043.01-.062.188-.461.243-.562.42-.568.147-.002.213.164.24.246.1.294.286.924.373 1.183.063.18.207.31.376.322a.41.41 0 0 0 .352-.183.2.2 0 0 0 .057-.07c.017-.036.071-.173.142-.347.166-.395.47-1.123.614-1.483q.01-.03.008-.055c.199-.488.253-.594.433-.597.147-.002.213.164.24.246.1.294.286.924.374 1.183.062.18.207.31.376.322a.4.4 0 0 0 .302-.126.22.22 0 0 0 .098-.1c.025-.055.145-.353.273-.674.166-.398.376-.905.488-1.189.005-.01.003-.024.005-.038.194-.477.249-.58.429-.586.147-.003.212.164.24.245.1.295.286.924.373 1.183.063.18.207.311.376.322a.42.42 0 0 0 .352-.183.2.2 0 0 0 .057-.07c.016-.036.07-.172.142-.347.166-.395.469-1.123.613-1.483q.01-.03.008-.054c.2-.488.254-.594.434-.597.147-.003.212.163.24.245.1.295.286.924.373 1.183.063.18.207.311.376.322a.42.42 0 0 0 .36-.196.2.2 0 0 0 .063-.08c.03-.068.213-.523.376-.926.136-.327.278-.67.363-.886q.003-.011.002-.022c.218-.537.268-.646.456-.652.147-.002.212.164.24.246.1.294.286.924.373 1.183.063.18.207.31.376.322a.42.42 0 0 0 .352-.183.2.2 0 0 0 .057-.07c.016-.036.071-.173.142-.347.166-.395.469-1.123.613-1.483q.01-.03.008-.055c.2-.488.254-.594.434-.597.147-.002.212.164.24.246.1.294.286.924.373 1.183.063.18.207.31.377.321a.4.4 0 0 0 .302-.125.22.22 0 0 0 .098-.1c.025-.055.145-.352.273-.674.166-.398.376-.905.49-1.189.006-.01.003-.024.006-.038.194-.477.248-.58.428-.586.147-.003.213.164.24.245.1.295.286.925.373 1.184.063.18.207.31.377.321a.42.42 0 0 0 .351-.183.2.2 0 0 0 .057-.07c.017-.036.071-.172.142-.347a131 131 0 0 0 .614-1.482c.008-.02.008-.039.008-.055.199-.488.253-.594.433-.597.147-.003.213.163.24.245.101.295.286.924.374 1.183.062.18.207.311.376.322a.4.4 0 0 0 .327-.15.2.2 0 0 0 .07-.084 166 166 0 0 0 .766-1.851c.009-.022.009-.044.012-.063.188-.46.242-.562.42-.567.147-.003.212.163.24.245.1.295.286.924.373 1.183.063.18.207.311.376.322a.41.41 0 0 0 .352-.183.2.2 0 0 0 .057-.07c.016-.036.07-.172.142-.347.166-.395.469-1.123.613-1.483.008-.019.008-.038.008-.054.2-.488.254-.594.434-.597.147-.003.213.163.24.245.1.294.286.924.373 1.183.063.18.207.311.376.322a.4.4 0 0 0 .178-.041q-.085-.222-.178-.444l-.057-.128a14 14 0 0 0-.807-1.565l-.016-.006a.57.57 0 0 0-.46.096l-.017.013c-.197.167-.306.406-.39.6 0 0-.57 1.467-.793 1.99-.028.014-.066.003-.077-.03-.046-.136-.349-1.126-.444-1.336a.61.61 0 0 0-.414-.34.57.57 0 0 0-.461.095l-.017.014c-.196.166-.305.406-.39.6 0 0-.553 1.428-.784 1.968-.028.01-.063.002-.074-.03-.046-.137-.349-1.126-.444-1.336a.61.61 0 0 0-.415-.34.57.57 0 0 0-.46.095l-.017.013c-.196.166-.305.406-.39.6 0 0-.57 1.467-.793 1.99-.027.014-.065.003-.076-.03-.047-.136-.35-1.126-.445-1.336a.61.61 0 0 0-.414-.34.57.57 0 0 0-.46.095l-.017-.022c-.196.166-.305.406-.39.6 0 0-.545 1.404-.78 1.954a.052.052 0 0 1-.081-.027c-.047-.136-.35-1.126-.445-1.336a.61.61 0 0 0-.414-.34.57.57 0 0 0-.46.095l-.017.014c-.196.166-.305.406-.39.6 0 0-.57 1.466-.793 1.99-.027.013-.066.002-.077-.03-.046-.137-.349-1.127-.444-1.336a.61.61 0 0 0-.414-.341.57.57 0 0 0-.461.095l-.016.014c-.197.166-.306.406-.39.6 0 0-.575 1.48-.796 1.995a.054.054 0 0 1-.09-.019c-.046-.136-.35-1.126-.445-1.336a.61.61 0 0 0-.414-.34.57.57 0 0 0-.46.095l-.017.014c-.196.166-.305.406-.39.6 0 0-.57 1.466-.793 1.99-.027.013-.066.002-.076-.03-.047-.137-.35-1.126-.445-1.336a.61.61 0 0 0-.414-.341.57.57 0 0 0-.46.095l-.017.014c-.197.166-.306.406-.39.6 0 0-.545 1.404-.78 1.954a.053.053 0 0 1-.082-.027c-.046-.136-.348-1.126-.441-1.336a.61.61 0 0 0-.415-.34.57.57 0 0 0-.46.095l-.017.013c-.196.167-.305.407-.39.6 0 0-.57 1.467-.793 1.99-.027.014-.065.003-.076-.03-.046-.136-.349-1.126-.444-1.335a.61.61 0 0 0-.415-.341.57.57 0 0 0-.46.095l-.017.014c-.196.166-.305.406-.39.6 0 0-.553 1.428-.785 1.968-.027.01-.062.002-.073-.03-.047-.137-.35-1.126-.445-1.336a.61.61 0 0 0-.414-.34.57.57 0 0 0-.417.07q.044.242.095.485c.063-.09.12-.12.213-.122.147-.003.212.163.24.245.1.294.286.924.373 1.183.063.18.207.31.376.322a.4.4 0 0 0 .328-.15.3.3 0 0 0 .073-.093m-.771-7.611c.063.18.207.31.376.321a.4.4 0 0 0 .327-.15.2.2 0 0 0 .071-.084c.011-.025.044-.104.087-.213.134-.319.513-1.224.68-1.638.007-.022.007-.044.01-.063.188-.46.243-.561.42-.567.147-.003.213.164.24.245.1.295.286.925.373 1.184.063.18.207.31.377.321a.41.41 0 0 0 .351-.182.2.2 0 0 0 .057-.071c.017-.036.071-.172.142-.346.166-.396.47-1.124.614-1.483q.01-.03.008-.055c.199-.488.253-.594.433-.597.147-.003.213.164.24.245.101.295.286.924.374 1.183.062.18.207.311.376.322a.4.4 0 0 0 .302-.125.22.22 0 0 0 .099-.101c.024-.055.144-.352.272-.673.166-.398.376-.905.488-1.189.005-.01.003-.025.005-.038.194-.477.249-.58.429-.586.147-.003.212.163.24.245.1.295.286.924.373 1.183.063.18.207.311.376.322a.42.42 0 0 0 .352-.183.2.2 0 0 0 .057-.07c.016-.036.07-.172.142-.347.166-.395.469-1.123.613-1.483q.01-.03.008-.054c.2-.488.254-.595.434-.597.147-.003.212.163.24.245.1.294.286.924.373 1.183.063.18.207.31.376.322a.42.42 0 0 0 .36-.197.2.2 0 0 0 .063-.079c.03-.068.213-.523.376-.926.136-.328.278-.671.363-.886q.003-.012.002-.022c.218-.537.268-.646.456-.652.147-.003.212.164.24.246.1.294.286.924.373 1.183.063.18.207.31.376.321a.42.42 0 0 0 .352-.182.2.2 0 0 0 .057-.071c.016-.036.071-.17.142-.346.166-.396.469-1.124.613-1.483q.01-.03.008-.055c.2-.488.254-.594.434-.597.147-.003.213.164.24.245.1.295.286.925.373 1.184.063.18.207.31.377.321a.4.4 0 0 0 .302-.125.22.22 0 0 0 .098-.101c.025-.055.145-.352.273-.673.166-.398.376-.905.49-1.189.006-.01.003-.024.006-.038.194-.477.248-.58.428-.586.147-.003.213.163.24.245.1.295.286.924.373 1.183.063.18.208.311.377.322a.42.42 0 0 0 .351-.183.2.2 0 0 0 .057-.07c.017-.036.071-.172.142-.347.166-.395.47-1.123.614-1.483.008-.019.008-.038.008-.054.199-.488.253-.595.433-.597q.04.001.071.019a11 11 0 0 0-.504-.273c-.153.161-.248.363-.322.529 0 0-.57 1.467-.793 1.99-.027.014-.066.003-.077-.03-.046-.136-.348-1.126-.444-1.336a.61.61 0 0 0-.414-.34.57.57 0 0 0-.46.095l-.023-.008c-.196.166-.305.406-.39.6 0 0-.545 1.403-.78 1.954a.052.052 0 0 1-.081-.027c-.046-.136-.349-1.126-.444-1.336a.61.61 0 0 0-.415-.34.57.57 0 0 0-.46.095l-.017.013c-.196.167-.305.407-.39.6 0 0-.57 1.467-.793 1.99-.027.014-.065.003-.076-.03-.047-.136-.35-1.126-.445-1.336a.61.61 0 0 0-.414-.34.57.57 0 0 0-.46.095l-.017.014c-.196.166-.305.406-.39.6 0 0-.575 1.48-.796 1.995a.054.054 0 0 1-.09-.02c-.046-.136-.349-1.125-.444-1.335a.61.61 0 0 0-.415-.34.57.57 0 0 0-.46.095l-.017.013c-.196.167-.305.406-.39.6 0 0-.57 1.467-.793 1.99-.027.014-.065.003-.076-.03-.046-.136-.35-1.126-.444-1.336a.61.61 0 0 0-.415-.34.57.57 0 0 0-.46.095l-.017.014c-.196.166-.305.406-.39.6 0 0-.545 1.403-.78 1.954-.027.019-.07.01-.081-.027-.047-.137-.35-1.126-.442-1.336a.61.61 0 0 0-.414-.34.57.57 0 0 0-.46.095l-.017.013c-.197.167-.306.406-.39.6 0 0-.57 1.467-.793 1.99-.028.014-.066.003-.077-.03-.046-.136-.349-1.126-.444-1.336a.61.61 0 0 0-.414-.34.57.57 0 0 0-.461.095l-.017.013c-.196.167-.305.407-.39.6 0 0-.553 1.429-.784 1.969-.028.01-.063.002-.074-.03-.046-.137-.349-1.126-.444-1.336a.56.56 0 0 0-.191-.235q-.081.221-.153.447c.027.044.046.093.06.126.104.286.289.916.379 1.175m20.74-7.857c.063.18.207.31.376.322a.4.4 0 0 0 .327-.15.2.2 0 0 0 .071-.085c.011-.024.044-.103.087-.212l.12-.29q-.168-.126-.346-.247a21 21 0 0 1-.207.507c-.027.01-.063.002-.074-.03-.03-.085-.155-.496-.27-.848q-.286-.18-.577-.352a.5.5 0 0 1 .122.2c.096.296.284.926.371 1.185m2.96 1.862a.4.4 0 0 0 .302-.133 15 15 0 0 0-.93-.987c.09.291.192.627.252.798.06.18.204.311.376.322"/><path d="M2.805 15.503c.199-.488.253-.594.433-.597.148-.003.213.164.24.246.101.294.287.924.374 1.183.062.18.207.31.376.321a.4.4 0 0 0 .327-.15.2.2 0 0 0 .071-.084c.01-.025.044-.104.087-.213.134-.319.513-1.224.679-1.638.008-.022.008-.044.01-.063.189-.46.244-.561.42-.567.148-.003.213.164.24.246.101.294.287.924.374 1.183.063.18.207.31.376.321a.41.41 0 0 0 .352-.182.2.2 0 0 0 .057-.071c.017-.036.071-.172.142-.346.166-.396.469-1.123.613-1.483.009-.02.009-.039.009-.055.199-.488.253-.594.433-.597.147-.003.213.164.24.245.1.295.286.925.373 1.184.063.18.208.31.377.321a.4.4 0 0 0 .302-.125.22.22 0 0 0 .098-.101c.025-.054.145-.352.273-.673.166-.398.376-.905.49-1.189.006-.01.003-.024.006-.038.194-.477.248-.58.428-.586.147-.003.213.163.24.245.1.295.286.924.373 1.183.063.18.208.311.377.322a.42.42 0 0 0 .351-.183.2.2 0 0 0 .057-.07c.017-.036.071-.172.142-.347.167-.395.47-1.123.614-1.483q.01-.03.008-.054c.199-.488.253-.595.433-.597.148-.003.213.163.24.245.101.294.286.924.374 1.183.062.18.207.31.376.322a.42.42 0 0 0 .36-.196.2.2 0 0 0 .062-.08c.03-.068.213-.523.377-.926.136-.327.278-.671.362-.886q.004-.012.003-.022c.218-.537.267-.646.455-.652.147-.002.213.164.24.246.101.294.286.924.374 1.183.062.18.207.31.376.321a.42.42 0 0 0 .351-.182.2.2 0 0 0 .058-.071c.016-.036.07-.172.141-.346.167-.396.47-1.123.614-1.483q.01-.03.008-.055c.199-.488.254-.594.433-.597.148-.003.213.164.24.245.101.295.287.925.374 1.184.063.18.207.31.376.321a.4.4 0 0 0 .303-.125.22.22 0 0 0 .098-.101c.024-.054.144-.352.272-.673.167-.398.377-.905.491-1.189.006-.01.003-.024.006-.038.193-.477.248-.58.428-.586.147-.003.212.163.24.245.1.295.286.924.373 1.183.063.18.207.311.376.322a.42.42 0 0 0 .352-.183.2.2 0 0 0 .057-.07c.016-.036.07-.172.142-.347.166-.395.469-1.123.613-1.483q.01-.03.008-.054c.2-.488.254-.595.434-.597.147-.003.212.163.24.245.1.294.286.924.373 1.183.063.18.207.311.376.322a.4.4 0 0 0 .328-.15.2.2 0 0 0 .07-.085 166 166 0 0 0 .766-1.851c.009-.021.009-.043.011-.062.096-.232.156-.371.216-.456q-.154-.137-.317-.27a2.2 2.2 0 0 0-.237.434s-.553 1.428-.785 1.968c-.027.011-.063.003-.073-.03-.047-.136-.35-1.126-.445-1.336a.61.61 0 0 0-.414-.34.57.57 0 0 0-.46.095l-.017.014c-.197.166-.306.406-.39.6 0 0-.57 1.466-.793 1.99-.028.013-.066.002-.077-.03-.046-.137-.349-1.126-.444-1.336a.61.61 0 0 0-.414-.341.57.57 0 0 0-.461.095l-.022-.013c-.196.166-.305.406-.39.6 0 0-.545 1.403-.78 1.954a.052.052 0 0 1-.081-.027c-.047-.136-.35-1.126-.445-1.336a.61.61 0 0 0-.414-.34.57.57 0 0 0-.46.095l-.017.013c-.196.167-.305.407-.39.6 0 0-.57 1.467-.793 1.99-.027.014-.066.003-.076-.03-.047-.136-.35-1.126-.445-1.336a.61.61 0 0 0-.414-.34.57.57 0 0 0-.46.095l-.017.014c-.197.166-.306.406-.39.6 0 0-.575 1.48-.796 1.995a.054.054 0 0 1-.09-.02c-.046-.135-.349-1.125-.444-1.335a.61.61 0 0 0-.415-.34.57.57 0 0 0-.46.095l-.017.013c-.196.167-.305.406-.39.6 0 0-.57 1.467-.793 1.99-.027.014-.065.003-.076-.03-.047-.136-.35-1.126-.445-1.336a.61.61 0 0 0-.414-.34.57.57 0 0 0-.46.095l-.017.014c-.196.166-.306.406-.39.6 0 0-.545 1.403-.78 1.954a.052.052 0 0 1-.081-.027c-.047-.137-.35-1.126-.442-1.336a.61.61 0 0 0-.414-.34.57.57 0 0 0-.461.095l-.016.013c-.197.166-.306.406-.39.6 0 0-.57 1.467-.794 1.99-.027.014-.065.003-.076-.03-.046-.136-.349-1.126-.444-1.336a.61.61 0 0 0-.415-.34.57.57 0 0 0-.46.095l-.017.014c-.196.166-.305.406-.39.6 0 0-.553 1.428-.785 1.967-.027.011-.062.003-.073-.03-.047-.136-.35-1.125-.445-1.335a.61.61 0 0 0-.414-.341.57.57 0 0 0-.439.082q-.095.534-.147 1.085l.033-.082c.013-.025.013-.044.016-.063"/></g><path fill="#CBC3AB" d="M17 0h-.472l-.081.003h-.164l-.109.005h-.068l-.04.003q-.843.045-1.661.172l-.027.002-.172.028-.014.002q-.006 0-.013.003-.007.002-.014.003-.006 0-.014.003-.007 0-.01.002-.008 0-.014.003-.007.002-.014.003L14.1.234q-.009 0-.011.003-.008 0-.011.003l-.014.003-.014.002-.013.003-.027.006-.011.002-.011.003h-.003q-.006 0-.01.003h-.003q-.006 0-.011.002h-.003q-.005 0-.011.003h-.003q-.006 0-.01.003h-.003l-.011.003h-.003l-.011.002h-.003l-.01.003h-.003q-.005 0-.011.003h-.003q-.006 0-.01.003h-.004l-.01.002h-.003l-.011.003h-.003l-.01.003h-.003q-.006 0-.011.002h-.003q-.004 0-.011.003h-.003q-.004 0-.008.003h-.003q-.003 0-.008.003h-.005q-.005 0-.008.002h-.003q-.005 0-.008.003h-.003q-.004 0-.008.003h-.003q-.004 0-.008.003h-.006l-.008.002h-.005q-.005 0-.008.003h-.006q-.004 0-.008.003h-.003l-.008.002h-.005q-.004 0-.009.003h-.005q-.004 0-.008.003h-.006q-.003 0-.008.003h-.033l-.008.002h-.005q-.005 0-.008.003h-.006q-.004 0-.008.003h-.005q-.005 0-.009.002h-.005q-.004 0-.008.003h-.006q-.003 0-.008.003h-.005q-.005 0-.008.003h-.006L13.5.354h-.006q-.003 0-.008.003h-.011l.562 2.669c.97-.196 1.965-.3 2.963-.3zm-6.128 1.14q-.017.007-.033.01l-.12.047q-.005.002-.01.005h-.003q-.004.004-.011.003h-.003l-.01.003h-.004l-.01.002h-.003l-.011.003h-.003q-.004.004-.01.003h-.004q-.003.004-.01.003h-.003l-.011.005-.046.02q-.004.003-.011.002h-.003l-.008.003-.003.002-.008.003q-.002 0-.003.003l-.008.002q-.003 0-.005.003l-.009.003q-.002 0-.005.003l-.008.002q-.003 0-.006.003l-.008.003q-.003 0-.005.003l-.009.002-.005.003-.008.003-.006.002-.008.003q-.002 0-.003.003l-.008.003h-.002c-.009.002-.02.008-.03.01l-.006.003-.005.003-.006.003-.005.002q-.005.001-.006.003-.004.001-.005.003-.005.001-.006.003l-.005.002-.005.003q-.005.001-.006.003l-.005.003-.006.002q-.005.001-.005.003l-.006.003c.003.013 0 .016 0 .016q-.004.001-.005.003l-.006.003-.005.002-.006.003-.005.003-.005.002q-.005.001-.006.003l-.005.003-.006.003-.005.002-.014.006-.005.002-.006.003-.005.003-.006.003-.005.002-.006.003-.005.003-.006.003-.008.002-.005.003-.006.003-.005.002-.006.003-.005.003q-.005.001-.005.003l-.006.002-.005.003-.006.003q-.004.001-.005.003l-.006.002-.008.003-.005.003-.008.002q-.003 0-.006.003l-.01.006H10.1q-.007.002-.01.005-.003 0-.006.003l-.008.003-.006.002-.005.003-.005.003-.006.002-.005.003q-.005.001-.006.003l-.005.003-.006.002-.005.003-.008.003-.006.003-.008.002-.005.003-.009.003-.005.002-.008.003-.006.003-.008.003-.005.002-.009.003q-.002 0-.005.003l-.008.005q-.002 0-.003.003-.005.003-.014.005h-.002l-.011.006q-.003 0-.006.003l-.008.002-.005.003-.008.003-.006.003-.005.002-.006.003q-.005.001-.005.003l-.006.002-.005.003-.006.003q-.004.001-.005.003l-.005.002-.009.003-.005.003-.008.002-.006.003-.008.003-.005.003-.009.002-.005.003-.008.006q-.002 0-.003.002l-.01.006-.004.002-.008.006-.005.003-.008.002-.006.003-.008.003-.005.003-.006.002-.005.003q-.005.001-.006.003l-.005.002q-.005.001-.006.003l-.005.003-.006.003-.005.002-.006.003-.005.003-.005.003-.006.002q-.005.001-.005.003l-.006.003-.005.002-.006.003q-.004.001-.005.003l-.006.003-.008.005-.005.003-.008.005-.006.003-.005.003-.006.002-.005.003-.006.003-.005.003-.006.002-.005.003-.005.003-.006.003-.005.002-.006.003-.005.003-.006.002-.005.003-.006.003-.005.003-.006.002-.005.003-.005.003-.009.003-.005.002-.008.003q-.002 0-.003.003-.015.008-.03.013l-.003.003-.008.006-.003.002c-.03-.002-.032 0-.035 0q-.004 0-.003.003l-.008.003-.005.002-.009.003-.005.003-.008.003-.006.002q-.003.004-.008.003l-.005.003-.008.002-.006.003-.008.003-.006.003-.008.002-.002.003-.009.006-.002.002-.009.006h-.002l-.044.022h-.003l-.008.005-.002.003q-.004 0-.009.005l-.002.003q-.004.001-.009.005l-.002.003-.008.006q-.002 0-.003.002l-.008.006q-.002 0-.003.002c.005-.008.003-.005 0-.005q-.002 0-.003.003l-.008.005q-.002 0-.003.003l-.008.005-.003.003-.008.006h-.003q-.032.014-.065.035l-.01.005h-.004l-.008.006q-.002 0-.003.003l-.008.005-.002.003-.009.005-.002.003-.009.005h-.002l-.008.006H8.99l-.008.005H8.98l-.01.006-.08.04-.01.006-.012.006-.01.005h-.003q-.004.003-.011.005l-.011.006q-.004.003-.011.005l-.112.063-.01.006-.012.005q-.492.276-.96.583l1.49 2.282a14.3 14.3 0 0 1 2.64-1.355zM5.57 4.419l-.006.005-.003.003q-.003.005-.008.006l-.002.002q-.004.005-.009.006l-.002.003q-.005.004-.009.005l-.002.003q-.005.002-.006.005l-.002.003-.006.005-.003.003-.005.006-.003.002q-.004.005-.008.006l-.003.002q-.003.005-.008.006l-.035.033-.003.002q-.005.003-.006.006l-.002.003-.006.005-.002.003-.006.005-.003.003-.005.005-.003.003-.005.006-.003.002-.005.006-.003.002-.006.006-.005.003-.005.005-.003.003-.006.005-.002.003-.02.019-.005.005-.005.006-.006.003-.005.005-.006.006-.005.005-.006.005-.005.006-.006.005-.005.006-.005.005-.006.006-.005.005q0 .002-.006.003l-.005.005q-.003.004-.006.003l-.005.006-.003.002-.005.006-.003.002-.02.02-.002.002-.008.008-.003.003q-.004.005-.008.006l-.003.002-.005.006-.003.003-.005.005-.003.003c-.008.01-.008.013-.011.013l-.003.003-.005.006-.003.002-.005.006-.003.002-.008.009-.003.002-.008.008-.003.003-.03.03-.008.008-.003.003-.008.008-.003.003-.008.008-.003.003-.008.008-.002.003-.009.008-.002.003-.009.008-.002.003-.008.008-.003.003-.008.008-.058.057-.008.008-.008.008-.008.008-.008.009-.008.008q-.931.942-1.71 2.014L5.425 8.65a14.3 14.3 0 0 1 1.982-2.216zM1.797 9.383q-.219.436-.412.884-.003.004-.005.013l-.006.011-.005.011-.006.016-.005.011-.006.011-.005.014a1 1 0 0 1-.038.092l-.006.011v.003l-.005.011v.003q-.003.003-.006.01v.003l-.002.011v.003l-.003.008q0 .002-.003.003l-.003.008v.003l-.002.008v.003q-.002.003-.003.01v.003q-.003.004-.005.011v.003l-.006.01c-.01.006-.01.012-.014.014-.002.009-.008.017-.01.025v.003l-.006.01v.003l-.003.011-.002.006-.003.008q0 .003-.003.005l-.003.008-.002.006-.003.008q0 .003-.003.006l-.002.008q0 .002-.003.005l-.003.008q0 .003-.003.006l-.002.008-.003.006-.003.008q0 .002-.003.005l-.002.008-.003.006-.003.008-.002.005-.003.009-.003.005-.003.008-.002.006q-.001.004-.003.005-.005.008-.006.017v.002l-.002.008-.003.006-.003.008-.002.005-.003.009-.003.005-.003.008-.002.006-.003.008-.003.005-.002.008q0 .003-.003.006l-.003.008q0 .003-.003.006l-.002.008q0 .003-.003.005l-.003.008q0 .003-.003.006l-.002.008q0 .003-.003.005l-.003.009-.002.002-.003.009v.002l-.003.011v.003l-.027.07v.004q-.002.003-.003.01v.003l-.003.011v.003l-.002.008v.003q-.002.003-.003.01v.003l-.003.011v.003l-.003.01v.004l-.002.01v.003l-.003.011v.003l-.003.01-.04.11q-.003.005-.006.01l-.006.012-.005.01-.005.011q-.243.684-.428 1.39l2.638.69a14.2 14.2 0 0 1 1.047-2.775zm-1.72 5.992v.237l-.006.055v.125l-.005.069v.122l-.006.082v.125l-.003.069v.133l-.002.041v1.538q.027.469.079.935l2.71-.303a14.4 14.4 0 0 1-.025-2.977zm3.175 5.477-2.625.733.05.175.002.013.003.014.002.01.003.015.025.079.002.013v.003l.003.01v.004l.003.01v.003l.003.011v.003l.002.008v.006l.003.008v.005l.003.008.002.006.003.008q0 .003.003.005l.003.009.002.005.003.008q0 .003.003.006l.003.008v.005l.002.011v.003l.003.014v.002l.003.008.002.006q.001.005.003.005 0 .003.003.006 0 .005.003.005l.002.008q0 .003.003.006l.003.008q0 .003.003.006l.002.008q0 .002.003.005l.003.008.002.006.003.008q0 .003.003.005l.003.009.002.005.003.008q0 .003.003.006l.003.008v.003l.002.008v.003l.003.01c.008.03.02.058.027.088l.003.01q.004.009.003.011l.002.011v.003l.003.011q.004.007.003.01.421 1.264 1.028 2.43l.005.01.006.012c.01.008.013.01.016.016l.005.01.006.012.005.008 2.416-1.265a14 14 0 0 1-1.094-2.756m2.312 4.692-2.183 1.633q.231.311.48.61l.008.011q.046.054.087.106l.008.009.008.008.008.008.008.01.009.012.054.063.008.008v.002l.009.009.002.002.008.009v.002l.009.008v.003l.008.008.008.011.046.052.008.01.009.01.008.007.003.003.008.008q0 .002.002.003l.009.008.002.003.009.008.008.008.035.041.008.01.009.01.002.002.008.008.003.003.02.019.002.002.008.009.003.002.008.009.008.008.036.04.008.009.003.003.008.008.002.002.011.011.009.009.002.002.008.009.003.002.008.008.003.003.008.008.008.009q.015.014.028.03l.008.008.003.002.008.009.003.002.008.008.002.003q.005.005.006.008l.003.003q.004.004.005.008l.003.003q.005.004.005.008l.003.003.008.008.003.003.008.008.038.04.003.004.008.008.003.002.008.009.003.002q.004.005.005.009l.003.002q.005.005.005.008l.003.003q.005.005.006.008l.002.003q.005.005.006.008l.002.003.009.008.002.003.009.008.002.003.008.008.02.02.008.007.002.003.009.008.002.003q.005.004.006.008l.003.003.005.005.003.003.005.005.003.003.005.006.003.002.006.006.002.002q.005.005.006.009l.002.002.009.009.002.002.008.009.02.019.002.002.008.009.003.002q.003.005.006.006l.002.002.006.006.003.003q.002.004.005.005l.003.003q.002.004.005.005l.003.003.005.005.003.003.006.006.002.002.006.006.002.003.009.008.002.002.009.009.01.01.009.009.002.002.006.006.003.002.005.006.003.003.005.005.003.003.005.005.006.006.005.005.006.006.005.005.011.011.003.003.005.005.003.003.005.005.003.003.008.008.003.003.008.008.003.003.005.005.006.006.005.005.006.006.005.005.006.006.005.005.006.006.005.005.005.006.006.005.005.005.006.006.005.005.003.003.005.005.003.003q.005.003.006.006l.002.002.033.03.003.003.005.005.003.003.005.006.003.002.006.006.002.003.006.005.002.003.006.005.003.003.005.005.003.003.005.006.003.002q.004.005.008.006l.003.003q.02.02.044.04l.002.003.008.008.003.003.008.008.003.003.008.008.003.003.01.01.01.009.002.003.008.008.082.079.008.008.008.008q.175.164.355.322l1.799-2.047a13.7 13.7 0 0 1-2.015-2.17m3.852 3.552-1.45 2.309q.825.519 1.71.943l.01.005.01.006.012.005.01.006q.045.022.09.043h.003l.009.006h.002l.009.005.002.003q.005.004.008.003.002 0 .003.002l.008.003q.002 0 .003.003l.008.003q.002 0 .003.002l.008.003q.002 0 .003.003l.008.003q.002 0 .003.002l.008.003q.002 0 .003.003l.008.002.003.003.008.003h.002q.015.006.028.014l.005.002.006.003.005.003.006.002.005.003.005.003.009.003.005.002.008.003.006.003.008.002.005.003.008.003.006.003.008.002.006.003.008.003.002.003q.005 0 .009.005l.002.003.011.005.052.022.011.005h.003l.01.006h.003l.011.005h.003l.01.006h.004l.01.005h.003l.011.006.011.005q.447.194.905.363l.94-2.56a14.6 14.6 0 0 1-2.652-1.311m4.866 1.922-.515 2.677.03.005.014.003.013.003.011.002.011.003.014.003q.032.006.065.01l.011.003h.003q.005 0 .01.003h.003q.005 0 .009.003h.005q.005 0 .008.003h.098q.005 0 .009.002h.002l.071.011q.006 0 .011.003.006 0 .01.003h.004l.01.002h.003q.005 0 .011.003h.003q.006 0 .01.003h.004q.005 0 .01.003h.003q.006 0 .011.002.005 0 .011.003.744.12 1.507.175h.025c.052.002.1.008.153.01h.101c.032.003.068.003.1.006h.134l.06.003h.763q.082 0 .167-.003l-.047-2.726-.242.002a11.8 11.8 0 0 1-2.694-.22m8.091-.788c-.916.373-1.875.649-2.849.823l.478 2.685.008-.002h.002q.006 0 .011-.003h.003q.006 0 .011-.003h.003l.01-.003h.003l.011-.002h.003q.006 0 .01-.003h.004l.01-.003.011-.002a17 17 0 0 0 2.55-.68l.01-.002q.006-.004.011-.003.005-.003.011-.002.008-.004.011-.003l.01-.003.012-.005q.048-.016.095-.036l.011-.003h.003l.008-.002.003-.003.008-.003q.003 0 .005-.003l.009-.002q.002 0 .005-.003l.008-.003.006-.002.008-.003q.003 0 .005-.003l.009-.003.005-.002.008-.003q.003 0 .006-.003l.008-.002q.002 0 .005-.003l.008-.003.006-.003.005-.002.006-.003.005-.003.006-.003.005-.002.006-.003.005-.003.008-.002q.003 0 .006-.003l.024-.008h.003l.01-.006h.003l.011-.002h.003l.008-.003q.004 0 .003-.003l.008-.003h.003l.008-.002q.002 0 .003-.003l.008-.003h.003l.008-.003h.003l.01-.002h.003l.011-.003h.003q.003-.002.01-.003h.004q.005-.002.01-.005h.003l.011-.006.014-.005.204-.082zm4.406-2.83a14.4 14.4 0 0 1-2.364 1.802l1.418 2.328a19 19 0 0 0 .559-.352q.003-.004.01-.005l.009-.005h.002q.005-.005.009-.006h.002l.009-.005q.003-.005.01-.006l.06-.04q.002 0 .003-.003l.008-.006.003-.003.008-.005.003-.003.008-.005.003-.003.008-.005.003-.003.008-.006.003-.002.008-.006.003-.003.008-.005.002-.003.009-.005.002-.003.036-.024.002-.003q.005-.003.006-.006l.005-.002q.005 0 .006-.006l.005-.002q.003-.004.006-.003l.005-.003q.003-.004.006-.003l.005-.002.006-.003.005-.003.006-.002.005-.003.005-.003.006-.003.005-.002.006-.003.005-.003.006-.003.005-.002.008-.006.006-.003.008-.005q.001-.002.005-.003l.008-.005q0-.002.006-.003.005-.003.005-.005t.006-.003q.005-.003.005-.006l.006-.002q.005-.003.005-.006l.006-.002q.004-.003.005-.006l.006-.003.008-.005.003-.003.008-.005.002-.003.009-.005.002-.003.008-.006.003-.002q.005-.005.008-.006h.003l.022-.016h.003q.003-.005.008-.006l.003-.002.008-.006q.002 0 .003-.003l.008-.005.002-.003.009-.005.002-.003.009-.005.002-.003.008-.005.003-.003.008-.006.003-.002q.004-.005.008-.006.002 0 .003-.003l.01-.008.044-.032.011-.009h.003l.008-.005.003-.003q.004-.004.008-.005.002 0 .003-.003.004-.005.008-.005l.003-.003q.004-.005.008-.006.002 0 .003-.002l.008-.009h.003l.01-.008.066-.049q.006-.003.01-.008l.012-.008h.002q.004-.005.011-.008l.011-.009.011-.008.076-.057.011-.008.011-.008.011-.008.011-.009.11-.084q.609-.478 1.174-1.009zm3.097-4.223a14.3 14.3 0 0 1-1.56 2.528l2.16 1.662q.141-.184.28-.376l.008-.01.009-.012c.002-.002.005-.008.008-.01q.003-.006.008-.011.003-.006.008-.011l.05-.069.007-.01q0-.002.003-.003.005-.005.005-.008 0-.002.003-.003l.006-.008.002-.003.006-.008.002-.003.006-.008q0-.002.003-.003l.005-.008.003-.003.005-.008.003-.003.006-.008.002-.002q.005-.004.008-.011l.017-.022.003-.006q.002-.004.005-.005.002-.001.003-.005.002-.005.005-.006l.003-.005.005-.006.003-.005.003-.006.002-.005.003-.006.003-.005.003-.006q.002-.002.002-.005l.003-.006q.004-.002.003-.005l.003-.005q.002-.005.005-.006l.003-.005.005-.006.003-.002.005-.009.003-.002.02-.028.002-.002.005-.009.003-.002.005-.009.003-.002.006-.008.002-.003.006-.008.003-.003.005-.008.003-.003.005-.008.003-.003.005-.008.003-.003.006-.008q0-.002.002-.003l.006-.008q0-.002.002-.003l.041-.06q.005-.003.006-.008v-.002l.005-.009.003-.002.006-.009v-.002l.005-.008v-.003q.005-.005.005-.008.005-.004.006-.011l.07-.107.014-.021a18 18 0 0 0 .456-.742l.057-.098q.003-.003.005-.01v-.004q.003-.003.006-.01v-.003l.005-.008v-.003l.006-.008v-.003l.005-.008v-.003q.003-.003.006-.01l.005-.012.03-.054v-.003l.005-.008q0-.002.003-.003 0-.004.006-.008 0-.002.002-.003 0-.003.006-.008l.003-.005.002-.009.003-.005.003-.008.002-.006.003-.005.003-.006.003-.005.002-.006.003-.005.003-.005q.001-.005.003-.006l.002-.005.003-.006.003-.005.005-.008.006-.009q0-.003.002-.002l.006-.009.002-.005.006-.008q.002-.004.003-.003l.005-.008q0-.003.003-.006l.003-.008.002-.005.006-.008.003-.006.005-.008q.001-.004.003-.003l.005-.008q0-.004.003-.003l.005-.008.003-.002.006-.009.002-.002.006-.011.032-.06.006-.011.005-.011.006-.01a20 20 0 0 0 .28-.556zm1.354-5.051c-.076.99-.259 1.974-.537 2.92l2.615.771q.208-.704.354-1.428l.003-.014.003-.014.002-.01.003-.011.003-.011.002-.011.003-.011v-.003l.003-.01.003-.012.002-.01v-.003l.003-.011v-.003l.003-.01v-.004l.003-.01v-.003l.002-.011v-.003l.003-.01V20.2l.003-.01v-.003q0-.005.002-.008v-.003q0-.004.003-.008v-.003q0-.004.003-.008v-.003q0-.004.003-.008v-.087q0-.005.002-.009v-.005l.003-.019.003-.01v-.004q0-.005.003-.01v-.003l.002-.011v-.003l.003-.01v-.004l.003-.01v-.003c0-.006.003-.008.003-.014q.136-.781.199-1.586zm2.064-5.99-2.611.78c.28.946.466 1.928.545 2.917l2.718-.218v-.191l-.006-.051-.005-.055-.003-.027a17 17 0 0 0-.45-2.538l-.002-.011-.003-.011-.003-.011v-.003l-.003-.01v-.003l-.002-.011v-.003l-.003-.01-.003-.012-.003-.01v-.003l-.002-.011-.003-.011v-.003l-.003-.01v-.004l-.002-.01v-.003l-.003-.011v-.003q-.002-.003-.003-.01v-.004l-.003-.008v-.002l-.002-.009v-.002l-.003-.008v-.003l-.003-.008q0-.003-.003-.006 0-.004-.002-.005 0-.003-.003-.006 0-.004-.003-.005 0-.005-.002-.008 0-.003-.003-.006l-.003-.008q0-.003-.003-.005l-.002-.009v-.005l-.003-.008v-.006l-.003-.01v-.003l-.003-.011c-.049-.104-.076-.202-.106-.297m-2.849-5.544-2.153 1.67a14.4 14.4 0 0 1 1.567 2.525L32.313 9.6l-.06-.126-.006-.01q-.004-.008-.005-.014l-.038-.074-.006-.01V9.36l-.005-.01-.003-.003-.005-.008q0-.004-.003-.003l-.006-.008-.002-.003-.006-.008q0-.004-.002-.003l-.003-.008-.003-.006-.003-.008-.002-.005-.006-.008q0-.004-.003-.003l-.005-.008q0-.002-.003-.003l-.005-.01v-.004l-.006-.01-.002-.006-.003-.008-.003-.006-.003-.005-.002-.005-.003-.006-.003-.008-.002-.006-.003-.008-.003-.005-.003-.008-.002-.006-.003-.008-.003-.005-.003-.009-.002-.005-.003-.008q0-.002-.003-.003l-.005-.008q0-.002-.003-.003l-.005-.008-.022-.044q-.003-.003-.006-.01V9.05l-.005-.009V9.04l-.005-.008q0-.002-.003-.003l-.006-.008v-.003l-.005-.008v-.003l-.006-.01v-.004l-.005-.01V8.98l-.05-.09-.005-.011-.005-.011-.006-.01-.005-.012a20 20 0 0 0-.436-.755l-.06-.098a.02.02 0 0 1-.006-.011l-.005-.01v-.004l-.005-.008v-.002l-.006-.009v-.002q-.003-.004-.005-.011-.005-.004-.006-.011l-.046-.074-.006-.008q0-.002-.002-.003l-.006-.008-.002-.003-.006-.008-.003-.003-.005-.008-.003-.002-.005-.009-.003-.002-.006-.009-.002-.002-.006-.008q0-.002-.002-.003l-.006-.008v-.003l-.024-.038q0-.002-.003-.003l-.006-.008-.002-.003q-.003-.005-.006-.005L31.25 7.7q-.003-.004-.006-.005l-.003-.006q-.002-.002-.002-.005l-.003-.006-.003-.005-.003-.005-.002-.006-.003-.005q-.004-.003-.003-.006l-.003-.005-.002-.006-.003-.005-.003-.006-.002-.005-.003-.006-.005-.005q-.002-.001-.003-.005l-.008-.011-.003-.003-.006-.008-.002-.003-.006-.008-.002-.006-.006-.008q-.002-.001-.003-.005l-.005-.008q-.002 0-.003-.006l-.005-.008q-.002-.001-.003-.005l-.006-.009-.002-.005-.006-.008-.002-.003-.006-.008-.003-.003-.005-.008q0-.002-.003-.003l-.005-.008-.003-.003-.03-.046v-.003q-.005-.003-.005-.01V7.41q-.005-.004-.006-.009l-.003-.002q-.004-.005-.005-.009l-.003-.002-.005-.008q0-.002-.003-.003l-.005-.008q0-.002-.003-.003-.005-.005-.006-.008v-.003l-.008-.01-.008-.012-.046-.068-.008-.01-.009-.012q-.003-.005-.008-.01l-.008-.012c-.169-.204-.33-.417-.49-.63M25.79 2.445 24.377 4.78a14.4 14.4 0 0 1 2.369 1.794l1.862-1.99a17 17 0 0 0-1.044-.9l-.008-.008-.009-.008-.008-.009-.008-.008-.068-.054q-.005-.005-.008-.006h-.003q-.004-.004-.008-.005l-.003-.003q-.004-.005-.008-.005-.002 0-.003-.003l-.008-.006-.003-.002-.008-.006q-.002 0-.003-.002l-.008-.006-.002-.003-.009-.005-.002-.003q-.005-.005-.009-.005l-.038-.03-.002-.003-.009-.005-.002-.003-.009-.006-.002-.002q-.005-.003-.006-.006l-.002-.002q-.005-.003-.006-.006L27.3 3.47l-.005-.005-.003-.003q-.005-.003-.005-.005l-.006-.003-.005-.005-.006-.003q-.004-.003-.005-.006l-.005-.002q-.005-.003-.006-.006l-.005-.003q-.005-.002-.006-.005l-.003-.003-.013-.008-.006-.003-.005-.002-.006-.003-.005-.003-.006-.005-.005-.003-.005-.005-.006-.003q-.005-.003-.005-.006l-.006-.002-.005-.006-.006-.003q-.004-.002-.005-.005 0-.002-.006-.003-.004-.002-.005-.005l-.003-.003-.008-.005-.003-.003-.008-.006-.003-.002q-.003-.005-.008-.006h-.002q-.012-.007-.022-.016l-.003-.003q-.004-.005-.008-.005-.002 0-.003-.003l-.008-.005-.003-.003-.008-.006-.003-.002-.008-.006-.003-.002c-.01-.009-.013-.009-.016-.011l-.003-.003-.008-.006-.003-.002q-.003-.005-.008-.006L27 3.25q-.004-.005-.009-.006h-.002l-.011-.008-.044-.033-.01-.008-.012-.008h-.002q-.004-.005-.009-.006l-.002-.002q-.005-.005-.009-.006h-.002l-.011-.008-.011-.008a16 16 0 0 0-1.077-.712M19.952.256l-.468 2.685c.976.172 1.935.445 2.851.816l1.02-2.528A17 17 0 0 0 20.48.36l-.01-.002-.011-.003-.011-.002h-.003l-.01-.003h-.004l-.01-.003h-.003l-.011-.003-.01-.003c-.006 0-.008-.003-.014-.003l-.128-.024h-.003l-.01-.003h-.003q-.005 0-.011-.003h-.003q-.006 0-.01-.003h-.003q-.006 0-.011-.002h-.003L20.187.3h-.003l-.01-.003h-.003q-.005 0-.011-.003h-.003l-.01-.002h-.004q-.005 0-.01-.003h-.003l-.011-.003h-.003l-.093-.019q-.005 0-.01-.003h-.003l-.011-.002h-.003l-.01-.003h-.003q-.004 0-.011-.003h-.003l-.011-.002h-.003q-.001.003-.002.002M17 0v2.726q.101 0 .202.003L17.24.003h-.054q-.009-.004-.011-.003z"/><path fill="#F7F7F7" d="M17.016 31.585h-.073a.246.246 0 0 1-.243-.246c0-.133.114-.253.245-.242H17a.25.25 0 0 1 .25.242c0 .134-.1.246-.234.246m2.416-.207a.244.244 0 0 1-.044-.485l.07-.014a.246.246 0 0 1 .284.199.246.246 0 0 1-.199.283l-.07.014q-.017.004-.041.003m-4.905-.006q-.02 0-.043-.003l-.071-.013a.246.246 0 0 1-.2-.284.25.25 0 0 1 .284-.199l.071.014c.134.024.221.15.2.283a.245.245 0 0 1-.24.202m7.323-.63a.245.245 0 0 1-.082-.474l.068-.024a.246.246 0 0 1 .169.46l-.068.025a.3.3 0 0 1-.087.013m-9.738-.013a.3.3 0 0 1-.082-.014l-.07-.024a.245.245 0 0 1-.145-.314.246.246 0 0 1 .313-.144l.069.024c.125.046.19.185.144.314a.24.24 0 0 1-.229.158m12.003-1.033a.244.244 0 0 1-.123-.455l.063-.036a.24.24 0 0 1 .333.09.24.24 0 0 1-.09.332l-.063.036a.2.2 0 0 1-.12.033m-14.268-.022a.25.25 0 0 1-.123-.033l-.063-.035a.245.245 0 0 1-.09-.333.245.245 0 0 1 .333-.09l.063.035a.245.245 0 0 1-.12.456m16.32-1.401a.25.25 0 0 1-.187-.088.243.243 0 0 1 .03-.343l.054-.046a.243.243 0 0 1 .344.03.243.243 0 0 1-.03.343l-.058.046a.23.23 0 0 1-.152.058M7.787 28.24a.22.22 0 0 1-.145-.055l-.022-.016-.035-.03a.243.243 0 0 1-.03-.343.243.243 0 0 1 .343-.03l.036.03c.103.087.125.248.04.351a.24.24 0 0 1-.187.093m20.157-1.726a.245.245 0 0 1-.185-.403l.043-.052a.243.243 0 1 1 .373.31l-.049.06a.24.24 0 0 1-.183.085M6.03 26.48a.25.25 0 0 1-.188-.087l-.046-.058a.243.243 0 1 1 .373-.31l.046.054a.243.243 0 0 1-.185.4m23.357-2.004a.242.242 0 0 1-.21-.365l.036-.063a.24.24 0 0 1 .332-.087.24.24 0 0 1 .088.332l-.038.063a.24.24 0 0 1-.208.12m-24.794-.038a.24.24 0 0 1-.21-.12l-.038-.065a.244.244 0 0 1 .423-.243l.035.06a.244.244 0 0 1-.087.332.23.23 0 0 1-.123.036m25.863-2.222a.245.245 0 0 1-.229-.33l.024-.068a.245.245 0 0 1 .314-.144c.125.046.19.188.144.313l-.024.068a.24.24 0 0 1-.229.161m-26.923-.038a.25.25 0 0 1-.229-.158l-.025-.071a.243.243 0 1 1 .458-.164l.025.066a.243.243 0 0 1-.145.313.3.3 0 0 1-.084.014m27.58-2.372-.044-.002a.24.24 0 0 1-.196-.284l.014-.068a.244.244 0 0 1 .48.082l-.014.073a.245.245 0 0 1-.24.2m-28.232-.04a.245.245 0 0 1-.24-.2l-.01-.068a.245.245 0 0 1 .199-.283.24.24 0 0 1 .28.196l.011.068a.24.24 0 0 1-.196.284zm28.458-2.449a.244.244 0 0 1-.242-.245v-.134a.243.243 0 0 1 .485 0v.14a.24.24 0 0 1-.243.24m-28.678-.04a.243.243 0 0 1-.243-.243v-.074a.243.243 0 0 1 .485 0v.074a.24.24 0 0 1-.242.242m.21-2.49q-.021 0-.041-.002a.244.244 0 0 1-.2-.281l.014-.076a.245.245 0 0 1 .48.092l-.01.066a.25.25 0 0 1-.244.201m28.256-.019a.24.24 0 0 1-.24-.204l-.011-.065a.243.243 0 0 1 .196-.284.24.24 0 0 1 .284.196l.013.077a.244.244 0 0 1-.201.28q-.025-.002-.041 0M3.51 12.371a.242.242 0 0 1-.229-.324l.025-.071a.246.246 0 0 1 .313-.145.247.247 0 0 1 .145.314l-.025.065a.25.25 0 0 1-.229.161m26.972-.019a.25.25 0 0 1-.232-.164l-.021-.062a.243.243 0 0 1 .144-.314.243.243 0 0 1 .314.145l.027.073a.245.245 0 0 1-.153.311.3.3 0 0 1-.079.011m-25.92-2.246a.242.242 0 0 1-.21-.365l.039-.066a.245.245 0 1 1 .422.248l-.035.063a.26.26 0 0 1-.216.12m24.865-.017a.25.25 0 0 1-.212-.125l-.033-.057a.245.245 0 0 1 .422-.248l.039.068a.243.243 0 0 1-.216.362M5.992 8.056a.244.244 0 0 1-.185-.401l.051-.06a.244.244 0 0 1 .366.322l-.044.052a.25.25 0 0 1-.188.087m22.005-.014a.25.25 0 0 1-.188-.087l-.044-.055a.243.243 0 0 1 .028-.343.243.243 0 0 1 .343.027l.05.057a.245.245 0 0 1-.189.401M7.753 6.284a.24.24 0 0 1-.185-.087.243.243 0 0 1 .03-.344l.057-.046a.243.243 0 0 1 .343.03.243.243 0 0 1-.03.343l-.054.047a.26.26 0 0 1-.161.057m18.48-.011a.24.24 0 0 1-.155-.057l-.036-.03c-.103-.088-.125-.248-.04-.352.087-.104.229-.125.332-.038l.022.016.035.03c.104.087.118.24.03.344a.25.25 0 0 1-.188.087M9.795 4.844a.25.25 0 0 1-.213-.122.24.24 0 0 1 .09-.333l.063-.035a.24.24 0 0 1 .332.087.24.24 0 0 1-.087.333l-.063.038a.25.25 0 0 1-.122.032m14.394-.008a.26.26 0 0 1-.123-.032l-.063-.036a.245.245 0 0 1-.09-.333.245.245 0 0 1 .333-.09l.063.036a.245.245 0 0 1 .09.333.24.24 0 0 1-.21.122M12.055 3.781a.245.245 0 0 1-.082-.474l.068-.025a.246.246 0 0 1 .314.145.245.245 0 0 1-.145.313l-.068.025a.3.3 0 0 1-.087.016m9.874-.008a.3.3 0 0 1-.082-.014l-.071-.024a.25.25 0 0 1-.147-.314.246.246 0 0 1 .313-.147l.069.025a.24.24 0 0 1 .147.31.24.24 0 0 1-.23.164m-7.464-.643a.245.245 0 0 1-.24-.202.246.246 0 0 1 .199-.284l.07-.013a.244.244 0 0 1 .088.48l-.071.013q-.025.005-.046.006m5.051-.006-.04-.002-.072-.014a.244.244 0 0 1 .082-.48l.071.014a.244.244 0 0 1-.04.482m-2.489-.218h-.073a.243.243 0 0 1 0-.485H17c.134 0 .256.109.256.243 0 .133-.095.242-.229.242"/></g><defs><clipPath id="a"><path fill="#fff" d="M0 0h34v34H0z"/></clipPath></defs></svg>