<svg xmlns="http://www.w3.org/2000/svg" fill="none" viewBox="0 0 34 34"><g clip-path="url(#a)"><path fill="#B3CFE2" d="M17 34c9.389 0 17-7.611 17-17S26.389 0 17 0 0 7.611 0 17s7.611 17 17 17"/><path fill="#C5DBE9" d="M6.564 3.541c7.454-5.74 18.15-4.356 23.895 3.097 5.744 7.453 4.356 18.15-3.097 23.895"/><g fill="#fff" opacity=".12"><path d="M5.969 26.1q.216.265.45.518a2 2 0 0 0-.074-.191.6.6 0 0 0-.376-.327m25.317-9.615a2 2 0 0 0-.3.504s-.546 1.404-.78 1.955a.054.054 0 0 1-.082-.028c-.046-.136-.349-1.126-.441-1.335a.61.61 0 0 0-.415-.341.57.57 0 0 0-.46.095l-.017.014c-.196.166-.305.406-.39.6 0 0-.57 1.466-.793 1.99-.027.013-.065.002-.076-.03-.047-.137-.35-1.126-.445-1.336a.61.61 0 0 0-.414-.34.57.57 0 0 0-.46.095l-.017.013c-.196.166-.305.406-.39.6 0 0-.553 1.428-.785 1.968-.027.011-.063.003-.074-.03-.046-.136-.349-1.126-.444-1.336a.61.61 0 0 0-.414-.34.57.57 0 0 0-.461.095l-.016.014c-.197.166-.306.406-.39.6 0 0-.57 1.466-.794 1.99-.027.013-.065.002-.076-.03-.046-.137-.349-1.126-.444-1.336a.61.61 0 0 0-.415-.341.57.57 0 0 0-.46.095l-.017.014c-.196.166-.305.406-.39.6 0 0-.545 1.404-.78 1.954a.052.052 0 0 1-.081-.027c-.046-.136-.349-1.126-.444-1.336a.61.61 0 0 0-.415-.34.57.57 0 0 0-.46.095l-.017.014c-.196.166-.305.406-.39.6 0 0-.57 1.466-.793 1.99-.027.013-.065.002-.076-.03-.047-.137-.35-1.127-.445-1.337a.61.61 0 0 0-.414-.34.57.57 0 0 0-.46.095l-.012.003c-.196.166-.305.406-.39.6 0 0-.575 1.48-.795 1.995a.054.054 0 0 1-.09-.019c-.047-.136-.35-1.126-.445-1.336a.61.61 0 0 0-.414-.34.57.57 0 0 0-.46.095l-.017.014c-.197.166-.306.406-.39.6 0 0-.57 1.466-.793 1.99-.028.013-.066.002-.077-.03-.046-.137-.349-1.126-.444-1.336a.61.61 0 0 0-.414-.341.57.57 0 0 0-.461.095l-.016.014c-.197.166-.306.406-.39.6 0 0-.545 1.404-.78 1.954a.053.053 0 0 1-.082-.027c-.046-.136-.349-1.126-.441-1.336a.61.61 0 0 0-.415-.34.57.57 0 0 0-.46.095l-.017.013c-.196.167-.305.407-.39.6 0 0-.33.848-.586 1.483.107.101.21.205.32.303.168-.406.446-1.069.58-1.41q.01-.03.008-.054c.2-.488.254-.594.434-.597.147-.003.212.163.24.245.1.295.286.924.373 1.183.063.18.207.311.376.322a.4.4 0 0 0 .303-.125.22.22 0 0 0 .098-.101c.024-.055.144-.352.272-.674.167-.398.377-.905.488-1.188.006-.011.003-.025.006-.038.193-.477.248-.581.428-.587.147-.002.213.164.24.246.1.294.286.924.373 1.183.063.18.207.31.376.322a.42.42 0 0 0 .352-.183.2.2 0 0 0 .057-.07c.017-.036.071-.173.142-.347.166-.395.469-1.123.614-1.483q.01-.03.008-.055c.199-.488.253-.594.433-.597.147-.002.213.164.24.246.1.294.286.924.373 1.183.063.18.208.31.377.322a.42.42 0 0 0 .36-.197.2.2 0 0 0 .062-.079c.03-.068.213-.523.376-.927.137-.327.278-.67.363-.886q.004-.01.003-.021c.218-.538.267-.646.455-.652.147-.003.213.164.24.245.1.295.286.924.373 1.183.063.18.208.311.377.322a.42.42 0 0 0 .351-.182.2.2 0 0 0 .058-.071c.016-.036.07-.172.141-.347.166-.395.47-1.123.614-1.483q.01-.03.008-.054c.199-.488.253-.594.433-.597.148-.003.213.163.24.245.101.295.286.924.374 1.183.062.18.207.311.376.322a.4.4 0 0 0 .302-.125.22.22 0 0 0 .099-.101c.024-.055.144-.352.272-.674.166-.398.376-.905.49-1.188.006-.011.004-.025.006-.038.194-.477.248-.581.428-.586.148-.003.213.163.24.245.101.294.287.924.374 1.183.062.18.207.31.376.322a.42.42 0 0 0 .352-.183.2.2 0 0 0 .057-.07c.016-.036.07-.172.142-.347.166-.395.468-1.123.613-1.483q.01-.03.008-.055c.2-.488.254-.594.434-.596.147-.003.212.163.24.245.1.294.286.924.373 1.183.063.18.207.31.376.322a.4.4 0 0 0 .327-.15.2.2 0 0 0 .071-.085c.011-.024.044-.103.087-.212.134-.32.513-1.224.68-1.639.007-.022.007-.044.01-.063.188-.46.243-.561.42-.567.147-.002.213.164.24.246.1.294.286.924.373 1.183.063.18.207.31.377.322a.41.41 0 0 0 .351-.183.2.2 0 0 0 .057-.071c.017-.035.071-.172.142-.346.166-.396.47-1.123.614-1.483q.01-.03.008-.055c.199-.488.253-.594.433-.597.147-.002.213.164.24.246.1.294.286.924.374 1.183.062.18.207.31.376.321a.4.4 0 0 0 .302-.125.22.22 0 0 0 .098-.1c.025-.055.145-.352.273-.674.155-.374.352-.842.466-1.134.003-.131.011-.26.011-.393-.003-.19-.008-.36-.014-.531M8.524 27.605a.57.57 0 0 0-.46.095l-.017.014a1 1 0 0 0-.215.261q.159.133.327.262c.082-.153.145-.193.256-.199.148-.003.213.164.24.245.036.107.085.26.134.423q.256.178.52.349c-.108-.344-.3-.949-.37-1.11a.6.6 0 0 0-.415-.34"/><path d="M30.205 21.452c-.027.019-.071.01-.082-.028-.046-.136-.349-1.125-.442-1.335a.61.61 0 0 0-.414-.341.57.57 0 0 0-.46.095l-.017.014c-.196.166-.305.406-.39.6 0 0-.57 1.466-.793 1.99-.027.013-.066.003-.076-.03-.047-.137-.35-1.126-.445-1.336a.61.61 0 0 0-.414-.34.57.57 0 0 0-.46.095l-.017.013c-.197.166-.306.406-.39.6 0 0-.553 1.428-.785 1.968-.027.011-.063.003-.074-.03-.046-.136-.349-1.126-.444-1.335a.61.61 0 0 0-.415-.341.57.57 0 0 0-.46.095l-.017.014c-.196.166-.305.406-.39.6 0 0-.57 1.466-.793 1.99-.027.013-.065.002-.076-.03-.046-.137-.349-1.126-.444-1.336a.61.61 0 0 0-.415-.341.57.57 0 0 0-.46.095l-.017.014c-.196.166-.305.406-.39.6 0 0-.545 1.404-.78 1.954a.052.052 0 0 1-.081-.027c-.046-.136-.35-1.126-.444-1.336a.61.61 0 0 0-.415-.34.57.57 0 0 0-.46.095l-.017.014c-.196.166-.305.406-.39.6 0 0-.57 1.466-.793 1.99-.027.013-.066.002-.076-.03-.047-.137-.35-1.126-.445-1.336a.61.61 0 0 0-.414-.341.57.57 0 0 0-.46.095l-.012.003c-.196.166-.305.406-.39.6 0 0-.575 1.48-.796 1.995a.054.054 0 0 1-.09-.019c-.046-.136-.348-1.126-.444-1.336a.61.61 0 0 0-.414-.34.57.57 0 0 0-.461.095l-.016.014c-.197.166-.306.406-.39.6 0 0-.57 1.466-.793 1.99-.028.013-.066.002-.077-.03-.046-.137-.349-1.126-.444-1.336a.61.61 0 0 0-.415-.341.57.57 0 0 0-.46.095l-.017.014c-.196.166-.305.406-.39.6 0 0-.474 1.221-.727 1.832q.176.108.357.21c.052-.129.128-.314.204-.508.167-.398.377-.905.488-1.188.006-.011.003-.025.006-.038.193-.477.248-.58.428-.586.147-.003.212.163.24.245.1.294.286.924.373 1.183.063.18.207.31.376.322a.42.42 0 0 0 .352-.183.2.2 0 0 0 .057-.07c.017-.036.071-.172.142-.347.166-.395.469-1.123.613-1.483q.01-.03.008-.054c.2-.488.254-.595.434-.598.147-.002.213.164.24.246.1.294.286.924.373 1.183.063.18.207.31.377.322a.42.42 0 0 0 .36-.197.2.2 0 0 0 .062-.079c.03-.068.213-.523.376-.926.137-.328.278-.671.363-.887q.004-.01.003-.021c.218-.537.267-.646.455-.652.147-.003.212.164.24.246.1.294.286.924.373 1.183.063.18.207.31.376.321a.42.42 0 0 0 .352-.182.2.2 0 0 0 .057-.071c.017-.036.071-.172.142-.346.166-.396.469-1.124.613-1.483.009-.02.009-.039.009-.055.199-.488.253-.594.433-.597.147-.003.213.164.24.245.1.295.286.924.373 1.183.063.18.208.311.377.322a.4.4 0 0 0 .302-.125.22.22 0 0 0 .098-.101c.025-.055.145-.352.273-.673.166-.398.376-.905.49-1.189.006-.01.003-.024.006-.038.194-.477.248-.58.428-.586.147-.003.213.163.24.245.1.294.286.924.373 1.183.063.18.208.311.377.322a.41.41 0 0 0 .351-.183.2.2 0 0 0 .058-.07c.016-.036.07-.17.141-.347.167-.395.47-1.123.614-1.483q.01-.03.008-.054c.199-.488.253-.595.433-.597.148-.003.213.163.24.245.101.294.287.924.374 1.183.063.18.207.31.376.322a.4.4 0 0 0 .327-.15.2.2 0 0 0 .071-.085c.01-.024.044-.103.087-.212.134-.32.513-1.224.679-1.639.008-.021.008-.043.01-.062.189-.461.244-.562.42-.567.148-.003.213.163.24.245.102.294.287.924.374 1.183.063.18.207.31.376.322a.41.41 0 0 0 .352-.183.2.2 0 0 0 .057-.07c.017-.036.071-.173.142-.347.166-.395.469-1.123.613-1.483.008-.02.008-.038.008-.055.2-.488.254-.594.434-.597.147-.002.213.164.24.246.1.294.286.924.373 1.183.063.18.208.31.377.322a.4.4 0 0 0 .302-.126l.025-.016a14 14 0 0 0 .654-2.576c-.055.098-.1.196-.142.286-.002-.022-.548 1.382-.782 1.933M5.4 22.07c.188-.46.243-.561.42-.566.147-.003.213.163.24.245.1.294.286.924.373 1.183.063.18.208.31.377.322a.41.41 0 0 0 .351-.183.2.2 0 0 0 .058-.07c.016-.036.07-.173.141-.347.167-.395.47-1.123.614-1.483q.01-.03.008-.055c.199-.488.253-.594.433-.597.148-.002.213.164.24.246.101.294.286.924.374 1.183.062.18.207.31.376.322a.4.4 0 0 0 .303-.126.22.22 0 0 0 .098-.1c.024-.055.144-.352.272-.674.167-.398.377-.905.488-1.189.006-.01.003-.024.006-.038.193-.477.248-.58.428-.586.147-.003.212.164.24.245.1.295.286.925.373 1.184.063.18.207.31.376.321a.42.42 0 0 0 .352-.182.2.2 0 0 0 .057-.071c.017-.036.071-.172.142-.346.166-.396.469-1.124.613-1.483q.01-.03.008-.055c.2-.488.254-.594.434-.597.147-.003.213.164.24.245.1.295.286.924.373 1.183.063.18.207.311.377.322a.42.42 0 0 0 .36-.196.2.2 0 0 0 .062-.08c.03-.067.213-.523.376-.926.137-.327.278-.67.363-.886q.004-.011.003-.022c.218-.537.267-.646.455-.651.147-.003.212.163.24.245.1.294.286.924.373 1.183.063.18.207.31.376.322a.42.42 0 0 0 .352-.183.2.2 0 0 0 .057-.07c.017-.036.071-.172.142-.347.166-.395.469-1.123.613-1.483.009-.02.009-.038.009-.055.199-.488.253-.594.433-.596.147-.003.213.163.24.245.1.294.286.924.373 1.183.063.18.208.31.377.322a.4.4 0 0 0 .302-.126.22.22 0 0 0 .098-.1c.025-.055.145-.352.273-.674.166-.398.376-.905.49-1.189.006-.01.003-.024.006-.038.194-.477.248-.58.428-.586.147-.002.213.164.24.245.1.295.286.925.373 1.184.063.18.208.31.377.321a.42.42 0 0 0 .351-.182.2.2 0 0 0 .058-.071c.016-.036.07-.172.141-.346.167-.396.47-1.124.614-1.483q.01-.03.008-.055c.199-.488.254-.594.433-.597.148-.003.213.164.24.245.101.295.287.925.374 1.184.063.18.207.31.376.321a.4.4 0 0 0 .327-.15.2.2 0 0 0 .071-.084c.01-.025.044-.104.087-.213.134-.319.513-1.224.679-1.638.008-.022.008-.044.01-.063.189-.46.244-.562.42-.567.148-.003.213.164.24.245.102.295.287.925.374 1.184.063.18.207.31.376.321a.41.41 0 0 0 .352-.183.2.2 0 0 0 .057-.07c.017-.036.071-.172.142-.347.166-.395.469-1.123.613-1.483.008-.019.008-.038.008-.054.2-.488.254-.594.434-.597.147-.003.213.163.24.245.1.295.286.924.373 1.183.063.18.208.311.377.322a.4.4 0 0 0 .302-.125.22.22 0 0 0 .098-.101c.025-.055.145-.352.273-.674l.03-.07a18 18 0 0 0-.183-.65c-.16.41-.346.873-.46 1.14-.028.02-.071.011-.082-.027-.047-.136-.35-1.126-.442-1.336a.61.61 0 0 0-.414-.34.57.57 0 0 0-.46.095l-.017.014c-.197.166-.306.406-.39.6 0 0-.57 1.466-.793 1.99-.028.013-.066.002-.077-.03-.046-.137-.349-1.127-.444-1.336a.61.61 0 0 0-.415-.341.57.57 0 0 0-.46.095l-.017.014c-.196.166-.305.406-.39.6 0 0-.553 1.428-.784 1.968-.028.01-.063.003-.074-.03-.047-.136-.349-1.126-.445-1.336a.61.61 0 0 0-.414-.34.57.57 0 0 0-.46.095l-.017.013c-.196.167-.305.406-.39.6 0 0-.57 1.467-.793 1.99-.027.014-.066.003-.076-.03-.047-.136-.35-1.126-.445-1.336a.61.61 0 0 0-.414-.34.57.57 0 0 0-.46.095l-.017.014c-.196.166-.306.406-.39.6 0 0-.545 1.403-.78 1.954-.027.019-.07.01-.081-.027-.047-.137-.35-1.126-.445-1.336a.61.61 0 0 0-.414-.34.57.57 0 0 0-.46.095l-.017.013c-.197.167-.306.406-.39.6 0 0-.57 1.467-.793 1.99-.028.014-.066.003-.077-.03-.046-.136-.349-1.126-.444-1.336a.61.61 0 0 0-.414-.34.57.57 0 0 0-.461.095l-.017-.022c-.196.166-.305.406-.39.6 0 0-.575 1.48-.795 1.995a.054.054 0 0 1-.09-.019c-.047-.136-.35-1.126-.445-1.336a.61.61 0 0 0-.414-.34.57.57 0 0 0-.46.095l-.017.014c-.196.166-.305.406-.39.6 0 0-.57 1.466-.793 1.99-.027.013-.066.002-.077-.03-.046-.137-.349-1.126-.444-1.336a.61.61 0 0 0-.414-.341.57.57 0 0 0-.461.095l-.016.014c-.197.166-.306.406-.39.6 0 0-.545 1.404-.78 1.954a.053.053 0 0 1-.082-.027c-.046-.136-.349-1.126-.441-1.336a.61.61 0 0 0-.415-.34.57.57 0 0 0-.46.095l-.017.014c-.196.166-.305.406-.39.6 0 0-.57 1.466-.793 1.99-.027.013-.065.002-.076-.03-.046-.137-.35-1.126-.445-1.336a.61.61 0 0 0-.414-.341.57.57 0 0 0-.46.095l-.017.014c-.196.166-.305.406-.39.6 0 0-.482 1.245-.736 1.85q.116.219.235.431a.2.2 0 0 0 .06-.073l.087-.213c.133-.319.512-1.224.679-1.638a.2.2 0 0 0 .013-.068m-1.68.242q.071.179.145.355a4 4 0 0 0-.106-.29c-.008-.024-.025-.043-.038-.065"/><path d="M7.22 25.503c.016-.036.07-.172.142-.347.166-.395.469-1.123.613-1.483q.01-.03.008-.054c.2-.488.254-.594.434-.597.147-.003.212.163.24.245.1.295.286.924.373 1.183.063.18.207.311.376.322a.4.4 0 0 0 .303-.125.22.22 0 0 0 .098-.101c.025-.055.145-.352.273-.674.166-.398.376-.905.488-1.188.005-.011.002-.025.005-.038.194-.477.248-.581.428-.586.147-.003.213.163.24.245.1.294.286.924.373 1.183.063.18.208.31.377.322a.42.42 0 0 0 .351-.183.2.2 0 0 0 .058-.07c.016-.036.07-.172.141-.347.167-.395.47-1.123.614-1.483.008-.02.008-.038.008-.055.199-.488.253-.594.433-.597.148-.002.213.164.24.246.101.294.287.924.374 1.183.062.18.207.31.376.322a.42.42 0 0 0 .36-.197.2.2 0 0 0 .063-.079c.03-.068.212-.523.376-.927.136-.327.278-.67.362-.886q.004-.01.003-.021c.218-.537.267-.646.455-.652.147-.003.213.164.24.245.101.295.286.925.374 1.183.062.18.207.311.376.322a.42.42 0 0 0 .352-.182.2.2 0 0 0 .057-.071c.016-.036.07-.172.142-.346.166-.396.468-1.124.613-1.483q.01-.03.008-.055c.199-.488.254-.594.433-.597.148-.003.213.164.24.245.101.295.287.924.374 1.183.063.18.207.311.376.322a.4.4 0 0 0 .303-.125.22.22 0 0 0 .098-.101c.024-.055.144-.352.272-.674.167-.398.377-.905.491-1.188.006-.011.003-.025.006-.038.193-.477.248-.58.428-.586.147-.003.212.163.24.245.1.294.286.924.373 1.183.063.18.207.31.376.322a.41.41 0 0 0 .352-.183.2.2 0 0 0 .057-.07c.016-.036.07-.17.142-.347.166-.395.469-1.123.613-1.483q.01-.03.008-.055c.2-.488.254-.594.434-.596.147-.003.212.163.24.245.1.294.286.924.373 1.183.063.18.207.31.376.322a.4.4 0 0 0 .327-.15.2.2 0 0 0 .071-.085 166 166 0 0 0 .766-1.851c.009-.022.009-.043.011-.063.188-.46.243-.561.42-.566.147-.003.213.163.24.245.1.294.286.924.373 1.183.063.18.208.31.377.322a.41.41 0 0 0 .351-.183.3.3 0 0 0 .058-.07c.016-.036.07-.173.141-.347.167-.395.47-1.123.614-1.483.008-.02.008-.038.008-.055.199-.488.254-.594.433-.597.148-.002.213.164.24.246.101.294.287.924.374 1.183.063.18.207.31.376.322a.4.4 0 0 0 .303-.126.22.22 0 0 0 .098-.1c.024-.055.144-.352.272-.674.112-.27.246-.592.355-.859a13 13 0 0 0-.128-.812l-.063.136s-.545 1.404-.78 1.955c-.027.019-.07.01-.081-.028-.047-.136-.35-1.125-.442-1.335a.61.61 0 0 0-.415-.341.57.57 0 0 0-.46.095l-.017.014c-.196.166-.305.406-.39.6 0 0-.57 1.466-.793 1.99-.027.013-.065.002-.076-.03-.046-.137-.349-1.126-.444-1.336a.61.61 0 0 0-.415-.34.57.57 0 0 0-.46.095l-.017.013c-.196.166-.305.406-.39.6 0 0-.553 1.428-.785 1.968-.027.011-.062.003-.073-.03-.047-.136-.35-1.126-.445-1.336a.61.61 0 0 0-.414-.34.57.57 0 0 0-.46.095l-.017.014c-.196.166-.305.406-.39.6 0 0-.57 1.466-.793 1.99-.028.013-.066.002-.077-.03-.046-.137-.349-1.126-.444-1.336a.61.61 0 0 0-.414-.341.57.57 0 0 0-.461.095l-.017.014c-.196.166-.305.406-.39.6 0 0-.545 1.404-.779 1.954a.053.053 0 0 1-.082-.027c-.046-.136-.349-1.126-.444-1.336a.61.61 0 0 0-.415-.34.57.57 0 0 0-.46.095l-.017.014c-.196.166-.305.406-.39.6 0 0-.57 1.466-.793 1.99-.027.013-.065.002-.076-.03-.046-.137-.349-1.126-.444-1.336a.61.61 0 0 0-.415-.341.57.57 0 0 0-.46.095l-.014-.016c-.196.166-.305.406-.39.6 0 0-.575 1.48-.796 1.995a.054.054 0 0 1-.09-.019c-.046-.136-.349-1.126-.444-1.336a.61.61 0 0 0-.415-.34.57.57 0 0 0-.46.095l-.017.014c-.196.166-.305.406-.39.6 0 0-.57 1.466-.793 1.99-.027.013-.065.002-.076-.03-.046-.137-.35-1.126-.444-1.336a.61.61 0 0 0-.415-.341.57.57 0 0 0-.46.095l-.017.014c-.196.166-.305.406-.39.6 0 0-.545 1.404-.78 1.954a.052.052 0 0 1-.081-.027c-.047-.136-.35-1.126-.442-1.336a.61.61 0 0 0-.414-.34.57.57 0 0 0-.46.095l-.017.014c-.197.166-.306.406-.39.6 0 0-.57 1.466-.793 1.99-.028.013-.066.002-.077-.03-.046-.137-.349-1.127-.444-1.336a.61.61 0 0 0-.414-.341.57.57 0 0 0-.461.095l-.017.014c-.196.166-.305.406-.39.6l-.141.365q.14.221.286.439l.183-.447c.008-.022.008-.044.01-.063.189-.46.243-.562.42-.567.148-.003.213.163.24.245.101.295.287.924.374 1.183.063.18.207.311.376.322a.41.41 0 0 0 .352-.183.3.3 0 0 0 .057-.081m16.41 3.917-.017.014c-.128.109-.218.25-.289.39q.44-.218.862-.464a.58.58 0 0 0-.556.06m-2.596.992-.016.014a1.2 1.2 0 0 0-.284.379q.531-.144 1.044-.325a.6.6 0 0 0-.283-.16.56.56 0 0 0-.46.092m-9.922-1.164a.57.57 0 0 0-.461.096l-.016.014c-.107.09-.188.204-.251.318q.183.098.37.191c.077-.139.14-.18.249-.182.147-.003.212.163.24.245.019.052.038.12.062.19q.233.102.47.194a10 10 0 0 0-.249-.72.6.6 0 0 0-.414-.346m18.151-6.897a.57.57 0 0 0-.46.096l-.017.013c-.196.167-.305.406-.39.6 0 0-.57 1.467-.793 1.99-.027.014-.065.003-.076-.03-.046-.136-.35-1.126-.444-1.336a.61.61 0 0 0-.415-.34.57.57 0 0 0-.46.095l-.017.014c-.196.166-.305.406-.39.6 0 0-.553 1.428-.785 1.968-.027.01-.063.002-.073-.03-.047-.137-.35-1.126-.445-1.336a.61.61 0 0 0-.414-.341.57.57 0 0 0-.461.095l-.016.014c-.197.166-.306.406-.39.6 0 0-.57 1.466-.793 1.99-.028.013-.066.003-.077-.03-.046-.136-.349-1.126-.444-1.336a.61.61 0 0 0-.415-.34.57.57 0 0 0-.46.095l-.011.005c-.196.166-.305.406-.39.6 0 0-.545 1.404-.78 1.954-.027.02-.07.012-.081-.027-.047-.136-.35-1.126-.445-1.335a.61.61 0 0 0-.414-.341.57.57 0 0 0-.46.095l-.017.014c-.197.166-.306.406-.39.6 0 0-.57 1.466-.793 1.99-.028.013-.066.002-.077-.03-.046-.137-.349-1.126-.444-1.336a.61.61 0 0 0-.414-.341.57.57 0 0 0-.461.095l-.016.014c-.197.166-.306.406-.39.6 0 0-.575 1.48-.796 1.995a.054.054 0 0 1-.09-.019c-.047-.136-.35-1.126-.445-1.335a.61.61 0 0 0-.414-.341.57.57 0 0 0-.46.095l-.017.014c-.196.166-.305.406-.39.6 0 0-.34.877-.6 1.518q.194.07.39.13c.17-.405.404-.967.524-1.272q.01-.03.008-.055c.199-.488.253-.594.433-.597.147-.003.213.164.24.245.101.295.286.925.374 1.184.062.18.207.31.376.321a.42.42 0 0 0 .36-.196.2.2 0 0 0 .062-.079c.03-.068.213-.523.377-.927.136-.327.278-.67.362-.886q.004-.011.003-.022c.218-.537.267-.646.455-.651.147-.003.213.163.24.245.1.295.286.924.373 1.183.063.18.208.311.377.322a.42.42 0 0 0 .351-.183.2.2 0 0 0 .058-.07c.016-.036.07-.172.141-.347.167-.395.47-1.123.614-1.483q.01-.03.008-.054c.199-.488.253-.595.433-.597.148-.003.213.163.24.245.101.294.287.924.374 1.183.063.18.207.31.376.322a.4.4 0 0 0 .303-.126.22.22 0 0 0 .098-.1c.024-.055.144-.352.272-.674.167-.398.377-.905.491-1.188.006-.011.003-.025.006-.039.193-.477.248-.58.428-.586.147-.002.212.164.24.246.1.294.286.924.373 1.183.063.18.207.31.376.322a.42.42 0 0 0 .352-.183.3.3 0 0 0 .057-.071c.016-.036.07-.172.142-.346.166-.396.469-1.123.613-1.483.008-.02.008-.038.008-.055.2-.488.254-.594.434-.597.147-.003.212.164.24.245.1.295.286.925.373 1.184.063.18.207.31.376.321a.4.4 0 0 0 .327-.15.2.2 0 0 0 .071-.084l.088-.213c.133-.319.512-1.224.678-1.638.008-.022.008-.044.011-.063.188-.46.243-.561.42-.567.147-.003.213.164.24.245.1.295.286.925.373 1.184.063.18.208.31.377.321a.41.41 0 0 0 .351-.182.3.3 0 0 0 .058-.071c.016-.036.07-.172.141-.346.167-.396.47-1.124.614-1.483q.01-.03.008-.055c.199-.488.253-.594.433-.597.147-.003.213.164.24.245.058.167.142.445.221.698q.13-.244.254-.496a7 7 0 0 0-.189-.54.6.6 0 0 0-.417-.357"/><path d="M16.317 29.758a.57.57 0 0 0-.46.096l-.017.013c-.197.166-.306.406-.39.6l-.278.714q.214.03.428.052l.15-.368.002-.022c.219-.537.268-.646.456-.651.147-.003.212.163.24.245.068.202.177.564.27.856q.141.006.283.008l.13-.002c-.1-.317-.32-1.026-.397-1.197a.62.62 0 0 0-.417-.344m-2.612 1.009a.56.56 0 0 0-.385.052q.362.095.73.174a.6.6 0 0 0-.345-.226m15.087-5.799c-.197.167-.306.407-.39.6l-.047.12q.297-.388.567-.793a1 1 0 0 0-.114.063zm-2.12.884a.57.57 0 0 0-.461.095l-.016.014c-.197.166-.306.406-.39.6 0 0-.554 1.428-.785 1.968-.028.01-.063.003-.074-.03-.046-.136-.349-1.126-.444-1.336a.61.61 0 0 0-.415-.34.57.57 0 0 0-.46.095l-.017.013c-.196.166-.305.406-.39.6 0 0-.57 1.467-.793 1.99-.027.014-.065.003-.076-.03-.047-.136-.35-1.126-.445-1.336a.61.61 0 0 0-.414-.34.57.57 0 0 0-.46.095l-.017.014c-.196.166-.305.406-.39.6 0 0-.545 1.403-.78 1.954-.027.019-.07.01-.081-.027-.047-.137-.35-1.126-.445-1.336a.61.61 0 0 0-.414-.34.57.57 0 0 0-.46.095l-.017.013c-.196.166-.305.406-.39.6 0 0-.466 1.2-.72 1.816q.225-.003.45-.014c.17-.406.45-1.08.589-1.423q.01-.03.008-.055c.2-.488.254-.594.434-.597.147-.003.212.164.24.246.1.294.286.924.373 1.183.063.18.207.31.376.321a.4.4 0 0 0 .303-.125.22.22 0 0 0 .098-.1c.024-.055.144-.352.273-.674.166-.398.376-.905.49-1.189.006-.01.003-.024.006-.038.193-.477.248-.58.428-.586.147-.003.212.163.24.245.1.295.286.925.373 1.183.063.18.207.311.376.322a.42.42 0 0 0 .352-.183.2.2 0 0 0 .057-.07c.017-.036.071-.172.142-.347.166-.395.469-1.123.613-1.483.008-.019.008-.038.008-.054.2-.488.254-.594.434-.597.147-.003.213.163.24.245.1.295.286.924.373 1.183.044.128.131.23.24.281q.323-.213.638-.441c.145-.344.505-1.203.665-1.606.008-.022.008-.044.011-.063.188-.46.243-.561.42-.567.147-.003.213.164.24.245.055.161.136.426.213.674q.157-.156.31-.317c-.092-.291-.19-.588-.237-.695a.62.62 0 0 0-.422-.351M9.03 6.758c.062.18.206.31.375.322a.4.4 0 0 0 .303-.126.22.22 0 0 0 .098-.1c.025-.055.145-.352.273-.674.166-.398.376-.905.488-1.189.005-.01.002-.024.005-.038.194-.477.248-.58.428-.586.147-.003.213.164.24.245.1.295.286.925.373 1.184.063.18.208.31.377.321a.42.42 0 0 0 .351-.182.2.2 0 0 0 .058-.071c.016-.036.07-.172.141-.347.167-.395.47-1.123.614-1.483q.01-.03.008-.054c.199-.488.253-.594.433-.597.148-.003.213.164.24.245.101.295.286.924.374 1.183.062.18.207.311.376.322a.42.42 0 0 0 .36-.196.2.2 0 0 0 .063-.08c.03-.067.212-.523.376-.926.136-.327.278-.67.362-.886l.003-.022c.044-.109.082-.196.114-.273-.158.014-.316.025-.474.044-.15.387-.561 1.434-.741 1.851a.054.054 0 0 1-.09-.019c-.047-.136-.35-1.126-.445-1.336a.6.6 0 0 0-.212-.248q-.434.095-.854.216c-.092.13-.158.275-.215.398 0 0-.57 1.466-.793 1.99-.027.013-.066.002-.077-.03-.046-.137-.348-1.126-.444-1.336a.6.6 0 0 0-.376-.327q-.371.167-.73.354a3 3 0 0 0-.175.34s-.545 1.405-.78 1.955a.053.053 0 0 1-.082-.027c-.046-.136-.349-1.126-.441-1.336-.006-.013-.014-.021-.022-.035q-.167.115-.33.234c.033.05.055.101.065.14.107.288.292.92.382 1.18M19.79 3.13a.4.4 0 0 0 .266-.099q-.293-.063-.591-.114c.076.123.19.204.324.213M6.81 8.067a.41.41 0 0 0 .352-.183.2.2 0 0 0 .057-.071c.016-.035.07-.172.142-.346.166-.395.468-1.123.613-1.483q.01-.03.008-.055l.016-.038q-.35.285-.684.589a54 54 0 0 1-.45 1.112c-.027.014-.065.003-.076-.03-.019-.052-.07-.223-.136-.428q-.156.164-.308.33c.035.112.065.213.09.284.062.18.207.31.376.319M17.196 4.12a.42.42 0 0 0 .352-.184.2.2 0 0 0 .057-.07c.017-.036.071-.172.142-.347l.322-.771q-.222-.018-.442-.027c-.142.357-.289.72-.379.93-.027.013-.065.002-.076-.03-.03-.09-.172-.549-.292-.911q-.204.001-.403.01c.103.32.261.854.34 1.086.063.174.207.305.38.313"/><path d="M4.23 11.542a.4.4 0 0 0 .327-.15.2.2 0 0 0 .07-.084l.088-.213c.133-.319.512-1.224.678-1.638.009-.022.009-.044.011-.063.188-.46.243-.561.42-.567.147-.003.213.164.24.246.101.294.286.924.374 1.183.062.18.207.31.376.321a.41.41 0 0 0 .351-.182.2.2 0 0 0 .058-.071c.016-.036.07-.172.141-.346.167-.396.47-1.124.614-1.483q.01-.03.008-.055c.199-.488.254-.594.433-.597.148-.003.213.164.24.245.101.295.287.925.374 1.184.063.18.207.31.376.321a.4.4 0 0 0 .303-.125.22.22 0 0 0 .098-.101c.024-.055.144-.352.272-.673.167-.398.377-.905.488-1.189.006-.01.003-.024.006-.038.193-.477.248-.58.428-.586.147-.003.212.163.24.245.1.295.286.924.373 1.183.063.18.207.311.376.322a.42.42 0 0 0 .352-.183.2.2 0 0 0 .057-.07c.017-.036.071-.172.142-.347.166-.395.469-1.123.613-1.483.009-.019.009-.038.009-.054.199-.488.253-.595.433-.597.147-.003.213.163.24.245.1.294.286.924.373 1.183.063.18.208.31.377.322a.42.42 0 0 0 .36-.196.2.2 0 0 0 .062-.08c.03-.068.213-.523.376-.926.137-.328.278-.671.363-.886q.004-.012.003-.022c.218-.537.267-.646.455-.652.147-.002.213.164.24.246.1.294.286.924.373 1.183.063.18.207.31.377.321a.42.42 0 0 0 .351-.182.2.2 0 0 0 .057-.071c.017-.036.071-.172.142-.346.166-.396.47-1.123.614-1.483q.01-.03.008-.055c.199-.488.253-.594.433-.597.147-.003.213.164.24.245.101.295.286.925.374 1.184.062.18.207.31.376.321a.4.4 0 0 0 .302-.125.22.22 0 0 0 .099-.101c.024-.054.144-.352.272-.673.166-.398.376-.905.49-1.189.006-.01.004-.024.006-.038q.054-.133.096-.23-.205-.06-.41-.116c-.005.01-.01.024-.016.032 0 0-.545 1.404-.78 1.955a.052.052 0 0 1-.081-.027c-.046-.137-.349-1.126-.444-1.336a.61.61 0 0 0-.415-.34.57.57 0 0 0-.46.095l-.017.013c-.196.167-.305.406-.39.6 0 0-.57 1.467-.793 1.99-.027.014-.065.003-.076-.03-.047-.136-.35-1.126-.445-1.336a.61.61 0 0 0-.414-.34.57.57 0 0 0-.46.095l-.017.014c-.196.166-.305.406-.39.6 0 0-.575 1.48-.796 1.995a.054.054 0 0 1-.09-.02c-.046-.136-.349-1.125-.444-1.335a.61.61 0 0 0-.415-.34.57.57 0 0 0-.46.095l-.017.013c-.196.167-.305.406-.39.6 0 0-.57 1.467-.793 1.99-.027.014-.065.003-.076-.03-.046-.136-.35-1.126-.444-1.336a.61.61 0 0 0-.415-.34.57.57 0 0 0-.46.095l-.017.014c-.196.166-.305.406-.39.6 0 0-.545 1.403-.78 1.954-.027.019-.07.01-.081-.027-.047-.137-.35-1.126-.442-1.336a.61.61 0 0 0-.414-.34.57.57 0 0 0-.46.094l-.017.014c-.197.166-.306.406-.39.6 0 0-.57 1.467-.793 1.99-.028.014-.066.003-.077-.03-.046-.136-.349-1.126-.444-1.336a.61.61 0 0 0-.414-.34.55.55 0 0 0-.401.062q-.254.34-.485.7c-.101.262-.56 1.435-.764 1.914-.027.011-.062.003-.073-.03-.014-.035-.044-.136-.085-.264q-.123.255-.234.518c.07.128.193.226.34.234m18.148-6.864a.42.42 0 0 0 .351-.183.2.2 0 0 0 .057-.07c.017-.036.071-.172.142-.347.008-.022.022-.049.03-.073q-.186-.087-.373-.17c-.06.145-.112.276-.156.371-.027.014-.065.003-.076-.03l-.158-.496q-.23-.09-.463-.171c.095.302.204.67.267.853.062.177.207.308.379.316M12.265 3.506q-.144.05-.287.103l.011.003a.42.42 0 0 0 .276-.106M3.239 17.414c.147-.002.213.164.24.246.1.294.286.924.373 1.183.063.18.208.31.377.322a.4.4 0 0 0 .327-.15.2.2 0 0 0 .07-.085l.088-.212c.133-.32.512-1.225.679-1.639.008-.022.008-.044.01-.063.189-.46.243-.561.42-.567.148-.002.213.164.24.246.101.294.286.924.374 1.183.062.18.207.31.376.322a.41.41 0 0 0 .352-.183.2.2 0 0 0 .057-.071c.016-.036.07-.172.142-.346.166-.396.468-1.123.613-1.483q.01-.03.008-.055c.2-.488.254-.594.434-.597.147-.002.212.164.24.246.1.294.286.924.373 1.183.063.18.207.31.376.321a.4.4 0 0 0 .303-.125.22.22 0 0 0 .098-.1c.024-.055.144-.353.273-.674.166-.398.376-.905.487-1.189.006-.01.003-.024.006-.038.194-.477.248-.58.428-.586.147-.003.213.163.24.245.1.295.286.924.373 1.183.063.18.207.311.377.322a.42.42 0 0 0 .351-.183.2.2 0 0 0 .057-.07c.017-.036.071-.172.142-.347.167-.395.47-1.123.614-1.483q.01-.03.008-.054c.199-.488.253-.594.433-.597.147-.003.213.163.24.245.101.295.286.924.374 1.183.062.18.207.311.376.322a.42.42 0 0 0 .36-.196.2.2 0 0 0 .062-.08c.03-.068.213-.523.377-.926.136-.327.278-.67.362-.886q.004-.011.003-.022c.218-.537.267-.646.455-.652.147-.002.213.164.24.246.1.294.286.924.373 1.183.063.18.208.31.377.322a.42.42 0 0 0 .351-.183.2.2 0 0 0 .058-.071c.016-.035.07-.172.141-.346.167-.396.47-1.123.614-1.483.008-.02.008-.038.008-.055.199-.488.253-.594.433-.597.148-.002.213.164.24.246.101.294.286.924.374 1.183.062.18.207.31.376.321a.4.4 0 0 0 .302-.125.22.22 0 0 0 .099-.1c.024-.055.144-.353.272-.674.166-.398.377-.905.491-1.189.005-.01.003-.024.005-.038.194-.477.248-.58.428-.586.148-.003.213.164.24.245.101.295.287.924.374 1.183.063.18.207.311.376.322a.42.42 0 0 0 .352-.182.2.2 0 0 0 .057-.071c.016-.036.07-.172.142-.347.166-.395.468-1.123.613-1.483q.01-.03.008-.054c.2-.488.254-.594.434-.597.147-.003.212.163.24.245.1.295.286.924.373 1.183.063.18.207.311.376.322a.4.4 0 0 0 .327-.15.2.2 0 0 0 .071-.085l.087-.212c.134-.32.513-1.224.68-1.638.008-.022.008-.044.01-.063.188-.46.243-.562.42-.567.147-.003.213.163.24.245.1.295.286.924.373 1.183.063.18.208.311.377.322a.41.41 0 0 0 .351-.183.2.2 0 0 0 .058-.07c.016-.036.07-.17.141-.347.123-.292.316-.758.47-1.131a14 14 0 0 0-.303-.4c-.183.463-.508 1.291-.666 1.657-.027.013-.065.002-.076-.03-.046-.137-.349-1.126-.444-1.336a.61.61 0 0 0-.415-.34.57.57 0 0 0-.46.094l-.017.014c-.196.166-.305.406-.39.6 0 0-.553 1.428-.785 1.968-.027.011-.062.003-.073-.03-.047-.136-.35-1.126-.445-1.336a.61.61 0 0 0-.414-.34.57.57 0 0 0-.46.095l-.017.014c-.196.166-.305.406-.39.6 0 0-.57 1.466-.793 1.99-.027.013-.066.002-.077-.03-.046-.137-.348-1.126-.444-1.336a.61.61 0 0 0-.414-.341.57.57 0 0 0-.461.095l-.016-.016c-.197.166-.306.406-.39.6 0 0-.545 1.404-.78 1.954a.053.053 0 0 1-.082-.027c-.046-.136-.349-1.126-.444-1.336a.61.61 0 0 0-.414-.34.57.57 0 0 0-.461.095l-.016.013c-.197.167-.306.407-.39.6 0 0-.57 1.467-.794 1.99-.027.014-.065.003-.076-.03-.046-.136-.349-1.126-.444-1.336a.61.61 0 0 0-.415-.34.57.57 0 0 0-.46.095l-.017.014c-.196.166-.305.406-.39.6 0 0-.575 1.48-.796 1.995a.054.054 0 0 1-.09-.019c-.046-.136-.348-1.126-.444-1.336a.61.61 0 0 0-.414-.34.57.57 0 0 0-.46.095l-.017.014c-.197.166-.306.406-.39.6 0 0-.57 1.466-.793 1.99-.028.013-.066.002-.077-.03-.046-.137-.349-1.127-.444-1.336a.61.61 0 0 0-.415-.341.57.57 0 0 0-.46.095l-.017.014c-.196.166-.305.406-.39.6 0 0-.545 1.404-.779 1.954a.053.053 0 0 1-.082-.027c-.046-.136-.349-1.126-.441-1.336a.61.61 0 0 0-.415-.34.57.57 0 0 0-.46.095l-.017.013c-.196.167-.305.406-.39.6 0 0-.57 1.467-.793 1.99-.027.014-.065.003-.076-.03-.047-.136-.35-1.126-.445-1.336a.61.61 0 0 0-.414-.34.57.57 0 0 0-.46.095l-.017.014c-.196.166-.305.406-.39.6 0 0-.553 1.428-.785 1.968-.027.01-.063.002-.074-.03-.046-.137-.349-1.126-.444-1.336a.61.61 0 0 0-.414-.34.57.57 0 0 0-.461.095l-.016.013a1 1 0 0 0-.167.188q.01.457.047.905l.046-.114c.008-.02.008-.038.008-.055.205-.499.26-.602.439-.608"/><path d="M4.624 21.438c.011-.024.044-.103.087-.212.134-.32.513-1.224.68-1.639.007-.022.007-.043.01-.062.188-.461.243-.562.42-.568.147-.002.213.164.24.246.1.294.286.924.373 1.183.063.18.207.31.376.322a.41.41 0 0 0 .352-.183.2.2 0 0 0 .057-.07c.017-.036.071-.173.142-.347.166-.395.47-1.123.614-1.483q.01-.03.008-.055c.199-.488.253-.594.433-.597.147-.002.213.164.24.246.1.294.286.924.374 1.183.062.18.207.31.376.322a.4.4 0 0 0 .302-.126.22.22 0 0 0 .098-.1c.025-.055.145-.353.273-.674.166-.398.376-.905.488-1.189.005-.01.003-.024.005-.038.194-.477.249-.58.429-.586.147-.003.212.164.24.245.1.295.286.924.373 1.183.063.18.207.311.376.322a.42.42 0 0 0 .352-.183.2.2 0 0 0 .057-.07c.016-.036.07-.172.142-.347.166-.395.469-1.123.613-1.483q.01-.03.008-.054c.2-.488.254-.594.434-.597.147-.003.212.163.24.245.1.295.286.924.373 1.183.063.18.207.311.376.322a.42.42 0 0 0 .36-.196.2.2 0 0 0 .063-.08c.03-.068.213-.523.376-.926.136-.327.278-.67.363-.886q.003-.011.002-.022c.218-.537.268-.646.456-.652.147-.002.212.164.24.246.1.294.286.924.373 1.183.063.18.207.31.376.322a.42.42 0 0 0 .352-.183.2.2 0 0 0 .057-.07c.016-.036.071-.173.142-.347.166-.395.469-1.123.613-1.483q.01-.03.008-.055c.2-.488.254-.594.434-.597.147-.002.212.164.24.246.1.294.286.924.373 1.183.063.18.207.31.377.321a.4.4 0 0 0 .302-.125.22.22 0 0 0 .098-.1c.025-.055.145-.352.273-.674.166-.398.376-.905.49-1.189.006-.01.003-.024.006-.038.194-.477.248-.58.428-.586.147-.003.213.164.24.245.1.295.286.925.373 1.184.063.18.207.31.377.321a.42.42 0 0 0 .351-.183.2.2 0 0 0 .057-.07c.017-.036.071-.172.142-.347a131 131 0 0 0 .614-1.482c.008-.02.008-.039.008-.055.199-.488.253-.594.433-.597.147-.003.213.163.24.245.101.295.286.924.374 1.183.062.18.207.311.376.322a.4.4 0 0 0 .327-.15.2.2 0 0 0 .07-.084 166 166 0 0 0 .766-1.851c.009-.022.009-.044.012-.063.188-.46.242-.562.42-.567.147-.003.212.163.24.245.1.295.286.924.373 1.183.063.18.207.311.376.322a.41.41 0 0 0 .352-.183.2.2 0 0 0 .057-.07c.016-.036.07-.172.142-.347.166-.395.469-1.123.613-1.483.008-.019.008-.038.008-.054.2-.488.254-.594.434-.597.147-.003.213.163.24.245.1.294.286.924.373 1.183.063.18.207.311.376.322a.4.4 0 0 0 .178-.041q-.085-.222-.178-.444l-.057-.128a14 14 0 0 0-.807-1.565l-.016-.006a.57.57 0 0 0-.46.096l-.017.013c-.197.167-.306.406-.39.6 0 0-.57 1.467-.793 1.99-.028.014-.066.003-.077-.03-.046-.136-.349-1.126-.444-1.336a.61.61 0 0 0-.414-.34.57.57 0 0 0-.461.095l-.017.014c-.196.166-.305.406-.39.6 0 0-.553 1.428-.784 1.968-.028.01-.063.002-.074-.03-.046-.137-.349-1.126-.444-1.336a.61.61 0 0 0-.415-.34.57.57 0 0 0-.46.095l-.017.013c-.196.166-.305.406-.39.6 0 0-.57 1.467-.793 1.99-.027.014-.065.003-.076-.03-.047-.136-.35-1.126-.445-1.336a.61.61 0 0 0-.414-.34.57.57 0 0 0-.46.095l-.017-.022c-.196.166-.305.406-.39.6 0 0-.545 1.404-.78 1.954a.052.052 0 0 1-.081-.027c-.047-.136-.35-1.126-.445-1.336a.61.61 0 0 0-.414-.34.57.57 0 0 0-.46.095l-.017.014c-.196.166-.305.406-.39.6 0 0-.57 1.466-.793 1.99-.027.013-.066.002-.077-.03-.046-.137-.349-1.127-.444-1.336a.61.61 0 0 0-.414-.341.57.57 0 0 0-.461.095l-.016.014c-.197.166-.306.406-.39.6 0 0-.575 1.48-.796 1.995a.054.054 0 0 1-.09-.019c-.046-.136-.35-1.126-.445-1.336a.61.61 0 0 0-.414-.34.57.57 0 0 0-.46.095l-.017.014c-.196.166-.305.406-.39.6 0 0-.57 1.466-.793 1.99-.027.013-.066.002-.076-.03-.047-.137-.35-1.126-.445-1.336a.61.61 0 0 0-.414-.341.57.57 0 0 0-.46.095l-.017.014c-.197.166-.306.406-.39.6 0 0-.545 1.404-.78 1.954a.053.053 0 0 1-.082-.027c-.046-.136-.348-1.126-.441-1.336a.61.61 0 0 0-.415-.34.57.57 0 0 0-.46.095l-.017.013c-.196.167-.305.407-.39.6 0 0-.57 1.467-.793 1.99-.027.014-.065.003-.076-.03-.046-.136-.349-1.126-.444-1.335a.61.61 0 0 0-.415-.341.57.57 0 0 0-.46.095l-.017.014c-.196.166-.305.406-.39.6 0 0-.553 1.428-.785 1.968-.027.01-.062.002-.073-.03-.047-.137-.35-1.126-.445-1.336a.61.61 0 0 0-.414-.34.57.57 0 0 0-.417.07q.044.242.095.485c.063-.09.12-.12.213-.122.147-.003.212.163.24.245.1.294.286.924.373 1.183.063.18.207.31.376.322a.4.4 0 0 0 .328-.15.3.3 0 0 0 .073-.093m-.771-7.611c.063.18.207.31.376.321a.4.4 0 0 0 .327-.15.2.2 0 0 0 .071-.084c.011-.025.044-.104.087-.213.134-.319.513-1.224.68-1.638.007-.022.007-.044.01-.063.188-.46.243-.561.42-.567.147-.003.213.164.24.245.1.295.286.925.373 1.184.063.18.207.31.377.321a.41.41 0 0 0 .351-.182.2.2 0 0 0 .057-.071c.017-.036.071-.172.142-.346.166-.396.47-1.124.614-1.483q.01-.03.008-.055c.199-.488.253-.594.433-.597.147-.003.213.164.24.245.101.295.286.924.374 1.183.062.18.207.311.376.322a.4.4 0 0 0 .302-.125.22.22 0 0 0 .099-.101c.024-.055.144-.352.272-.673.166-.398.376-.905.488-1.189.005-.01.003-.025.005-.038.194-.477.249-.58.429-.586.147-.003.212.163.24.245.1.295.286.924.373 1.183.063.18.207.311.376.322a.42.42 0 0 0 .352-.183.2.2 0 0 0 .057-.07c.016-.036.07-.172.142-.347.166-.395.469-1.123.613-1.483q.01-.03.008-.054c.2-.488.254-.595.434-.597.147-.003.212.163.24.245.1.294.286.924.373 1.183.063.18.207.31.376.322a.42.42 0 0 0 .36-.197.2.2 0 0 0 .063-.079c.03-.068.213-.523.376-.926.136-.328.278-.671.363-.886q.003-.012.002-.022c.218-.537.268-.646.456-.652.147-.003.212.164.24.246.1.294.286.924.373 1.183.063.18.207.31.376.321a.42.42 0 0 0 .352-.182.2.2 0 0 0 .057-.071c.016-.036.071-.17.142-.346.166-.396.469-1.124.613-1.483q.01-.03.008-.055c.2-.488.254-.594.434-.597.147-.003.213.164.24.245.1.295.286.925.373 1.184.063.18.207.31.377.321a.4.4 0 0 0 .302-.125.22.22 0 0 0 .098-.101c.025-.055.145-.352.273-.673.166-.398.376-.905.49-1.189.006-.01.003-.024.006-.038.194-.477.248-.58.428-.586.147-.003.213.163.24.245.1.295.286.924.373 1.183.063.18.208.311.377.322a.42.42 0 0 0 .351-.183.2.2 0 0 0 .057-.07c.017-.036.071-.172.142-.347.166-.395.47-1.123.614-1.483.008-.019.008-.038.008-.054.199-.488.253-.595.433-.597q.04.001.071.019a11 11 0 0 0-.504-.273c-.153.161-.248.363-.322.529 0 0-.57 1.467-.793 1.99-.027.014-.066.003-.077-.03-.046-.136-.348-1.126-.444-1.336a.61.61 0 0 0-.414-.34.57.57 0 0 0-.46.095l-.023-.008c-.196.166-.305.406-.39.6 0 0-.545 1.403-.78 1.954a.052.052 0 0 1-.081-.027c-.046-.136-.349-1.126-.444-1.336a.61.61 0 0 0-.415-.34.57.57 0 0 0-.46.095l-.017.013c-.196.167-.305.407-.39.6 0 0-.57 1.467-.793 1.99-.027.014-.065.003-.076-.03-.047-.136-.35-1.126-.445-1.336a.61.61 0 0 0-.414-.34.57.57 0 0 0-.46.095l-.017.014c-.196.166-.305.406-.39.6 0 0-.575 1.48-.796 1.995a.054.054 0 0 1-.09-.02c-.046-.136-.349-1.125-.444-1.335a.61.61 0 0 0-.415-.34.57.57 0 0 0-.46.095l-.017.013c-.196.167-.305.406-.39.6 0 0-.57 1.467-.793 1.99-.027.014-.065.003-.076-.03-.046-.136-.35-1.126-.444-1.336a.61.61 0 0 0-.415-.34.57.57 0 0 0-.46.095l-.017.014c-.196.166-.305.406-.39.6 0 0-.545 1.403-.78 1.954-.027.019-.07.01-.081-.027-.047-.137-.35-1.126-.442-1.336a.61.61 0 0 0-.414-.34.57.57 0 0 0-.46.095l-.017.013c-.197.167-.306.406-.39.6 0 0-.57 1.467-.793 1.99-.028.014-.066.003-.077-.03-.046-.136-.349-1.126-.444-1.336a.61.61 0 0 0-.414-.34.57.57 0 0 0-.461.095l-.017.013c-.196.167-.305.407-.39.6 0 0-.553 1.429-.784 1.969-.028.01-.063.002-.074-.03-.046-.137-.349-1.126-.444-1.336a.56.56 0 0 0-.191-.235q-.081.221-.153.447c.027.044.046.093.06.126.104.286.289.916.379 1.175m20.74-7.857c.063.18.207.31.376.322a.4.4 0 0 0 .327-.15.2.2 0 0 0 .071-.085c.011-.024.044-.103.087-.212l.12-.29q-.168-.126-.346-.247a21 21 0 0 1-.207.507c-.027.01-.063.002-.074-.03-.03-.085-.155-.496-.27-.848q-.286-.18-.577-.352a.5.5 0 0 1 .122.2c.096.296.284.926.371 1.185m2.96 1.862a.4.4 0 0 0 .302-.133 15 15 0 0 0-.93-.987c.09.291.192.627.252.798.06.18.204.311.376.322"/><path d="M2.805 15.503c.199-.488.253-.594.433-.597.148-.003.213.164.24.246.101.294.287.924.374 1.183.062.18.207.31.376.321a.4.4 0 0 0 .327-.15.2.2 0 0 0 .071-.084c.01-.025.044-.104.087-.213.134-.319.513-1.224.679-1.638.008-.022.008-.044.01-.063.189-.46.244-.561.42-.567.148-.003.213.164.24.246.101.294.287.924.374 1.183.063.18.207.31.376.321a.41.41 0 0 0 .352-.182.2.2 0 0 0 .057-.071c.017-.036.071-.172.142-.346.166-.396.469-1.123.613-1.483.009-.02.009-.039.009-.055.199-.488.253-.594.433-.597.147-.003.213.164.24.245.1.295.286.925.373 1.184.063.18.208.31.377.321a.4.4 0 0 0 .302-.125.22.22 0 0 0 .098-.101c.025-.054.145-.352.273-.673.166-.398.376-.905.49-1.189.006-.01.003-.024.006-.038.194-.477.248-.58.428-.586.147-.003.213.163.24.245.1.295.286.924.373 1.183.063.18.208.311.377.322a.42.42 0 0 0 .351-.183.2.2 0 0 0 .057-.07c.017-.036.071-.172.142-.347.167-.395.47-1.123.614-1.483q.01-.03.008-.054c.199-.488.253-.595.433-.597.148-.003.213.163.24.245.101.294.286.924.374 1.183.062.18.207.31.376.322a.42.42 0 0 0 .36-.196.2.2 0 0 0 .062-.08c.03-.068.213-.523.377-.926.136-.327.278-.671.362-.886q.004-.012.003-.022c.218-.537.267-.646.455-.652.147-.002.213.164.24.246.101.294.286.924.374 1.183.062.18.207.31.376.321a.42.42 0 0 0 .351-.182.2.2 0 0 0 .058-.071c.016-.036.07-.172.141-.346.167-.396.47-1.123.614-1.483q.01-.03.008-.055c.199-.488.254-.594.433-.597.148-.003.213.164.24.245.101.295.287.925.374 1.184.063.18.207.31.376.321a.4.4 0 0 0 .303-.125.22.22 0 0 0 .098-.101c.024-.054.144-.352.272-.673.167-.398.377-.905.491-1.189.006-.01.003-.024.006-.038.193-.477.248-.58.428-.586.147-.003.212.163.24.245.1.295.286.924.373 1.183.063.18.207.311.376.322a.42.42 0 0 0 .352-.183.2.2 0 0 0 .057-.07c.016-.036.07-.172.142-.347.166-.395.469-1.123.613-1.483q.01-.03.008-.054c.2-.488.254-.595.434-.597.147-.003.212.163.24.245.1.294.286.924.373 1.183.063.18.207.311.376.322a.4.4 0 0 0 .328-.15.2.2 0 0 0 .07-.085 166 166 0 0 0 .766-1.851c.009-.021.009-.043.011-.062.096-.232.156-.371.216-.456q-.154-.137-.317-.27a2.2 2.2 0 0 0-.237.434s-.553 1.428-.785 1.968c-.027.011-.063.003-.073-.03-.047-.136-.35-1.126-.445-1.336a.61.61 0 0 0-.414-.34.57.57 0 0 0-.46.095l-.017.014c-.197.166-.306.406-.39.6 0 0-.57 1.466-.793 1.99-.028.013-.066.002-.077-.03-.046-.137-.349-1.126-.444-1.336a.61.61 0 0 0-.414-.341.57.57 0 0 0-.461.095l-.022-.013c-.196.166-.305.406-.39.6 0 0-.545 1.403-.78 1.954a.052.052 0 0 1-.081-.027c-.047-.136-.35-1.126-.445-1.336a.61.61 0 0 0-.414-.34.57.57 0 0 0-.46.095l-.017.013c-.196.167-.305.407-.39.6 0 0-.57 1.467-.793 1.99-.027.014-.066.003-.076-.03-.047-.136-.35-1.126-.445-1.336a.61.61 0 0 0-.414-.34.57.57 0 0 0-.46.095l-.017.014c-.197.166-.306.406-.39.6 0 0-.575 1.48-.796 1.995a.054.054 0 0 1-.09-.02c-.046-.135-.349-1.125-.444-1.335a.61.61 0 0 0-.415-.34.57.57 0 0 0-.46.095l-.017.013c-.196.167-.305.406-.39.6 0 0-.57 1.467-.793 1.99-.027.014-.065.003-.076-.03-.047-.136-.35-1.126-.445-1.336a.61.61 0 0 0-.414-.34.57.57 0 0 0-.46.095l-.017.014c-.196.166-.306.406-.39.6 0 0-.545 1.403-.78 1.954a.052.052 0 0 1-.081-.027c-.047-.137-.35-1.126-.442-1.336a.61.61 0 0 0-.414-.34.57.57 0 0 0-.461.095l-.016.013c-.197.166-.306.406-.39.6 0 0-.57 1.467-.794 1.99-.027.014-.065.003-.076-.03-.046-.136-.349-1.126-.444-1.336a.61.61 0 0 0-.415-.34.57.57 0 0 0-.46.095l-.017.014c-.196.166-.305.406-.39.6 0 0-.553 1.428-.785 1.967-.027.011-.062.003-.073-.03-.047-.136-.35-1.125-.445-1.335a.61.61 0 0 0-.414-.341.57.57 0 0 0-.439.082q-.095.534-.147 1.085l.033-.082c.013-.025.013-.044.016-.063"/></g><path fill="#95BCD7" d="M17 0h-.472l-.082.003h-.109l-.191.008h-.027q-1.352.07-2.642.34h-.003l.562 2.67a15.4 15.4 0 0 1 2.963-.295zm-6.13 1.14c-1.11.43-2.165.973-3.149 1.613L9.21 5.035a14.3 14.3 0 0 1 2.641-1.355zM5.569 4.419a17.4 17.4 0 0 0-2.1 2.287l-.008.008v.003l-.005.008-.003.003q-.004.004-.005.008 0 .002-.003.003-.005.004-.005.008 0 .002-.003.003l-.006.008v.003q-.004.003-.005.008c-.008.014-.02.024-.027.038l-.003.003q-.003.005-.005.005l-.003.006q0 .002-.006.005l-.002.006q0 .002-.006.005l-.003.006q-.002.002-.002.005l-.003.005-.003.006-.005.005-.003.006-.005.005-.003.006q-.003.004-.006.005l-.002.006-.006.008-.002.002-.009.011-.024.033q-.005.004-.008.011v.003q-.005.003-.006.008l-.002.003q-.005.003-.006.008v.003l-.008.008c-.003.002-.006.008-.008.01l-.008.012-.033.043 2.21 1.598a14.3 14.3 0 0 1 1.983-2.217zM1.796 9.383q-.003.008-.006.011v.003l-.005.01v.004l-.036.073v.003l-.005.01V9.5q-.003.004-.005.011v.003l-.006.011v.003q-.003.003-.005.01 0 .002-.003.003c-.003-.005-.006-.002-.006 0v.003l-.005.008v.003l-.005.01v.004q-.003.003-.006.01v.003l-.005.011-.036.074-.005.01-.006.012v.002l-.005.011v.003c-.008.003-.008.008-.011.01v.004l-.006.01v.003l-.005.011v.003l-.005.01v.003l-.006.011v.003l-.005.011c-.017.033-.03.065-.047.098l-.005.011-.006.01-.005.012-.005.01v.003l-.006.011-.005.011-.058.126c-.008.01-.01.019-.016.027l-.005.014-.006.013c-.362.823-.665 1.68-.894 2.565l2.639.69a14.2 14.2 0 0 1 1.047-2.775zm-1.72 5.992q-.034.36-.052.723v.068l-.006.109v.112l-.002.068v1.374q.025.546.087 1.085l2.71-.303a14.4 14.4 0 0 1-.025-2.977zm3.176 5.477-2.626.733.041.148.003.013.003.011.002.011v.003l.003.01v.003l.003.011v.003l.003.01v.004l.002.01.02.066v.003l.002.01v.003l.003.011v.003l.003.008v.006l.002.008v.005l.003.008q0 .003.003.006l.002.008q0 .003.003.005l.003.009q0 .002.003.005l.002.008q0 .003.003.006l.003.008q0 .003.002.005l.003.008q0 .003.003.006l.003.008.002.006.003.01v.003q.001.007.003.014v.003l.003.01.002.006.003.008q.001.005.003.006l.002.008q.001.004.003.005s0 .006.003.006q.001.004.003.005 0 .005.002.006l.003.005q0 .005.003.005l.003.006q0 .005.002.005l.003.006q0 .002.003.005l.002.008q0 .003.003.006l.003.008q0 .003.003.006l.002.008q0 .002.003.005l.003.008q0 .003.003.006l.002.008v.003l.003.008v.003q.006.015.01.035c0 .003.004.006.004.008v.003l.002.008q0 .003.003.006l.003.008q0 .003.003.005l.002.008v.003l.003.008q0 .003.003.006l.002.008q0 .003.003.005l.003.009v.002l.003.008v.003l.002.008v.003l.003.008v.003l.003.01v.004l.003.01.024.074v.003q.002.003.003.01v.003l.003.011v.003l.002.011v.003q.002.003.003.01v.003l.003.011v.003l.002.01v.004q.002.003.003.01v.003l.003.011v.003l.003.01q.014.045.03.085l.002.011v.003l.003.01v.004q.002.003.003.01v.003l.002.011v.003l.003.01v.003l.003.011v.003l.003.011v.003l.002.01v.003l.036.096.005.01.003.012v.002l.003.011v.003l.002.01v.003l.003.011v.003l.003.011v.003l.003.01v.003l.002.011.036.096.005.01q0 .006.006.012v.002l.002.011v.003q.004.003.003.01v.004l.003.01v.003q.004.005.003.011v.003l.005.01.006.012.038.095.005.01.006.012v.003q.002.005.005.01v.003l.005.011v.003l.006.01v.004l.005.01v.003l.006.011.005.01.038.096.006.011.005.011v.003l.006.01v.004l.005.01v.003a.02.02 0 0 0 .006.011v.003l.005.01v.003l.006.011.005.011q.022.054.046.106c.041-.021.044-.019.044-.013l.006.01.005.012v.002l.005.011.006.011.005.011.058.131.005.01.005.012.006.01q.217.489.463.96l2.416-1.265a13.8 13.8 0 0 1-1.093-2.753m2.311 4.692L3.38 27.177a17.2 17.2 0 0 0 2.401 2.598l1.8-2.048a14.3 14.3 0 0 1-2.018-2.183m3.852 3.552-1.45 2.309q.36.225.728.433l.01.006.012.005.111.063.011.005.011.006h.003l.01.005h.004q.003.003.01.006h.003l.011.005h.003l.01.006h.003l.09.049.011.005.011.006h.003l.01.005h.004l.008.005h.002l.009.006h.002q.004.003.011.005h.003l.01.006.012.005.068.036.01.005h.004q.003.003.01.005h.003l.008.006h.003l.008.005h.003l.008.006h.003l.01.005h.004q.003.003.01.006h.003l.011.005.08.041.01.006h.003l.01.005h.003l.009.005h.002l.009.006h.002q.004.003.011.005H9.4l.01.006.012.005c.03.017.06.03.09.047l.01.005.011.006.011.005h.003q.004.003.011.005h.003l.01.006.012.005.103.05.011.005.01.005.012.006.01.005.012.006q.692.328 1.417.594l.94-2.56a12.7 12.7 0 0 1-2.682-1.29m4.866 1.922-.515 2.677q.982.189 2.001.264.09.008.177.011h.101l.101.005h.131l.06.003h.763q.082 0 .166-.003l-.046-2.726-.242.003a12.7 12.7 0 0 1-2.697-.234m8.091-.788a14.2 14.2 0 0 1-2.848.823L20 33.738q.745-.132 1.47-.33l.013-.002.013-.003.011-.003.011-.002h.003l.01-.003.014-.003.134-.038.01-.003h.004l.01-.002h.003l.011-.003h.003l.01-.003h.003l.011-.003h.003l.011-.002h.003l.01-.003h.003l.011-.003h.003l.01-.003.015-.002.079-.025.01-.003h.003l.011-.002h.003q.003-.002.01-.003h.003l.011-.003h.003l.011-.002h.003l.008-.003h.003q.003-.002.01-.003h.003l.011-.003H22l.01-.002h.004q.003-.002.01-.003h.003l.011-.003h.003l.01-.003h.003l.014-.002.052-.017h.003l.01-.002h.003l.008-.003h.003l.008-.003q.003 0 .006-.003l.008-.002q.003 0 .005-.003l.009-.003q.002 0 .005-.003l.008-.002q.003 0 .006-.003l.008-.003q.003 0 .005-.002l.009-.003q.002 0 .005-.003l.008-.003.006-.002.008-.003q.003 0 .005-.003l.008-.002q.003 0 .006-.003l.008-.003q.005 0 .005-.003l.009-.002q.004 0 .005-.003l.008-.003q.003 0 .006-.003l.005-.002.006-.003h.002l.02-.005q.002 0 .005-.003l.008-.003q.003 0 .005-.003l.009-.002q.002 0 .005-.003l.008-.003.006-.002.008-.003q.003 0 .005-.003l.009-.003.005-.002.008-.003q.003 0 .006-.003l.008-.003q.003 0 .005-.002l.008-.003q.003 0 .006-.003l.008-.002q.003 0 .006-.003l.008-.003q.003 0 .005-.003l.008-.002q.003 0 .006-.003l.008-.003h.003l.008-.003h.003l.01-.002.099-.033q.005-.004.01-.003l.012-.002h.002l.011-.003h.003l.01-.003h.003c.006-.003.006-.003.011-.003h.003q.005-.002.011-.002.008-.004.01-.003.009-.003.012-.006.347-.122.687-.261zm4.406-2.83a14.4 14.4 0 0 1-2.364 1.802l1.418 2.328q.342-.208.673-.433.004-.005.011-.006.005-.005.008-.005h.003l.008-.006.003-.002.008-.006q.002 0 .003-.003l.008-.005.003-.003.008-.005h.003q.003-.005.008-.006.003-.004.01-.005c.014-.008.028-.02.042-.027h.002l.009-.006.002-.003.008-.005.003-.003.008-.005.003-.003.006-.005.005-.003q.005-.001.005-.005l.006-.003q.005-.003.005-.006l.006-.002q.004-.003.005-.006l.006-.003q.004-.002.005-.005l.006-.003.005-.005.003-.003c.008-.005.016-.014.027-.019q.002 0 .003-.003.005-.003.005-.005l.006-.003q.002-.004.005-.003l.006-.002.005-.003.005-.003.006-.003.005-.002.006-.003.005-.003.006-.002.005-.003.006-.003.005-.003q.002-.002.005-.002t.006-.006l.005-.003.006-.002q.001-.002.005-.003l.006-.005.005-.003.011-.008h.003q.004-.005.008-.006l.006-.003.005-.005q.001-.002.005-.003l.006-.005.005-.003.006-.005.005-.003.006-.003.005-.002.006-.006.005-.003.006-.005q0-.002.005-.003.005-.003.005-.005l.006-.003q.005-.003.005-.006l.006-.002.008-.006.003-.002q.003-.005.008-.006h.002l.011-.008.011-.008.003-.003.008-.005.003-.003.008-.006.003-.002q.005-.003.005-.006l.006-.002q.005-.003.005-.006 0-.002.006-.003.004-.002.005-.005l.006-.003.005-.005.003-.003q.004-.003.005-.006l.003-.002.008-.006.003-.002.008-.006.003-.003q.004-.004.008-.005l.003-.003.021-.016q.002 0 .003-.003.005-.005.008-.005.002 0 .003-.003l.008-.005.003-.003.008-.006.003-.002q.005-.003.005-.006l.006-.003q.005-.002.005-.005l.003-.003q.005-.003.005-.005t.006-.003l.008-.005q.004-.002.003-.003l.008-.006.003-.002.008-.006.003-.002q.003-.005.008-.006h.003c.002-.003.008-.005.01-.008l.011-.008.003-.003.008-.005.003-.003q.005-.003.005-.006l.003-.002q.005-.003.006-.006l.002-.003q.005-.002.006-.005 0-.002.005-.003.005-.002.006-.005l.002-.003.006-.005q.001-.002.005-.003.005-.003.006-.006.003-.001.002-.002l.009-.006.002-.002.009-.006.002-.003.009-.008h.002l.022-.016.003-.003.008-.005.003-.003.008-.006.003-.002.008-.006.002-.002q.005-.003.006-.006.001-.002.005-.003.005-.002.006-.005l.003-.003.005-.005.003-.003.008-.005.003-.003.008-.006.002-.002q.004-.005.009-.006l.002-.002.011-.009q.006-.003.011-.008l.011-.008.003-.003q.004-.004.008-.005l.003-.003.008-.005.003-.003.008-.005.003-.003.008-.006.002-.002q.005-.003.006-.006l.003-.003.008-.005.003-.003.008-.005.003-.003.008-.005.002-.003.009-.008h.002l.033-.025q.002 0 .003-.003l.008-.008.003-.002q.003-.005.008-.006l.003-.003.008-.005.002-.003.009-.005.002-.003.009-.005.002-.003q.005-.005.008-.006l.003-.002q.005-.005.008-.006l.003-.003.008-.008.003-.003.01-.008.045-.035h.002l.008-.008.003-.003.008-.008.003-.003.008-.008q.002 0 .003-.003.004-.005.008-.005l.003-.003.008-.008.003-.003.008-.008h.003l.008-.008.052-.044.01-.008q.004-.005.011-.008l.009-.008h.002l.008-.009.011-.008q.328-.278.638-.57zm3.097-4.223a14.3 14.3 0 0 1-1.56 2.528l2.16 1.662a14 14 0 0 0 .487-.668v-.002q.005-.005.006-.008v-.003q.005-.005.005-.008 0-.002.003-.003.005-.005.006-.008v-.003q.004-.004.005-.008 0-.002.003-.003.004-.004.005-.008v-.003l.008-.01.017-.023q.003-.005.008-.01 0-.002.003-.003l.005-.008.003-.003.005-.008.003-.006.005-.005.003-.005.006-.006.002-.005q.003-.005.006-.006l.002-.005.003-.006.003-.005.003-.006.002-.005.003-.006.003-.005.002-.006q.004-.002.003-.005l.003-.003.024-.038v-.003l.006-.008q0-.002.003-.003l.005-.008.003-.002.005-.009.003-.002.006-.009.002-.002.006-.008q0-.002.002-.003l.006-.008v-.003l.005-.008v-.003q.64-.965 1.148-2.02zm1.355-5.051c-.077.99-.26 1.974-.538 2.92l2.615.771q.245-.839.409-1.71l.002-.013.003-.014.003-.013c0-.006.003-.008.003-.014l.01-.06.003-.013v-.003q0-.006.003-.011v-.003c0-.002 0-.008.003-.01v-.003q0-.006.002-.011v-.003q0-.006.003-.01v-.004c0-.002 0-.008.003-.01v-.003q0-.004.003-.011v-.18q0-.005.002-.008v-.006q0-.003.003-.008v-.005q0-.005.003-.008v-.006l.002-.008v-.006q0-.003.003-.008v-.005q0-.005.003-.008v-.085q0-.004.003-.008v-.003l.002-.008v-.005q0-.005.003-.009v-.005q0-.004.003-.008v-.003l.003-.01v-.004l.002-.008v-.003l.003-.01v-.003q0-.004.003-.011v-.003l.002-.01v-.003q0-.005.003-.009v-.016l.003-.01v-.042l.003-.01v-.003l.002-.011v-.472q0-.006.003-.014 0-.006.003-.013v-.071q.021-.216.038-.433zm2.066-5.99-2.612.78c.281.946.466 1.928.546 2.917l2.717-.218q-.089-1.096-.313-2.148l-.003-.014-.002-.01v-.003l-.003-.011-.003-.011v-.003l-.003-.01v-.003l-.002-.011v-.003l-.009-.033v-.003l-.002-.01v-.003l-.003-.011v-.003l-.003-.01v-.003L33.6 13.3v-.003q-.002-.003-.003-.011v-.003q-.002-.003-.003-.01v-.003l-.003-.011v-.003l-.002-.01v-.004q-.002-.003-.003-.01v-.003q0-.005-.003-.008v-.006q0-.005-.003-.005 0-.005-.002-.008v-.006q0-.004-.003-.008 0-.005-.003-.005v-.006q0-.005-.002-.008v-.006q0-.003-.003-.008v-.005q0-.005-.003-.008v-.006q0-.004-.003-.008v-.005q0-.005-.002-.009v-.005q0-.005-.003-.008 0-.003-.003-.006l-.002-.005q0-.005-.003-.008v-.006q0-.004-.003-.008v-.006q0-.003-.003-.008v-.005q0-.005-.002-.008v-.006q0-.003-.003-.008v-.005q0-.004-.003-.009v-.005L33.531 13v-.006l-.002-.008v-.003l-.003-.008v-.003l-.003-.008v-.002l-.002-.008v-.006q0-.004-.003-.008v-.003q-.002-.003-.003-.01v-.004q-.002-.003-.003-.01v-.003l-.002-.008V12.9l-.003-.008v-.003q-.002-.003-.003-.01v-.004q-.002-.003-.003-.01v-.003l-.002-.011v-.003l-.003-.01v-.003l-.003-.011v-.003l-.002-.011v-.003l-.003-.01v-.003l-.003-.011v-.003l-.003-.01v-.004l-.002-.01v-.003l-.003-.011v-.003l-.003-.01v-.003l-.003-.011v-.003l-.002-.011v-.003l-.003-.01v-.003l-.003-.011-.003-.011-.013-.05-.006-.024-.002-.014c-.058-.138-.098-.288-.142-.438m-2.852-5.544-2.153 1.67a14.4 14.4 0 0 1 1.567 2.525L32.312 9.6q-.327-.676-.712-1.32-.003-.006-.008-.01l-.008-.012-.008-.01-.008-.011-.05-.082-.008-.011V8.14q-.004-.004-.005-.01v-.003l-.006-.011v-.003l-.005-.011-.006-.01v-.004l-.005-.01-.044-.071-.005-.011v-.003l-.006-.011v-.003l-.005-.008-.003-.003-.005-.008-.003-.002-.005-.009-.003-.002-.005-.009v-.002a1 1 0 0 0-.05-.08v-.002l-.005-.011V7.84q-.005-.003-.005-.01v-.003l-.006-.009-.003-.002-.005-.008-.003-.003-.005-.008v-.003q-.005-.004-.006-.011V7.78l-.005-.01-.03-.047-.006-.01-.002-.004-.006-.008-.003-.002-.005-.009-.003-.002-.005-.009-.003-.002-.005-.008-.003-.003-.005-.008q0-.002-.003-.003l-.006-.008-.002-.003q-.005-.003-.006-.01V7.63q-.018-.029-.038-.057-.005-.003-.005-.01v-.004q-.005-.003-.006-.008l-.003-.002-.005-.009-.003-.002-.005-.008q0-.002-.003-.003l-.005-.008-.003-.003q-.005-.005-.006-.008v-.003q-.003-.006-.008-.01l-.008-.012-.038-.057-.008-.011v-.003q-.005-.003-.006-.01v-.003q-.004-.005-.005-.009l-.003-.002q-.005-.005-.005-.008v-.003q-.005-.004-.006-.011v-.003l-.008-.01-.008-.012-.046-.068-.009-.01-.008-.012c-.003-.002-.005-.008-.008-.01l-.008-.011c-.183-.213-.344-.426-.505-.638m-4.656-4.147L24.376 4.78a14.4 14.4 0 0 1 2.37 1.794l1.861-1.99q-.14-.132-.286-.262l-.011-.008-.008-.008-.008-.009-.009-.008-.062-.054-.008-.009h-.003l-.008-.008-.003-.002-.008-.009q-.002 0-.003-.002l-.008-.009-.003-.002q-.004-.005-.008-.006-.002 0-.003-.002l-.008-.009-.003-.002-.008-.009-.003-.002q-.003-.005-.01-.008l-.03-.028-.003-.002-.009-.009-.002-.002q-.005-.005-.008-.006l-.003-.002-.008-.006-.003-.003q-.005-.002-.006-.005l-.002-.003-.006-.005-.002-.003-.006-.005-.002-.003q-.005-.003-.006-.006l-.003-.002q-.004-.003-.005-.006l-.003-.003-.008-.005-.003-.003-.008-.008h-.003l-.01-.008-.003-.003-.009-.005-.002-.003-.006-.005q0-.002-.005-.003l-.006-.006q-.002-.002-.005-.002L27.956 4l-.006-.005-.005-.006-.006-.005-.005-.006-.006-.005-.005-.006-.006-.005-.005-.005-.006-.006-.005-.005-.006-.006-.005-.005q-.003-.004-.005-.003l-.006-.005q-.006-.004-.01-.011l-.003-.003-.006-.005-.005-.003-.006-.006-.005-.002q-.003 0-.006-.006-.003-.004-.005-.003-.003 0-.006-.005l-.005-.005-.005-.006-.006-.005q-.003 0-.005-.006l-.006-.005q-.003 0-.005-.006l-.006-.002-.005-.006-.006-.003-.005-.005-.006-.003-.005-.005-.003-.003q-.005-.003-.005-.005l-.003-.003-.024-.02-.003-.002-.006-.005-.002-.003q-.005-.003-.006-.006l-.003-.002q-.004-.003-.005-.006l-.003-.003q-.005-.002-.005-.005l-.003-.003q-.005-.002-.005-.005l-.003-.003-.006-.005-.002-.003-.006-.006-.005-.002q-.005-.003-.006-.006l-.002-.002q-.005-.003-.006-.006l-.003-.003-.035-.03h-.003l-.008-.005-.003-.003q-.004-.002-.005-.005l-.003-.003q-.005-.003-.005-.005l-.003-.003q-.005-.003-.005-.006l-.003-.002-.006-.006-.002-.002q-.005-.003-.006-.006l-.002-.003q-.005-.002-.006-.005l-.003-.003-.008-.005-.003-.003-.008-.005-.003-.003-.008-.006-.027-.021q-.002 0-.003-.003l-.008-.006-.003-.002q-.004-.003-.005-.006l-.003-.003-.008-.005-.003-.003-.008-.005-.003-.003-.005-.005-.006-.003q-.004-.003-.005-.006l-.003-.002q-.004-.003-.005-.006l-.003-.002q-.005-.003-.005-.006l-.003-.003-.008-.005-.003-.003-.035-.027-.003-.003-.008-.005-.003-.003-.008-.005-.003-.003q-.005-.003-.005-.006l-.003-.002q-.005-.003-.006-.006l-.002-.002-.006-.006-.002-.003q-.005-.002-.006-.005l-.003-.003-.005-.005-.003-.003-.005-.005-.003-.003-.008-.006q-.002 0-.003-.002l-.027-.022-.008-.006-.003-.002q-.005-.003-.006-.006l-.005-.003-.005-.005-.006-.003-.005-.005-.006-.003-.005-.005-.006-.003q-.002 0-.005-.006l-.006-.002-.005-.006-.006-.002-.005-.006-.005-.003q-.005 0-.006-.005l-.005-.003-.006-.005-.005-.003q-.003-.001-.006-.005l-.005-.003-.011-.008-.003-.003-.005-.005-.006-.003-.005-.006-.006-.002q-.002 0-.005-.006l-.005-.003-.006-.002-.005-.003q-.003-.001-.006-.005l-.005-.003-.006-.003-.005-.003-.006-.002-.005-.003-.006-.003-.005-.003-.005-.002-.006-.003q-.003-.004-.005-.003-.003 0-.006-.005l-.005-.003-.008-.005-.009-.006-.005-.005-.005-.003-.006-.003-.005-.002-.006-.006-.005-.003-.006-.002-.005-.003-.006-.003-.005-.003-.006-.002-.005-.003-.005-.005-.006-.003-.005-.006-.006-.002-.005-.006-.006-.003q-.004-.002-.005-.005 0-.002-.006-.003l-.008-.005-.003-.003c-.002-.003-.008-.005-.01-.008l-.011-.008-.003-.003-.008-.005-.003-.003-.008-.006-.003-.002-.008-.006q-.001-.002-.005-.003-.005-.002-.006-.005-.001-.002-.005-.003-.005-.002-.006-.005l-.005-.003-.006-.005q-.001-.002-.005-.003l-.006-.005-.005-.003-.008-.006-.003-.002-.008-.006-.003-.003q-.004-.004-.008-.005h-.003l-.022-.016-.002-.003q-.004-.005-.009-.006L26.7 3l-.008-.006-.003-.002-.008-.006-.003-.003-.008-.005-.003-.003-.008-.005-.003-.003-.008-.005-.003-.003-.008-.006-.003-.002-.008-.006-.003-.003q-.003-.004-.008-.005h-.003q-.015-.013-.032-.022-.004-.005-.011-.005h-.003q-.004-.005-.008-.006-.002 0-.003-.002l-.008-.006-.003-.003-.008-.005-.003-.003-.008-.005-.002-.003-.009-.005-.002-.003-.008-.006-.003-.002q-.005-.005-.008-.006h-.003l-.011-.008q-.016-.012-.036-.022-.005-.003-.01-.008h-.003q-.005-.005-.008-.005l-.003-.003-.008-.006q-.002 0-.003-.002l-.008-.006-.003-.002-.008-.006q-.002 0-.003-.003l-.008-.005-.003-.003q-.003-.005-.01-.005h-.003a.02.02 0 0 0-.011-.006q-.03-.018-.057-.038l-.011-.008h-.003q-.004-.005-.011-.006h-.003q-.003-.004-.008-.005l-.003-.003-.008-.005h-.002c-.047 0-.052 0-.055-.003h-.003q-.003-.005-.01-.005a.02.02 0 0 0-.012-.011q-.028-.02-.057-.038l-.01-.009a.02.02 0 0 0-.012-.005q-.003-.005-.01-.005h-.003q-.004-.005-.011-.006h-.003l-.01-.005-.093-.058q-.006-.003-.011-.008l-.011-.005a.02.02 0 0 0-.011-.006l-.011-.005a.6.6 0 0 0-.112-.076l-.01-.009M19.952.256l-.47 2.685c.977.172 1.936.445 2.852.816l1.02-2.528q-.495-.2-1.006-.368l-.014-.005-.013-.005-.17-.055-.013-.003-.01-.002h-.004l-.01-.003h-.003L22.1.785h-.003l-.01-.003h-.003L22.073.78l-.014-.003-.12-.035c-.006 0-.008-.003-.014-.003h-.002l-.011-.003h-.003l-.01-.003h-.004l-.01-.002h-.003L21.87.728h-.003l-.01-.003h-.003l-.011-.003h-.003L21.83.72h-.003l-.01-.003h-.003l-.011-.003H21.8l-.011-.002q-.04-.014-.079-.022h-.003l-.01-.003h-.003l-.011-.003h-.003l-.01-.002h-.004l-.008-.003h-.003l-.008-.003h-.002l-.009-.003h-.002l-.009-.002h-.002l-.008-.003h-.003l-.008-.003H21.6q-.003-.002-.011-.003h-.003l-.01-.002h-.003l-.011-.003h-.003l-.014-.003-.051-.013h-.003L21.48.638h-.003q-.003-.002-.01-.003h-.003l-.011-.003h-.003L21.443.63h-.006l-.008-.003h-.005l-.008-.003h-.006l-.008-.002h-.006l-.008-.003h-.005l-.008-.003h-.006l-.008-.003h-.005l-.009-.002h-.002l-.008-.003h-.003l-.011-.003h-.003l-.01-.003c-.014-.002-.028-.008-.042-.01l-.01-.003h-.003l-.011-.003h-.003q-.003-.002-.01-.003h-.004L21.22.581h-.005l-.008-.003H21.2l-.008-.003h-.005l-.009-.003h-.005L21.165.57h-.006l-.008-.003h-.005l-.009-.003h-.005l-.008-.002h-.006L21.11.559h-.005l-.008-.003h-.003l-.011-.003h-.003l-.01-.002h-.003q-.021-.004-.041-.011l-.011-.003h-.003q-.003-.002-.01-.003h-.003L20.99.532h-.005l-.008-.003h-.006l-.008-.003h-.005l-.009-.003h-.005l-.008-.002h-.006l-.008-.003h-.005q-.005 0-.009-.003h-.005l-.008-.002h-.006L20.881.51h-.003L20.87.507h-.002l-.011-.003h-.003l-.01-.002h-.004l-.01-.003h-.003L20.786.49l-.014-.003h-.002l-.011-.003h-.003l-.011-.002h-.003Q20.74.48 20.732.48h-.003l-.011-.003h-.003l-.011-.003h-.003l-.01-.002h-.003l-.011-.003h-.003q-.003-.002-.01-.003h-.004l-.01-.003h-.003l-.011-.002h-.003l-.01-.003h-.004l-.01-.003a1 1 0 0 0-.096-.019L20.5.433l-.014-.002c-.006 0-.008-.003-.014-.003l-.01-.003h-.003l-.011-.002Q20.44.42 20.434.42L20.42.417l-.013-.003a1.1 1.1 0 0 0-.455-.158M16.999 0v2.726q.103 0 .202.003l.038-2.726h-.065q0-.004-.006-.003H17"/><path fill="#A9C7FF" d="M17.016 31.585h-.073a.246.246 0 0 1-.243-.246c0-.133.114-.253.245-.242H17a.25.25 0 0 1 .25.242c0 .134-.1.246-.234.246m2.416-.207a.244.244 0 0 1-.044-.485l.07-.014a.246.246 0 0 1 .284.199.246.246 0 0 1-.199.283l-.07.014q-.017.004-.041.003m-4.905-.006q-.02 0-.043-.003l-.071-.013a.246.246 0 0 1-.2-.284.25.25 0 0 1 .284-.199l.071.014c.134.024.221.15.2.283a.245.245 0 0 1-.24.202m7.323-.63a.245.245 0 0 1-.082-.474l.068-.024a.246.246 0 0 1 .169.46l-.068.025a.3.3 0 0 1-.087.013m-9.738-.013a.3.3 0 0 1-.082-.014l-.07-.024a.245.245 0 0 1-.145-.314.246.246 0 0 1 .313-.144l.069.024c.125.046.19.185.144.314a.24.24 0 0 1-.229.158m12.006-1.033a.244.244 0 0 1-.123-.455l.063-.036a.24.24 0 0 1 .332.09.24.24 0 0 1-.09.332l-.062.036a.2.2 0 0 1-.12.033m-14.271-.022a.25.25 0 0 1-.123-.033l-.063-.035a.245.245 0 0 1-.09-.333.245.245 0 0 1 .333-.09l.063.035a.245.245 0 0 1-.12.456m16.32-1.401a.25.25 0 0 1-.187-.088.243.243 0 0 1 .03-.343l.054-.046a.243.243 0 0 1 .344.03.243.243 0 0 1-.03.343l-.058.046a.23.23 0 0 1-.152.058M7.787 28.24a.22.22 0 0 1-.145-.055l-.022-.016-.035-.03a.243.243 0 0 1-.03-.343.243.243 0 0 1 .343-.03l.036.03c.103.087.125.248.04.351a.24.24 0 0 1-.187.093m20.157-1.726a.245.245 0 0 1-.185-.403l.043-.052a.243.243 0 1 1 .373.31l-.049.06a.24.24 0 0 1-.183.085M6.03 26.48a.25.25 0 0 1-.188-.087l-.046-.058a.243.243 0 1 1 .373-.31l.046.054a.243.243 0 0 1-.185.4m23.357-2.004a.242.242 0 0 1-.21-.365l.036-.063a.24.24 0 0 1 .332-.087.24.24 0 0 1 .088.332l-.038.063a.24.24 0 0 1-.208.12m-24.794-.038a.24.24 0 0 1-.21-.12l-.038-.065a.244.244 0 0 1 .423-.243l.035.06a.244.244 0 0 1-.087.332.23.23 0 0 1-.123.036m25.863-2.222a.245.245 0 0 1-.229-.33l.024-.068a.245.245 0 0 1 .314-.144c.125.046.19.188.144.313l-.024.068a.24.24 0 0 1-.229.161m-26.923-.038a.25.25 0 0 1-.229-.158l-.025-.071a.243.243 0 1 1 .458-.164l.025.066a.243.243 0 0 1-.145.313.3.3 0 0 1-.084.014m27.58-2.372-.044-.002a.24.24 0 0 1-.196-.284l.014-.068a.244.244 0 0 1 .48.082l-.014.073a.245.245 0 0 1-.24.2m-28.232-.04a.245.245 0 0 1-.24-.2l-.01-.068a.245.245 0 0 1 .199-.283.24.24 0 0 1 .28.196l.011.068a.24.24 0 0 1-.196.284zm28.458-2.449a.244.244 0 0 1-.242-.245v-.134a.243.243 0 0 1 .485 0v.14a.24.24 0 0 1-.243.24m-28.678-.04a.243.243 0 0 1-.243-.243v-.074a.243.243 0 0 1 .485 0v.074a.24.24 0 0 1-.242.242m.21-2.49q-.021 0-.041-.002a.244.244 0 0 1-.2-.281l.014-.076a.245.245 0 0 1 .48.092l-.01.066a.25.25 0 0 1-.244.201m28.256-.019a.24.24 0 0 1-.24-.204l-.011-.065a.243.243 0 0 1 .196-.284.24.24 0 0 1 .284.196l.013.077a.244.244 0 0 1-.201.28q-.025-.002-.041 0M3.51 12.371a.242.242 0 0 1-.229-.324l.025-.071a.246.246 0 0 1 .313-.145.247.247 0 0 1 .145.314l-.025.065a.25.25 0 0 1-.229.161m26.972-.019a.25.25 0 0 1-.232-.164l-.021-.062a.243.243 0 0 1 .144-.314.243.243 0 0 1 .314.145l.027.073a.245.245 0 0 1-.153.311.3.3 0 0 1-.079.011m-25.92-2.246a.242.242 0 0 1-.21-.365l.039-.066a.245.245 0 1 1 .422.248l-.035.063a.26.26 0 0 1-.216.12m24.865-.017a.25.25 0 0 1-.212-.125l-.033-.057a.245.245 0 0 1 .422-.248l.039.068a.243.243 0 0 1-.216.362M5.992 8.056a.244.244 0 0 1-.185-.401l.051-.06a.244.244 0 0 1 .366.322l-.044.052a.25.25 0 0 1-.188.087m22.005-.014a.25.25 0 0 1-.188-.087l-.044-.055a.243.243 0 0 1 .028-.343.243.243 0 0 1 .343.027l.05.057a.245.245 0 0 1-.189.401M7.753 6.284a.24.24 0 0 1-.185-.087.243.243 0 0 1 .03-.344l.057-.046a.243.243 0 0 1 .343.03.243.243 0 0 1-.03.343l-.054.047a.26.26 0 0 1-.161.057m18.48-.011a.24.24 0 0 1-.155-.057l-.036-.03c-.103-.088-.125-.248-.04-.352.087-.104.229-.125.332-.038l.022.016.035.03c.104.087.118.24.03.344a.25.25 0 0 1-.188.087M9.795 4.844a.25.25 0 0 1-.213-.122.24.24 0 0 1 .09-.333l.063-.035a.24.24 0 0 1 .332.087.24.24 0 0 1-.087.333l-.063.038a.25.25 0 0 1-.122.032m14.394-.008a.26.26 0 0 1-.123-.032l-.063-.036a.245.245 0 0 1-.09-.333.245.245 0 0 1 .333-.09l.063.036a.245.245 0 0 1 .09.333.24.24 0 0 1-.21.122M12.055 3.781a.245.245 0 0 1-.082-.474l.068-.025a.246.246 0 0 1 .314.145.245.245 0 0 1-.145.313l-.068.025a.3.3 0 0 1-.087.016m9.874-.008a.3.3 0 0 1-.082-.014l-.071-.024a.25.25 0 0 1-.147-.314.246.246 0 0 1 .313-.147l.069.025a.24.24 0 0 1 .147.31.24.24 0 0 1-.23.164m-7.464-.643a.245.245 0 0 1-.24-.202.246.246 0 0 1 .199-.284l.07-.013a.244.244 0 0 1 .088.48l-.071.013q-.025.005-.046.006m5.051-.006-.04-.002-.072-.014a.244.244 0 0 1 .082-.48l.071.014a.244.244 0 0 1-.04.482m-2.489-.218h-.073a.243.243 0 0 1 0-.485H17c.134 0 .256.109.256.243 0 .133-.095.242-.229.242"/><path fill="#fff" d="m15.801 31.536-.073-.006a.24.24 0 0 1-.221-.264c.01-.134.134-.246.264-.221l.055.005a.254.254 0 0 1 .232.265.24.24 0 0 1-.257.22m2.424-.006a.25.25 0 0 1-.224-.22.24.24 0 0 1 .221-.265l.074-.006a.24.24 0 0 1 .264.221.244.244 0 0 1-.22.265l-.072.005a.1.1 0 0 1-.043 0m-4.885-.414a.1.1 0 0 1-.041-.008l-.071-.02a.246.246 0 0 1-.175-.297.247.247 0 0 1 .298-.174l.07.019a.246.246 0 0 1 .175.297.25.25 0 0 1-.256.183m7.347-.017a.25.25 0 0 1-.216-.18.244.244 0 0 1 .172-.3l.07-.018a.245.245 0 0 1 .129.471l-.07.02a.2.2 0 0 1-.085.008m-9.7-.826a.2.2 0 0 1-.082-.021l-.068-.033a.243.243 0 0 1-.117-.325.243.243 0 0 1 .324-.117l.066.03a.245.245 0 0 1-.123.466m12.047-.027a.25.25 0 0 1-.202-.139.246.246 0 0 1 .117-.324l.066-.03a.243.243 0 0 1 .324.117.243.243 0 0 1-.117.324l-.068.03a.23.23 0 0 1-.12.022M8.817 29.033a.23.23 0 0 1-.12-.044l-.06-.04a.24.24 0 0 1-.06-.341.24.24 0 0 1 .338-.06l.06.04a.24.24 0 0 1 .06.341.23.23 0 0 1-.218.104m16.379-.035a.24.24 0 0 1-.18-.104.243.243 0 0 1 .06-.34l.057-.042a.245.245 0 0 1 .283.398l-.06.044a.26.26 0 0 1-.16.044M6.882 27.433a.23.23 0 0 1-.14-.066l-.019-.019-.032-.032a.245.245 0 0 1-.003-.347.25.25 0 0 1 .346-.002l.033.032c.095.096.106.26.01.355a.24.24 0 0 1-.195.079m20.23-.041a.245.245 0 0 1-.15-.42l.05-.049a.245.245 0 0 1 .348.344l-.054.054a.25.25 0 0 1-.194.071M5.279 25.53a.24.24 0 0 1-.18-.104l-.044-.06a.245.245 0 0 1 .4-.28l.042.06a.243.243 0 0 1-.06.34.22.22 0 0 1-.158.044m23.441-.05a.247.247 0 0 1-.18-.384l.041-.06a.244.244 0 1 1 .401.281l-.04.06a.24.24 0 0 1-.222.104M4.016 23.377a.24.24 0 0 1-.199-.139l-.032-.068a.245.245 0 0 1 .117-.324.245.245 0 0 1 .324.117l.03.063a.244.244 0 0 1-.114.324.23.23 0 0 1-.126.027m25.958-.057a.243.243 0 0 1-.199-.346l.03-.066a.243.243 0 0 1 .325-.117.243.243 0 0 1 .117.325l-.03.065a.25.25 0 0 1-.243.14M3.147 21.035a.25.25 0 0 1-.216-.177l-.019-.074a.24.24 0 0 1 .175-.297.24.24 0 0 1 .297.174l.02.068a.244.244 0 0 1-.17.3q-.043.009-.087.006m27.683-.063a.1.1 0 0 1-.043-.008.244.244 0 0 1-.172-.3l.02-.068a.24.24 0 0 1 .296-.175c.131.033.21.167.175.297l-.02.074a.244.244 0 0 1-.256.18M2.702 18.578a.25.25 0 0 1-.223-.22l-.006-.071a.247.247 0 0 1 .221-.267.24.24 0 0 1 .265.218l.005.07a.244.244 0 0 1-.218.268zm28.562-.065a.247.247 0 0 1-.224-.267l.006-.071.005-.063a.245.245 0 1 1 .488.041l-.005.06-.008.08a.24.24 0 0 1-.262.22M2.689 16.079a.24.24 0 0 1-.221-.262l.005-.074a.245.245 0 1 1 .488.041l-.005.074a.25.25 0 0 1-.267.22m.417-2.462a.1.1 0 0 1-.041-.008.24.24 0 0 1-.174-.297l.019-.077a.245.245 0 0 1 .471.131l-.016.066a.25.25 0 0 1-.26.185m28.158 2.333a.25.25 0 0 1-.224-.223l-.005-.068a.244.244 0 0 1 .485-.05l.008.08a.244.244 0 0 1-.226.261.1.1 0 0 1-.038 0m-27.32-4.684a.2.2 0 0 1-.082-.021.24.24 0 0 1-.12-.322l.033-.068a.243.243 0 0 1 .324-.118.243.243 0 0 1 .117.325l-.03.063a.24.24 0 0 1-.242.141m26.882 2.23a.24.24 0 0 1-.215-.182l-.017-.066a.244.244 0 0 1 .17-.3.24.24 0 0 1 .3.17l.021.076a.245.245 0 0 1-.177.297q-.041.006-.082.005M5.181 9.092A.244.244 0 0 1 5 8.708l.043-.06a.244.244 0 1 1 .398.283l-.04.06a.25.25 0 0 1-.221.1m24.783 2.058a.25.25 0 0 1-.202-.142l-.027-.06a.24.24 0 0 1 .114-.324.24.24 0 0 1 .325.114l.032.071a.244.244 0 0 1-.122.322.3.3 0 0 1-.12.019M6.778 7.17a.25.25 0 0 1-.15-.068.245.245 0 0 1-.003-.347l.055-.054a.25.25 0 0 1 .346.005.25.25 0 0 1-.005.346l-.047.047a.26.26 0 0 1-.196.07m21.929 1.82a.24.24 0 0 1-.18-.103l-.041-.057a.244.244 0 0 1 .395-.286l.044.062a.245.245 0 0 1-.218.385M8.68 5.55a.25.25 0 0 1-.18-.1.245.245 0 0 1 .057-.341l.06-.044a.245.245 0 0 1 .28.4l-.056.042a.23.23 0 0 1-.161.043m18.415 1.53a.25.25 0 0 1-.15-.068l-.033-.033c-.095-.096-.106-.26-.01-.355.095-.095.239-.106.334-.01l.02.019.032.032a.245.245 0 0 1 .003.347.25.25 0 0 1-.196.068M10.834 4.285a.243.243 0 0 1-.085-.463l.066-.03a.244.244 0 0 1 .325.115.24.24 0 0 1-.115.324l-.065.033a.26.26 0 0 1-.126.021M25.18 5.477a.2.2 0 0 1-.117-.044l-.06-.04a.24.24 0 0 1-.06-.341.24.24 0 0 1 .34-.06l.06.04a.24.24 0 0 1 .06.341.25.25 0 0 1-.223.104M13.176 3.416a.24.24 0 0 1-.215-.18.244.244 0 0 1 .172-.3l.068-.019c.13-.035.264.04.3.172a.244.244 0 0 1-.17.3l-.07.019a.2.2 0 0 1-.085.008m9.839.815a.2.2 0 0 1-.082-.022l-.068-.03a.244.244 0 1 1 .204-.444l.066.03a.244.244 0 0 1-.12.466m-7.383-1.265a.25.25 0 0 1-.223-.22.244.244 0 0 1 .22-.265l.072-.006a.24.24 0 0 1 .264.221.24.24 0 0 1-.22.265l-.074.005zm5.033.417a.1.1 0 0 1-.041-.008l-.071-.02a.24.24 0 0 1-.174-.296.243.243 0 0 1 .297-.175l.07.02a.24.24 0 0 1 .175.296.24.24 0 0 1-.256.183m-2.462-.425-.073-.006a.245.245 0 1 1 .04-.488l.047.003c.133.011.248.131.234.265-.008.136-.114.237-.248.226"/><path fill="url(#b)" d="M17.11 8.5c.557 0 1.05.319 1.293.831l1.663 3.514c.065.14.188.235.33.257l3.713.561c.534.082.976.458 1.15.984.183.543.05 1.132-.349 1.535l-2.682 2.737a.52.52 0 0 0-.134.436l.635 3.866c.074.442-.049.886-.332 1.218a1.43 1.43 0 0 1-1.088.513c-.232 0-.466-.06-.676-.177l-3.323-1.821a.39.39 0 0 0-.393 0l-3.32 1.826c-.21.115-.444.177-.679.177-.414 0-.81-.185-1.088-.512a1.5 1.5 0 0 1-.332-1.219l.632-3.863a.5.5 0 0 0-.133-.436l-2.688-2.734a1.51 1.51 0 0 1-.35-1.535 1.44 1.44 0 0 1 1.151-.984l3.713-.567a.44.44 0 0 0 .33-.256l1.66-3.517a1.43 1.43 0 0 1 1.298-.834m0-.273c-.662 0-1.253.38-1.54.99l-1.66 3.516c-.027.058-.073.096-.122.104l-3.713.567a1.72 1.72 0 0 0-1.369 1.167 1.77 1.77 0 0 0 .415 1.81l2.688 2.734c.049.05.07.126.057.202l-.633 3.866a1.77 1.77 0 0 0 .393 1.436c.327.387.799.608 1.295.608a1.7 1.7 0 0 0 .81-.21l3.32-1.826a.14.14 0 0 1 .065-.017q.033 0 .066.017l3.323 1.824c.25.136.529.21.807.21.496 0 .967-.221 1.295-.608.335-.396.477-.92.392-1.44l-.635-3.863a.25.25 0 0 1 .057-.201l2.686-2.737a1.77 1.77 0 0 0 .411-1.81 1.72 1.72 0 0 0-1.368-1.167l-3.716-.562a.17.17 0 0 1-.123-.104L18.648 9.22a1.69 1.69 0 0 0-1.537-.993" opacity=".6"/><path fill="url(#c)" d="m20.324 13.598 3.713.561c.769.117 1.077 1.104.52 1.671l-2.685 2.737c-.22.227-.321.551-.27.867l.636 3.863c.13.802-.674 1.412-1.36 1.033l-3.321-1.818a.9.9 0 0 0-.872 0l-3.32 1.827c-.69.379-1.495-.232-1.364-1.034l.633-3.865a1 1 0 0 0-.27-.867l-2.69-2.734c-.557-.568-.252-1.557.517-1.674l3.713-.567a.94.94 0 0 0 .706-.537l1.66-3.517a.92.92 0 0 1 1.682 0l1.663 3.514a.95.95 0 0 0 .709.54" opacity=".6"/></g><defs><linearGradient id="b" x1="8.613" x2="25.614" y1="16.728" y2="16.728" gradientUnits="userSpaceOnUse"><stop stop-color="#A9C7FF"/><stop offset=".69" stop-color="#fff"/><stop offset="1" stop-color="#A9C7FF"/></linearGradient><linearGradient id="c" x1="8.751" x2="26.313" y1="23.456" y2="12.155" gradientUnits="userSpaceOnUse"><stop stop-color="#B3CFE2"/><stop offset=".502" stop-color="#fff"/><stop offset="1" stop-color="#78A9CC"/></linearGradient><clipPath id="a"><path fill="#fff" d="M0 0h34v34H0z"/></clipPath></defs></svg>