<svg xmlns="http://www.w3.org/2000/svg" fill="none" viewBox="0 0 34 34"><g clip-path="url(#a)"><path fill="#BA5F27" d="M17 34c9.389 0 17-7.611 17-17S26.389 0 17 0 0 7.611 0 17s7.611 17 17 17"/><path fill="#CB6731" d="M6.564 3.541c7.454-5.74 18.15-4.356 23.895 3.097 5.744 7.453 4.356 18.15-3.097 23.895"/><g fill="#fff" opacity=".12" style="mix-blend-mode:overlay"><path d="M6.408 25.737q.21.254.43.5a3 3 0 0 0-.067-.186.58.58 0 0 0-.363-.314m24.305-9.233a1.9 1.9 0 0 0-.287.485s-.523 1.35-.746 1.876c-.028.019-.069.01-.08-.025-.046-.13-.335-1.082-.425-1.284a.57.57 0 0 0-.398-.327.55.55 0 0 0-.442.09l-.016.014c-.188.16-.291.39-.373.575 0 0-.548 1.41-.764 1.908a.052.052 0 0 1-.073-.03c-.047-.13-.336-1.082-.426-1.284a.57.57 0 0 0-.398-.327.55.55 0 0 0-.441.09l-.017.014c-.188.16-.291.39-.373.575 0 0-.532 1.371-.752 1.889-.028.01-.06.003-.071-.03-.047-.13-.335-1.082-.425-1.284a.57.57 0 0 0-.398-.327.55.55 0 0 0-.442.09l-.017.014c-.188.16-.291.39-.373.575 0 0-.548 1.41-.763 1.908a.052.052 0 0 1-.074-.03c-.046-.13-.335-1.082-.425-1.284a.57.57 0 0 0-.398-.327.55.55 0 0 0-.442.09l-.016.013c-.188.161-.292.39-.374.576 0 0-.523 1.346-.747 1.875-.027.02-.068.011-.079-.024-.046-.131-.335-1.083-.425-1.284a.57.57 0 0 0-.398-.328.55.55 0 0 0-.442.09l-.016.014c-.188.161-.292.39-.373.575 0 0-.548 1.41-.764 1.909a.052.052 0 0 1-.073-.03c-.047-.131-.336-1.083-.426-1.284a.57.57 0 0 0-.398-.327.55.55 0 0 0-.441.09l-.017.013c-.188.16-.291.39-.373.575 0 0-.55 1.423-.766 1.917a.05.05 0 0 1-.085-.02c-.046-.13-.335-1.082-.425-1.283a.57.57 0 0 0-.398-.327.55.55 0 0 0-.441.09l-.017.013c-.188.161-.292.39-.373.575 0 0-.548 1.41-.764 1.909a.052.052 0 0 1-.073-.03c-.047-.131-.336-1.083-.425-1.284a.57.57 0 0 0-.398-.328.55.55 0 0 0-.442.09l-.016.014c-.189.16-.292.39-.374.575 0 0-.523 1.347-.747 1.876-.027.019-.068.01-.079-.025-.046-.13-.335-1.082-.425-1.284a.57.57 0 0 0-.398-.327.55.55 0 0 0-.442.09l-.016.014c-.188.16-.292.39-.374.575 0 0-.316.815-.561 1.423q.15.147.305.292c.164-.39.428-1.028.559-1.352q.01-.026.008-.055c.19-.469.243-.57.414-.575.142-.003.205.158.23.234.095.281.272.889.36 1.134.06.175.198.3.362.308.06.003.18-.008.289-.12a.2.2 0 0 0 .092-.095c.022-.052.14-.338.262-.646.158-.382.363-.87.469-1.14.005-.01.003-.024.005-.035.189-.458.24-.556.41-.562.141-.002.204.159.228.235.096.28.276.889.36 1.134.06.174.2.3.363.308a.4.4 0 0 0 .338-.177q.033-.029.054-.068c.014-.033.069-.164.137-.333.158-.379.45-1.077.588-1.423.009-.016.009-.035.009-.055.19-.468.242-.57.414-.575.142-.002.205.158.23.235.095.28.274.888.359 1.134.06.174.199.3.363.308a.4.4 0 0 0 .346-.188.2.2 0 0 0 .06-.077c.03-.065.204-.504.36-.888.13-.314.267-.644.349-.85q.003-.01.002-.02c.21-.515.256-.619.436-.624.142-.003.205.158.23.234.095.281.275.889.36 1.134.06.175.198.3.362.308a.4.4 0 0 0 .338-.177.2.2 0 0 0 .054-.068c.014-.033.069-.164.137-.333.158-.378.45-1.076.588-1.423.009-.016.009-.035.009-.054.19-.469.242-.57.414-.575.142-.003.204.158.229.234.095.28.275.889.36 1.134.06.175.199.3.362.308.06.003.18-.008.29-.12a.2.2 0 0 0 .092-.095c.022-.052.14-.338.262-.646.158-.382.362-.87.469-1.14.005-.01.002-.024.005-.035.188-.458.24-.556.41-.562.14-.002.204.158.228.235.096.28.275.888.36 1.134.06.174.199.3.363.308a.4.4 0 0 0 .338-.177q.032-.029.054-.069c.014-.032.068-.163.136-.332.158-.38.45-1.077.59-1.423q.009-.026.007-.055c.191-.469.243-.57.415-.575.141-.003.204.158.229.234.095.281.275.89.36 1.135.06.174.199.3.362.308a.38.38 0 0 0 .314-.145.2.2 0 0 0 .068-.082c.01-.024.04-.1.084-.204.128-.308.494-1.175.652-1.573.008-.02.008-.04.01-.063.18-.441.235-.54.404-.545.142-.003.205.158.23.235.095.28.274.888.359 1.134.06.174.199.3.363.308a.4.4 0 0 0 .338-.178q.032-.027.054-.068l.137-.332c.158-.38.45-1.077.588-1.423q.01-.026.008-.055c.191-.469.243-.57.415-.575.142-.003.204.158.229.234.095.281.273.89.36 1.134.06.175.199.3.362.308.06.003.18-.008.29-.12a.2.2 0 0 0 .092-.095c.022-.052.139-.338.262-.646.15-.36.338-.81.45-1.088.002-.125.008-.25.008-.376.002-.106-.006-.27-.011-.436M8.862 27.182a.55.55 0 0 0-.441.09l-.017.014c-.084.073-.15.16-.207.25q.155.13.314.251c.076-.144.139-.188.245-.19.142-.003.205.158.23.234a10 10 0 0 1 .127.406q.245.172.5.336c-.104-.33-.287-.914-.355-1.064a.56.56 0 0 0-.396-.327"/><path d="M29.677 21.272a.052.052 0 0 1-.08-.024c-.046-.131-.335-1.083-.425-1.285a.57.57 0 0 0-.398-.327.55.55 0 0 0-.441.09l-.016.014c-.189.16-.292.39-.374.575 0 0-.548 1.41-.763 1.908a.052.052 0 0 1-.074-.03c-.046-.13-.335-1.082-.425-1.283a.57.57 0 0 0-.398-.328.55.55 0 0 0-.442.09l-.016.014c-.188.16-.292.39-.374.575 0 0-.531 1.371-.752 1.89-.027.01-.06.002-.07-.03-.047-.131-.336-1.083-.426-1.285a.57.57 0 0 0-.398-.327.55.55 0 0 0-.442.09l-.016.014c-.188.16-.292.39-.374.575 0 0-.548 1.41-.763 1.908a.052.052 0 0 1-.073-.03c-.047-.13-.336-1.082-.426-1.284a.57.57 0 0 0-.398-.327.55.55 0 0 0-.441.09l-.017.014c-.188.16-.291.39-.373.575 0 0-.524 1.347-.747 1.875a.05.05 0 0 1-.08-.024c-.046-.13-.335-1.082-.425-1.284a.57.57 0 0 0-.398-.327.55.55 0 0 0-.441.09l-.017.014c-.188.16-.291.39-.373.575 0 0-.548 1.41-.763 1.908a.052.052 0 0 1-.074-.03c-.046-.13-.335-1.082-.425-1.284a.57.57 0 0 0-.398-.327.55.55 0 0 0-.442.09l-.016.013c-.188.161-.292.39-.374.576 0 0-.55 1.423-.766 1.916a.05.05 0 0 1-.084-.019c-.047-.13-.336-1.082-.426-1.284a.57.57 0 0 0-.398-.327.55.55 0 0 0-.441.09l-.017.014c-.188.16-.291.39-.373.575 0 0-.548 1.41-.763 1.908a.052.052 0 0 1-.074-.03c-.046-.13-.335-1.082-.425-1.284a.57.57 0 0 0-.398-.327.55.55 0 0 0-.442.09l-.016.013c-.188.161-.292.39-.374.576 0 0-.455 1.172-.698 1.758.112.068.23.136.344.202.049-.123.123-.3.196-.488.158-.382.363-.87.47-1.14.005-.01.002-.024.005-.035.188-.458.24-.556.409-.562.141-.003.204.158.229.235.095.28.275.888.36 1.134.06.174.198.3.362.308a.4.4 0 0 0 .338-.177.2.2 0 0 0 .055-.069c.013-.032.068-.163.136-.332.158-.38.45-1.077.589-1.423q.01-.026.008-.055c.19-.469.242-.57.414-.575.142-.003.205.158.23.235.095.28.274.888.359 1.134.06.174.199.3.363.308a.4.4 0 0 0 .346-.188.2.2 0 0 0 .06-.077c.03-.065.204-.504.36-.889.13-.313.267-.643.349-.85q.003-.01.002-.02c.21-.514.257-.618.436-.623.142-.003.205.158.23.234.095.28.275.889.36 1.134.06.175.198.3.362.308a.4.4 0 0 0 .338-.177q.033-.029.054-.068c.014-.033.069-.164.137-.333.158-.379.45-1.077.588-1.423.009-.016.009-.035.009-.054.19-.47.242-.57.414-.576.142-.002.205.159.23.235.095.28.274.889.359 1.134.06.174.199.3.362.308.06.003.18-.008.29-.12a.2.2 0 0 0 .092-.095c.022-.052.14-.338.262-.647.158-.381.362-.87.469-1.139.005-.01.003-.024.005-.035.188-.458.24-.557.41-.562.14-.003.204.158.228.234.096.281.276.89.36 1.134.06.175.199.3.363.308a.4.4 0 0 0 .338-.177q.032-.027.054-.068c.014-.032.068-.163.136-.332.159-.38.45-1.077.59-1.423.007-.017.005-.036.007-.055.191-.469.243-.57.415-.575.141-.003.204.158.229.234.095.281.275.889.36 1.134.06.175.199.3.362.308a.39.39 0 0 0 .314-.144.2.2 0 0 0 .068-.082c.01-.024.04-.1.084-.204.128-.308.494-1.175.652-1.573.008-.02.008-.041.01-.063.18-.442.235-.54.404-.545.142-.003.205.158.23.234.095.281.275.889.36 1.134.06.175.198.3.362.308a.4.4 0 0 0 .338-.177q.032-.027.054-.068l.137-.333c.158-.378.45-1.076.588-1.423.009-.016.009-.035.009-.054.19-.469.242-.57.414-.575.142-.003.204.158.229.234.095.28.273.889.36 1.134.06.175.199.3.362.308.06.003.18-.008.29-.12l.024-.016c.28-.793.493-1.62.627-2.473a3 3 0 0 0-.136.276c0 .052-.524 1.4-.75 1.927m-23.814.594c.18-.441.235-.54.404-.545.141-.003.204.158.229.234.095.281.275.89.36 1.134.06.175.199.3.362.309a.4.4 0 0 0 .338-.178q.034-.027.055-.068c.013-.032.068-.163.136-.332.158-.38.45-1.077.589-1.423q.01-.026.008-.055c.19-.469.243-.57.414-.575.142-.003.205.158.23.234.095.281.272.889.36 1.134.06.175.198.3.362.308.06.003.18-.008.289-.12a.2.2 0 0 0 .092-.095c.022-.052.14-.338.262-.646.158-.382.363-.87.47-1.14.005-.01.002-.024.005-.035.188-.458.24-.556.408-.562.142-.002.205.159.23.235.095.28.275.889.36 1.134.06.174.198.3.362.308a.4.4 0 0 0 .338-.177q.033-.029.054-.068c.014-.033.069-.164.137-.333.158-.379.45-1.077.588-1.423.009-.016.009-.035.009-.054.19-.47.242-.57.414-.576.142-.002.204.158.23.235.095.28.274.889.359 1.134.06.174.199.3.363.308a.4.4 0 0 0 .346-.188.2.2 0 0 0 .06-.077c.03-.065.204-.504.36-.888.13-.314.267-.644.348-.85q.004-.01.003-.02c.21-.515.256-.619.436-.624.142-.003.205.158.23.234.095.281.275.889.36 1.134.06.175.198.3.362.308a.4.4 0 0 0 .338-.177q.033-.027.054-.068l.137-.333c.158-.378.45-1.076.588-1.423.009-.016.009-.035.009-.054.19-.469.242-.57.414-.575.142-.003.204.158.229.234.095.28.275.889.36 1.134.06.175.199.3.363.308.06.003.18-.008.288-.12a.2.2 0 0 0 .093-.095c.022-.052.14-.338.262-.646.158-.382.362-.87.469-1.14.005-.01.002-.024.005-.035.188-.458.24-.556.41-.562.14-.002.203.158.228.235.096.28.275.888.36 1.134.06.174.199.3.362.308a.4.4 0 0 0 .338-.177q.033-.028.055-.069c.014-.032.068-.163.136-.332.159-.38.45-1.077.59-1.423q.009-.025.007-.055c.191-.469.243-.57.415-.575.142-.003.204.158.229.234.095.281.275.89.36 1.135.06.174.199.3.362.308a.39.39 0 0 0 .314-.145.2.2 0 0 0 .068-.082c.01-.024.04-.1.084-.204.128-.308.494-1.175.652-1.573.008-.02.008-.04.01-.063.18-.441.235-.54.404-.545.142-.003.205.158.23.235.095.28.274.888.36 1.134.059.174.198.3.362.308a.4.4 0 0 0 .338-.178q.032-.027.054-.068l.137-.332c.158-.38.45-1.077.588-1.423.009-.017.009-.036.009-.055.19-.469.242-.57.414-.575.142-.003.204.158.229.234.095.281.273.89.36 1.134.06.175.199.3.362.309.06.002.18-.009.29-.12a.2.2 0 0 0 .092-.096c.022-.052.139-.338.262-.646l.027-.068q-.081-.315-.177-.622c-.156.393-.333.84-.442 1.094-.027.019-.068.01-.079-.025-.046-.13-.335-1.082-.425-1.284a.57.57 0 0 0-.398-.327.55.55 0 0 0-.442.09l-.016.013c-.188.161-.292.39-.374.576 0 0-.548 1.409-.763 1.908a.052.052 0 0 1-.074-.03c-.046-.13-.335-1.082-.425-1.284a.57.57 0 0 0-.398-.327.55.55 0 0 0-.442.09l-.016.013c-.188.161-.292.39-.373.576 0 0-.532 1.37-.753 1.889-.027.01-.06.003-.07-.03-.047-.131-.336-1.082-.426-1.284a.57.57 0 0 0-.398-.327.55.55 0 0 0-.442.09l-.016.013c-.188.161-.292.39-.373.575 0 0-.548 1.41-.764 1.909a.052.052 0 0 1-.073-.03c-.047-.131-.336-1.083-.426-1.284a.57.57 0 0 0-.398-.327.55.55 0 0 0-.441.09l-.017.013c-.188.161-.291.39-.373.575 0 0-.524 1.35-.747 1.876a.052.052 0 0 1-.08-.025c-.045-.13-.334-1.082-.424-1.284a.57.57 0 0 0-.398-.327.55.55 0 0 0-.442.09l-.016.014c-.188.16-.292.39-.374.575 0 0-.548 1.41-.763 1.908a.052.052 0 0 1-.074-.03c-.046-.13-.335-1.082-.425-1.284a.57.57 0 0 0-.398-.327.55.55 0 0 0-.442.09l-.016.014c-.188.16-.292.39-.373.575 0 0-.551 1.423-.767 1.916a.05.05 0 0 1-.084-.019c-.046-.13-.335-1.082-.425-1.284a.57.57 0 0 0-.398-.327.55.55 0 0 0-.442.09l-.016.014c-.188.16-.292.39-.374.575 0 0-.548 1.41-.763 1.908a.052.052 0 0 1-.074-.03c-.046-.13-.335-1.082-.425-1.284a.57.57 0 0 0-.398-.327.55.55 0 0 0-.442.09l-.016.014c-.188.16-.292.39-.373.575 0 0-.524 1.347-.747 1.876-.028.019-.069.01-.08-.025-.046-.13-.335-1.082-.425-1.284a.57.57 0 0 0-.398-.327.55.55 0 0 0-.441.09l-.017.014c-.188.16-.291.39-.373.575 0 0-.548 1.41-.764 1.908a.052.052 0 0 1-.073-.03c-.046-.13-.335-1.082-.425-1.284a.57.57 0 0 0-.398-.327.55.55 0 0 0-.442.09l-.016.014c-.188.16-.292.39-.374.575 0 0-.463 1.197-.706 1.777q.112.21.226.415a.16.16 0 0 0 .058-.071c.01-.025.04-.101.084-.205.128-.308.494-1.175.652-1.573.013.044.013.022.013 0m-1.611.234q.067.173.139.341a4 4 0 0 0-.1-.275q-.018-.038-.04-.065"/><path d="m7.609 25.165.136-.333c.158-.379.45-1.076.59-1.423q.009-.025.007-.054c.191-.47.243-.57.415-.576.141-.002.204.159.229.235.095.28.272.889.36 1.134.06.175.198.3.362.308.06.003.18-.008.289-.12a.2.2 0 0 0 .093-.095c.021-.052.139-.338.261-.646.158-.382.363-.87.47-1.14.005-.01.002-.024.005-.035.188-.458.24-.556.409-.562.141-.003.204.158.229.235.095.28.275.888.36 1.134.06.174.199.3.362.308a.4.4 0 0 0 .338-.177q.034-.029.055-.069c.013-.032.068-.163.136-.332.158-.38.45-1.077.589-1.423q.01-.026.008-.055c.19-.469.243-.57.414-.575.142-.003.205.158.23.234.095.281.275.89.36 1.134.06.175.198.3.362.309a.4.4 0 0 0 .346-.189.2.2 0 0 0 .06-.076c.03-.065.204-.504.36-.889.13-.313.267-.643.349-.85q.003-.01.002-.02c.21-.514.257-.618.437-.623.141-.003.204.158.229.234.095.28.275.889.36 1.134.06.175.198.3.362.308a.4.4 0 0 0 .338-.177q.034-.029.055-.068l.136-.333c.158-.379.45-1.077.589-1.423q.01-.025.008-.054c.19-.47.242-.57.414-.576.142-.002.205.159.23.235.095.28.275.889.36 1.134.06.174.198.3.362.308.06.003.18-.008.289-.12a.2.2 0 0 0 .092-.096c.022-.051.14-.338.262-.646.158-.381.363-.87.469-1.14.005-.01.003-.024.005-.035.188-.457.24-.556.41-.561.141-.003.204.158.228.234.096.281.276.89.36 1.134.06.175.2.3.363.309a.4.4 0 0 0 .338-.178q.033-.027.054-.068l.137-.332c.158-.38.45-1.077.588-1.424.009-.016.006-.035.009-.054.19-.469.242-.57.414-.575.142-.003.204.158.229.234.095.281.275.889.36 1.134.06.175.199.3.362.308a.39.39 0 0 0 .314-.144.2.2 0 0 0 .068-.082c.01-.024.04-.1.084-.204.129-.308.494-1.175.652-1.573.008-.02.008-.041.011-.063.18-.442.234-.54.404-.545.141-.003.204.158.228.234.096.281.276.889.36 1.134.06.175.2.3.363.308a.4.4 0 0 0 .338-.177q.033-.027.054-.068c.014-.033.069-.164.137-.333.158-.379.45-1.076.589-1.423q.01-.025.008-.054c.19-.47.242-.57.414-.575.142-.003.205.158.23.234.095.28.272.889.359 1.134.06.175.199.3.362.308.06.003.18-.008.29-.12a.2.2 0 0 0 .092-.095c.022-.052.14-.338.262-.646.109-.26.237-.567.34-.824a12 12 0 0 0-.122-.78l-.06.132s-.523 1.349-.747 1.875c-.027.02-.068.011-.079-.024-.046-.131-.335-1.083-.425-1.284a.57.57 0 0 0-.398-.328.55.55 0 0 0-.442.09l-.016.014c-.188.16-.292.39-.374.575 0 0-.548 1.41-.763 1.909a.052.052 0 0 1-.074-.03c-.046-.131-.335-1.083-.425-1.284a.57.57 0 0 0-.398-.328.55.55 0 0 0-.442.09l-.016.014c-.188.16-.292.39-.373.575 0 0-.532 1.372-.753 1.89-.027.01-.06.002-.07-.03-.047-.131-.336-1.083-.426-1.285a.57.57 0 0 0-.398-.327.55.55 0 0 0-.442.09l-.016.014c-.188.16-.292.39-.373.575 0 0-.548 1.41-.764 1.908a.052.052 0 0 1-.073-.03c-.047-.13-.336-1.082-.426-1.284a.57.57 0 0 0-.398-.327.55.55 0 0 0-.441.09l-.017.014c-.188.16-.291.39-.373.575 0 0-.523 1.347-.747 1.876-.027.019-.068.01-.08-.025-.046-.13-.334-1.082-.424-1.284a.57.57 0 0 0-.398-.327.55.55 0 0 0-.442.09l-.016.014c-.189.16-.292.39-.374.575 0 0-.548 1.41-.763 1.908a.052.052 0 0 1-.074-.03c-.046-.13-.335-1.082-.425-1.284a.57.57 0 0 0-.398-.327.55.55 0 0 0-.442.09l-.01.057c-.189.161-.292.39-.374.575 0 0-.55 1.423-.766 1.917a.05.05 0 0 1-.085-.02c-.046-.13-.335-1.082-.425-1.283a.57.57 0 0 0-.398-.327.55.55 0 0 0-.441.09l-.017.013c-.188.161-.292.39-.373.575 0 0-.548 1.41-.764 1.909a.052.052 0 0 1-.073-.03c-.047-.131-.336-1.083-.426-1.284a.57.57 0 0 0-.398-.327.58.58 0 0 0-.441.1l-.016.014c-.189.16-.292.39-.374.575 0 0-.523 1.35-.747 1.876-.027.019-.068.01-.079-.025-.046-.13-.335-1.082-.425-1.284a.57.57 0 0 0-.398-.327.55.55 0 0 0-.442.09l-.016.014c-.188.16-.292.39-.374.575 0 0-.548 1.41-.763 1.908a.052.052 0 0 1-.074-.03c-.046-.13-.335-1.082-.425-1.284a.57.57 0 0 0-.398-.327.55.55 0 0 0-.442.09l-.016.014c-.188.16-.292.39-.373.575l-.137.352q.133.213.276.42c.068-.164.13-.317.174-.431.008-.02.008-.041.011-.063.18-.442.234-.54.403-.545.142-.003.205.158.23.234.095.281.275.889.36 1.134.06.175.198.3.362.308a.4.4 0 0 0 .338-.177.1.1 0 0 0 .049-.057m15.754 3.759-.017.014c-.125.106-.21.24-.278.373q.421-.21.826-.444a1 1 0 0 0-.09-.033.55.55 0 0 0-.441.09m-2.49.952-.016.013c-.12.101-.205.232-.273.363q.508-.139 1.003-.314a.544.544 0 0 0-.714-.063m-9.528-1.117a.55.55 0 0 0-.442.09l-.016.014a1.1 1.1 0 0 0-.242.305q.175.093.354.182c.073-.133.133-.174.24-.177.142-.003.204.158.229.235l.06.182q.225.098.45.186c-.093-.287-.191-.59-.238-.693a.58.58 0 0 0-.395-.324m17.429-6.619a.55.55 0 0 0-.442.09l-.017.013c-.188.161-.291.39-.373.575 0 0-.548 1.41-.763 1.909a.052.052 0 0 1-.074-.03c-.046-.131-.335-1.083-.425-1.284a.57.57 0 0 0-.398-.327.55.55 0 0 0-.442.09l-.016.013c-.188.161-.292.39-.374.576 0 0-.531 1.37-.752 1.889-.027.01-.06.002-.07-.03-.047-.131-.336-1.083-.426-1.284a.57.57 0 0 0-.398-.327.55.55 0 0 0-.442.09l-.016.013c-.188.161-.292.39-.374.575 0 0-.548 1.41-.763 1.909a.052.052 0 0 1-.074-.03c-.046-.131-.335-1.083-.425-1.284a.57.57 0 0 0-.398-.328.55.55 0 0 0-.442.09l-.016.014c-.188.161-.292.39-.373.575 0 0-.524 1.35-.747 1.876-.028.019-.069.01-.08-.025-.046-.13-.335-1.082-.425-1.284a.57.57 0 0 0-.398-.327.55.55 0 0 0-.441.09l-.017.014c-.188.16-.291.39-.373.575 0 0-.548 1.41-.763 1.908a.052.052 0 0 1-.074-.03c-.046-.13-.335-1.082-.425-1.284a.57.57 0 0 0-.398-.327.55.55 0 0 0-.442.09l-.016.014c-.188.16-.292.39-.374.575 0 0-.55 1.423-.766 1.916a.05.05 0 0 1-.084-.019c-.047-.13-.336-1.082-.426-1.284a.57.57 0 0 0-.398-.327.55.55 0 0 0-.441.09l-.017.014c-.188.16-.291.39-.373.575 0 0-.327.845-.575 1.458q.186.067.376.129c.163-.39.387-.93.504-1.222q.01-.025.008-.054c.191-.47.243-.57.415-.575.142-.003.204.158.229.234.095.28.275.889.36 1.134.06.175.199.3.362.308a.4.4 0 0 0 .346-.188.2.2 0 0 0 .06-.076c.03-.066.205-.505.36-.889.131-.314.267-.643.35-.85q.003-.01.002-.02c.21-.515.256-.619.436-.624.142-.003.205.158.23.234.095.281.274.89.359 1.135.06.174.199.3.363.308a.4.4 0 0 0 .338-.178.2.2 0 0 0 .054-.068c.014-.032.068-.163.136-.332.159-.38.45-1.077.59-1.423q.009-.026.007-.055c.191-.469.243-.57.415-.575.141-.003.204.158.229.234.095.281.275.89.36 1.134.06.175.199.3.362.308.06.003.18-.008.29-.12a.2.2 0 0 0 .092-.095c.022-.052.139-.338.262-.646.158-.382.362-.87.468-1.14.006-.01.003-.024.006-.035.188-.458.24-.556.409-.562.142-.002.204.159.229.235.095.28.275.889.36 1.134.06.174.199.3.362.308a.4.4 0 0 0 .338-.177q.033-.029.055-.068l.136-.333c.158-.379.45-1.077.589-1.423.008-.016.005-.035.008-.054.19-.47.243-.57.415-.576.141-.002.204.159.229.235.095.28.275.889.36 1.134.06.174.198.3.362.308a.38.38 0 0 0 .313-.145.2.2 0 0 0 .069-.081c.01-.025.04-.101.084-.205.128-.308.494-1.175.652-1.573.008-.019.008-.04.01-.062.18-.442.235-.54.404-.546.142-.002.204.159.229.235.095.28.275.889.36 1.134.06.174.199.3.362.308a.4.4 0 0 0 .338-.177q.033-.029.055-.069c.014-.032.068-.163.136-.332.158-.379.45-1.077.59-1.423q.009-.024.007-.055c.191-.468.243-.57.415-.575.141-.003.204.158.229.235.054.16.136.425.21.67q.127-.237.242-.474a7 7 0 0 0-.182-.52.64.64 0 0 0-.399-.284"/><path d="M16.343 29.249a.55.55 0 0 0-.442.09l-.016.013c-.188.161-.292.39-.374.575l-.267.685q.204.026.412.049l.144-.352c.003-.005.003-.014.003-.019.21-.515.256-.619.436-.624.142-.003.205.158.23.234.065.194.17.543.258.82.09.003.18.009.273.009l.125-.003c-.095-.302-.308-.984-.381-1.15a.6.6 0 0 0-.401-.327m-2.508.967a.53.53 0 0 0-.368.05q.345.093.7.166a.6.6 0 0 0-.332-.216M28.32 24.65c-.189.16-.292.39-.374.575l-.044.114q.285-.372.546-.76a.6.6 0 0 0-.11.06zm-2.035.847a.55.55 0 0 0-.442.09l-.016.014c-.188.16-.292.39-.374.575 0 0-.531 1.371-.752 1.89-.027.01-.06.002-.07-.03-.047-.132-.336-1.083-.426-1.285a.57.57 0 0 0-.398-.327.55.55 0 0 0-.442.09l-.016.014c-.188.16-.292.39-.374.575 0 0-.548 1.41-.763 1.908a.052.052 0 0 1-.073-.03c-.047-.13-.336-1.082-.426-1.284a.57.57 0 0 0-.398-.327.55.55 0 0 0-.441.09l-.017.014c-.188.16-.291.39-.373.575 0 0-.524 1.347-.747 1.876-.027.019-.068.01-.08-.025-.046-.13-.335-1.082-.424-1.284a.57.57 0 0 0-.399-.327.55.55 0 0 0-.441.09l-.017.013c-.188.161-.291.39-.373.576 0 0-.447 1.153-.692 1.742q.216-.003.43-.014c.164-.39.434-1.036.565-1.366q.01-.025.008-.054c.19-.47.242-.57.414-.575.142-.003.205.158.23.234.095.28.275.889.359 1.134.06.175.199.3.363.308.06.003.18-.008.288-.12a.2.2 0 0 0 .093-.095c.022-.052.14-.338.262-.646.158-.382.363-.87.469-1.14.005-.01.002-.024.005-.035.188-.458.24-.556.41-.562.14-.003.204.158.228.235.096.28.276.888.36 1.134.06.174.199.3.363.308a.4.4 0 0 0 .338-.177q.032-.029.054-.069c.014-.032.068-.163.136-.332.159-.38.45-1.077.59-1.423q.009-.026.007-.055c.191-.469.243-.57.415-.575.142-.003.204.158.229.234.095.281.275.89.36 1.134a.46.46 0 0 0 .229.27q.311-.205.61-.422c.14-.33.483-1.153.638-1.54.008-.02.008-.041.011-.063.18-.442.235-.54.404-.545.141-.003.204.158.229.234.051.155.13.409.204.646q.15-.15.297-.305c-.09-.278-.182-.567-.229-.665a.6.6 0 0 0-.395-.306M9.347 7.167c.06.174.2.3.363.308.06.003.18-.008.289-.12a.2.2 0 0 0 .092-.095c.022-.052.14-.338.262-.646.158-.382.363-.87.469-1.14.005-.01.003-.025.005-.035.188-.458.24-.557.41-.562.141-.003.204.158.228.234.096.281.276.89.36 1.135.06.174.2.3.363.308a.4.4 0 0 0 .338-.178q.033-.027.054-.068c.014-.033.069-.163.137-.332.158-.38.45-1.077.588-1.423.009-.017.009-.036.009-.055.19-.469.242-.57.414-.575.142-.003.204.158.229.234.095.281.275.889.36 1.134.06.175.199.3.362.308a.4.4 0 0 0 .347-.188.2.2 0 0 0 .06-.076c.03-.065.204-.504.36-.889.13-.313.267-.643.348-.85q.004-.01.003-.02c.044-.103.076-.187.11-.261q-.228.015-.456.04c-.145.372-.537 1.378-.712 1.778a.05.05 0 0 1-.084-.019c-.046-.13-.335-1.082-.425-1.284a.55.55 0 0 0-.205-.237q-.413.09-.818.207a2.4 2.4 0 0 0-.207.385s-.548 1.409-.763 1.908a.052.052 0 0 1-.074-.03c-.046-.131-.335-1.082-.425-1.284a.57.57 0 0 0-.36-.314q-.357.162-.7.338a3 3 0 0 0-.17.328s-.523 1.346-.746 1.875c-.028.02-.069.011-.08-.024-.046-.131-.335-1.083-.425-1.284l-.019-.033q-.16.11-.316.226c.03.046.052.098.063.134.098.289.275.894.362 1.142m10.329-3.484a.4.4 0 0 0 .256-.093q-.281-.06-.567-.109a.4.4 0 0 0 .311.202M7.218 8.424a.4.4 0 0 0 .338-.178q.034-.027.055-.068c.013-.032.068-.163.136-.332.158-.38.45-1.077.589-1.423q.01-.026.008-.055l.014-.035q-.338.272-.657.567a45 45 0 0 1-.434 1.068.052.052 0 0 1-.073-.03 22 22 0 0 1-.131-.411q-.152.156-.297.316c.032.106.065.204.087.27.063.177.202.303.365.31m9.97-3.788a.4.4 0 0 0 .338-.178q.033-.027.054-.068c.014-.033.069-.163.137-.332l.308-.742c-.142-.01-.281-.022-.423-.027-.136.343-.275.69-.363.891a.052.052 0 0 1-.073-.03c-.03-.087-.166-.526-.28-.875q-.197.002-.388.011c.098.305.25.818.327 1.041.06.175.2.3.363.309"/><path d="M4.738 11.763a.39.39 0 0 0 .314-.144.2.2 0 0 0 .068-.082c.01-.025.04-.101.084-.205.128-.308.494-1.174.652-1.573.008-.019.008-.04.01-.062.18-.442.235-.54.404-.545.142-.003.205.158.23.234.095.28.274.889.359 1.134.06.175.199.3.363.308a.4.4 0 0 0 .338-.177q.032-.029.054-.068l.136-.333c.159-.379.45-1.077.59-1.423q.009-.025.007-.054c.191-.47.243-.57.415-.576.142-.002.204.159.229.235.095.28.272.889.36 1.134.06.174.199.3.362.308.06.003.18-.008.29-.12a.2.2 0 0 0 .092-.095c.022-.052.139-.338.262-.646.158-.382.362-.87.469-1.14.005-.01.002-.025.005-.035.188-.458.24-.557.409-.562.142-.003.204.158.229.234.095.281.275.89.36 1.135.06.174.199.3.362.308a.4.4 0 0 0 .338-.178q.034-.027.055-.068c.013-.033.068-.163.136-.332.158-.38.45-1.077.589-1.423q.01-.026.008-.055c.19-.469.243-.57.415-.575.141-.003.204.158.229.234.095.281.275.889.36 1.134.06.175.198.3.362.308a.4.4 0 0 0 .346-.188.2.2 0 0 0 .06-.076c.03-.065.204-.504.36-.889.13-.313.267-.643.349-.85q.004-.01.003-.02c.21-.515.256-.618.436-.624.142-.002.204.158.229.235.095.28.275.889.36 1.134.06.174.199.3.362.308a.4.4 0 0 0 .338-.177q.034-.029.055-.068l.136-.333c.158-.379.45-1.077.589-1.423.008-.016.008-.035.008-.055.19-.468.243-.57.414-.575.142-.003.205.158.23.235.095.28.275.888.36 1.134.06.174.198.3.362.308.06.003.18-.008.289-.12a.2.2 0 0 0 .092-.096c.022-.051.14-.338.262-.646.158-.381.363-.87.47-1.14.005-.01.002-.024.005-.035.035-.087.065-.155.092-.218q-.196-.058-.392-.111l-.017.032s-.523 1.347-.747 1.876c-.027.019-.068.01-.079-.025-.046-.13-.335-1.082-.425-1.284a.57.57 0 0 0-.398-.327.55.55 0 0 0-.442.09l-.016.014c-.188.16-.292.39-.373.575 0 0-.548 1.41-.764 1.908a.052.052 0 0 1-.073-.03c-.047-.13-.336-1.082-.426-1.284a.57.57 0 0 0-.398-.327.55.55 0 0 0-.441.09l-.017.014c-.188.16-.291.39-.373.575 0 0-.55 1.423-.766 1.916a.05.05 0 0 1-.085-.019c-.046-.13-.335-1.082-.425-1.284a.57.57 0 0 0-.398-.327.55.55 0 0 0-.442.09l-.016.014c-.188.16-.292.39-.373.575 0 0-.548 1.41-.764 1.908a.052.052 0 0 1-.073-.03c-.047-.13-.336-1.082-.426-1.284a.57.57 0 0 0-.398-.327.55.55 0 0 0-.441.09l-.017.014c-.188.16-.291.39-.373.575 0 0-.523 1.347-.747 1.875a.05.05 0 0 1-.08-.024c-.045-.13-.334-1.082-.424-1.284a.57.57 0 0 0-.398-.327.55.55 0 0 0-.442.09l-.016.013c-.188.161-.292.39-.374.576 0 0-.548 1.409-.763 1.908a.052.052 0 0 1-.074-.03c-.046-.131-.335-1.082-.425-1.284a.57.57 0 0 0-.398-.327.53.53 0 0 0-.384.06c-.164.218-.317.444-.467.67-.098.251-.537 1.377-.733 1.838-.027.01-.06.003-.07-.03-.012-.036-.044-.131-.083-.254q-.117.247-.226.496c.071.175.191.273.33.281M22.16 5.172a.4.4 0 0 0 .338-.178q.033-.027.054-.068c.014-.033.069-.163.137-.332q.013-.034.03-.071-.178-.084-.36-.164l-.147.357a.052.052 0 0 1-.074-.03c-.019-.054-.079-.25-.153-.474a12 12 0 0 0-.444-.166c.09.291.196.643.256.817.06.175.2.298.363.309m-9.705-1.126q-.14.048-.275.098l.01.003a.4.4 0 0 0 .265-.101M3.786 17.398c.142-.003.205.158.23.235.095.28.275.888.36 1.134.06.174.198.3.362.308a.39.39 0 0 0 .313-.145.2.2 0 0 0 .068-.082l.085-.204c.128-.308.493-1.175.651-1.573.009-.02.009-.04.011-.063.18-.441.235-.54.404-.545.142-.003.204.158.229.235.095.28.275.888.36 1.134.06.174.199.3.362.308a.4.4 0 0 0 .338-.178.2.2 0 0 0 .055-.068c.013-.032.068-.163.136-.332.158-.38.45-1.077.589-1.423q.01-.026.008-.055c.191-.469.243-.57.415-.575.141-.003.204.158.228.234.096.281.273.89.36 1.135.06.174.2.3.363.308.06.002.18-.009.289-.12a.2.2 0 0 0 .093-.096c.021-.052.139-.338.261-.646.158-.382.363-.87.47-1.14.005-.01.002-.024.005-.035.188-.458.24-.556.409-.561.141-.003.204.158.229.234.095.28.275.889.36 1.134.06.175.198.3.362.308a.4.4 0 0 0 .338-.177q.033-.029.055-.068l.136-.333c.158-.379.45-1.077.589-1.423q.01-.025.008-.054c.19-.47.242-.57.414-.576.142-.002.205.159.23.235.095.28.274.889.359 1.134.06.174.199.3.363.308a.4.4 0 0 0 .346-.188.2.2 0 0 0 .06-.076c.03-.066.204-.505.36-.89.13-.313.267-.643.349-.85q.003-.009.002-.019c.21-.515.257-.619.436-.624.142-.003.205.158.23.234.095.281.275.89.36 1.134.06.175.198.3.362.308a.4.4 0 0 0 .338-.177q.033-.027.055-.068c.013-.033.068-.163.136-.332.158-.38.45-1.077.589-1.424q.01-.025.008-.054c.19-.469.242-.57.414-.575.142-.003.205.158.23.234.095.281.275.889.359 1.134.06.175.199.3.363.308.06.003.18-.008.288-.12a.2.2 0 0 0 .093-.095c.022-.052.14-.338.262-.646.158-.382.363-.87.469-1.14.005-.01.002-.024.005-.035.188-.458.24-.556.41-.562.14-.002.204.158.228.235.096.28.276.889.36 1.134.06.174.199.3.363.308a.4.4 0 0 0 .338-.177q.032-.029.054-.069c.014-.032.068-.163.136-.332.159-.379.45-1.077.59-1.423.008-.016.005-.035.008-.055.19-.468.242-.57.414-.575.142-.003.204.158.229.235.095.28.275.888.36 1.134.06.174.199.3.362.308a.39.39 0 0 0 .314-.145.2.2 0 0 0 .068-.082c.01-.024.04-.1.084-.204.129-.308.494-1.175.652-1.573.008-.019.008-.04.01-.063.18-.441.235-.54.404-.545.142-.003.205.158.23.235.095.28.275.888.36 1.134.06.174.198.3.362.308a.4.4 0 0 0 .338-.177q.033-.029.054-.069l.137-.332c.117-.278.305-.728.45-1.085a22 22 0 0 0-.29-.385c-.174.445-.488 1.24-.637 1.592a.052.052 0 0 1-.074-.03c-.046-.13-.335-1.082-.425-1.284a.57.57 0 0 0-.398-.327.55.55 0 0 0-.442.09l-.016.014c-.188.16-.292.39-.374.575 0 0-.531 1.371-.752 1.89-.027.01-.06.002-.071-.03-.046-.131-.335-1.083-.425-1.285a.57.57 0 0 0-.398-.327.55.55 0 0 0-.442.09l-.016.014c-.189.16-.292.39-.374.575 0 0-.548 1.41-.763 1.908a.052.052 0 0 1-.074-.03c-.046-.13-.335-1.082-.425-1.284a.57.57 0 0 0-.398-.327.55.55 0 0 0-.442.09l-.016.014c-.188.16-.292.39-.373.575 0 0-.524 1.35-.747 1.876-.028.019-.069.01-.08-.025-.046-.13-.335-1.082-.425-1.284a.57.57 0 0 0-.398-.327.55.55 0 0 0-.441.09l-.017.013c-.188.161-.292.39-.373.576 0 0-.548 1.41-.764 1.908a.052.052 0 0 1-.073-.03c-.047-.13-.335-1.082-.425-1.284a.57.57 0 0 0-.398-.327.55.55 0 0 0-.442.09l-.017.013c-.188.161-.291.39-.373.576 0 0-.55 1.423-.766 1.916a.05.05 0 0 1-.084-.019c-.047-.13-.336-1.082-.426-1.284a.57.57 0 0 0-.398-.327.55.55 0 0 0-.441.09l-.017.013c-.188.161-.291.39-.373.576 0 0-.548 1.41-.764 1.908a.052.052 0 0 1-.073-.03c-.046-.13-.336-1.082-.425-1.284a.57.57 0 0 0-.398-.327.55.55 0 0 0-.442.09l-.016.013c-.188.161-.292.39-.374.576 0 0-.523 1.346-.747 1.875-.027.02-.068.011-.079-.024-.046-.131-.335-1.083-.425-1.284a.57.57 0 0 0-.398-.327.55.55 0 0 0-.442.09l-.016.013c-.188.16-.292.39-.374.575 0 0-.548 1.41-.763 1.909a.052.052 0 0 1-.074-.03c-.046-.131-.335-1.083-.425-1.284a.57.57 0 0 0-.398-.327.55.55 0 0 0-.441.09l-.017.013c-.188.16-.292.39-.373.575 0 0-.532 1.371-.753 1.89-.027.01-.06.002-.07-.03-.047-.131-.336-1.083-.426-1.285a.57.57 0 0 0-.398-.327.55.55 0 0 0-.442.09l-.016.014a1 1 0 0 0-.16.18q.006.437.043.87l.044-.11c.008-.016.008-.035.008-.054.188-.404.24-.504.411-.51"/><path d="M5.119 21.261c.01-.024.04-.1.084-.204.129-.308.494-1.175.652-1.573.008-.02.008-.041.01-.063.18-.442.235-.54.404-.545.142-.003.205.158.23.234.095.28.275.889.36 1.134.06.175.198.3.362.308a.4.4 0 0 0 .338-.177.2.2 0 0 0 .054-.068l.137-.333c.158-.379.45-1.076.588-1.423.009-.016.009-.035.009-.054.19-.47.242-.57.414-.575.142-.003.204.158.229.234.095.28.273.889.36 1.134.06.175.199.3.362.308.06.003.18-.008.29-.12a.2.2 0 0 0 .092-.095c.022-.052.14-.338.262-.646.158-.382.362-.87.469-1.14.005-.01.002-.024.005-.035.188-.458.24-.556.409-.562.142-.003.204.158.229.235.095.28.275.888.36 1.134.06.174.199.3.362.308a.4.4 0 0 0 .338-.177q.034-.028.055-.069c.014-.032.068-.163.136-.332.158-.38.45-1.077.59-1.423q.009-.026.007-.055c.191-.469.243-.57.415-.575.141-.003.204.158.229.234.095.281.275.89.36 1.134.06.175.198.3.362.308a.4.4 0 0 0 .346-.188.2.2 0 0 0 .06-.076c.03-.065.205-.504.36-.889.131-.313.267-.643.35-.85l.002-.02c.21-.514.256-.618.436-.623.142-.003.204.158.229.234.095.28.275.889.36 1.134.06.175.199.3.362.308a.4.4 0 0 0 .338-.177.2.2 0 0 0 .055-.068l.136-.333c.158-.379.45-1.077.59-1.423q.009-.025.007-.054c.191-.47.243-.57.415-.576.141-.002.204.159.229.235.095.28.275.889.36 1.134.06.174.198.3.362.308.06.003.18-.008.289-.12a.2.2 0 0 0 .093-.096c.021-.051.139-.338.261-.646.159-.381.363-.87.47-1.14.005-.01.002-.024.005-.034.188-.459.24-.557.409-.562.141-.003.204.158.229.234.095.281.275.89.36 1.134.06.175.198.3.362.309a.4.4 0 0 0 .338-.178q.033-.027.055-.068c.013-.033.068-.163.136-.332.158-.38.45-1.077.589-1.423q.01-.026.008-.055c.19-.469.243-.57.414-.575.142-.003.205.158.23.234.095.281.275.889.36 1.134.06.175.198.3.362.308a.38.38 0 0 0 .313-.144.2.2 0 0 0 .068-.082l.085-.204c.128-.308.493-1.175.651-1.573.009-.02.009-.041.011-.063.18-.442.235-.54.404-.545.142-.003.204.158.229.234.095.281.275.889.36 1.134.06.175.199.3.362.308a.4.4 0 0 0 .338-.177q.033-.027.055-.068l.136-.333c.158-.379.45-1.077.589-1.423.008-.016.008-.035.008-.054.19-.47.243-.57.415-.575.141-.003.204.158.229.234.095.28.272.889.36 1.134.06.175.198.3.362.308a.4.4 0 0 0 .172-.038 12 12 0 0 0-.172-.425c-.016-.041-.038-.082-.055-.123a14 14 0 0 0-.774-1.502l-.016-.005a.55.55 0 0 0-.442.09l-.016.013c-.188.16-.292.39-.374.575 0 0-.548 1.41-.763 1.909a.052.052 0 0 1-.074-.03c-.046-.131-.335-1.083-.425-1.284a.57.57 0 0 0-.398-.327.55.55 0 0 0-.441.09l-.017.013c-.188.16-.292.39-.373.575 0 0-.532 1.371-.753 1.89-.027.01-.06.002-.07-.03-.047-.131-.336-1.083-.426-1.284a.57.57 0 0 0-.398-.328.55.55 0 0 0-.442.09l-.016.014c-.188.16-.292.39-.373.575 0 0-.548 1.41-.764 1.908a.052.052 0 0 1-.073-.03c-.047-.13-.336-1.082-.426-1.284a.57.57 0 0 0-.398-.327.55.55 0 0 0-.441.09l-.017.014c-.188.16-.291.39-.373.575 0 0-.524 1.347-.747 1.876-.027.019-.068.01-.079-.025-.046-.13-.335-1.082-.425-1.284a.57.57 0 0 0-.398-.327.55.55 0 0 0-.442.09l-.016.014c-.188.16-.292.39-.374.575 0 0-.548 1.41-.763 1.908a.052.052 0 0 1-.074-.03c-.046-.13-.335-1.082-.425-1.284a.57.57 0 0 0-.398-.327.55.55 0 0 0-.442.09l-.016.014c-.188.16-.292.39-.373.575 0 0-.551 1.423-.766 1.916a.05.05 0 0 1-.085-.019c-.046-.13-.335-1.082-.425-1.284a.57.57 0 0 0-.398-.327.55.55 0 0 0-.442.09l-.016.014c-.188.16-.292.39-.374.575 0 0-.548 1.41-.763 1.908a.052.052 0 0 1-.074-.03c-.046-.13-.335-1.082-.425-1.284a.57.57 0 0 0-.398-.327.55.55 0 0 0-.442.09l-.016.014c-.188.16-.292.39-.373.575 0 0-.524 1.346-.747 1.875-.028.02-.069.011-.08-.024-.046-.131-.335-1.082-.425-1.284a.57.57 0 0 0-.398-.327.55.55 0 0 0-.441.09l-.017.013c-.188.161-.291.39-.373.575 0 0-.548 1.41-.763 1.909a.052.052 0 0 1-.074-.03c-.046-.131-.335-1.083-.425-1.284a.57.57 0 0 0-.398-.327.55.55 0 0 0-.442.09l-.02.076c-.187.16-.29.39-.373.575 0 0-.531 1.371-.752 1.89-.027.01-.06.002-.07-.03-.047-.131-.336-1.083-.426-1.285a.57.57 0 0 0-.398-.327.54.54 0 0 0-.4.068q.039.234.09.464c.06-.088.114-.115.2-.117.143-.003.205.158.23.234.095.28.275.889.36 1.134.06.175.199.3.362.308a.39.39 0 0 0 .314-.144.15.15 0 0 0 .068-.074m-.742-7.309c.06.175.2.3.363.308a.39.39 0 0 0 .313-.144.2.2 0 0 0 .068-.082l.085-.204c.128-.309.493-1.175.652-1.573.008-.02.008-.041.01-.063.18-.442.235-.54.404-.545.142-.003.204.158.229.234.095.28.275.889.36 1.134.06.175.199.3.362.308a.4.4 0 0 0 .338-.177.2.2 0 0 0 .055-.068l.136-.333c.158-.379.45-1.076.589-1.423q.01-.025.008-.054c.191-.47.243-.57.415-.575.141-.003.204.158.229.234.095.28.272.889.36 1.134.06.175.198.3.362.308.06.003.18-.008.289-.12a.2.2 0 0 0 .093-.095c.021-.052.139-.338.261-.646.159-.382.363-.87.47-1.14.005-.01.002-.024.005-.035.188-.458.24-.556.409-.562.141-.003.204.158.229.235.095.28.275.888.36 1.134.06.174.198.3.362.308a.4.4 0 0 0 .338-.177q.033-.028.055-.069c.013-.032.068-.163.136-.332.158-.38.45-1.077.589-1.423q.01-.026.008-.055c.19-.469.242-.57.414-.575.142-.003.205.158.23.234.095.281.275.89.36 1.134.06.175.198.3.362.309a.4.4 0 0 0 .346-.189.2.2 0 0 0 .06-.076c.03-.065.204-.504.36-.889.13-.313.267-.643.349-.85q.003-.01.002-.02c.21-.514.257-.618.436-.624.142-.002.205.159.23.235.095.28.275.889.36 1.134.06.174.198.3.362.308a.4.4 0 0 0 .338-.177q.033-.029.055-.068l.136-.333c.158-.379.45-1.077.589-1.423q.01-.025.008-.054c.19-.47.242-.57.414-.576.142-.002.205.158.23.235.095.28.274.889.359 1.134.06.174.2.3.363.308.06.003.18-.008.289-.12a.2.2 0 0 0 .092-.095c.022-.052.14-.338.262-.647.158-.381.363-.87.469-1.14.005-.01.003-.024.005-.034.188-.458.24-.557.41-.562.141-.003.204.158.228.234.096.281.276.89.36 1.134.06.175.2.3.363.308a.4.4 0 0 0 .338-.177q.032-.027.054-.068l.137-.332c.158-.38.45-1.077.588-1.423.008-.017.006-.036.008-.055.191-.469.243-.57.415-.575q.035.002.068.016a17 17 0 0 0-.483-.262c-.147.153-.237.347-.31.507 0 0-.548 1.41-.764 1.909a.052.052 0 0 1-.073-.03c-.047-.131-.336-1.082-.425-1.284a.57.57 0 0 0-.398-.327.55.55 0 0 0-.442.09l-.016.013c-.188.161-.292.39-.374.575 0 0-.523 1.347-.747 1.876a.05.05 0 0 1-.079-.025c-.046-.13-.335-1.082-.425-1.284a.57.57 0 0 0-.398-.327.55.55 0 0 0-.442.09l-.016.014c-.188.16-.292.39-.374.575 0 0-.548 1.41-.763 1.908a.052.052 0 0 1-.074-.03c-.046-.13-.335-1.082-.425-1.284a.57.57 0 0 0-.398-.327.55.55 0 0 0-.441.09l-.017.014c-.188.16-.292.39-.373.575 0 0-.551 1.423-.766 1.917a.05.05 0 0 1-.085-.02c-.046-.13-.335-1.082-.425-1.284a.57.57 0 0 0-.398-.327.55.55 0 0 0-.442.09l-.016.014c-.188.16-.292.39-.374.575 0 0-.548 1.41-.763 1.908a.052.052 0 0 1-.074-.03c-.046-.13-.335-1.082-.425-1.284a.57.57 0 0 0-.398-.327.55.55 0 0 0-.441.09l-.017.014c-.188.16-.292.39-.373.575 0 0-.524 1.347-.747 1.876-.027.019-.068.01-.08-.025-.046-.13-.335-1.082-.425-1.284a.57.57 0 0 0-.398-.327.55.55 0 0 0-.441.09l-.017.014c-.188.16-.291.39-.373.575 0 0-.548 1.41-.763 1.908a.052.052 0 0 1-.074-.03c-.046-.13-.335-1.082-.425-1.284a.57.57 0 0 0-.398-.327.55.55 0 0 0-.442.09l-.016.063c-.188.16-.292.39-.374.575 0 0-.531 1.371-.752 1.889-.027.01-.06.003-.071-.03-.046-.13-.335-1.082-.425-1.284a.6.6 0 0 0-.186-.226q-.076.213-.144.428c.027.043.046.09.057.123.093.283.27.888.357 1.136m19.912-7.54c.06.174.199.3.362.308a.39.39 0 0 0 .314-.145.2.2 0 0 0 .068-.081c.01-.025.04-.101.084-.205l.115-.275c-.109-.082-.22-.158-.333-.237-.076.19-.147.362-.199.485-.027.01-.06.003-.07-.03-.028-.082-.15-.477-.26-.812a12 12 0 0 0-.556-.336.44.44 0 0 1 .118.191c.092.284.27.889.357 1.137m2.841 1.786c.06.002.18-.017.289-.129q-.425-.496-.892-.945c.088.28.186.602.24.766.06.174.2.3.363.308"/><path d="M3.371 15.564c.191-.47.243-.57.415-.576.142-.002.204.158.229.235.095.28.275.888.36 1.134.06.174.199.3.362.308a.39.39 0 0 0 .314-.145.2.2 0 0 0 .068-.081c.01-.025.04-.101.084-.205.128-.308.494-1.175.652-1.573.008-.019.008-.04.01-.062.18-.442.235-.54.404-.546.142-.003.205.158.23.235.095.28.275.888.36 1.134.059.174.198.3.362.308a.4.4 0 0 0 .338-.177q.032-.028.054-.069c.014-.032.068-.163.136-.332.159-.379.45-1.077.59-1.423q.01-.025.008-.055c.19-.469.242-.57.414-.575.142-.003.204.158.229.235.095.28.272.888.36 1.134.06.174.199.3.362.308a.38.38 0 0 0 .29-.12.2.2 0 0 0 .092-.096c.022-.052.139-.338.262-.646.158-.381.362-.87.469-1.14.005-.01.002-.024.005-.035.188-.458.24-.556.409-.561.142-.003.204.158.229.234.095.28.275.889.36 1.134.06.175.199.3.362.308a.4.4 0 0 0 .338-.177q.034-.027.055-.068l.136-.333c.158-.379.45-1.076.589-1.423q.01-.025.008-.054c.191-.47.243-.57.415-.575.141-.003.204.158.229.234.095.28.275.889.36 1.134.06.175.198.3.362.308a.4.4 0 0 0 .346-.188.2.2 0 0 0 .06-.076c.03-.066.205-.505.36-.889.13-.313.267-.643.349-.85q.004-.01.003-.02c.21-.515.256-.619.436-.624.142-.003.204.158.229.235.095.28.275.888.36 1.134.06.174.199.3.362.308a.4.4 0 0 0 .338-.178q.034-.027.055-.068c.014-.032.068-.163.136-.332.158-.38.45-1.077.589-1.423q.01-.026.008-.055c.191-.469.243-.57.415-.575.141-.003.204.158.228.234.096.281.276.89.36 1.134.06.175.2.3.363.309.06.002.18-.009.289-.12a.2.2 0 0 0 .093-.096c.021-.052.139-.338.261-.646.158-.382.363-.87.47-1.14.005-.01.002-.024.005-.035.188-.458.24-.556.409-.561.141-.003.204.158.229.234.095.28.275.889.36 1.134.06.174.198.3.362.308a.4.4 0 0 0 .338-.177q.033-.029.054-.068c.014-.033.069-.164.137-.333.158-.379.45-1.077.589-1.423.008-.016.008-.035.008-.054.19-.47.242-.57.414-.576.142-.002.205.158.23.235.095.28.275.889.36 1.134.059.174.198.3.362.308a.38.38 0 0 0 .313-.145.2.2 0 0 0 .068-.081l.085-.205c.128-.308.493-1.175.651-1.573.009-.019.009-.04.011-.062.09-.221.15-.358.207-.437q-.149-.131-.302-.259c-.101.134-.17.287-.23.415 0 0-.53 1.371-.752 1.889-.027.01-.06.003-.07-.03-.047-.13-.336-1.082-.426-1.284a.57.57 0 0 0-.398-.327.55.55 0 0 0-.441.09l-.017.013c-.188.161-.291.39-.373.576 0 0-.548 1.409-.764 1.908a.052.052 0 0 1-.073-.03c-.047-.13-.335-1.082-.425-1.284a.57.57 0 0 0-.398-.327.55.55 0 0 0-.442.09l-.016.013c-.188.161-.292.39-.374.576 0 0-.523 1.346-.747 1.875-.027.02-.068.011-.079-.024-.046-.131-.335-1.083-.425-1.284a.57.57 0 0 0-.398-.328.55.55 0 0 0-.442.09l-.016.014c-.188.16-.292.39-.374.575 0 0-.548 1.41-.763 1.909a.052.052 0 0 1-.073-.03c-.047-.131-.336-1.083-.426-1.284a.57.57 0 0 0-.398-.328.55.55 0 0 0-.441.09l-.017.014c-.188.16-.292.39-.373.575 0 0-.55 1.423-.766 1.917a.052.052 0 0 1-.085-.02c-.046-.13-.335-1.082-.425-1.283a.57.57 0 0 0-.398-.327.55.55 0 0 0-.442.09l-.016.013c-.188.16-.292.39-.374.575 0 0-.548 1.41-.763 1.909a.052.052 0 0 1-.074-.03c-.046-.131-.335-1.083-.425-1.284a.57.57 0 0 0-.398-.328.55.55 0 0 0-.441.09l-.017.014c-.188.16-.291.39-.373.575 0 0-.524 1.347-.747 1.876-.027.019-.068.01-.08-.025-.046-.13-.335-1.082-.425-1.284a.57.57 0 0 0-.398-.327.55.55 0 0 0-.441.09l-.017.014c-.188.16-.291.39-.373.575 0 0-.548 1.41-.763 1.908a.052.052 0 0 1-.074-.03c-.046-.13-.335-1.082-.425-1.284a.57.57 0 0 0-.398-.327.55.55 0 0 0-.442.09l-.016.014c-.188.16-.292.39-.374.575 0 0-.531 1.371-.752 1.89-.027.01-.06.002-.07-.03-.047-.132-.336-1.083-.426-1.285a.57.57 0 0 0-.398-.327.54.54 0 0 0-.42.079q-.09.515-.14 1.041.019-.042.03-.076c.006.041.006.025.006.005"/></g><path fill="#A14B16" d="M17 0h-.418l-.073.003h-.175l-.109.005h-.057q-1.346.071-2.63.34l.45 2.135A15 15 0 0 1 17 2.181zm-6.13 1.14q-1.06.409-2.05.954l-.005.002-.006.003-.005.003-.005.003-.006.002-.005.003-.006.003-.019.01H8.76l-.005.003h-.003q-.002 0-.003.003l-.002.003-.003.003h-.003l-.002.002q-.002 0-.003.003-.002 0-.003.003l-.003.002-.002.003q-.002 0-.003.003-.002 0-.003.003-.002 0-.003.002l-.002.003q-.004 0-.003.003h-.003l-.005.003h-.003l-.005.002-.028.017-.016.008-.005.003q-.475.266-.927.564l1.191 1.826a15 15 0 0 1 2.742-1.406zm-5.3 3.279q-.005 0 0 0-.006.004-.008.008-.003.004-.006.003l-.005.005-.005.006-.006.005-.005.006-.006.005-.005.006-.006.005-.005.006-.006.005q0 .002-.005.003l-.006.005-.002.003-.006.005-.005.006-.006.005-.005.006-.006.005-.005.006-.005.005-.003.003-.006.005-.002.003-.006.005-.003.003q-.004.003-.005.006l-.003.002q-.003.005-.008.006l-.003.003q-.004.002-.005.005l-.003.003-.005.005-.003.003q-.004.005-.008.005l-.003.003q-.004.005-.008.005l-.003.003q-.003.005-.008.006l-.003.002-.008.009-.003.002-.008.008-.002.003-.009.008-.002.003-.009.008-.002.003-.008.008-.003.003-.008.008-.003.003-.008.008q-.002 0-.003.003l-.008.008q-.002 0-.003.003l-.008.008-.003.003-.008.008-.003.002-.008.009-.003.002-.008.009-.003.002-.008.008-.008.009-.008.008-.008.008-.003.003-.008.008-.008.008-.011.008-.011.008-.016.017-.009.008-.038.038-.008.008q-.003.005-.01.008a17 17 0 0 0-1.866 2.173l1.767 1.276a15 15 0 0 1 2.055-2.3zM1.796 9.383l-.09.186-.003.005-.002.006-.003.005-.003.005-.002.006-.003.005-.003.006-.003.005-.013.03-.003.006v.002q0 .002-.003.003v.003q0 .002-.002.003v.002q0 .002-.003.003v.003l-.003.002q0 .002-.003.003v.003l-.002.003v.002q0 .002-.003.003v.003q0 .002-.003.003v.002q0 .004-.003.003v.003q0 .003-.002.002v.003q0 .004-.003.003v.003q0 .003-.003.002c-.002.009-.008.014-.01.022l-.006.011-.003.006-.003.005-.01.022-.033.07q-.201.434-.376.879l-.003.005-.003.005-.003.006q0 .003-.002.005l-.02.047-.002.005v.003q0 .003-.003.005v.003l-.002.006q0 .002-.003.005v.003q0 .002-.003.005 0 .003-.003.006v.002l-.002.006v.002q0 .003-.003.006v.003q0 .002-.003.005l-.01.03q0 .003-.003.005v.003q0 .004-.003.003v.008q0 .004-.003.003v.019l-.003.003v.011l-.002.002v.003q0 .002-.003.003v.008q0 .002-.003.003v.002q0 .003-.003.006l-.002.005v.011q0 .002-.003.003v.003l-.003.002v.003L1.096 11v.003l-.003.002v.003q0 .003-.003.006v.002q0 .003-.003.006v.002l-.002.006v.003l-.003.005-.003.005q-.298.8-.515 1.63l2.11.551c.259-.992.624-1.963 1.088-2.881zm-1.72 5.992v.033q-.056.608-.068 1.23v.76q0 .037.003.076.016.626.079 1.238v.024l.002.022v.052q.004.046.011.096l2.167-.243a15.2 15.2 0 0 1-.021-3.083zM2.726 21l-2.1.586a17 17 0 0 0 .464 1.412l.003.006.027.073q0 .003.003.006 0 .003.003.005v.003l.002.006v.002q0 .003.003.006v.003q0 .002.003.005 0 .003.002.005v.003q0 .003.003.006l.003.005.008.022v.003q0 .002.003.005v.003l.002.005v.003q0 .004.003.003v.002q0 .003.003.006v.003l.003.002v.022q0 .002.002.003v.002l.003.006v.003l.003.002v.003q0 .003.003.006v.002l.005.014.003.005v.003l.002.006v.002q0 .003.003.006v.011l.003.002v.006q0 .002.003.003v.002q0 .002.002.003v.003l.003.002v.003q0 .003.003.006v.002q0 .003.003.006v.003l.002.005.003.006.01.024q.002.003.004.006l.002.005v.003l.003.005q0 .003.003.005v.003q0 .003.003.006l.002.005v.003l.003.005.003.006.022.052.002.005q.001.005.003.005l.005.011q.296.717.652 1.396L3.86 23.87A15 15 0 0 1 2.726 21m2.401 4.872-1.744 1.306.158.21.008.01.033.044.008.01.008.012.008.01.008.012.009.01.008.011v.003l.008.008v.003l.008.008.003.003.008.008v.003l.008.01v.003l.008.009v.002l.009.009.002.002.009.008.002.003.008.008.003.003.008.008v.003l.009.008q0 .002.002.003l.008.008.003.003q.005.003.006.008 0 .002.002.003.005.003.006.008 0 .002.002.003l.009.008.002.003.011.01q.005.005.006.009l.002.002q.005.004.006.009l.003.002.005.008.003.003.005.008.003.003q.005.004.005.008l.003.003q.005.004.006.008l.002.003q.005.004.006.008l.003.003.005.008.003.003.005.008.003.003.005.008.003.003.006.008.002.005q.003.005.006.006l.002.005q.003.005.006.005l.003.003.005.008.003.003.005.008.003.003q.003.005.005.005l.003.003q.003.005.006.006l.002.005.011.011q0 .003.006.005l.005.006.006.005.002.006.006.005.002.006.006.005.005.006.006.005.005.006.003.005q.003.005.005.005l.003.006.006.005.005.006.006.005.005.006q.004.002.003.005l.005.006.006.005.002.005q.003.005.006.006l.003.003q.002.004.005.005L4.04 28q.004.004.005.008l.003.003q.003.005.005.005l.006.006.005.008.003.003.005.008.003.003q.005.003.006.008l.002.002q.005.005.006.009l.003.002.005.008.003.003.005.008.011.011q0 .002.003.003.005.004.005.008l.003.003q.005.004.005.008l.003.003q.005.003.006.008l.002.003q.005.003.006.008v.003l.019.021.008.009.008.008.008.008q.02.02.039.044l.008.008.008.008.027.033.003.002.008.008.008.009.008.008q.02.02.039.044l.008.008.038.04.016.017.008.008.003.003q.016.016.03.033l.008.008.009.008.038.04.008.009.008.008.03.033.008.008.017.016q.013.017.03.03l.008.009.002.002.009.008.002.003.009.008v.003l.008.008.01.011.009.008.003.003.008.008.002.003.009.008.002.003q.005.004.006.008l.003.003.005.005.005.006q.003.004.006.005l.003.003.005.005.003.003.005.006.003.002.005.006.003.002.006.006.002.003.006.005.005.005.006.006.005.005.006.006.002.003.006.005.003.003q.002.005.005.005l.003.003.005.005.006.006.005.005.005.006.006.005.005.006.006.005.01.011.006.005.006.006.005.005.006.006.005.005.003.003.005.006.003.002.005.006.006.005.005.006.006.005.005.005.003.003.005.006.003.002.006.006.002.002.006.006.002.003q.005.003.006.008l.003.003.005.005.003.003.005.005.003.003.008.008.003.003.008.008.003.003.008.008.003.003.008.008.003.003.008.008.002.002.009.009.002.002.009.009.002.002.008.009.003.002.008.008.003.003.008.008.003.003.008.008.003.003.008.008.003.003.008.008.003.003.008.008.003.003.008.008.008.008.008.008.008.008.009.008.008.009.008.008q.021.019.038.038.278.27.57.524l1.44-1.639a14.4 14.4 0 0 1-2.084-2.246m4 3.688-1.162 1.846a16 16 0 0 0 .377.229l.005.003.005.002.036.022h.003l.005.003h.003l.005.002h.003l.003.003h.002l.003.003.003.003.003.002h.002l.003.003h.003l.002.003q.002 0 .003.003.002 0 .003.002.004 0 .003.003h.002q.004 0 .003.003.002 0 .003.002c0 .003.003 0 .003.003l.002.003.014.008h.003q.003.002.002.003h.003l.006.002h.002l.006.003.005.003q.004.001.003.003H8.5l.002.002h.003l.006.003.005.003.005.003.044.024q.496.283 1.011.535l.006.002.005.003.041.019.006.003h.002l.006.002h.003q.003 0 .002.003h.003q.001.002.005.003h.003q.003 0 .006.003h.002l.006.002.005.003h.003q.003 0 .005.003h.003l.006.002h.002l.006.003.027.014q.004 0 .003.003h.003q.003 0 .002.002l.003.003q.002 0 .003.003h.002l.003.003h.003q.002 0 .003.002h.002q.002 0 .003.003.002 0 .003.003.002 0 .003.002h.002q.004 0 .003.003h.003l.002.003q.002 0 .003.003h.003l.005.002h.003l.006.003.005.003.005.003.006.002h.003q.002 0 .005.003h.003l.005.003.006.002.005.003.006.003.005.003.006.002.038.017.013.005.006.003.005.003.006.002q.601.279 1.226.507l.753-2.047a14.5 14.5 0 0 1-2.775-1.355m5.051 1.993-.412 2.143q.5.098 1.012.163l.087.011q.006 0 .014.003.006 0 .013.003l.014.002q.006 0 .014.003l.06.008q.007 0 .01.003.009 0 .011.003.008 0 .014.002.006 0 .014.003l.046.006h.071l.033.002h1.916q.11 0 .215-.002l-.035-2.181q-.126.002-.254.002c-.97.093-1.921.003-2.843-.174m8.4-.815c-.952.387-1.947.673-2.961.853l.381 2.148a17 17 0 0 0 3.4-.981zm4.574-2.939a15 15 0 0 1-2.454 1.87l1.134 1.862.011-.005.011-.008.01-.006h.004q.003-.003.01-.005h.003l.011-.006h.003l.01-.005h.004l.01-.006h.003l.011-.005q.002 0 .003-.003l.008-.005.003-.003.008-.006q.002 0 .003-.002l.008-.006.002-.003.009-.005.002-.003.009-.005.002-.003.009-.005q.002 0 .002-.003l.008-.005q.004 0 .003-.003l.008-.006q.004-.001.003-.002l.008-.006q.004-.002.003-.003l.008-.005.006-.003.008-.005.005-.003.006-.005q0-.002.005-.003l.008-.005q.004-.001.003-.003l.008-.006.006-.002.008-.006q.001-.002.005-.003.005-.002.006-.005.005-.003.005-.006l.006-.002q.004-.003.005-.006l.005-.002.009-.006.005-.003.006-.002q.004-.003.005-.006l.006-.003q.004-.002.005-.005.003-.004.005-.003l.006-.002.008-.006.003-.003.008-.005.003-.003.008-.005q.002 0 .003-.003l.008-.005.002-.003.014-.008h.003l.008-.006q.002 0 .003-.003l.008-.005h.003q.003-.005.008-.005.002 0 .003-.003l.008-.006h.003q.003-.004.01-.005.02-.012.036-.024.004-.005.01-.006.726-.478 1.396-1.025.004-.005.011-.008l.044-.036.008-.008.003-.003.008-.008.003-.002.008-.009q.006-.003.01-.01l.004-.003q.003-.005.008-.006l.002-.002.009-.006.002-.003.009-.005.002-.003.009-.005.002-.003.006-.005.005-.006.006-.005.005-.006.006-.005.005-.003q.005-.003.005-.005l.006-.003q.005-.003.005-.006l.006-.002.005-.006q.003-.001.006-.005l.005-.006.006-.005.002-.003.006-.005.003-.003.005-.005q.003-.004.005-.003l.006-.006.005-.005.006-.006.005-.002.008-.006.003-.002.008-.006.003-.003q.004-.004.008-.005l.003-.003q.004-.005.008-.005l.003-.003.008-.008.003-.003.008-.008q.002 0 .003-.003l.008-.008.002-.003.009-.008.002-.003.009-.008.002-.003.008-.008.009-.008q.003-.004.01-.008l.012-.008.008-.008.019-.017.03-.027q.228-.2.45-.409zm3.214-4.383a15 15 0 0 1-1.62 2.625l1.729 1.33q.266-.344.512-.7l.003-.006q.002-.001.003-.005v-.003l.003-.003v-.003q.001-.003.002-.002v-.003q.002-.001.003-.005v-.003l.003-.006.002-.005.003-.006.003-.005v-.003l.003-.002.002-.003q0-.002.003-.003 0-.002.003-.003l.002-.002q0-.002.003-.003 0-.002.003-.003l.003-.003.002-.002.003-.003q0-.002.003-.003l.002-.003.003-.002.003-.003v-.003l.003-.002v-.003l.021-.03.003-.006.003-.005.003-.005.002-.006.003-.005.003-.006q.455-.675.845-1.39l.003-.006.002-.005.006-.01.024-.047.003-.006.003-.005.003-.006.002-.005v-.003l.003-.005v-.003l.003-.005v-.003q0-.004.003-.003l.008-.016.002-.006v-.002q0-.004.003-.003v-.003q0-.004.003-.003v-.002q0-.002.003-.003 0-.002.002-.003 0-.002.003-.003l.003-.002q0-.002.002-.003v-.003l.003-.002q0-.002.003-.003 0-.002.003-.003 0-.002.002-.003v-.002l.003-.003v-.003q.002-.001.003-.005v-.003l.014-.024.002-.006.003-.005.003-.006.002-.005.003-.006.003-.005.002-.006q.131-.25.254-.504zm1.41-5.245a14.6 14.6 0 0 1-.56 3.03l2.091.617q.141-.478.254-.965l.002-.014q0-.004.003-.005 0-.005.003-.005v-.025q0-.003.003-.006l.002-.005v-.011q0-.003.003-.005v-.009l.006-.027v-.12q.008-.035.013-.07v-.012q.12-.556.196-1.125v-.232q.052-.416.088-.837zm1.518-6.033-2.091.624c.291.981.482 2 .567 3.029l2.172-.175a17 17 0 0 0-.409-2.579q0-.004-.002-.005 0-.005-.003-.006 0-.004-.003-.005 0-.005-.002-.006 0-.004-.003-.005l-.006-.02-.01-.04q0-.005-.003-.005 0-.003-.003-.006v-.101q0-.002-.003-.005v-.008l-.002-.014-.003-.014v-.109q0-.002-.003-.005l-.022-.082q0-.003-.002-.005 0-.003-.003-.006 0-.003-.003-.005 0-.003-.003-.006-.004-.012-.005-.024c-.074-.142-.114-.281-.155-.417m-2.85-5.545-1.722 1.336a15 15 0 0 1 1.627 2.62l1.963-.952a18 18 0 0 0-.43-.832l-.003-.005v-.003l-.003-.005-.003-.006-.003-.005-.002-.006v-.002l-.003-.006-.003-.005-.005-.011-.003-.006-.002-.005v-.003l-.003-.002q0-.002-.003-.003l-.003-.003-.002-.003-.003-.002q0-.002-.003-.003 0-.002-.003-.003 0-.002-.002-.003l-.003-.002q0-.002-.003-.003 0-.002-.003-.003 0-.003-.002-.002V8.66q0-.004-.003-.003v-.003q0-.003-.003-.002V8.65q-.001-.004-.002-.003l-.009-.016-.002-.006-.006-.01-.003-.006-.002-.005-.003-.006-.003-.005-.002-.006c-.009-.013-.017-.03-.025-.043l-.003-.006-.002-.005a18 18 0 0 0-.731-1.159l-.003-.005-.002-.006-.003-.005-.003-.006-.003-.005-.002-.006q-.002 0-.003-.005-.007-.012-.014-.02l-.002-.005q-.002 0-.003-.005l-.003-.003v-.002l-.003-.003-.002-.003-.003-.003-.003-.002-.003-.003q0-.002-.002-.003l-.003-.003-.003-.002q0-.002-.002-.003l-.003-.003-.003-.002-.003-.003-.002-.003-.017-.022-.002-.005-.003-.006-.003-.005-.003-.006-.002-.005c-.161-.215-.314-.423-.47-.624M25.79 2.445 24.66 4.31c.88.532 1.706 1.159 2.459 1.862l1.488-1.592a17 17 0 0 0-1.286-1.09l-.055-.041-.01-.009q-.706-.536-1.467-.995M19.952.256l-.376 2.148c1.014.178 2.009.461 2.963.846l.815-2.023a17 17 0 0 0-1.736-.592h-.003q-.003 0-.005-.003h-.055L21.549.63q-.004 0-.005-.003a13 13 0 0 0-1.592-.37M17 0v2.18q.104-.001.21.004l.03-2.181q-.05-.004-.101-.003z"/><path fill="#FFD4A9" d="M17.017 32.168h-.078a.255.255 0 0 1-.253-.255c0-.14.12-.265.256-.253H17a.26.26 0 0 1 .261.253.247.247 0 0 1-.244.255m2.514-.212a.255.255 0 0 1-.25-.209.25.25 0 0 1 .207-.293l.075-.015a.25.25 0 0 1 .294.206.25.25 0 0 1-.207.294l-.072.011q-.026.005-.047.006m-5.103-.009-.044-.002-.075-.015a.253.253 0 1 1 .087-.5l.075.015a.253.253 0 0 1-.043.502m7.614-.653a.254.254 0 0 1-.084-.494l.07-.025a.254.254 0 0 1 .174.476l-.073.026a.2.2 0 0 1-.087.017m-10.125-.014a.3.3 0 0 1-.087-.015l-.073-.026a.256.256 0 0 1-.15-.325.256.256 0 0 1 .324-.151l.07.026c.13.05.2.195.151.325a.25.25 0 0 1-.235.166m12.486-1.074a.253.253 0 0 1-.125-.473l.064-.038a.25.25 0 0 1 .345.093.25.25 0 0 1-.093.345l-.067.038a.22.22 0 0 1-.125.035m-14.843-.02a.26.26 0 0 1-.128-.036l-.067-.037a.253.253 0 1 1 .253-.439l.067.038c.121.07.162.227.092.346a.25.25 0 0 1-.217.127m16.976-1.46a.253.253 0 0 1-.163-.447l.059-.05a.253.253 0 1 1 .328.386l-.058.05a.26.26 0 0 1-.166.06M7.417 28.69a.24.24 0 0 1-.15-.055l-.024-.017-.035-.03a.253.253 0 1 1 .325-.388l.038.032c.108.09.13.258.04.365a.25.25 0 0 1-.194.093m20.966-1.794a.25.25 0 0 1-.166-.06.256.256 0 0 1-.026-.358l.046-.055a.253.253 0 1 1 .39.325l-.053.061a.27.27 0 0 1-.192.087M5.59 26.858a.26.26 0 0 1-.194-.09l-.05-.058a.253.253 0 1 1 .39-.325l.049.058a.253.253 0 0 1-.195.415m24.292-2.084a.252.252 0 0 1-.218-.383l.038-.064a.253.253 0 1 1 .439.253l-.038.066a.25.25 0 0 1-.22.128m-25.79-.038a.26.26 0 0 1-.22-.124l-.038-.067a.253.253 0 1 1 .441-.25l.038.064a.26.26 0 0 1-.09.348.3.3 0 0 1-.13.03m26.902-2.31a.3.3 0 0 1-.087-.015.256.256 0 0 1-.15-.325l.025-.073a.256.256 0 0 1 .325-.15.255.255 0 0 1 .151.325l-.026.072a.25.25 0 0 1-.238.166M2.99 22.385a.26.26 0 0 1-.238-.166l-.026-.075a.256.256 0 0 1 .154-.325c.13-.046.276.02.325.154l.023.07a.25.25 0 0 1-.148.325.3.3 0 0 1-.09.017m28.687-2.468c-.014 0-.032 0-.046-.002a.254.254 0 0 1-.203-.296l.011-.073a.25.25 0 0 1 .294-.206.25.25 0 0 1 .206.293l-.015.078a.245.245 0 0 1-.247.207m-29.363-.043a.26.26 0 0 1-.25-.21l-.011-.072a.257.257 0 0 1 .206-.296.25.25 0 0 1 .293.204l.012.072a.254.254 0 0 1-.204.296c-.014.006-.032.006-.046.006m29.601-2.543a.253.253 0 0 1-.252-.255v-.137a.253.253 0 0 1 .505 0v.142c0 .137-.113.25-.253.25m-29.83-.044a.253.253 0 0 1-.253-.252v-.076a.253.253 0 0 1 .505 0v.076a.25.25 0 0 1-.252.252m.22-2.589q-.021 0-.043-.003a.25.25 0 0 1-.206-.293l.014-.081a.254.254 0 0 1 .5.096l-.015.07a.26.26 0 0 1-.25.211m29.387-.02a.255.255 0 0 1-.25-.215l-.011-.07a.254.254 0 0 1 .499-.093l.014.082a.25.25 0 0 1-.211.29.2.2 0 0 1-.041.006M2.97 12.187a.253.253 0 0 1-.238-.34l.026-.072a.256.256 0 0 1 .325-.151c.13.05.198.194.151.325l-.026.07a.26.26 0 0 1-.238.168m28.054-.02a.26.26 0 0 1-.24-.172l-.024-.066a.25.25 0 0 1 .148-.326.25.25 0 0 1 .325.151l.03.079a.254.254 0 0 1-.158.322q-.038.01-.08.012m-26.96-2.34a.253.253 0 0 1-.22-.38l.038-.067a.255.255 0 0 1 .438.258l-.038.064a.25.25 0 0 1-.218.125m25.866-.015a.25.25 0 0 1-.22-.13l-.036-.061a.255.255 0 0 1 .09-.349.253.253 0 0 1 .349.09l.04.07a.254.254 0 0 1-.098.345.25.25 0 0 1-.125.035M5.55 7.696a.253.253 0 0 1-.194-.415l.052-.064a.253.253 0 1 1 .38.334l-.043.055a.26.26 0 0 1-.194.09m22.89-.014a.26.26 0 0 1-.194-.09l-.046-.056a.253.253 0 1 1 .386-.328l.05.061a.253.253 0 0 1-.033.357.27.27 0 0 1-.162.056M7.383 5.852a.25.25 0 0 1-.194-.09.256.256 0 0 1 .029-.356l.058-.05a.253.253 0 1 1 .325.39l-.058.049a.23.23 0 0 1-.16.058m19.221-.011a.26.26 0 0 1-.163-.058l-.037-.032c-.108-.09-.131-.258-.041-.366s.238-.13.346-.04l.023.017.034.03c.108.09.122.249.032.356a.24.24 0 0 1-.194.093M9.507 4.358a.26.26 0 0 1-.22-.128.25.25 0 0 1 .093-.346l.064-.037a.26.26 0 0 1 .348.09.26.26 0 0 1-.09.348l-.067.038a.3.3 0 0 1-.128.035m14.971-.012a.26.26 0 0 1-.128-.035l-.067-.038a.253.253 0 1 1 .253-.438l.067.038c.122.07.162.226.093.345a.24.24 0 0 1-.218.128M11.856 3.252a.25.25 0 0 1-.238-.169.253.253 0 0 1 .15-.325l.07-.026a.25.25 0 0 1 .326.15.253.253 0 0 1-.151.326l-.073.026a.2.2 0 0 1-.084.018m10.27-.01a.3.3 0 0 1-.084-.014l-.072-.026a.254.254 0 0 1 .174-.476l.07.026c.133.047.2.192.154.325a.26.26 0 0 1-.241.166m-7.762-.67a.25.25 0 0 1-.25-.209.25.25 0 0 1 .207-.293l.072-.012a.25.25 0 0 1 .293.207.25.25 0 0 1-.206.293l-.075.014c-.012-.003-.026 0-.04 0m5.252-.003q-.023 0-.044-.002l-.075-.012a.25.25 0 0 1-.207-.293.25.25 0 0 1 .294-.206l.075.011a.25.25 0 0 1 .206.293.255.255 0 0 1-.25.21m-2.587-.229h-.076a.253.253 0 0 1 0-.505h.05c.14 0 .267.113.267.253 0 .139-.102.252-.241.252"/><path fill="url(#b)" d="M17.11 8.5c.557 0 1.05.319 1.293.831l1.663 3.514c.065.14.188.235.33.257l3.715.561c.535.082.976.458 1.15.984a1.5 1.5 0 0 1-.348 1.535l-2.685 2.737a.52.52 0 0 0-.134.436l.635 3.866c.074.442-.049.886-.332 1.218a1.43 1.43 0 0 1-1.088.513c-.232 0-.466-.06-.676-.177l-3.323-1.821a.39.39 0 0 0-.393 0l-3.32 1.826c-.21.115-.444.177-.679.177-.414 0-.81-.185-1.088-.512a1.5 1.5 0 0 1-.332-1.219l.632-3.863a.5.5 0 0 0-.133-.436l-2.688-2.734a1.51 1.51 0 0 1-.35-1.535 1.44 1.44 0 0 1 1.151-.984l3.713-.567a.44.44 0 0 0 .33-.256l1.66-3.517a1.43 1.43 0 0 1 1.298-.834m0-.273c-.662 0-1.253.38-1.54.99l-1.66 3.516c-.027.058-.073.096-.122.104l-3.713.567a1.72 1.72 0 0 0-1.369 1.167 1.77 1.77 0 0 0 .415 1.81l2.688 2.734c.049.05.07.126.057.202l-.633 3.866a1.77 1.77 0 0 0 .393 1.436c.327.387.799.608 1.295.608a1.7 1.7 0 0 0 .81-.21l3.32-1.826a.14.14 0 0 1 .065-.017q.033 0 .066.017l3.323 1.824c.25.136.529.21.807.21.496 0 .967-.221 1.295-.608.335-.396.477-.92.392-1.44l-.635-3.863a.25.25 0 0 1 .057-.201l2.686-2.737a1.77 1.77 0 0 0 .411-1.81 1.72 1.72 0 0 0-1.368-1.167l-3.716-.562a.17.17 0 0 1-.123-.104L18.648 9.22a1.69 1.69 0 0 0-1.537-.993" opacity=".6" style="mix-blend-mode:multiply"/><path fill="url(#c)" d="m20.324 13.598 3.713.561c.769.117 1.077 1.104.52 1.671l-2.685 2.737c-.22.227-.321.551-.27.867l.636 3.863c.13.802-.674 1.412-1.36 1.033l-3.321-1.818a.9.9 0 0 0-.872 0l-3.32 1.827c-.69.379-1.495-.232-1.364-1.034l.633-3.865a1 1 0 0 0-.27-.867l-2.69-2.734c-.557-.568-.252-1.557.517-1.674l3.713-.567a.94.94 0 0 0 .706-.537l1.66-3.517a.92.92 0 0 1 1.682 0l1.663 3.514a.95.95 0 0 0 .709.54" opacity=".6" style="mix-blend-mode:multiply"/></g><defs><linearGradient id="b" x1="10.243" x2="24.704" y1="22.496" y2="13.189" gradientUnits="userSpaceOnUse"><stop offset=".053" stop-color="#CF8368"/><stop offset=".394" stop-color="#BA4D27"/><stop offset=".69" stop-color="#893E25"/><stop offset="1" stop-color="#713723"/></linearGradient><linearGradient id="c" x1="8.751" x2="26.313" y1="23.456" y2="12.155" gradientUnits="userSpaceOnUse"><stop offset=".053" stop-color="#CF8368"/><stop offset=".394" stop-color="#BA4D27"/><stop offset=".69" stop-color="#893E25"/><stop offset="1" stop-color="#713723"/></linearGradient><clipPath id="a"><path fill="#fff" d="M0 0h34v34H0z"/></clipPath></defs></svg>