<svg xmlns="http://www.w3.org/2000/svg" width="21" height="20" fill="none"><path fill="currentColor" fill-rule="evenodd" d="M3.732 1.566A2.5 2.5 0 0 1 5.5.833h6.667c.22 0 .433.088.589.244l5 5a.83.83 0 0 1 .244.59v10a2.5 2.5 0 0 1-2.5 2.5h-10a2.5 2.5 0 0 1-2.5-2.5V3.333a2.5 2.5 0 0 1 .732-1.767M5.5 2.5a.833.833 0 0 0-.833.833v13.334a.833.833 0 0 0 .833.833h10a.833.833 0 0 0 .833-.833V7.5h-4.166a.833.833 0 0 1-.834-.833V2.5zM13 3.679l2.155 2.154H13zM6.333 7.5c0-.46.373-.833.834-.833h1.666a.833.833 0 1 1 0 1.666H7.167a.833.833 0 0 1-.834-.833m0 3.333c0-.46.373-.833.834-.833h6.666a.833.833 0 1 1 0 1.667H7.167a.833.833 0 0 1-.834-.834m0 3.334c0-.46.373-.834.834-.834h6.666a.833.833 0 1 1 0 1.667H7.167a.833.833 0 0 1-.834-.833" clip-rule="evenodd"/></svg>