<svg xmlns="http://www.w3.org/2000/svg" width="20" height="20" fill="none"><path fill="currentColor" d="M3.967 8.825a.84.84 0 0 0 .216-1.667l-1.466-.366A.834.834 0 1 0 2.283 8.4l1.467.392a.7.7 0 0 0 .217.033m3.216-4.658a.83.83 0 0 0 .834.616.7.7 0 0 0 .216 0 .833.833 0 0 0 .584-1.016L8.425 2.3a.833.833 0 1 0-1.608.433zm4.025 8.333a.835.835 0 0 0-1.208 0l-2.917 2.967a1.84 1.84 0 0 1-2.55 0 1.79 1.79 0 0 1 0-2.55L7.5 10a.833.833 0 1 0-1.175-1.175l-2.992 2.908a3.489 3.489 0 0 0 4.934 4.934l2.941-2.942a.833.833 0 0 0 0-1.225M4.317 5.492a.833.833 0 0 0 1.175 0 .833.833 0 0 0 0-1.175L4.417 3.242a.833.833 0 0 0-1.175 1.175zm13.4 6.108-1.467-.392a.834.834 0 1 0-.417 1.609l1.467.391h.217a.84.84 0 1 0 .216-1.666zm-4.9 4.233a.833.833 0 0 0-1.609.434l.392 1.466a.83.83 0 0 0 .833.617 1 1 0 0 0 .217 0 .833.833 0 0 0 .592-1.025zm2.866-1.308a.833.833 0 0 0-1.175 1.175l1.075 1.075a.833.833 0 0 0 1.175 0 .833.833 0 0 0 0-1.175zm1.984-8.692a3.466 3.466 0 0 0-5.934-2.5L8.792 6.3A.851.851 0 1 0 10 7.5l2.917-2.967a1.84 1.84 0 0 1 2.55 0 1.79 1.79 0 0 1 0 2.55L12.5 10a.833.833 0 0 0 0 1.175.833.833 0 0 0 1.175 0l2.992-2.908a3.5 3.5 0 0 0 1-2.434"/></svg>