<svg xmlns="http://www.w3.org/2000/svg" width="28" height="28" fill="none"><path fill="currentColor" d="M20.592 16.925h-3.775a.834.834 0 0 0 0 1.667h2A6.666 6.666 0 0 1 7.333 14a.833.833 0 1 0-1.666 0 8.333 8.333 0 0 0 14.066 6.025V21.5a.833.833 0 0 0 1.667 0v-3.75a.834.834 0 0 0-.808-.825M14 5.667a8.33 8.33 0 0 0-5.733 2.308V6.5a.833.833 0 0 0-1.667 0v3.75a.833.833 0 0 0 .833.833h3.75a.833.833 0 0 0 0-1.666h-2A6.667 6.667 0 0 1 20.667 14a.833.833 0 0 0 1.666 0A8.333 8.333 0 0 0 14 5.667"/></svg>