<svg xmlns="http://www.w3.org/2000/svg" width="34" height="36" fill="none"><path fill="currentColor" d="M14.834 14.927c.266.149.556.223.845.223.313 0 .625-.087.906-.26l4.509-2.773a1.72 1.72 0 0 0 .824-1.474 1.72 1.72 0 0 0-.824-1.475l-4.509-2.773a1.71 1.71 0 0 0-1.751-.037 1.71 1.71 0 0 0-.887 1.511v5.547c0 .636.332 1.2.887 1.51m.533-7.058a.3.3 0 0 1 .16-.271.3.3 0 0 1 .153-.042.3.3 0 0 1 .161.048l4.509 2.774c.128.079.148.2.148.265 0 .064-.02.185-.148.264l-4.509 2.774a.3.3 0 0 1-.314.006.3.3 0 0 1-.16-.271z"/><path fill="currentColor" d="M4.197 20.056h25.96a1.91 1.91 0 0 0 1.906-1.906V1.907A1.91 1.91 0 0 0 30.157 0H4.197A1.91 1.91 0 0 0 2.29 1.907V18.15c0 1.051.856 1.906 1.907 1.906M3.71 1.906c0-.268.219-.486.487-.486h25.96c.268 0 .486.218.486.487V18.15a.487.487 0 0 1-.486.486H4.197a.487.487 0 0 1-.487-.486zM30.778 26.5v-.933a3.931 3.931 0 0 0-7.156-2.252 3.93 3.93 0 0 0-6.445 0 3.93 3.93 0 0 0-6.446 0 3.931 3.931 0 0 0-7.155 2.252v.933a3.94 3.94 0 0 0-3.223 3.87v4.275c0 .392.318.71.71.71H33.29a.71.71 0 0 0 .71-.71V30.37a3.94 3.94 0 0 0-3.222-3.869m-3.933-3.446a2.516 2.516 0 0 1 2.513 2.513v.933a3.94 3.94 0 0 0-2.513 1.617 3.94 3.94 0 0 0-2.513-1.617v-.933a2.516 2.516 0 0 1 2.513-2.513m-6.445 0a2.516 2.516 0 0 1 2.512 2.513v.933a3.94 3.94 0 0 0-2.512 1.617 3.94 3.94 0 0 0-2.513-1.617v-.933a2.516 2.516 0 0 1 2.513-2.513m-6.446 0a2.516 2.516 0 0 1 2.513 2.513v.933a3.94 3.94 0 0 0-2.513 1.617 3.94 3.94 0 0 0-2.513-1.617v-.933a2.516 2.516 0 0 1 2.513-2.513m-6.445 0a2.516 2.516 0 0 1 2.512 2.513v.933a3.94 3.94 0 0 0-2.512 1.617A3.94 3.94 0 0 0 4.996 26.5v-.933a2.516 2.516 0 0 1 2.513-2.513M1.773 30.37a2.516 2.516 0 0 1 2.513-2.513 2.516 2.516 0 0 1 2.513 2.513v3.565H1.773zm6.446 0a2.516 2.516 0 0 1 2.512-2.513 2.515 2.515 0 0 1 2.513 2.513v3.565H8.219zm6.445 0a2.516 2.516 0 0 1 2.513-2.513 2.515 2.515 0 0 1 2.512 2.513v3.565h-5.025zm6.446 0a2.516 2.516 0 0 1 2.512-2.513 2.516 2.516 0 0 1 2.513 2.513v3.565H21.11zm11.47 3.565h-5.025V30.37a2.516 2.516 0 0 1 2.513-2.513 2.516 2.516 0 0 1 2.513 2.513z"/></svg>