<svg xmlns="http://www.w3.org/2000/svg" width="36" height="36" fill="none"><path fill="currentColor" d="m34.29 30.282-8.5-8.468a13.94 13.94 0 0 0 2.335-7.751C28.125 6.308 21.817 0 14.063 0 6.308 0 0 6.308 0 14.063c0 7.754 6.308 14.062 14.063 14.062 2.78 0 5.448-.805 7.75-2.334l8.5 8.467a2.8 2.8 0 0 0 1.988.825c.751 0 1.457-.293 1.989-.824a2.8 2.8 0 0 0 .824-1.989c0-.751-.293-1.458-.824-1.989m-12.807-5.973a12.55 12.55 0 0 1-7.42 2.41c-6.98 0-12.657-5.678-12.657-12.657 0-6.978 5.678-12.656 12.657-12.656 6.978 0 12.656 5.678 12.656 12.657 0 2.684-.834 5.25-2.41 7.42a12.7 12.7 0 0 1-2.826 2.826m1.475.637a14 14 0 0 0 1.988-1.988l1.995 1.995a17 17 0 0 1-1.988 1.988zm10.337 8.318a1.4 1.4 0 0 1-.994.412c-.375 0-.728-.146-.994-.412l-5.357-5.326a18.5 18.5 0 0 0 1.988-1.988l5.358 5.326c.265.265.412.618.412.994s-.147.728-.413.994"/></svg>