<svg xmlns="http://www.w3.org/2000/svg" width="36" height="36" fill="none"><path fill="currentColor" d="m35.468 14.88-4.358-1.09c-.23-.721-.52-1.42-.861-2.086l2.309-3.848a.7.7 0 0 0-.106-.86l-3.449-3.448a.7.7 0 0 0-.859-.106l-3.848 2.31a14 14 0 0 0-2.086-.862L21.12.533A.7.7 0 0 0 20.439 0h-4.876a.7.7 0 0 0-.682.533L13.79 4.89c-.72.23-1.418.518-2.085.861l-3.85-2.309a.7.7 0 0 0-.858.106l-3.45 3.449a.7.7 0 0 0-.105.859l2.31 3.848a13.6 13.6 0 0 0-.862 2.086L.533 14.88a.7.7 0 0 0-.533.682v4.876c0 .323.22.604.533.683l4.357 1.09c.23.72.52 1.42.861 2.085l-2.309 3.848a.7.7 0 0 0 .106.86l3.449 3.448a.7.7 0 0 0 .859.106l3.849-2.31c.666.343 1.365.631 2.085.862l1.09 4.357a.7.7 0 0 0 .682.533h4.876c.323 0 .604-.22.683-.533l1.09-4.357c.719-.23 1.418-.52 2.084-.861l3.85 2.309c.276.166.63.122.858-.106l3.449-3.449a.7.7 0 0 0 .106-.859l-2.31-3.848c.342-.666.631-1.365.862-2.086l4.357-1.09a.7.7 0 0 0 .533-.682v-4.876a.7.7 0 0 0-.532-.682m-.874 5.01-4.211 1.052a.7.7 0 0 0-.505.488 12.4 12.4 0 0 1-1.052 2.546.7.7 0 0 0 .012.702l2.232 3.72-2.673 2.672-3.72-2.232a.7.7 0 0 0-.7-.012c-.801.441-1.658.796-2.547 1.052a.7.7 0 0 0-.488.505l-1.053 4.21h-3.778l-1.054-4.21a.7.7 0 0 0-.487-.505c-.89-.256-1.746-.61-2.546-1.052a.7.7 0 0 0-.702.012l-3.72 2.232-2.672-2.673 2.232-3.72a.7.7 0 0 0 .012-.7 12.3 12.3 0 0 1-1.052-2.547.7.7 0 0 0-.505-.488l-4.21-1.052v-3.78l4.21-1.053a.7.7 0 0 0 .505-.487 12.3 12.3 0 0 1 1.052-2.546.7.7 0 0 0-.012-.702L4.93 7.602 7.603 4.93l3.72 2.232a.7.7 0 0 0 .7.012 12.3 12.3 0 0 1 2.547-1.052.7.7 0 0 0 .488-.505l1.053-4.21h3.778l1.053 4.21a.7.7 0 0 0 .488.505c.888.256 1.745.61 2.546 1.052.22.121.487.117.702-.012l3.72-2.232 2.672 2.673-2.232 3.72a.7.7 0 0 0-.012.701c.44.798.795 1.654 1.052 2.546.07.241.262.427.505.488l4.21 1.052z"/><path fill="currentColor" d="M24.61 24.61a.703.703 0 1 0 0-1.407.703.703 0 0 0 0 1.406"/><path fill="currentColor" d="M18 8.438c-5.273 0-9.562 4.29-9.562 9.562 0 5.273 4.29 9.563 9.562 9.563a9.6 9.6 0 0 0 4.439-1.094.703.703 0 1 0-.655-1.245 8.16 8.16 0 0 1-3.784.932c-4.497 0-8.156-3.659-8.156-8.156S13.503 9.844 18 9.844s8.156 3.659 8.156 8.156a8.1 8.1 0 0 1-.552 2.952.703.703 0 0 0 1.31.51A9.5 9.5 0 0 0 27.562 18c0-5.273-4.29-9.562-9.562-9.562"/></svg>