<svg width="14" height="14" viewBox="0 0 14 14" fill="none" xmlns="http://www.w3.org/2000/svg">
<path d="M11.3333 0H2C1.46957 0 0.960859 0.210714 0.585786 0.585786C0.210714 0.960859 0 1.46957 0 2V8.66667C0 9.1971 0.210714 9.70581 0.585786 10.0809C0.960859 10.456 1.46957 10.6667 2 10.6667H3.76L3.37333 11.3333C3.25631 11.536 3.1947 11.766 3.1947 12C3.1947 12.234 3.25631 12.464 3.37333 12.6667C3.49137 12.8711 3.66157 13.0406 3.86655 13.1577C4.07152 13.2748 4.30393 13.3354 4.54 13.3333H8.84667C9.08048 13.3331 9.31013 13.2714 9.51256 13.1544C9.71499 13.0373 9.88309 12.8692 10 12.6667C10.117 12.464 10.1786 12.234 10.1786 12C10.1786 11.766 10.117 11.536 10 11.3333L9.60667 10.6667H11.3333C11.8638 10.6667 12.3725 10.456 12.7475 10.0809C13.1226 9.70581 13.3333 9.1971 13.3333 8.66667V2C13.3333 1.46957 13.1226 0.960859 12.7475 0.585786C12.3725 0.210714 11.8638 0 11.3333 0ZM4.51333 12L5.33333 10.6667H8L8.8 12H4.51333ZM12 8.66667C12 8.84348 11.9298 9.01305 11.8047 9.13807C11.6797 9.26309 11.5101 9.33333 11.3333 9.33333H2C1.82319 9.33333 1.65362 9.26309 1.5286 9.13807C1.40357 9.01305 1.33333 8.84348 1.33333 8.66667V8H12V8.66667ZM12 6.66667H1.33333V2C1.33333 1.82319 1.40357 1.65362 1.5286 1.5286C1.65362 1.40357 1.82319 1.33333 2 1.33333H11.3333C11.5101 1.33333 11.6797 1.40357 11.8047 1.5286C11.9298 1.65362 12 1.82319 12 2V6.66667Z" fill="currentColor"/>
</svg>
