<svg width="11" height="14" viewBox="0 0 11 14" fill="none" xmlns="http://www.w3.org/2000/svg">
<path d="M5.33333 0C3.91885 0 2.56229 0.561903 1.5621 1.5621C0.561903 2.56229 0 3.91885 0 5.33333C0 8.93333 4.7 13 4.9 13.1733C5.02076 13.2766 5.17443 13.3334 5.33333 13.3334C5.49224 13.3334 5.64591 13.2766 5.76667 13.1733C6 13 10.6667 8.93333 10.6667 5.33333C10.6667 3.91885 10.1048 2.56229 9.10457 1.5621C8.10438 0.561903 6.74782 0 5.33333 0V0ZM5.33333 11.7667C3.91333 10.4333 1.33333 7.56 1.33333 5.33333C1.33333 4.27247 1.75476 3.25505 2.50491 2.50491C3.25505 1.75476 4.27247 1.33333 5.33333 1.33333C6.3942 1.33333 7.41162 1.75476 8.16176 2.50491C8.91191 3.25505 9.33333 4.27247 9.33333 5.33333C9.33333 7.56 6.75333 10.44 5.33333 11.7667ZM5.33333 2.66667C4.80592 2.66667 4.29034 2.82306 3.85181 3.11608C3.41328 3.4091 3.07149 3.82557 2.86965 4.31284C2.66782 4.80011 2.61501 5.33629 2.71791 5.85357C2.8208 6.37086 3.07478 6.84601 3.44772 7.21895C3.82066 7.59189 4.29581 7.84587 4.81309 7.94876C5.33038 8.05166 5.86655 7.99885 6.35382 7.79701C6.84109 7.59518 7.25757 7.25338 7.55059 6.81485C7.8436 6.37632 8 5.86075 8 5.33333C8 4.62609 7.71905 3.94781 7.21895 3.44772C6.71885 2.94762 6.04058 2.66667 5.33333 2.66667ZM5.33333 6.66667C5.06963 6.66667 4.81184 6.58847 4.59257 6.44196C4.37331 6.29545 4.20241 6.08721 4.10149 5.84358C4.00058 5.59994 3.97417 5.33185 4.02562 5.07321C4.07707 4.81457 4.20405 4.57699 4.39052 4.39052C4.57699 4.20405 4.81457 4.07707 5.07321 4.02562C5.33185 3.97417 5.59994 4.00058 5.84358 4.10149C6.08721 4.20241 6.29545 4.37331 6.44196 4.59257C6.58847 4.81184 6.66667 5.06963 6.66667 5.33333C6.66667 5.68696 6.52619 6.02609 6.27614 6.27614C6.02609 6.52619 5.68696 6.66667 5.33333 6.66667Z" fill="currentColor"/>
</svg>
