<svg width="14" height="10" viewBox="0 0 14 10" fill="none" xmlns="http://www.w3.org/2000/svg">
<path d="M3.33333 6.66667H5.33333C5.51014 6.66667 5.67971 6.59643 5.80474 6.4714C5.92976 6.34638 6 6.17681 6 6C6 5.82319 5.92976 5.65362 5.80474 5.5286C5.67971 5.40357 5.51014 5.33333 5.33333 5.33333H3.33333C3.15652 5.33333 2.98695 5.40357 2.86193 5.5286C2.7369 5.65362 2.66667 5.82319 2.66667 6C2.66667 6.17681 2.7369 6.34638 2.86193 6.4714C2.98695 6.59643 3.15652 6.66667 3.33333 6.66667ZM11.3333 0H2C1.46957 0 0.960859 0.210714 0.585786 0.585787C0.210714 0.960859 0 1.46957 0 2V8C0 8.53043 0.210714 9.03914 0.585786 9.41421C0.960859 9.78929 1.46957 10 2 10H11.3333C11.8638 10 12.3725 9.78929 12.7475 9.41421C13.1226 9.03914 13.3333 8.53043 13.3333 8V2C13.3333 1.46957 13.1226 0.960859 12.7475 0.585787C12.3725 0.210714 11.8638 0 11.3333 0ZM12 8C12 8.17681 11.9298 8.34638 11.8047 8.47141C11.6797 8.59643 11.5101 8.66667 11.3333 8.66667H2C1.82319 8.66667 1.65362 8.59643 1.5286 8.47141C1.40357 8.34638 1.33333 8.17681 1.33333 8V4H12V8ZM12 2.66667H1.33333V2C1.33333 1.82319 1.40357 1.65362 1.5286 1.5286C1.65362 1.40357 1.82319 1.33333 2 1.33333H11.3333C11.5101 1.33333 11.6797 1.40357 11.8047 1.5286C11.9298 1.65362 12 1.82319 12 2V2.66667Z" fill="currentColor"/>
</svg>
