<svg width="15" height="15" viewBox="0 0 15 15" fill="none" xmlns="http://www.w3.org/2000/svg">
<path d="M7.33333 0C11.3834 0 14.6667 3.28325 14.6667 7.33333C14.6667 11.3834 11.3834 14.6667 7.33333 14.6667C3.28325 14.6667 0 11.3834 0 7.33333C0 3.28325 3.28325 0 7.33333 0ZM1.37109 8C1.64652 10.491 3.44596 12.5218 5.81706 13.1393C4.79956 11.6097 4.18331 9.84188 4.03385 8H1.37109ZM10.6328 8C10.4833 9.842 9.86658 11.6097 8.84896 13.1393C11.2204 12.522 13.0201 10.4912 13.2956 8H10.6328ZM5.37435 8C5.54177 9.80784 6.2212 11.5293 7.33333 12.9629C8.44547 11.5293 9.12489 9.80784 9.29232 8H5.37435ZM8.84896 1.52669C9.86675 3.05645 10.4833 4.82449 10.6328 6.66667H13.2956C13.0201 4.17537 11.2204 2.14396 8.84896 1.52669ZM7.33333 1.70313C6.22101 3.13683 5.54179 4.85865 5.37435 6.66667H9.29232C9.12488 4.85865 8.44566 3.13683 7.33333 1.70313ZM5.81706 1.52669C3.44589 2.14415 1.64652 4.17559 1.37109 6.66667H4.03385C4.18333 4.82461 4.79938 3.05638 5.81706 1.52669Z" fill="currentColor"/>
</svg>
