<svg xmlns="http://www.w3.org/2000/svg" width="32" height="33" fill="none"><path fill="currentColor" d="M22.787 3.915a10.67 10.67 0 0 0-8.907-2.213 10.67 10.67 0 0 0-8.36 8.427 10.76 10.76 0 0 0 2.293 8.866 6.05 6.05 0 0 1 1.52 3.827v4a4 4 0 0 0 4 4h5.334a4 4 0 0 0 4-4v-3.747a6.9 6.9 0 0 1 1.626-4.253 10.667 10.667 0 0 0-1.506-14.933zM20 26.822a1.333 1.333 0 0 1-1.333 1.333h-5.334A1.333 1.333 0 0 1 12 26.822v-1.334h8zm2.227-9.653A9.5 9.5 0 0 0 20 22.822h-8a8.67 8.67 0 0 0-2.133-5.547 8 8 0 0 1 4.52-12.96A8 8 0 0 1 24 12.155a7.85 7.85 0 0 1-1.773 5.014"/><path fill="currentColor" d="M21.333 10.822c.48.48.48 1.26 0 1.74l-5.283 5.592c-.48.48-1.26.48-1.74 0l-3.283-3.282a1.23 1.23 0 0 1 1.74-1.74l2.412 2.41 4.414-4.72a1.23 1.23 0 0 1 1.74 0"/></svg>