<svg xmlns="http://www.w3.org/2000/svg" width="32" height="33" fill="none"><path fill="currentColor" fill-rule="evenodd" d="M14.667 4.155a2.222 2.222 0 0 0 0 4.445h2.222a2.222 2.222 0 1 0 0-4.445zM11.21 2.92a4.9 4.9 0 0 1 3.457-1.431h2.222a4.89 4.89 0 0 1 4.704 3.555h1.074a4.89 4.89 0 0 1 4.889 4.889v16a4.89 4.89 0 0 1-4.89 4.889H8.89A4.89 4.89 0 0 1 4 25.933v-16a4.89 4.89 0 0 1 4.889-4.889h1.074A4.9 4.9 0 0 1 11.21 2.92M9.963 7.71H8.89a2.22 2.22 0 0 0-2.222 2.223v16a2.22 2.22 0 0 0 2.222 2.222h13.778a2.22 2.22 0 0 0 2.222-2.222v-16a2.22 2.22 0 0 0-2.222-2.222h-1.075a4.89 4.89 0 0 1-4.703 3.555h-2.222a4.89 4.89 0 0 1-4.704-3.555" clip-rule="evenodd"/><path fill="currentColor" d="M21.523 15.85c.48.481.48 1.26 0 1.741l-6.564 6.564c-.48.48-1.26.48-1.74 0l-3.283-3.282a1.23 1.23 0 1 1 1.74-1.74l2.413 2.411 5.693-5.693a1.23 1.23 0 0 1 1.741 0"/></svg>