<svg xmlns="http://www.w3.org/2000/svg" width="33" height="33" fill="none"><g fill="currentColor" clip-path="url(#a)"><path d="M23.645 3.25a10.67 10.67 0 0 0-8.907-2.214 10.67 10.67 0 0 0-8.36 8.427 10.76 10.76 0 0 0 2.293 8.866 6.05 6.05 0 0 1 1.52 3.827v4a4 4 0 0 0 4 4h5.334a4 4 0 0 0 4-4V22.41a6.9 6.9 0 0 1 1.626-4.253 10.667 10.667 0 0 0-1.506-14.933zm-2.787 22.906a1.333 1.333 0 0 1-1.333 1.333H14.19a1.333 1.333 0 0 1-1.333-1.333v-1.333h8zm2.227-9.653a9.5 9.5 0 0 0-2.227 5.653h-8a8.67 8.67 0 0 0-2.133-5.547 8 8 0 0 1 4.52-12.96 8 8 0 0 1 9.613 7.84 7.85 7.85 0 0 1-1.773 5.014"/><path fill-rule="evenodd" d="M16.462 9.644a.8.8 0 0 1-.364-1.558 5 5 0 0 1 1.117-.128h-.002c1.875 0 3.294 1.07 4.195 2.03a9.5 9.5 0 0 1 1.309 1.78c.164.292.261.604.09.923a9 9 0 0 1-1.053 1.556.8.8 0 1 1-1.224-1.03q.36-.428.65-.903a8 8 0 0 0-.94-1.23c-.968-1.034-2.34-1.777-3.778-1.44m-1.936 1.114a7.4 7.4 0 0 0-1.28 1.557l.077.12c.196.305.487.708.863 1.11.766.816 1.791 1.524 3.027 1.524.536 0 .98-.081 1.353-.271l1.164 1.164c-.764.536-1.64.707-2.517.707-1.875 0-3.294-1.07-4.194-2.03a9.5 9.5 0 0 1-1.381-1.911l-.02-.038-.006-.012-.002-.004v-.001a.8.8 0 0 1 .01-.738 9 9 0 0 1 1.774-2.31zm3.522 3.538a2.132 2.132 0 0 1-2.817-2.817z" clip-rule="evenodd"/><path fill-rule="evenodd" d="M12.623 7.724a.8.8 0 0 1 1.132 0l7.77 7.714a.8.8 0 0 1-1.132 1.132l-.663-.608-1.164-1.164-4.04-4.04-1.132-1.132-.77-.77a.8.8 0 0 1 0-1.132" clip-rule="evenodd"/></g><defs><clipPath id="a"><path fill="#fff" d="M.667.155h32v32h-32z"/></clipPath></defs></svg>