<svg xmlns="http://www.w3.org/2000/svg" width="16" height="17" fill="none"><path fill="currentColor" d="M8 5.513a.667.667 0 0 0-.667.666v2.667a.667.667 0 1 0 1.334 0V6.18A.667.667 0 0 0 8 5.513m.613 5.746a.5.5 0 0 0-.06-.12l-.08-.1a.67.67 0 0 0-.726-.14.8.8 0 0 0-.22.14.67.67 0 0 0-.14.727.6.6 0 0 0 .36.36.63.63 0 0 0 .506 0 .6.6 0 0 0 .36-.36.7.7 0 0 0 .054-.253 1 1 0 0 0 0-.133.4.4 0 0 0-.054-.12M8 2.18a6.667 6.667 0 1 0 0 13.334A6.667 6.667 0 0 0 8 2.179m0 12A5.334 5.334 0 1 1 8 3.513 5.334 5.334 0 0 1 8 14.18"/></svg>