<svg width="16" height="16" viewBox="0 0 16 16" fill="none" xmlns="http://www.w3.org/2000/svg">
<path d="M14 6.99992H13.3333V6.33325C13.3333 6.15644 13.2631 5.98687 13.1381 5.86185C13.013 5.73682 12.8435 5.66659 12.6667 5.66659C12.4898 5.66659 12.3203 5.73682 12.1953 5.86185C12.0702 5.98687 12 6.15644 12 6.33325V6.99992H11.3333C11.1565 6.99992 10.9869 7.07016 10.8619 7.19518C10.7369 7.3202 10.6667 7.48977 10.6667 7.66658C10.6667 7.8434 10.7369 8.01297 10.8619 8.13799C10.9869 8.26301 11.1565 8.33325 11.3333 8.33325H12V8.99992C12 9.17673 12.0702 9.3463 12.1953 9.47132C12.3203 9.59635 12.4898 9.66658 12.6667 9.66658C12.8435 9.66658 13.013 9.59635 13.1381 9.47132C13.2631 9.3463 13.3333 9.17673 13.3333 8.99992V8.33325H14C14.1768 8.33325 14.3464 8.26301 14.4714 8.13799C14.5964 8.01297 14.6667 7.8434 14.6667 7.66658C14.6667 7.48977 14.5964 7.3202 14.4714 7.19518C14.3464 7.07016 14.1768 6.99992 14 6.99992ZM8.86666 8.14659C9.22238 7.83867 9.50769 7.45784 9.70324 7.02993C9.89879 6.60203 10 6.13706 9.99999 5.66659C9.99999 4.78253 9.6488 3.93468 9.02368 3.30956C8.39856 2.68444 7.55072 2.33325 6.66666 2.33325C5.78261 2.33325 4.93476 2.68444 4.30964 3.30956C3.68452 3.93468 3.33333 4.78253 3.33333 5.66659C3.33332 6.13706 3.43453 6.60203 3.63008 7.02993C3.82563 7.45784 4.11094 7.83867 4.46666 8.14659C3.53342 8.56917 2.74164 9.2516 2.18598 10.1123C1.63033 10.973 1.33431 11.9755 1.33333 12.9999C1.33333 13.1767 1.40357 13.3463 1.52859 13.4713C1.65361 13.5963 1.82318 13.6666 1.99999 13.6666C2.17681 13.6666 2.34638 13.5963 2.4714 13.4713C2.59642 13.3463 2.66666 13.1767 2.66666 12.9999C2.66666 11.9391 3.08809 10.9216 3.83823 10.1715C4.58838 9.42135 5.6058 8.99992 6.66666 8.99992C7.72753 8.99992 8.74494 9.42135 9.49509 10.1715C10.2452 10.9216 10.6667 11.9391 10.6667 12.9999C10.6667 13.1767 10.7369 13.3463 10.8619 13.4713C10.9869 13.5963 11.1565 13.6666 11.3333 13.6666C11.5101 13.6666 11.6797 13.5963 11.8047 13.4713C11.9298 13.3463 12 13.1767 12 12.9999C11.999 11.9755 11.703 10.973 11.1473 10.1123C10.5917 9.2516 9.7999 8.56917 8.86666 8.14659V8.14659ZM6.66666 7.66658C6.2711 7.66658 5.88442 7.54929 5.55552 7.32952C5.22662 7.10976 4.97028 6.7974 4.8189 6.43195C4.66753 6.0665 4.62792 5.66437 4.70509 5.2764C4.78226 4.88844 4.97274 4.53208 5.25245 4.25237C5.53215 3.97267 5.88852 3.78219 6.27648 3.70501C6.66444 3.62784 7.06658 3.66745 7.43203 3.81883C7.79748 3.9702 8.10984 4.22655 8.3296 4.55544C8.54936 4.88434 8.66666 5.27102 8.66666 5.66659C8.66666 6.19702 8.45595 6.70573 8.08087 7.0808C7.7058 7.45587 7.19709 7.66658 6.66666 7.66658Z" fill="#6E99EC"/>
</svg>
