<svg width="31" height="32" viewBox="0 0 31 32" fill="none" xmlns="http://www.w3.org/2000/svg">
<path d="M21.2231 16.4125C22.2236 15.5465 23.0261 14.4754 23.576 13.2719C24.126 12.0684 24.4107 10.7607 24.4106 9.4375C24.4106 6.9511 23.4229 4.56653 21.6648 2.80837C19.9066 1.05022 17.522 0.0625 15.0356 0.0625C12.5492 0.0625 10.1647 1.05022 8.40652 2.80837C6.64837 4.56653 5.66064 6.9511 5.66064 9.4375C5.66063 10.7607 5.94527 12.0684 6.49525 13.2719C7.04524 14.4754 7.84769 15.5465 8.84814 16.4125C6.22341 17.601 3.99652 19.5204 2.43373 21.941C0.870948 24.3617 0.0384043 27.1812 0.0356445 30.0625C0.0356445 30.5598 0.233189 31.0367 0.584819 31.3883C0.93645 31.74 1.41336 31.9375 1.91064 31.9375C2.40793 31.9375 2.88484 31.74 3.23647 31.3883C3.5881 31.0367 3.78564 30.5598 3.78564 30.0625C3.78564 27.0788 4.97091 24.2173 7.08069 22.1075C9.19048 19.9978 12.052 18.8125 15.0356 18.8125C18.0193 18.8125 20.8808 19.9978 22.9906 22.1075C25.1004 24.2173 26.2856 27.0788 26.2856 30.0625C26.2856 30.5598 26.4832 31.0367 26.8348 31.3883C27.1864 31.74 27.6634 31.9375 28.1606 31.9375C28.6579 31.9375 29.1348 31.74 29.4865 31.3883C29.8381 31.0367 30.0356 30.5598 30.0356 30.0625C30.0329 27.1812 29.2003 24.3617 27.6376 21.941C26.0748 19.5204 23.8479 17.601 21.2231 16.4125ZM15.0356 15.0625C13.9231 15.0625 12.8356 14.7326 11.9106 14.1145C10.9855 13.4964 10.2646 12.6179 9.83882 11.5901C9.41308 10.5623 9.30169 9.43126 9.51873 8.34012C9.73577 7.24897 10.2715 6.2467 11.0582 5.46002C11.8448 4.67335 12.8471 4.13763 13.9383 3.92058C15.0294 3.70354 16.1604 3.81493 17.1882 4.24068C18.2161 4.66642 19.0946 5.38739 19.7127 6.31242C20.3307 7.23744 20.6606 8.32498 20.6606 9.4375C20.6606 10.9293 20.068 12.3601 19.0131 13.415C17.9582 14.4699 16.5275 15.0625 15.0356 15.0625Z" fill="currentColor"/>
</svg>
