<svg xmlns="http://www.w3.org/2000/svg" width="34" height="41" fill="none"><path fill="currentColor" d="M29.946 16.387H14.672a4.6 4.6 0 0 0 1.136-3.029 4.627 4.627 0 0 0-4.622-4.621 4.627 4.627 0 0 0-4.621 4.621A4.6 4.6 0 0 0 7.7 16.387H4.054A4 4 0 0 0 .06 20.383v4.714a.8.8 0 0 0 1.598 0v-4.714a2.4 2.4 0 0 1 2.397-2.398H26.43a2.4 2.4 0 0 1 2.397 2.398v4.315h-8.31a4 4 0 0 0-3.997 3.996 4 4 0 0 0 3.996 3.995h8.311v4.315a2.4 2.4 0 0 1-2.397 2.398H4.054a2.4 2.4 0 0 1-2.397-2.398v-4.72a.8.8 0 0 0-1.598 0v4.72A4 4 0 0 0 4.054 41h25.892a4 4 0 0 0 3.995-3.996V20.383a4 4 0 0 0-3.995-3.996m-18.76-6.052a3.027 3.027 0 0 1 3.024 3.023 3.027 3.027 0 0 1-3.024 3.023 3.027 3.027 0 0 1-3.023-3.023 3.027 3.027 0 0 1 3.023-3.023m18.438 7.65h.322a2.4 2.4 0 0 1 2.397 2.398v4.315h-1.918v-4.315c0-.9-.298-1.73-.801-2.398M18.119 28.694a2.4 2.4 0 0 1 2.397-2.398h11.827v4.795H20.516a2.4 2.4 0 0 1-2.397-2.398m11.827 10.708h-.322a3.98 3.98 0 0 0 .801-2.398V32.69h1.918v4.315a2.4 2.4 0 0 1-2.397 2.398"/><path fill="currentColor" d="M20.312 27.894a.8.8 0 0 0-.566.234.804.804 0 0 0 0 1.13c.15.149.355.235.566.235s.415-.086.565-.235a.8.8 0 0 0 .234-.565.8.8 0 0 0-.234-.565.8.8 0 0 0-.565-.234M22.814 11a4.627 4.627 0 0 0 4.622-4.62 4.627 4.627 0 0 0-4.622-4.622 4.627 4.627 0 0 0-4.622 4.621 4.627 4.627 0 0 0 4.622 4.622m0-7.644a3.027 3.027 0 0 1 3.023 3.023 3.027 3.027 0 0 1-3.023 3.024 3.027 3.027 0 0 1-3.023-3.024 3.027 3.027 0 0 1 3.023-3.023m-7.805 4.521a.8.8 0 0 0 .8-.8V.8a.8.8 0 1 0-1.6 0v6.28a.8.8 0 0 0 .8.799m-3.836-2.765a.8.8 0 0 0 .799-.799V.8a.8.8 0 0 0-1.598 0v3.516a.8.8 0 0 0 .799.8M.858 29.493a.805.805 0 0 0 .8-.8.8.8 0 0 0-.235-.565.8.8 0 0 0-.565-.234.8.8 0 0 0-.565.234.8.8 0 0 0-.234.565c0 .21.085.417.234.565a.8.8 0 0 0 .565.235"/></svg>