<svg width="10" height="11" viewBox="0 0 10 11" fill="none" xmlns="http://www.w3.org/2000/svg">
<path d="M6.17495 5.67956L9.75828 2.10456C9.9152 1.94764 10.0034 1.73481 10.0034 1.51289C10.0034 1.29097 9.9152 1.07814 9.75828 0.921224C9.60136 0.764304 9.38853 0.676147 9.16662 0.676147C8.9447 0.676147 8.73187 0.764304 8.57495 0.921224L4.99995 4.50456L1.42495 0.921224C1.26803 0.764304 1.0552 0.676147 0.833283 0.676147C0.611364 0.676147 0.398536 0.764304 0.241616 0.921224C0.084696 1.07814 -0.00346064 1.29097 -0.00346065 1.51289C-0.00346065 1.73481 0.084696 1.94764 0.241616 2.10456L3.82495 5.67956L0.241616 9.25456C0.163509 9.33203 0.101514 9.42419 0.0592065 9.52574C0.0168993 9.62729 -0.00488281 9.73621 -0.00488281 9.84622C-0.00488281 9.95623 0.0168993 10.0652 0.0592065 10.1667C0.101514 10.2683 0.163509 10.3604 0.241616 10.4379C0.319085 10.516 0.411252 10.578 0.512802 10.6203C0.614351 10.6626 0.723273 10.6844 0.833283 10.6844C0.943292 10.6844 1.05221 10.6626 1.15376 10.6203C1.25531 10.578 1.34748 10.516 1.42495 10.4379L4.99995 6.85456L8.57495 10.4379C8.65242 10.516 8.74459 10.578 8.84614 10.6203C8.94769 10.6626 9.05661 10.6844 9.16662 10.6844C9.27663 10.6844 9.38555 10.6626 9.4871 10.6203C9.58865 10.578 9.68081 10.516 9.75828 10.4379C9.83639 10.3604 9.89839 10.2683 9.94069 10.1667C9.983 10.0652 10.0048 9.95623 10.0048 9.84622C10.0048 9.73621 9.983 9.62729 9.94069 9.52574C9.89839 9.42419 9.83639 9.33203 9.75828 9.25456L6.17495 5.67956Z" fill="#6E99EC"/>
</svg>
