<svg width="143" height="45" viewBox="0 0 143 45" fill="none" xmlns="http://www.w3.org/2000/svg">
<path d="M140.851 27.5064C141.284 26.591 141.517 25.5756 141.517 24.5103V17.3695C141.517 13.4579 138.354 10.2953 134.443 10.2953H129.017C127.585 10.2953 126.27 10.7114 125.155 11.4438C122.958 11.4438 120.86 11.9432 118.979 12.8087C117.664 11.061 115.584 9.97905 113.337 9.97905C112.887 9.97905 112.438 10.029 111.972 10.1122C109.841 10.5283 107.727 11.1442 105.647 11.9432C103.549 11.1442 101.402 10.5283 99.2382 10.1122C98.7888 10.029 98.3394 9.97905 97.89 9.97905C97.2242 9.97905 89.584 10.6116 89.5507 10.2953C89.3177 8.14808 88.1359 6.15065 86.1551 4.9522C83.0924 3.10458 79.6635 2.13916 76.2512 2.13916C69.9094 2.13916 64.8825 5.55143 62.7187 10.7947C60.8877 10.2454 58.807 9.91247 56.4434 9.91247C52.6983 9.91247 49.3526 10.8446 45.5408 10.6615C40.8635 10.6615 35.87 10.6449 31.2426 10.2953C29.8111 10.2953 28.4961 10.7114 27.3809 11.4438C25.5166 11.4438 23.7522 11.81 22.0877 12.4425C21.7881 11.2774 21.2388 10.1954 20.3899 9.2966C19.0583 7.8984 17.2107 7.09943 15.2632 7.09943H9.08782C7.15698 7.09943 5.29272 7.8984 3.9611 9.2966C1.69735 11.6769 2.03026 14.44 2.27994 17.4361C2.71271 22.8125 1.66406 27.9559 1.66406 33.2823C1.66406 39.0915 6.3913 43.8021 12.1838 43.8021C14.8304 43.8021 17.2273 42.82 19.0916 41.2054C19.0084 41.272 23.7023 43.4026 24.185 43.5358C31.5256 45.4666 39.5153 42.4705 43.1106 35.6792L46.3564 35.2964C47.1887 36.5614 48.3871 37.5602 49.8353 38.0762C50.551 41.2221 53.3641 43.5691 56.743 43.5691C67.6789 43.5691 78.6648 43.2528 89.584 43.6689C91.0155 43.7189 92.3138 43.8687 93.762 43.6024C94.228 43.5191 97.3906 42.1209 97.4739 42.1542C99.8375 43.336 102.601 44.0018 105.613 44.0018C109.708 44.0018 113.37 42.7701 116.166 40.6728C118.946 42.8034 122.425 44.0684 126.27 44.0684C133.427 44.0684 138.854 40.6062 141.55 34.331C142.532 32.0173 142.2 29.4539 140.851 27.5064Z" fill="#A2CFDD"/>
<path d="M139.187 25.8419C139.62 24.9264 139.853 23.9111 139.853 22.8458V15.705C139.853 11.7933 136.69 8.63076 132.779 8.63076H127.352C125.921 8.63076 124.606 9.04689 123.491 9.77928C121.294 9.77928 119.196 10.2786 117.315 11.1442C116 9.39644 113.92 8.3145 111.673 8.3145C111.223 8.3145 110.774 8.36444 110.308 8.44766C108.177 8.86379 106.063 9.47966 103.983 10.2786C101.885 9.47966 99.7381 8.86379 97.5742 8.44766C97.1248 8.36444 96.6753 8.3145 96.2259 8.3145C95.5601 8.3145 87.92 8.94702 87.8867 8.63076C87.6536 6.48353 86.4718 4.4861 84.491 3.28765C81.4283 1.44003 77.9994 0.474609 74.5872 0.474609C68.2453 0.474609 63.2185 3.88688 61.0546 9.13011C59.2236 8.58082 57.143 8.24792 54.7794 8.24792C51.0342 8.24792 47.6885 9.18005 43.8768 8.99695C39.1995 8.99695 34.2059 8.98031 29.5785 8.63076C28.147 8.63076 26.8321 9.04689 25.7168 9.77928C23.8526 9.77928 22.0882 10.1455 20.4237 10.778C20.1241 9.61283 19.5748 8.53089 18.7259 7.63205C17.3942 6.23385 15.5466 5.43488 13.5991 5.43488H7.42376C5.49292 5.43488 3.62865 6.23385 2.29704 7.63205C0.0499356 10.0123 0.38284 12.7754 0.615873 15.7716C1.04865 21.148 0 26.2913 0 31.6178C0 37.427 4.72724 42.1376 10.5198 42.1376C13.1664 42.1376 15.5633 41.1555 17.4275 39.5409C17.3443 39.6075 22.0382 41.7381 22.521 41.8712C29.8615 43.8021 37.8512 40.8059 41.4466 34.0147L44.6924 33.6319C45.5246 34.8969 46.7231 35.8956 48.1712 36.4116C48.887 39.5575 51.7 41.9045 55.079 41.9045C66.0149 41.9045 77.0007 41.5883 87.92 42.0044C89.3514 42.0543 90.6498 42.2041 92.0979 41.9378C92.564 41.8546 95.7266 40.4564 95.8098 40.4897C98.1734 41.6715 100.937 42.3373 103.949 42.3373C108.044 42.3373 111.706 41.1055 114.502 39.0083C117.282 41.1388 120.761 42.4039 124.606 42.4039C131.763 42.4039 137.19 38.9417 139.886 32.6664C140.868 30.3527 140.535 27.7894 139.187 25.8419Z" fill="white"/>
<path d="M7.07422 31.618C7.07422 29.7038 8.60558 28.1724 10.5198 28.1724C12.434 28.1724 13.9653 29.7038 13.9653 31.618C13.9653 33.5322 12.434 35.0635 10.5198 35.0635C8.60558 35.0635 7.07422 33.5155 7.07422 31.618ZM12.95 26.4746H8.08958L7.42377 12.5093H13.5991L12.95 26.4746Z" fill="url(#paint0_linear_14258_49590)"/>
<path d="M35.6044 29.8865C34.0064 33.6151 31.1102 35.3295 26.8324 35.3295C21.4726 35.3295 17.3945 31.2182 17.3945 25.8584C17.3945 20.4654 21.4393 16.8367 25.7171 16.8367C27.2485 16.8367 28.4969 17.0864 29.5788 17.6357V15.7048H35.0052V22.8456H30.6108C29.8784 21.8968 28.5968 21.2144 27.3317 21.2144C24.6851 21.2144 22.7044 23.1952 22.7044 25.8751C22.7044 28.5882 24.6851 30.569 27.3317 30.569C29.0462 30.569 30.5442 29.5204 31.2766 27.8225L35.6044 29.8865Z" fill="url(#paint1_linear_14258_49590)"/>
<path d="M38.6172 15.7048H44.0435V26.5742L38.6172 27.2067V15.7048Z" fill="url(#paint2_linear_14258_49590)"/>
<path d="M58.1265 28.5884C60.074 29.6038 60.6732 31.9008 60.6732 34.8304H55.0638C55.0638 31.5513 54.3314 29.7703 50.6029 29.7703V25.559H54.3314C56.8781 25.559 58.6259 24.4771 58.6092 22.6628C58.5759 20.9816 56.9281 20.116 54.5977 20.116C52.3007 20.116 50.2866 20.7486 48.7386 21.8305L46.375 18.2018C48.1227 16.8702 51.1189 15.3389 54.7975 15.3389C60.7565 15.3389 64.0356 18.1186 64.0356 22.2799C64.0189 25.6755 61.6054 27.8561 58.1265 28.5884Z" fill="url(#paint3_linear_14258_49590)"/>
<path d="M78.7486 13.2414C75.0534 11.4271 72.4068 12.3093 72.4068 16.0711V34.8136H66.9805V15.0724C66.9805 7.4156 74.8869 5.80101 80.8459 9.36309L78.7486 13.2414Z" fill="url(#paint4_linear_14258_49590)"/>
<path d="M82.1099 15.7048V34.8302H76.6836V15.7048H82.1099Z" fill="url(#paint5_linear_14258_49590)"/>
<path d="M91.5982 15.7048V34.8302H86.1719V15.7048H91.5982Z" fill="url(#paint6_linear_14258_49590)"/>
<path d="M113.121 27.7228C113.121 32.0838 109.226 35.2797 103.95 35.2797C98.6733 35.2797 94.7617 32.0838 94.7617 27.7228C94.7617 25.2759 95.8104 22.8457 98.5568 20.8982C97.375 20.4821 96.2931 20.1326 95.0114 19.9162L96.2265 15.3887C98.8731 15.9047 101.453 16.7536 103.967 17.9687C106.48 16.7536 109.027 15.888 111.657 15.3887L112.872 19.9162C111.557 20.1326 110.441 20.4821 109.36 20.9648C112.106 22.9456 113.121 25.2593 113.121 27.7228ZM107.778 27.2733C107.778 25.4257 106.463 23.7945 103.95 22.5794C101.436 23.8278 100.121 25.4424 100.121 27.2733C100.121 29.2541 101.753 30.6523 103.95 30.6523C106.147 30.6523 107.778 29.2541 107.778 27.2733Z" fill="url(#paint7_linear_14258_49590)"/>
<path d="M133.378 29.8865C131.78 33.6151 128.884 35.3295 124.606 35.3295C119.246 35.3295 115.168 31.2182 115.168 25.8584C115.168 20.4654 119.213 16.8367 123.491 16.8367C125.022 16.8367 126.27 17.0864 127.352 17.6357V15.7048H132.779V22.8456H128.384C127.652 21.8968 126.37 21.2144 125.105 21.2144C122.459 21.2144 120.478 23.1952 120.478 25.8751C120.478 28.5882 122.459 30.569 125.105 30.569C126.82 30.569 128.318 29.5204 129.067 27.8225L133.378 29.8865Z" fill="url(#paint8_linear_14258_49590)"/>
<defs>
<linearGradient id="paint0_linear_14258_49590" x1="-7.84521" y1="27.0678" x2="156.757" y2="-4.74298" gradientUnits="userSpaceOnUse">
<stop offset="0.1541" stop-color="#0C4AD5"/>
<stop offset="0.5632" stop-color="#02E4FF"/>
<stop offset="0.6066" stop-color="#02E7F4"/>
<stop offset="0.8122" stop-color="#00F5C1"/>
<stop offset="0.9136" stop-color="#00FBAE"/>
</linearGradient>
<linearGradient id="paint1_linear_14258_49590" x1="-6.81092" y1="32.4176" x2="157.792" y2="0.606811" gradientUnits="userSpaceOnUse">
<stop offset="0.1541" stop-color="#0C4AD5"/>
<stop offset="0.5632" stop-color="#02E4FF"/>
<stop offset="0.6066" stop-color="#02E7F4"/>
<stop offset="0.8122" stop-color="#00F5C1"/>
<stop offset="0.9136" stop-color="#00FBAE"/>
</linearGradient>
<linearGradient id="paint2_linear_14258_49590" x1="-7.1794" y1="30.5114" x2="157.423" y2="-1.29938" gradientUnits="userSpaceOnUse">
<stop offset="0.1541" stop-color="#0C4AD5"/>
<stop offset="0.5632" stop-color="#02E4FF"/>
<stop offset="0.6066" stop-color="#02E7F4"/>
<stop offset="0.8122" stop-color="#00F5C1"/>
<stop offset="0.9136" stop-color="#00FBAE"/>
</linearGradient>
<linearGradient id="paint3_linear_14258_49590" x1="-5.87729" y1="37.2436" x2="158.725" y2="5.4328" gradientUnits="userSpaceOnUse">
<stop offset="0.1541" stop-color="#0C4AD5"/>
<stop offset="0.5632" stop-color="#02E4FF"/>
<stop offset="0.6066" stop-color="#02E7F4"/>
<stop offset="0.8122" stop-color="#00F5C1"/>
<stop offset="0.9136" stop-color="#00FBAE"/>
</linearGradient>
<linearGradient id="paint4_linear_14258_49590" x1="-6.0282" y1="36.4686" x2="158.574" y2="4.65783" gradientUnits="userSpaceOnUse">
<stop offset="0.1541" stop-color="#0C4AD5"/>
<stop offset="0.5632" stop-color="#02E4FF"/>
<stop offset="0.6066" stop-color="#02E7F4"/>
<stop offset="0.8122" stop-color="#00F5C1"/>
<stop offset="0.9136" stop-color="#00FBAE"/>
</linearGradient>
<linearGradient id="paint5_linear_14258_49590" x1="-5.04074" y1="41.5836" x2="159.562" y2="9.77278" gradientUnits="userSpaceOnUse">
<stop offset="0.1541" stop-color="#0C4AD5"/>
<stop offset="0.5632" stop-color="#02E4FF"/>
<stop offset="0.6066" stop-color="#02E7F4"/>
<stop offset="0.8122" stop-color="#00F5C1"/>
<stop offset="0.9136" stop-color="#00FBAE"/>
</linearGradient>
<linearGradient id="paint6_linear_14258_49590" x1="-4.69807" y1="43.3537" x2="159.904" y2="11.5429" gradientUnits="userSpaceOnUse">
<stop offset="0.1541" stop-color="#0C4AD5"/>
<stop offset="0.5632" stop-color="#02E4FF"/>
<stop offset="0.6066" stop-color="#02E7F4"/>
<stop offset="0.8122" stop-color="#00F5C1"/>
<stop offset="0.9136" stop-color="#00FBAE"/>
</linearGradient>
<linearGradient id="paint7_linear_14258_49590" x1="-4.26074" y1="45.6124" x2="160.342" y2="13.8016" gradientUnits="userSpaceOnUse">
<stop offset="0.1541" stop-color="#0C4AD5"/>
<stop offset="0.5632" stop-color="#02E4FF"/>
<stop offset="0.6066" stop-color="#02E7F4"/>
<stop offset="0.8122" stop-color="#00F5C1"/>
<stop offset="0.9136" stop-color="#00FBAE"/>
</linearGradient>
<linearGradient id="paint8_linear_14258_49590" x1="-3.29156" y1="50.6308" x2="161.311" y2="18.82" gradientUnits="userSpaceOnUse">
<stop offset="0.1541" stop-color="#0C4AD5"/>
<stop offset="0.5632" stop-color="#02E4FF"/>
<stop offset="0.6066" stop-color="#02E7F4"/>
<stop offset="0.8122" stop-color="#00F5C1"/>
<stop offset="0.9136" stop-color="#00FBAE"/>
</linearGradient>
</defs>
</svg>
