<svg width="130" height="73" viewBox="0 0 130 73" fill="none" xmlns="http://www.w3.org/2000/svg">
<path d="M129.116 47.446C129.116 43.2514 126.902 38.8904 122.691 36.2438C122.957 35.4948 123.123 34.7124 123.123 33.8802C123.123 32.5985 123.023 31.4333 122.84 30.3847C125.154 28.0044 126.469 24.8585 126.469 21.3297C126.469 14.3553 121.426 7.29778 110.14 7.29778C107.31 7.29778 104.864 7.88036 102.8 8.66268C101.751 8.04681 100.552 7.68062 99.2541 7.68062H93.8278C89.9161 7.68062 86.7535 10.8432 86.7535 14.7548V16.952C84.1902 11.1428 78.3311 7.26449 71.157 7.26449C68.7601 7.26449 66.4131 7.76384 64.2326 8.67933C63.1839 8.06346 61.9688 7.68062 60.6705 7.68062H55.2608C53.5464 7.68062 51.9817 8.31313 50.75 9.34514C48.2532 7.99688 45.3736 7.2312 42.2776 7.2312C38.4325 7.2312 34.9703 8.34643 32.1406 10.2606C31.8244 9.52823 31.4249 8.82914 30.8756 8.22991L27.4633 4.50138C26.1151 2.98667 24.2009 2.20435 22.27 2.20435C20.9384 2.20435 19.6068 2.57054 18.425 3.35286C11.201 8.03017 2.92831 14.7382 2.92831 25.0249C2.92831 27.8879 3.61077 30.5345 4.84251 32.8482C4.65941 33.0146 4.45967 33.1478 4.27657 33.3309C2.94496 34.7291 2.22921 36.6266 2.32909 38.5575C2.32909 38.5575 3.01154 52.6726 3.01154 52.7558C2.34573 54.1207 1.96289 55.6687 1.96289 57.3C1.96289 63.1091 6.69013 67.8197 12.4827 67.8197C12.9987 67.8197 13.5147 67.7698 14.014 67.7032C14.9961 70.433 17.5761 72.3805 20.6388 72.3805H26.0651C29.2444 72.3805 31.9409 70.2832 32.8397 67.387C37.8499 66.1219 41.6783 62.976 43.7424 58.6482V60.5291C43.7424 64.4408 46.9049 67.6033 50.8166 67.6033C50.8166 67.6033 56.193 67.6033 56.2429 67.6033C58.1404 67.6033 59.3722 66.9875 60.3876 68.8517C61.5694 71.0156 63.9996 72.3639 66.4464 72.3639H73.97C77.8484 72.3639 80.9777 69.2512 81.0442 65.3895C83.7574 67.1539 87.0698 68.1526 90.7151 68.1526C94.9929 68.1526 98.838 66.6712 101.768 64.2077C104.814 66.6213 108.792 68.0528 113.269 68.0528C118.662 68.0528 123.323 66.072 126.752 62.3435C128.949 59.9299 129.182 56.4178 127.518 53.7878C128.533 51.9236 129.116 49.7763 129.116 47.446Z" fill="#02E4FF"/>
<path d="M127.452 45.7815C127.452 41.5869 125.238 37.2258 121.026 34.5792C121.293 33.8302 121.459 33.0479 121.459 32.2156C121.459 30.9339 121.359 29.7688 121.176 28.7201C123.49 26.3399 124.805 23.1939 124.805 19.6651C124.805 12.6908 119.761 5.63323 108.476 5.63323C105.646 5.63323 103.199 6.21581 101.135 6.99813C100.087 6.38226 98.8884 6.01607 97.59 6.01607H92.1637C88.2521 6.01607 85.0895 9.17865 85.0895 13.0903V15.2874C82.5261 9.47827 76.667 5.59994 69.4929 5.59994C67.096 5.59994 64.7491 6.09929 62.5685 7.01478C61.5199 6.39891 60.3048 6.01607 59.0065 6.01607H53.5968C51.8823 6.01607 50.3177 6.64858 49.0859 7.68059C46.5891 6.33232 43.7095 5.56665 40.6135 5.56665C36.7685 5.56665 33.3063 6.68187 30.4766 8.59607C30.1603 7.86368 29.7608 7.16459 29.2115 6.56536L25.7993 2.83683C24.451 1.32212 22.5368 0.539795 20.606 0.539795C19.2744 0.539795 17.9427 0.905989 16.7609 1.68831C9.53692 6.36562 1.26425 13.0736 1.26425 23.3604C1.26425 26.2233 1.9467 28.8699 3.17845 31.1836C2.99535 31.3501 2.79561 31.4832 2.61251 31.6663C1.2809 33.0645 0.565151 34.9621 0.665023 36.8929C0.665023 36.8929 1.34748 51.008 1.34748 51.0913C0.681668 52.4562 0.298828 54.0042 0.298828 55.6354C0.298828 61.4446 5.02607 66.1552 10.8186 66.1552C11.3346 66.1552 11.8506 66.1052 12.35 66.0387C13.332 68.7685 15.912 70.716 18.9747 70.716H24.4011C27.5803 70.716 30.2768 68.6187 31.1757 65.7224C36.1859 64.4574 40.0143 61.3114 42.0783 56.9837V58.8646C42.0783 62.7762 45.2409 65.9388 49.1525 65.9388C49.1525 65.9388 54.5289 65.9388 54.5788 65.9388C56.4764 65.9388 57.7081 65.3229 58.7235 67.1872C59.9053 69.3511 62.3355 70.6993 64.7823 70.6993H72.306C76.1843 70.6993 79.3136 67.5867 79.3802 63.725C82.0934 65.4894 85.4057 66.4881 89.051 66.4881C93.3289 66.4881 97.1739 65.0067 100.103 62.5432C103.15 64.9567 107.128 66.3882 111.605 66.3882C116.998 66.3882 121.659 64.4074 125.088 60.6789C127.285 58.2654 127.518 54.7532 125.854 52.1233C126.869 50.259 127.452 48.1118 127.452 45.7815Z" fill="#0C4AD5"/>
<path d="M18.2418 32.7649C23.7513 32.7649 27.9293 28.8699 27.9293 23.6101C27.9293 20.0979 26.5311 18.217 23.5017 16.2196L20.2891 19.9481C21.8205 21.0966 22.5196 22.395 22.5196 23.6101C22.5196 26.1901 20.672 27.9711 18.2418 27.9711C15.6951 27.9711 13.7476 26.2566 13.7476 23.3437C13.7476 20.281 15.8116 16.7689 24.0177 11.3259L20.6054 7.61401C11.2342 13.7062 8.33789 18.5832 8.33789 23.3604C8.33789 28.9365 12.5991 32.7649 18.2418 32.7649Z" fill="white"/>
<path d="M40.6316 32.6652C46.6239 32.6652 50.935 28.3708 50.935 22.6615C50.935 16.9855 46.6239 12.6577 40.6316 12.6577C34.606 12.6577 30.2949 16.9855 30.2949 22.6615C30.3116 28.3708 34.606 32.6652 40.6316 32.6652ZM40.6316 17.6013C43.4113 17.6013 45.5086 19.6986 45.5086 22.6615C45.5086 25.6243 43.4113 27.7216 40.6316 27.7216C37.8186 27.7216 35.7213 25.6243 35.7213 22.6615C35.7213 19.6986 37.8186 17.6013 40.6316 17.6013Z" fill="white"/>
<path d="M59.021 13.1069H53.6113V24.6088L59.021 23.9763V13.1069Z" fill="white"/>
<path d="M69.045 17.568C71.8747 17.568 74.0219 19.6653 74.0219 22.4783C74.0219 25.4079 71.8913 27.605 68.8952 27.605H61.8542V32.2324H80.3471V27.605H77.5007C78.6825 26.2068 79.4482 24.3259 79.4482 22.0289C79.4482 16.6192 75.4034 12.6909 69.5277 12.6909C66.3651 12.6909 63.369 14.0225 61.2051 16.5193L64.6839 19.6486C65.8324 18.3004 67.2639 17.568 69.045 17.568Z" fill="white"/>
<path d="M97.6236 13.1069H92.1973V32.2323H97.6236V13.1069Z" fill="white"/>
<path d="M108.292 17.5013C110.622 17.5013 112.27 18.3668 112.304 20.048C112.337 21.8623 110.589 22.9443 108.026 22.9443H104.297V27.1555C108.026 27.1555 108.758 28.9366 108.758 32.2157H114.368C114.368 29.2861 113.768 26.9891 111.821 25.9737C115.3 25.2413 117.713 23.0774 117.713 19.6652C117.713 15.4872 114.434 12.7241 108.475 12.7241C104.813 12.7241 101.817 14.2555 100.053 15.5871L102.416 19.2158C103.998 18.1338 105.995 17.5013 108.292 17.5013Z" fill="white"/>
<path d="M13.2469 50.5088L13.9127 36.5435H7.7207L8.38651 50.5088H13.2469Z" fill="white"/>
<path d="M10.8186 59.0811C12.7215 59.0811 14.2642 57.5384 14.2642 55.6355C14.2642 53.7326 12.7215 52.1899 10.8186 52.1899C8.91568 52.1899 7.37305 53.7326 7.37305 55.6355C7.37305 57.5384 8.91568 59.0811 10.8186 59.0811Z" fill="white"/>
<path d="M18.9746 63.6419H24.4009V49.1938L18.9746 49.843V63.6419Z" fill="white"/>
<path d="M26.6647 39.3232C22.9694 39.3232 19.5239 40.9878 17.127 44.0671L21.0219 46.9634C22.3369 45.1824 24.0181 44.1836 26.1487 44.1836C29.0449 44.1836 31.2421 46.4474 31.2421 49.2438C31.2421 52.2066 29.2946 54.2207 26.2319 54.537L27.3138 59.1976C32.7402 58.7149 36.6518 55.1528 36.6518 49.2604C36.6518 43.368 32.4905 39.3232 26.6647 39.3232Z" fill="white"/>
<path d="M45.2576 39.3564C42.2948 39.3564 39.4318 40.4717 37.1348 42.2527L39.565 45.9147C40.8134 45.0158 42.7276 44.1003 44.6085 44.1003C47.8043 44.1003 49.1692 46.1477 49.1692 49.6765V58.848H54.5956V49.3103C54.5623 42.286 50.8005 39.3564 45.2576 39.3564Z" fill="white"/>
<path d="M72.2912 60.9619H64.7676V63.6085H72.2912V60.9619Z" fill="white"/>
<path d="M69.0099 44.2002C70.9573 44.2002 72.5719 45.099 73.3709 46.9466L77.7985 45.3154C76.6167 41.77 73.3709 39.4563 69.376 39.4563C66.8626 39.4563 64.7487 40.3551 63.2173 41.8865V39.7559H58.1738V58.8813H63.2173V56.784C64.7487 58.282 66.846 59.1809 69.376 59.1809C73.3543 59.1809 76.6167 56.8505 77.7985 53.3218L73.3709 51.6905C72.5719 53.5381 70.9407 54.437 69.0099 54.437C66.1469 54.437 63.9164 52.2065 63.9164 49.3435C63.8998 46.4306 66.1469 44.2002 69.0099 44.2002Z" fill="white"/>
<path d="M94.2946 42.852L91.0821 46.5805C92.6135 47.729 93.3126 49.0273 93.3126 50.2424C93.3126 52.8224 91.465 54.6035 89.0348 54.6035C86.488 54.6035 84.5405 52.889 84.5405 49.9761C84.5405 46.9134 86.6046 43.4012 94.8106 37.9583L91.3984 34.2297C82.0271 40.3219 79.1309 45.1989 79.1309 49.9761C79.1309 55.5522 83.4087 59.3806 89.0514 59.3806C94.561 59.3806 98.7389 55.4857 98.7389 50.2258C98.7223 46.7469 97.3241 44.866 94.2946 42.852Z" fill="white"/>
<path d="M111.803 54.6866C109.257 54.6866 107.343 53.7045 106.577 51.7903C112.669 53.8377 120.376 51.5739 120.376 45.798C120.376 42.5189 117.446 39.2065 111.77 39.2065C105.911 39.2065 101.084 43.3845 101.084 49.8595C101.084 55.4689 105.512 59.3306 111.57 59.3306C115.083 59.3306 117.779 58.1488 119.826 55.9183L116.614 52.9222C115.532 53.8543 113.518 54.6866 111.803 54.6866ZM111.803 43.9005C113.967 43.9005 115.149 44.8326 115.116 45.8813C115.016 48.3947 110.206 48.8774 106.477 47.8621C107.11 45.4318 108.99 43.9005 111.803 43.9005Z" fill="white"/>
</svg>
